<svg width="47" height="47" viewBox="0 0 47 47" fill="none" xmlns="http://www.w3.org/2000/svg">
<path d="M46.4257 22.1153L38.2479 13.9375C30.1171 5.8047 16.8829 5.8047 8.75207 13.9375L0.574246 22.1153C-0.191415 22.8809 -0.191415 24.1186 0.574246 24.8843L8.75207 33.0621C12.8175 37.1275 18.1577 39.1621 23.4999 39.1621C28.8421 39.1621 34.1824 37.1275 38.2478 33.0621L46.4256 24.8843C47.1914 24.1186 47.1914 22.8809 46.4257 22.1153ZM23.4999 33.2912C18.1009 33.2912 13.7084 28.8987 13.7084 23.4997C13.7084 18.1007 18.1009 13.7082 23.4999 13.7082C28.8989 13.7082 33.2914 18.1007 33.2914 23.4997C33.2914 28.8987 28.8989 33.2912 23.4999 33.2912Z" fill="#4866CF"/>
<path d="M23.4999 17.625C20.2609 17.625 17.625 20.2609 17.625 23.4999C17.625 26.7389 20.2609 29.3747 23.4999 29.3747C26.7389 29.3747 29.3747 26.7389 29.3747 23.4999C29.3747 20.2609 26.7389 17.625 23.4999 17.625Z" fill="#4866CF"/>
</svg>
