<svg width="43" height="43" viewBox="0 0 43 43" fill="none" xmlns="http://www.w3.org/2000/svg">
<g clip-path="url(#clip0_1895_328)">
<path d="M33.9835 26.6369C33.1032 25.7203 32.0414 25.2302 30.916 25.2302C29.7998 25.2302 28.7288 25.7112 27.8122 26.6279L24.9444 29.4866C24.7084 29.3596 24.4725 29.2416 24.2456 29.1236C23.9189 28.9603 23.6103 28.806 23.3471 28.6426C20.6608 26.9364 18.2195 24.7129 15.878 21.836C14.7436 20.4021 13.9813 19.1951 13.4276 17.9699C14.1718 17.2892 14.8616 16.5813 15.5332 15.9007C15.7873 15.6466 16.0414 15.3834 16.2955 15.1293C18.2013 13.2234 18.2013 10.7549 16.2955 8.84907L13.8179 6.37147C13.5366 6.09013 13.2461 5.79972 12.9739 5.50931C12.4293 4.94663 11.8576 4.3658 11.2677 3.82127C10.3874 2.95003 9.33462 2.48718 8.22742 2.48718C7.12021 2.48718 6.04931 2.95003 5.14177 3.82127C5.13269 3.83035 5.13269 3.83035 5.12362 3.83942L2.03797 6.9523C0.876309 8.11396 0.213801 9.52973 0.0685941 11.1724C-0.149217 13.8224 0.631272 16.2909 1.23025 17.9064C2.70047 21.8723 4.89673 25.5479 8.17297 29.4866C12.148 34.2331 16.9308 37.9812 22.3942 40.6222C24.4815 41.6114 27.2677 42.7822 30.3806 42.9818C30.5712 42.9909 30.7708 43 30.9523 43C33.0488 43 34.8094 42.2467 36.1889 40.7493C36.1979 40.7311 36.2161 40.722 36.2252 40.7039C36.6971 40.1321 37.2416 39.6148 37.8134 39.0612C38.2036 38.6891 38.6029 38.2989 38.9932 37.8905C39.8916 36.9557 40.3636 35.8667 40.3636 34.7504C40.3636 33.625 39.8826 32.5451 38.966 31.6375L33.9835 26.6369ZM37.2325 36.1934C37.2235 36.1934 37.2235 36.2025 37.2325 36.1934C36.8786 36.5746 36.5156 36.9194 36.1253 37.3006C35.5354 37.8633 34.9365 38.4532 34.3738 39.1157C33.4572 40.0958 32.3772 40.5587 30.9614 40.5587C30.8253 40.5587 30.6801 40.5587 30.5439 40.5496C27.8485 40.3772 25.3437 39.3244 23.4651 38.4259C18.3284 35.9393 13.8179 32.4089 10.0697 27.9347C6.97501 24.2047 4.90581 20.7561 3.53541 17.0533C2.6914 14.7935 2.38283 13.0328 2.51896 11.372C2.60972 10.3102 3.01811 9.4299 3.77138 8.67664L6.8661 5.58191C7.3108 5.16444 7.78272 4.93755 8.24557 4.93755C8.81732 4.93755 9.28017 5.28242 9.57059 5.57283C9.57966 5.58191 9.58874 5.59098 9.59781 5.60006C10.1514 6.11736 10.6778 6.65281 11.2314 7.22457C11.5127 7.51498 11.8031 7.80539 12.0936 8.10488L14.5712 10.5825C15.5332 11.5445 15.5332 12.4339 14.5712 13.3959C14.308 13.6591 14.0539 13.9222 13.7907 14.1764C13.0283 14.9568 12.3023 15.6829 11.5127 16.3908C11.4946 16.4089 11.4764 16.418 11.4674 16.4361C10.6869 17.2166 10.8321 17.979 10.9954 18.4963C11.0045 18.5235 11.0136 18.5507 11.0227 18.5779C11.667 20.1389 12.5746 21.6091 13.954 23.3607L13.9631 23.3698C16.4679 26.4554 19.1089 28.8604 22.0221 30.7027C22.3942 30.9387 22.7754 31.1293 23.1384 31.3108C23.4651 31.4742 23.7737 31.6284 24.0368 31.7918C24.0731 31.8099 24.1094 31.8372 24.1458 31.8553C24.4543 32.0096 24.7447 32.0822 25.0442 32.0822C25.7975 32.0822 26.2694 31.6103 26.4237 31.456L29.5275 28.3522C29.8361 28.0436 30.3261 27.6715 30.8979 27.6715C31.4606 27.6715 31.9234 28.0255 32.2047 28.334C32.2138 28.3431 32.2138 28.3431 32.2229 28.3522L37.2235 33.3528C38.1582 34.2785 38.1582 35.2314 37.2325 36.1934Z" fill="#4866CE"/>
<path d="M23.239 10.2286C25.6167 10.6279 27.7767 11.7532 29.501 13.4776C31.2253 15.2019 32.3416 17.3619 32.75 19.7396C32.8498 20.3386 33.3671 20.7561 33.9571 20.7561C34.0297 20.7561 34.0932 20.747 34.1658 20.7379C34.8374 20.629 35.2821 19.9937 35.1732 19.3222C34.6831 16.4452 33.3218 13.8224 31.2435 11.7442C29.1652 9.66589 26.5424 8.30457 23.6655 7.8145C22.9939 7.70559 22.3677 8.15029 22.2497 8.8128C22.1317 9.4753 22.5674 10.1197 23.239 10.2286Z" fill="#4866CE"/>
<path d="M42.9507 18.9682C42.143 14.2308 39.9105 9.91999 36.4799 6.48947C33.0494 3.05895 28.7386 0.826393 24.0012 0.0186786C23.3387 -0.0993022 22.7125 0.35447 22.5945 1.01698C22.4856 1.68856 22.9303 2.31477 23.6019 2.43275C27.8311 3.14971 31.6881 5.15538 34.7556 8.2138C37.8231 11.2813 39.8197 15.1384 40.5367 19.3675C40.6365 19.9665 41.1538 20.384 41.7437 20.384C41.8163 20.384 41.8798 20.3749 41.9524 20.3658C42.615 20.266 43.0687 19.6307 42.9507 18.9682Z" fill="#4866CE"/>
</g>
<defs>
<clipPath id="clip0_1895_328">
<rect width="43" height="43" fill="white"/>
</clipPath>
</defs>
</svg>
