<svg width="47" height="32" viewBox="0 0 47 32" fill="none" xmlns="http://www.w3.org/2000/svg">
<path d="M6.77778 16.0005C6.77778 12.9527 4.78351 10.3597 2 9.39877V5.73333C2 4.42655 2 3.77315 2.26036 3.27402C2.48941 2.83498 2.85486 2.47803 3.30436 2.25431C3.81536 2 4.48432 2 5.82222 2H41.1778C42.5158 2 43.1847 2 43.6957 2.25431C44.1453 2.47803 44.5105 2.83498 44.7396 3.27402C45 3.77315 45 4.42655 45 5.73333V9.39832C42.2165 10.3593 40.2222 12.9527 40.2222 16.0005C40.2222 19.0483 42.2165 21.6408 45 22.6017V26.2667C45 27.5736 45 28.2269 44.7396 28.726C44.5105 29.1651 44.1453 29.5219 43.6957 29.7457C43.1847 30 42.5158 30 41.1778 30H5.82222C4.48432 30 3.81536 30 3.30436 29.7457C2.85486 29.5219 2.48941 29.1651 2.26036 28.726C2 28.2269 2 27.5736 2 26.2667V22.6022C4.78351 21.6413 6.77778 19.0483 6.77778 16.0005Z" stroke="#4866CE" stroke-width="3" stroke-linecap="round" stroke-linejoin="round"/>
</svg>
