<svg width="18" height="11" viewBox="0 0 18 11" fill="none" xmlns="http://www.w3.org/2000/svg">
<path d="M15.9715 0C16.1367 0 16.2934 0.0347416 16.4378 0.0919105L9.12194 6.31759C8.8018 6.59039 8.4447 6.59054 8.12366 6.31759L0.801449 0.085531C0.943642 0.0302655 1.09888 0.000218165 1.26115 0.000218165L15.9715 0ZM17.2192 1.07698C17.2277 1.13649 17.2324 1.19879 17.2324 1.2608V9.66678C17.2324 10.3653 16.6701 10.9278 15.9714 10.9278L1.26098 10.9278C0.562498 10.9278 1.14441e-05 10.3655 1.14441e-05 9.66678V1.2608C1.14441e-05 1.19879 0.00455666 1.13649 0.0132046 1.07698L7.30276 7.27639C8.05844 7.91903 9.18717 7.92005 9.94284 7.27639L17.2192 1.07698Z" fill="#68707A"/>
</svg>
