<svg width="17" height="15" viewBox="0 0 17 15" fill="none" xmlns="http://www.w3.org/2000/svg">
<path fill-rule="evenodd" clip-rule="evenodd" d="M0.442327 11.9305L4.48724 8.99463C4.74413 8.80728 5.00084 8.86967 5.19341 9.05702L5.51444 9.36951L6.54163 10.3688C6.86266 10.6812 7.37626 10.6812 7.76163 10.3688L11.5499 7.05832C11.7424 6.93336 11.8068 6.68362 11.8068 6.43369C11.8068 6.18377 11.7426 5.99641 11.5499 5.80906L10.4583 4.74714C10.2657 4.55978 10.2657 4.24747 10.3942 4.06013L13.155 0.187355C13.2191 0.124963 13.3476 0 13.5401 0C13.6686 0 13.8612 1.80837e-07 13.9896 0.124963L15.5948 1.37423C16.2368 1.87389 16.3653 2.68587 16.1084 3.43548C13.9896 8.93225 9.43097 13.0548 3.65246 14.9287C3.01041 15.1161 2.23989 14.9287 1.79041 14.4291C1.46938 14.0544 0.698867 13.1174 0.57041 12.9925C0.506278 12.9301 0.441961 12.8051 0.377829 12.7425C0.249381 12.6176 0.249382 12.4926 0.249382 12.3053C0.185429 12.1179 0.31387 11.9929 0.442318 11.9304L0.442327 11.9305Z" fill="#68707A"/>
</svg>
