<svg width="1110" height="415" viewBox="0 0 1110 415" fill="none" xmlns="http://www.w3.org/2000/svg">
<rect width="1110" height="413.364" rx="10" fill="#D0DBEC"/>
<path d="M1070 64.5017L1050.76 85.2633V64.5017H1031L1050.76 43.1714H1070V64.5017Z" fill="#B1BED0"/>
<path d="M1071 21.8773L1051.27 43.1712V21.8773H1031L1051.27 0H1071V21.8773Z" fill="#B1BED0"/>
<path d="M1110 64.5017L1090.76 85.2633V64.5017H1071L1090.76 43.1714H1110V64.5017Z" fill="#B1BED0"/>
<path d="M1110 21.8773L1090.76 43.1712V21.8773H1071L1090.76 0H1110V21.8773Z" fill="#B1BED0"/>
<path d="M98.0593 387.51L74.1043 413.364V387.51H49.4929L74.1043 360.947H98.0593V387.51Z" fill="#B1BED0"/>
<path d="M49.4336 334.632L25.0508 360.947V334.632H0L25.0508 307.595H49.4336V334.632Z" fill="#B1BED0"/>
<path d="M98.9265 334.157L74.9714 360.011V334.157H50.3601L74.9714 307.595H98.9265V334.157Z" fill="#B1BED0"/>
<path d="M48.5664 387.984L24.6113 414.3V387.984H0L24.6113 360.947H48.5664V387.984Z" fill="#B1BED0"/>
<path d="M307.83 129.592H303.59V126.272H307.83V129.592ZM318.07 137.392C318.07 139.112 319.19 140.232 321.19 140.232H321.95C322.11 140.232 322.35 140.392 322.35 141.992C322.35 143.552 322.11 143.672 321.95 143.672H321.31C319.91 143.672 318.63 143.192 318.07 142.512V142.992C317.95 149.152 313.55 153.432 307.19 153.432H305.43C298.67 153.432 294.95 149.312 294.95 142.352V134.792H298.27V142.272C298.27 147.312 300.75 149.992 305.51 149.992H307.19C311.75 149.992 314.75 147.152 314.75 142.592V130.792H318.07V137.392ZM340.545 140.232C340.705 140.232 340.945 140.392 340.945 141.952C340.945 143.552 340.705 143.672 340.545 143.672H339.305C336.945 143.672 335.265 142.912 334.505 141.312C333.545 142.912 331.785 143.672 329.505 143.672H321.945C321.785 143.672 321.545 143.552 321.545 141.992C321.545 140.392 321.785 140.232 321.945 140.232H329.505C331.545 140.232 332.905 139.112 332.905 137.272V130.792H336.225V137.192C336.225 139.192 337.345 140.232 339.425 140.232H340.545ZM332.025 148.712V151.912H321.465V148.712H332.025ZM351.259 137.312C351.259 141.312 348.619 143.672 344.699 143.672H340.539C340.379 143.672 340.139 143.552 340.139 141.992C340.139 140.392 340.379 140.232 340.539 140.232H344.699C346.579 140.232 347.939 139.192 347.939 137.272V130.792H351.259V137.312ZM345.859 152.072H341.619V148.712H345.859V152.072ZM375.816 127.432V124.272H386.376V127.432H375.816ZM399.416 140.232C399.576 140.232 399.816 140.392 399.816 141.992C399.816 143.552 399.576 143.672 399.416 143.672H398.216C395.856 143.672 394.176 142.912 393.416 141.312C392.456 142.912 390.696 143.672 388.376 143.672H374.256C369.456 143.672 367.176 140.912 367.176 136.752V130.792H370.496V136.312C370.496 138.712 371.656 140.232 374.456 140.232H388.376C390.456 140.232 391.776 139.112 391.776 137.312V130.792H395.096V137.192C395.096 139.192 396.216 140.232 398.336 140.232H399.416ZM410.486 140.232C412.806 140.232 414.166 139.232 414.166 137.712C414.166 136.632 413.686 135.672 412.526 134.472L403.126 125.152V122.272L417.726 116.472L418.726 119.672L407.046 124.272L415.046 132.312C416.806 134.072 417.486 135.952 417.486 137.752C417.486 141.192 415.046 143.672 410.486 143.672H399.406C399.246 143.672 399.006 143.552 399.006 141.992C399.006 140.392 399.246 140.232 399.406 140.232H410.486ZM430.262 137.152C430.262 139.112 431.422 140.232 433.622 140.232H434.142C434.302 140.232 434.542 140.432 434.542 141.992C434.542 143.552 434.302 143.672 434.142 143.672H433.622C432.182 143.672 430.822 143.112 430.262 142.312V142.792C430.142 149.272 425.982 153.432 419.782 153.432H416.982L416.662 149.992H419.702C424.222 149.992 426.942 147.232 426.942 142.512V130.792H430.262V137.152ZM455.013 117.352V120.512H451.373V117.352H455.013ZM447.893 125.992V122.832H458.453V125.992H447.893ZM461.773 130.792H465.093V136.992C465.093 141.192 462.453 143.672 458.333 143.672C455.573 143.672 453.893 142.792 453.133 141.192C452.173 142.792 450.413 143.672 447.893 143.672C444.933 143.672 443.253 142.792 442.493 141.192C441.533 142.792 439.773 143.672 437.253 143.672H434.133C433.973 143.672 433.733 143.552 433.733 141.992C433.733 140.392 433.973 140.232 434.133 140.232H437.253C439.653 140.232 440.973 138.992 440.973 137.072V130.792H444.333V137.072C444.333 139.072 445.453 140.232 447.893 140.232C450.293 140.232 451.613 138.992 451.613 137.072V130.792H454.933V137.072C454.933 139.072 456.093 140.232 458.333 140.232C460.573 140.232 461.773 139.072 461.773 137.072V130.792ZM496.243 136.232C496.243 139.112 497.283 140.232 499.163 140.232H500.123C500.323 140.232 500.523 140.392 500.523 141.992C500.523 143.552 500.323 143.672 500.123 143.672H499.163C496.363 143.672 494.443 142.552 493.803 139.872C492.603 141.152 490.283 141.712 488.083 141.712C483.603 141.712 481.083 139.272 481.083 134.472C481.083 129.992 484.203 126.312 488.883 126.312H492.923V123.552H496.243V136.232ZM484.403 134.392C484.403 136.952 485.643 138.272 488.283 138.272C491.123 138.272 492.923 137.152 492.923 135.392V129.672H488.883C486.123 129.672 484.403 131.352 484.403 134.392ZM501.029 140.232C502.949 140.232 503.869 139.392 503.869 137.672V136.032C503.869 130.912 506.749 127.792 511.509 127.792C516.269 127.792 518.909 130.632 518.909 135.872C518.909 140.832 516.069 143.672 511.389 143.672C508.589 143.672 506.709 142.792 505.789 141.192C504.909 142.912 503.509 143.672 501.029 143.672H500.109C499.949 143.672 499.709 143.552 499.709 141.992C499.709 140.392 499.949 140.232 500.109 140.232H501.029ZM515.589 135.872C515.589 132.752 514.229 131.152 511.389 131.152C508.549 131.152 507.189 132.752 507.189 136.032C507.189 138.632 508.709 140.232 511.389 140.232C514.149 140.232 515.589 138.832 515.589 135.872ZM532.941 140.232C533.141 140.232 533.341 140.392 533.341 141.992C533.341 143.552 533.141 143.672 532.941 143.672H531.901C527.781 143.672 525.701 141.072 525.701 136.672V117.792H529.021V136.512C529.021 138.992 530.021 140.232 532.061 140.232H532.941ZM541.841 125.992H537.601V122.672H541.841V125.992ZM543.681 137.312C543.681 141.312 541.041 143.672 537.121 143.672H532.961C532.801 143.672 532.561 143.552 532.561 141.992C532.561 140.392 532.801 140.232 532.961 140.232H537.121C539.001 140.232 540.361 139.192 540.361 137.272V130.792H543.681V137.312ZM555.809 137.152C555.809 139.112 556.969 140.232 559.169 140.232H559.689C559.849 140.232 560.089 140.432 560.089 141.992C560.089 143.552 559.849 143.672 559.689 143.672H559.169C557.729 143.672 556.369 143.112 555.809 142.312V142.792C555.689 149.272 551.529 153.432 545.329 153.432H542.529L542.209 149.992H545.249C549.769 149.992 552.489 147.232 552.489 142.512V130.792H555.809V137.152ZM564.479 140.232C566.519 140.232 567.879 139.112 567.879 137.272V130.792H571.199V137.192C571.199 139.192 572.319 140.232 574.399 140.232H575.519C575.679 140.232 575.919 140.392 575.919 141.952C575.919 143.552 575.679 143.672 575.519 143.672H574.279C571.919 143.672 570.239 142.912 569.479 141.312C568.519 142.912 566.759 143.672 564.479 143.672H559.679C559.519 143.672 559.279 143.552 559.279 141.992C559.279 140.392 559.519 140.232 559.679 140.232H564.479ZM565.959 152.072H561.719V148.712H565.959V152.072ZM588.419 122.512H584.179V119.192H588.419V122.512ZM578.339 140.232C582.379 140.232 584.659 139.672 587.459 138.072L593.539 134.512C592.699 131.592 591.379 130.672 588.499 130.672H579.139L579.579 127.192H589.059C593.819 127.192 595.899 129.312 597.419 135.632L589.019 140.832C585.619 142.952 582.939 143.672 578.219 143.672H575.539C575.379 143.672 575.139 143.552 575.139 141.992C575.139 140.392 575.379 140.232 575.539 140.232H578.339ZM620.457 142.512C620.457 149.272 616.177 153.432 609.977 153.432H608.857L608.537 149.992H609.897C614.417 149.992 617.137 147.232 617.137 142.512V130.792H620.457V142.512ZM632.024 125.872L634.384 123.512L642.064 132.352C643.864 134.392 644.464 136.072 644.464 137.752C644.464 141.192 642.024 143.672 637.464 143.672H626.064L625.744 140.232H637.464C639.824 140.232 641.144 139.232 641.144 137.712C641.144 136.752 640.664 135.832 639.504 134.472L632.024 125.872ZM669.019 127.432V124.272H679.579V127.432H669.019ZM692.619 140.232C692.779 140.232 693.019 140.392 693.019 141.992C693.019 143.552 692.779 143.672 692.619 143.672H691.419C689.059 143.672 687.379 142.912 686.619 141.312C685.659 142.912 683.899 143.672 681.579 143.672H667.459C662.659 143.672 660.379 140.912 660.379 136.752V130.792H663.699V136.312C663.699 138.712 664.859 140.232 667.659 140.232H681.579C683.659 140.232 684.979 139.112 684.979 137.312V130.792H688.299V137.192C688.299 139.192 689.419 140.232 691.539 140.232H692.619ZM700.009 130.792H703.329V137.312C703.329 141.312 700.689 143.672 696.769 143.672H692.609C692.449 143.672 692.209 143.552 692.209 141.992C692.209 140.392 692.449 140.232 692.609 140.232H696.769C698.649 140.232 700.009 139.192 700.009 137.272V130.792ZM701.089 148.712V151.912H690.529V148.712H701.089ZM728.715 140.232C728.915 140.232 729.115 140.392 729.115 141.992C729.115 143.552 728.915 143.672 728.715 143.672H724.875C724.395 149.792 720.475 153.432 714.555 153.432H709.635L709.315 149.992H714.595C718.875 149.992 721.595 147.552 721.635 143.672H717.635C712.075 143.672 709.875 141.432 709.875 136.672C709.875 131.632 712.995 128.192 717.475 128.192C722.115 128.192 724.955 131.512 724.955 136.872V140.232H728.715ZM713.195 136.472C713.195 139.192 714.355 140.232 717.835 140.232H721.635V137.112C721.635 133.432 720.115 131.552 717.275 131.552C714.795 131.552 713.195 133.552 713.195 136.472ZM754.423 122.952H750.183V119.632H754.423V122.952ZM730.303 140.232C732.703 140.232 734.023 138.992 734.023 137.072V130.792H737.343V136.952C737.343 138.592 737.943 139.392 739.063 139.792C744.103 130.792 748.063 127.232 752.503 127.232C756.863 127.232 760.063 130.632 760.063 135.472C760.063 136.952 759.743 138.232 759.103 139.352C759.863 140.032 760.983 140.232 762.743 140.232H763.663C763.823 140.232 764.063 140.392 764.063 141.992C764.063 143.552 763.823 143.672 763.663 143.672H762.743C760.063 143.672 758.583 143.272 757.263 141.872C755.863 143.032 753.903 143.672 751.663 143.672H740.983C738.103 143.672 736.383 142.872 735.543 141.312C734.583 142.912 732.823 143.672 730.303 143.672H728.703C728.543 143.672 728.303 143.552 728.303 141.992C728.303 140.392 728.543 140.232 728.703 140.232H730.303ZM751.663 140.232C754.903 140.232 756.743 138.392 756.743 135.472C756.743 132.552 754.823 130.552 752.263 130.552C749.223 130.552 746.223 133.632 742.343 140.232H751.663ZM768.664 140.232C767.464 139.072 767.024 137.552 767.024 135.952C767.024 131.432 770.144 128.072 774.824 128.072C776.744 128.072 778.544 128.512 780.664 129.832L779.504 132.552C777.664 131.712 776.184 131.432 774.824 131.432C772.264 131.432 770.344 133.312 770.344 135.752C770.344 138.352 771.984 140.232 774.584 140.232H781.744L781.424 143.672H763.664C763.504 143.672 763.264 143.552 763.264 141.992C763.264 140.392 763.504 140.232 763.664 140.232H768.664ZM805.324 140.232C805.524 140.232 805.724 140.392 805.724 141.992C805.724 143.552 805.524 143.672 805.324 143.672H804.284C800.164 143.672 798.084 141.072 798.084 136.672V117.792H801.404V136.512C801.404 138.992 802.404 140.232 804.444 140.232H805.324ZM816.064 137.312C816.064 141.312 813.424 143.672 809.504 143.672H805.344C805.184 143.672 804.944 143.552 804.944 141.992C804.944 140.392 805.184 140.232 805.344 140.232H809.504C811.384 140.232 812.744 139.192 812.744 137.272V130.792H816.064V137.312ZM810.664 152.072H806.424V148.712H810.664V152.072ZM368.957 175.992H364.717V172.672H368.957V175.992ZM368.797 192.512C368.797 199.272 364.517 203.432 358.317 203.432H357.197L356.877 199.992H358.237C362.757 199.992 365.477 197.232 365.477 192.512V180.792H368.797V192.512ZM375.604 193.672V167.792H378.924V193.672H375.604ZM408.162 179.592H403.922V176.272H408.162V179.592ZM405.762 203.432C399.002 203.432 395.282 199.312 395.282 192.352V184.792H398.602V192.272C398.602 197.312 401.082 199.992 405.842 199.992H407.522C412.082 199.992 415.082 197.152 415.082 192.592V180.792H418.402V192.272C418.402 199.272 413.882 203.432 407.522 203.432H405.762ZM432.453 190.232C432.653 190.232 432.853 190.392 432.853 191.992C432.853 193.552 432.653 193.672 432.453 193.672H431.413C427.293 193.672 425.213 191.072 425.213 186.672V167.792H428.533V186.512C428.533 188.992 429.533 190.232 431.573 190.232H432.453ZM433.392 190.232C435.312 190.232 436.232 189.392 436.232 187.672V186.032C436.232 180.912 439.112 177.792 443.872 177.792C448.632 177.792 451.272 180.632 451.272 185.872C451.272 190.832 448.432 193.672 443.752 193.672C440.952 193.672 439.072 192.792 438.152 191.192C437.272 192.912 435.872 193.672 433.392 193.672H432.472C432.312 193.672 432.072 193.552 432.072 191.992C432.072 190.392 432.312 190.232 432.472 190.232H433.392ZM447.952 185.872C447.952 182.752 446.592 181.152 443.752 181.152C440.912 181.152 439.552 182.752 439.552 186.032C439.552 188.632 441.072 190.232 443.752 190.232C446.512 190.232 447.952 188.832 447.952 185.872ZM463.566 175.992H459.326V172.672H463.566V175.992ZM463.406 192.512C463.406 199.272 459.126 203.432 452.926 203.432H450.126L449.806 199.992H452.846C457.366 199.992 460.086 197.232 460.086 192.512V180.792H463.406V192.512ZM513.104 187.072C513.104 189.072 514.224 190.232 516.464 190.232C518.704 190.232 519.944 189.072 519.944 187.072V180.792H523.264V186.992C523.264 191.192 520.624 193.672 516.464 193.672C513.704 193.672 512.024 192.792 511.304 191.192C510.304 192.792 508.544 193.672 506.024 193.672C504.184 193.672 503.024 193.192 502.464 192.512V192.992C502.344 199.152 497.944 203.432 491.584 203.432H489.824C483.064 203.432 479.344 199.312 479.344 192.352V184.792H482.664V192.272C482.664 197.312 485.144 199.992 489.904 199.992H491.584C496.144 199.992 499.144 197.152 499.144 192.592V180.792H502.464V187.152C502.464 188.992 503.584 190.232 506.024 190.232C508.464 190.232 509.784 188.992 509.784 187.072V180.792H513.104V187.072ZM544.897 192.392C544.897 199.232 540.817 203.432 534.497 203.432H529.577L529.257 199.992H534.537C538.817 199.992 541.537 197.552 541.577 193.672H537.577C532.017 193.672 529.817 191.432 529.817 186.672C529.817 181.632 532.937 178.192 537.417 178.192C542.057 178.192 544.897 181.512 544.897 186.872V192.392ZM533.137 186.472C533.137 189.192 534.297 190.232 537.777 190.232H541.577V187.112C541.577 183.432 540.057 181.552 537.217 181.552C534.737 181.552 533.137 183.552 533.137 186.472ZM566.537 192.392C566.537 199.232 562.457 203.432 556.137 203.432H551.217L550.897 199.992H556.177C560.457 199.992 563.177 197.552 563.217 193.672H559.217C553.657 193.672 551.457 191.432 551.457 186.672C551.457 181.632 554.577 178.192 559.057 178.192C563.697 178.192 566.537 181.512 566.537 186.872V192.392ZM554.777 186.472C554.777 189.192 555.937 190.232 559.417 190.232H563.217V187.112C563.217 183.432 561.697 181.552 558.857 181.552C556.377 181.552 554.777 183.552 554.777 186.472ZM580.578 190.232C580.778 190.232 580.978 190.392 580.978 191.992C580.978 193.552 580.778 193.672 580.578 193.672H579.538C575.418 193.672 573.338 191.072 573.338 186.672V167.792H576.658V186.512C576.658 188.992 577.658 190.232 579.698 190.232H580.578ZM591.677 190.232C593.997 190.232 595.357 189.232 595.357 187.712C595.357 186.632 594.877 185.672 593.717 184.472L584.317 175.152V172.272L598.917 166.472L599.917 169.672L588.237 174.272L596.157 182.232C603.517 189.632 604.517 190.232 606.957 190.232C607.117 190.232 607.357 190.392 607.357 191.992C607.357 193.552 607.117 193.672 606.957 193.672C603.717 193.672 602.397 193.072 598.237 188.912C598.037 191.632 595.677 193.672 591.677 193.672H580.597C580.437 193.672 580.197 193.552 580.197 191.992C580.197 190.392 580.437 190.232 580.597 190.232H591.677ZM622.805 190.232C622.965 190.232 623.205 190.392 623.205 191.952C623.205 193.552 622.965 193.672 622.805 193.672H621.565C619.205 193.672 617.525 192.912 616.765 191.312C615.805 192.912 614.045 193.672 611.765 193.672H606.965C606.805 193.672 606.565 193.552 606.565 191.992C606.565 190.392 606.805 190.232 606.965 190.232H611.765C613.805 190.232 615.165 189.112 615.165 187.272V180.792H618.485V187.192C618.485 189.192 619.605 190.232 621.685 190.232H622.805ZM615.205 198.712V201.912H604.645V198.712H615.205ZM633.904 190.232C636.224 190.232 637.584 189.232 637.584 187.712C637.584 186.632 637.104 185.672 635.944 184.472L626.544 175.152V172.272L641.144 166.472L642.144 169.672L630.464 174.272L638.464 182.312C640.224 184.072 640.904 185.952 640.904 187.752C640.904 191.192 638.464 193.672 633.904 193.672H622.824C622.664 193.672 622.424 193.552 622.424 191.992C622.424 190.392 622.664 190.232 622.824 190.232H633.904ZM668.869 193.552L669.229 190.232H685.429C685.589 190.232 685.829 190.392 685.829 191.992C685.829 193.552 685.589 193.672 685.429 193.672H681.269C681.669 194.072 681.869 194.792 681.869 195.552C681.869 200.192 677.629 203.432 671.029 203.432H667.949C661.189 203.432 657.469 199.312 657.469 192.352V184.792H660.789V192.272C660.789 197.312 663.269 199.992 668.029 199.992H671.029C675.989 199.992 678.549 198.312 678.549 195.632C678.549 194.192 677.869 193.552 676.309 193.552H668.869ZM686.681 190.232C688.561 190.232 689.881 189.112 689.881 187.272V167.792H693.241V187.072C693.241 189.352 694.601 190.232 696.321 190.232H697.321C697.481 190.232 697.721 190.392 697.721 191.952C697.721 193.552 697.481 193.672 697.321 193.672H696.201C693.881 193.672 692.201 192.832 691.561 191.272C690.641 192.832 688.961 193.672 686.681 193.672H685.441C685.281 193.672 685.041 193.552 685.041 191.992C685.041 190.392 685.281 190.232 685.441 190.232H686.681ZM698.556 190.232C700.436 190.232 701.756 189.112 701.756 187.272V167.792H705.116V187.072C705.116 189.352 706.476 190.232 708.196 190.232H709.196C709.356 190.232 709.596 190.392 709.596 191.952C709.596 193.552 709.356 193.672 709.196 193.672H708.076C705.756 193.672 704.076 192.832 703.436 191.272C702.516 192.832 700.836 193.672 698.556 193.672H697.316C697.156 193.672 696.916 193.552 696.916 191.992C696.916 190.392 697.156 190.232 697.316 190.232H698.556ZM710.111 190.232C712.031 190.232 712.951 189.392 712.951 187.672V186.032C712.951 180.912 715.831 177.792 720.591 177.792C725.351 177.792 727.991 180.632 727.991 185.872V186.992C727.991 189.312 728.951 190.232 730.751 190.232H731.751C731.911 190.232 732.151 190.392 732.151 191.992C732.151 193.552 731.911 193.672 731.751 193.672H730.751C728.471 193.672 726.951 192.912 726.231 191.112C725.111 192.832 722.911 193.672 720.471 193.672C717.671 193.672 715.791 192.792 714.871 191.192C713.991 192.912 712.591 193.672 710.111 193.672H709.191C709.031 193.672 708.791 193.552 708.791 191.992C708.791 190.392 709.031 190.232 709.191 190.232H710.111ZM724.671 185.872C724.671 182.752 723.311 181.152 720.471 181.152C717.631 181.152 716.271 182.752 716.271 186.032C716.271 188.632 717.791 190.232 720.471 190.232C723.231 190.232 724.671 188.832 724.671 185.872ZM733.009 190.232C734.889 190.232 736.209 189.112 736.209 187.272V167.792H739.569V187.312C739.569 191.312 736.929 193.672 733.009 193.672H731.769C731.609 193.672 731.369 193.552 731.369 191.992C731.369 190.392 731.609 190.232 731.769 190.232H733.009ZM746.776 193.672V167.792H750.096V193.672H746.776ZM398.9 240.232C400.78 240.232 402.02 239.312 402.02 238.072C402.02 236.912 401.26 234.912 397.58 224.992L400.66 223.592L405.34 236.872C406.18 239.272 407.06 240.232 408.98 240.232H409.82C410.02 240.232 410.22 240.432 410.22 241.992C410.22 243.632 410.02 243.672 409.82 243.672H408.86C406.46 243.672 404.86 242.912 403.94 241.152C402.94 242.912 401.34 243.672 398.9 243.672H389.54L389.22 240.232H398.9ZM417.236 230.792H420.556V237.312C420.556 241.312 417.916 243.672 413.996 243.672H409.836C409.676 243.672 409.436 243.552 409.436 241.992C409.436 240.392 409.676 240.232 409.836 240.232H413.996C415.876 240.232 417.236 239.192 417.236 237.272V230.792ZM418.316 248.712V251.912H407.756V248.712H418.316ZM445.942 240.232C446.142 240.232 446.342 240.392 446.342 241.992C446.342 243.552 446.142 243.672 445.942 243.672H442.102C441.622 249.792 437.702 253.432 431.782 253.432H426.862L426.542 249.992H431.822C436.102 249.992 438.822 247.552 438.862 243.672H434.862C429.302 243.672 427.102 241.432 427.102 236.672C427.102 231.632 430.222 228.192 434.702 228.192C439.342 228.192 442.182 231.512 442.182 236.872V240.232H445.942ZM430.422 236.472C430.422 239.192 431.582 240.232 435.062 240.232H438.862V237.112C438.862 233.432 437.342 231.552 434.502 231.552C432.022 231.552 430.422 233.552 430.422 236.472ZM466.809 217.352V220.512H463.169V217.352H466.809ZM459.689 225.992V222.832H470.249V225.992H459.689ZM473.569 230.792H476.889V236.992C476.889 241.192 474.249 243.672 470.129 243.672C467.369 243.672 465.689 242.792 464.929 241.192C463.969 242.792 462.209 243.672 459.689 243.672C456.729 243.672 455.049 242.792 454.289 241.192C453.329 242.792 451.569 243.672 449.049 243.672H445.929C445.769 243.672 445.529 243.552 445.529 241.992C445.529 240.392 445.769 240.232 445.929 240.232H449.049C451.449 240.232 452.769 238.992 452.769 237.072V230.792H456.129V237.072C456.129 239.072 457.249 240.232 459.689 240.232C462.089 240.232 463.409 238.992 463.409 237.072V230.792H466.729V237.072C466.729 239.072 467.889 240.232 470.129 240.232C472.369 240.232 473.569 239.072 473.569 237.072V230.792ZM490.639 249.992C495.159 249.992 497.879 247.232 497.879 242.512V230.792H501.199V237.152C501.199 239.112 502.359 240.232 504.559 240.232H505.079C505.239 240.232 505.479 240.432 505.479 241.992C505.479 243.552 505.239 243.672 505.079 243.672H504.559C503.119 243.672 501.759 243.112 501.199 242.312V242.792C501.079 249.272 496.919 253.432 490.719 253.432H489.599L489.279 249.992H490.639ZM509.87 240.232C511.91 240.232 513.27 239.112 513.27 237.272V230.792H516.59V237.192C516.59 239.192 517.71 240.232 519.79 240.232H520.91C521.07 240.232 521.31 240.392 521.31 241.952C521.31 243.552 521.07 243.672 520.91 243.672H519.67C517.31 243.672 515.63 242.912 514.87 241.312C513.91 242.912 512.15 243.672 509.87 243.672H505.07C504.91 243.672 504.67 243.552 504.67 241.992C504.67 240.392 504.91 240.232 505.07 240.232H509.87ZM511.35 252.072H507.11V248.712H511.35V252.072ZM533.809 222.512H529.569V219.192H533.809V222.512ZM523.729 240.232C527.769 240.232 530.049 239.672 532.849 238.072L538.929 234.512C538.089 231.592 536.769 230.672 533.889 230.672H524.529L524.969 227.192H534.449C539.209 227.192 541.289 229.312 542.809 235.632L534.409 240.832C531.009 242.952 528.329 243.672 523.609 243.672H520.929C520.769 243.672 520.529 243.552 520.529 241.992C520.529 240.392 520.769 240.232 520.929 240.232H523.729ZM555.637 240.232C555.837 240.232 556.037 240.392 556.037 241.992C556.037 243.552 555.837 243.672 555.637 243.672H554.597C550.477 243.672 548.397 241.072 548.397 236.672V217.792H551.717V236.512C551.717 238.992 552.717 240.232 554.757 240.232H555.637ZM566.376 237.312C566.376 241.312 563.736 243.672 559.816 243.672H555.656C555.496 243.672 555.256 243.552 555.256 241.992C555.256 240.392 555.496 240.232 555.656 240.232H559.816C561.696 240.232 563.056 239.192 563.056 237.272V230.792H566.376V237.312ZM560.976 252.072H556.736V248.712H560.976V252.072ZM590.933 227.432V224.272H601.493V227.432H590.933ZM606.893 230.792H610.213V237.392C610.213 241.312 607.573 243.672 603.693 243.672H589.373C584.573 243.672 582.293 240.912 582.293 236.752V230.792H585.613V236.312C585.613 238.712 586.773 240.232 589.573 240.232H603.693C605.573 240.232 606.893 239.112 606.893 237.312V230.792ZM624.269 240.232C624.469 240.232 624.669 240.392 624.669 241.992C624.669 243.552 624.469 243.672 624.269 243.672H623.229C619.109 243.672 617.029 241.072 617.029 236.672V217.792H620.349V236.512C620.349 238.992 621.349 240.232 623.389 240.232H624.269ZM637.569 222.392H633.329V219.072H637.569V222.392ZM630.689 240.232C628.889 238.992 627.769 236.872 627.769 234.672C627.769 230.432 631.089 227.072 635.449 227.072C639.929 227.072 643.049 230.112 643.049 234.472C643.049 236.872 642.049 238.792 639.929 240.232H646.529C646.689 240.232 646.929 240.392 646.929 241.992C646.929 243.552 646.689 243.672 646.529 243.672H641.209C637.969 243.672 636.529 243.512 635.529 243.032C634.529 243.512 632.889 243.672 629.689 243.672H624.289C624.129 243.672 623.889 243.552 623.889 241.992C623.889 240.392 624.129 240.232 624.289 240.232H630.689ZM635.449 230.432C632.889 230.432 631.089 232.232 631.089 234.672C631.089 236.992 632.649 238.912 635.449 240.152C638.409 238.832 639.729 236.792 639.729 234.672C639.729 232.112 638.089 230.432 635.449 230.432ZM662.355 240.232C662.515 240.232 662.755 240.392 662.755 241.952C662.755 243.552 662.515 243.672 662.355 243.672H661.115C658.755 243.672 657.075 242.912 656.315 241.312C655.355 242.912 653.595 243.672 651.315 243.672H646.515C646.355 243.672 646.115 243.552 646.115 241.992C646.115 240.392 646.355 240.232 646.515 240.232H651.315C653.355 240.232 654.715 239.112 654.715 237.272V230.792H658.035V237.192C658.035 239.192 659.155 240.232 661.235 240.232H662.355ZM654.755 248.712V251.912H644.195V248.712H654.755ZM675.655 222.392H671.415V219.072H675.655V222.392ZM668.775 240.232C666.975 238.992 665.855 236.872 665.855 234.672C665.855 230.432 669.175 227.072 673.535 227.072C678.015 227.072 681.135 230.112 681.135 234.472C681.135 236.872 680.135 238.792 678.015 240.232H684.615C684.775 240.232 685.015 240.392 685.015 241.992C685.015 243.552 684.775 243.672 684.615 243.672H679.295C676.055 243.672 674.615 243.512 673.615 243.032C672.615 243.512 670.975 243.672 667.775 243.672H662.375C662.215 243.672 661.975 243.552 661.975 241.992C661.975 240.392 662.215 240.232 662.375 240.232H668.775ZM673.535 230.432C670.975 230.432 669.175 232.232 669.175 234.672C669.175 236.992 670.735 238.912 673.535 240.152C676.495 238.832 677.815 236.792 677.815 234.672C677.815 232.112 676.175 230.432 673.535 230.432ZM697.481 222.512H693.241V219.192H697.481V222.512ZM688.201 230.672L688.641 227.192H698.121C702.881 227.192 704.961 229.312 706.481 235.632L703.321 237.552C704.161 239.592 705.241 240.232 707.321 240.232H709.961C710.121 240.232 710.361 240.432 710.361 241.992C710.361 243.632 710.121 243.672 709.961 243.672H707.201C704.041 243.672 702.401 242.592 700.841 239.112L698.081 240.832C694.681 242.952 692.001 243.672 687.281 243.672H684.601C684.441 243.672 684.201 243.552 684.201 241.992C684.201 240.392 684.441 240.232 684.601 240.232H687.401C691.441 240.232 693.721 239.672 696.521 238.072L702.601 234.512C701.761 231.592 700.441 230.672 697.561 230.672H688.201ZM721.913 222.832V225.992H711.353V222.832H721.913ZM717.353 237.272V230.792H720.673V237.312C720.673 241.312 718.033 243.672 714.113 243.672H709.953C709.793 243.672 709.553 243.552 709.553 241.992C709.553 240.392 709.793 240.232 709.953 240.232H714.113C715.993 240.232 717.353 239.192 717.353 237.272Z" fill="#334052"/>
<path d="M451.603 84.5262C452.449 84.5262 453.007 84.1122 453.007 83.5542C453.007 83.0322 452.665 82.1322 451.009 77.6682L452.395 77.0382L454.501 83.0142C454.879 84.0942 455.275 84.5262 456.139 84.5262H456.517C456.607 84.5262 456.697 84.6162 456.697 85.3182C456.697 86.0562 456.607 86.0742 456.517 86.0742H456.085C455.005 86.0742 454.285 85.7322 453.871 84.9402C453.421 85.7322 452.701 86.0742 451.603 86.0742H447.391L447.247 84.5262H451.603ZM466.442 84.5262C466.514 84.5262 466.622 84.5982 466.622 85.3002C466.622 86.0202 466.514 86.0742 466.442 86.0742H465.884C464.822 86.0742 464.066 85.7322 463.724 85.0122C463.292 85.7322 462.5 86.0742 461.474 86.0742H459.314C459.242 86.0742 459.134 86.0202 459.134 85.3182C459.134 84.5982 459.242 84.5262 459.314 84.5262H461.474C462.392 84.5262 463.004 84.0222 463.004 83.1942V80.2782H464.498V83.1582C464.498 84.0582 465.002 84.5262 465.938 84.5262H466.442ZM463.022 88.3422V89.7822H458.27V88.3422H463.022ZM474.299 78.1182H472.391V76.6242H474.299V78.1182ZM471.401 84.5262C472.319 84.5262 472.931 84.0222 472.931 83.1942V80.2782H474.425V83.1582C474.425 84.0582 474.929 84.5262 475.865 84.5262H476.369C476.441 84.5262 476.549 84.5982 476.549 85.3002C476.549 86.0202 476.441 86.0742 476.369 86.0742H475.811C474.749 86.0742 473.993 85.7322 473.651 85.0122C473.219 85.7322 472.427 86.0742 471.401 86.0742H469.241C469.169 86.0742 469.061 86.0202 469.061 85.3182C469.061 84.5982 469.169 84.5262 469.241 84.5262H471.401ZM484.153 84.5262C485.197 84.5262 485.809 84.0762 485.809 83.3922C485.809 82.9062 485.593 82.4742 485.071 81.9342L480.841 77.7402V76.4442L487.411 73.8342L487.861 75.2742L482.605 77.3442L486.205 80.9622C486.997 81.7542 487.303 82.6002 487.303 83.4102C487.303 84.9582 486.205 86.0742 484.153 86.0742H479.167C479.095 86.0742 478.987 86.0202 478.987 85.3182C478.987 84.5982 479.095 84.5262 479.167 84.5262H484.153ZM502.66 78.0642L503.722 77.0022L507.178 80.9802C507.988 81.8982 508.258 82.6542 508.258 83.4102C508.258 84.9582 507.16 86.0742 505.108 86.0742H499.978L499.834 84.5262H505.108C506.17 84.5262 506.764 84.0762 506.764 83.3922C506.764 82.9602 506.548 82.5462 506.026 81.9342L502.66 78.0642ZM516.504 85.5522C516.504 88.5942 514.578 90.4662 511.788 90.4662H510.528L510.384 88.9182H511.752C513.786 88.9182 515.01 87.6762 515.01 85.5522V80.2782H516.504V85.5522ZM522.357 86.0742V74.4282H523.851V86.0742H522.357ZM536.572 85.4982C536.572 88.5762 534.736 90.4662 531.892 90.4662H529.678L529.534 88.9182H531.91C533.836 88.9182 535.06 87.8202 535.078 86.0742H533.278C530.776 86.0742 529.786 85.0662 529.786 82.9242C529.786 80.6562 531.19 79.1082 533.206 79.1082C535.294 79.1082 536.572 80.6022 536.572 83.0142V85.4982ZM531.28 82.8342C531.28 84.0582 531.802 84.5262 533.368 84.5262H535.078V83.1222C535.078 81.4662 534.394 80.6202 533.116 80.6202C532 80.6202 531.28 81.5202 531.28 82.8342ZM549.501 86.0742V74.4282H550.995V86.0742H549.501ZM559.441 85.5522C559.441 88.5942 557.515 90.4662 554.725 90.4662H553.465L553.321 88.9182H554.689C556.723 88.9182 557.947 87.6762 557.947 85.5522V80.2782H559.441V85.5522ZM567.436 78.0642L568.498 77.0022L571.954 80.9802C572.764 81.8982 573.034 82.6542 573.034 83.4102C573.034 84.9582 571.936 86.0742 569.884 86.0742H564.754L564.61 84.5262H569.884C570.946 84.5262 571.54 84.0762 571.54 83.3922C571.54 82.9602 571.324 82.5462 570.802 81.9342L567.436 78.0642ZM587.247 84.5262C587.337 84.5262 587.427 84.5982 587.427 85.3182C587.427 86.0202 587.337 86.0742 587.247 86.0742H585.519C585.303 88.8282 583.539 90.4662 580.875 90.4662H578.661L578.517 88.9182H580.893C582.819 88.9182 584.043 87.8202 584.061 86.0742H582.261C579.759 86.0742 578.769 85.0662 578.769 82.9242C578.769 80.6562 580.173 79.1082 582.189 79.1082C584.277 79.1082 585.555 80.6022 585.555 83.0142V84.5262H587.247ZM580.263 82.8342C580.263 84.0582 580.785 84.5262 582.351 84.5262H584.061V83.1222C584.061 81.4662 583.377 80.6202 582.099 80.6202C580.983 80.6202 580.263 81.5202 580.263 82.8342ZM595.827 76.5522H593.919V75.0582H595.827V76.5522ZM591.291 84.5262C593.109 84.5262 594.135 84.2742 595.395 83.5542L598.131 81.9522C597.753 80.6382 597.159 80.2242 595.863 80.2242H591.651L591.849 78.6582H596.115C598.257 78.6582 599.193 79.6122 599.877 82.4562L596.097 84.7962C594.567 85.7502 593.361 86.0742 591.237 86.0742H590.031C589.959 86.0742 589.851 86.0202 589.851 85.3182C589.851 84.5982 589.959 84.5262 590.031 84.5262H591.291ZM616.796 90.4662C613.754 90.4662 612.08 88.6122 612.08 85.4802V82.0782H613.574V85.4442C613.574 87.7122 614.69 88.9182 616.832 88.9182H617.588C619.64 88.9182 620.99 87.6402 620.99 85.5882V74.4282H622.484V83.2482C622.484 84.0222 622.988 84.5262 623.888 84.5262H624.23C624.302 84.5262 624.41 84.5982 624.41 85.3182C624.41 86.0202 624.302 86.0742 624.23 86.0742H623.942C623.312 86.0742 622.736 85.8582 622.484 85.5522V85.7682C622.43 88.5402 620.45 90.4662 617.588 90.4662H616.796ZM634.146 84.5262C634.218 84.5262 634.326 84.5982 634.326 85.3002C634.326 86.0202 634.218 86.0742 634.146 86.0742H633.588C632.526 86.0742 631.77 85.7322 631.428 85.0122C630.996 85.7322 630.204 86.0742 629.178 86.0742H627.018C626.946 86.0742 626.838 86.0202 626.838 85.3182C626.838 84.5982 626.946 84.5262 627.018 84.5262H629.178C630.096 84.5262 630.708 84.0222 630.708 83.1942V80.2782H632.202V83.1582C632.202 84.0582 632.706 84.5262 633.642 84.5262H634.146ZM630.726 88.3422V89.7822H625.974V88.3422H630.726ZM637.359 84.5262C638.223 84.5262 638.637 84.1482 638.637 83.3742V82.6362C638.637 80.3322 639.933 78.9282 642.075 78.9282C644.217 78.9282 645.405 80.2062 645.405 82.5642V83.0682C645.405 84.1122 645.837 84.5262 646.647 84.5262H647.097C647.169 84.5262 647.277 84.5982 647.277 85.3182C647.277 86.0202 647.169 86.0742 647.097 86.0742H646.647C645.621 86.0742 644.937 85.7322 644.613 84.9222C644.109 85.6962 643.119 86.0742 642.021 86.0742C640.761 86.0742 639.915 85.6782 639.501 84.9582C639.105 85.7322 638.475 86.0742 637.359 86.0742H636.945C636.873 86.0742 636.765 86.0202 636.765 85.3182C636.765 84.5982 636.873 84.5262 636.945 84.5262H637.359ZM643.911 82.5642C643.911 81.1602 643.299 80.4402 642.021 80.4402C640.743 80.4402 640.131 81.1602 640.131 82.6362C640.131 83.8062 640.815 84.5262 642.021 84.5262C643.263 84.5262 643.911 83.8962 643.911 82.5642ZM653.225 80.2782H654.719V83.2122C654.719 85.0122 653.531 86.0742 651.767 86.0742H649.895C649.823 86.0742 649.715 86.0202 649.715 85.3182C649.715 84.5982 649.823 84.5262 649.895 84.5262H651.767C652.613 84.5262 653.225 84.0582 653.225 83.1942V80.2782ZM653.711 88.3422V89.7822H648.959V88.3422H653.711ZM660.563 86.0742V74.4282H662.057V86.0742H660.563Z" fill="white"/>
<g filter="url(#filter0_d_301_23)">
<rect width="354" height="48.5676" rx="6" transform="matrix(-1 4.48204e-05 -3.84776e-05 -1 778.001 334.567)" fill="white"/>
</g>
<path d="M612.01 313.693C612.477 313.693 612.846 313.647 613.116 313.553C613.396 313.46 613.597 313.325 613.718 313.147C613.849 312.961 613.914 312.746 613.914 312.503C613.914 312.317 613.863 312.093 613.76 311.831C613.667 311.57 613.536 311.281 613.368 310.963C613.2 310.637 613.004 310.296 612.78 309.941C612.566 309.577 612.332 309.209 612.08 308.835L613.046 308.205C613.41 308.756 613.728 309.279 613.998 309.773C614.269 310.259 614.498 310.716 614.684 311.145C614.871 311.565 615.02 311.962 615.132 312.335C615.263 312.746 615.408 313.049 615.566 313.245C615.734 313.441 615.907 313.567 616.084 313.623C616.262 313.67 616.425 313.693 616.574 313.693C616.77 313.693 616.915 313.749 617.008 313.861C617.102 313.964 617.148 314.09 617.148 314.239C617.148 314.389 617.083 314.529 616.952 314.659C616.822 314.781 616.654 314.841 616.448 314.841C616.14 314.841 615.837 314.785 615.538 314.673C615.249 314.552 614.997 314.361 614.782 314.099C614.568 313.829 614.418 313.469 614.334 313.021L614.894 312.573C614.894 312.947 614.815 313.311 614.656 313.665C614.498 314.011 614.208 314.295 613.788 314.519C613.378 314.743 612.785 314.855 612.01 314.855C611.674 314.855 611.348 314.827 611.03 314.771C610.722 314.715 610.438 314.636 610.176 314.533C609.915 314.421 609.686 314.291 609.49 314.141L610.05 313.175C610.237 313.297 610.498 313.413 610.834 313.525C611.17 313.637 611.562 313.693 612.01 313.693ZM616.451 314.841L616.591 313.693C617.058 313.693 617.422 313.661 617.683 313.595C617.945 313.521 618.141 313.385 618.271 313.189C618.411 312.984 618.523 312.69 618.607 312.307C618.691 311.925 618.794 311.425 618.915 310.809L620.007 311.019C619.97 311.187 619.928 311.374 619.881 311.579C619.835 311.785 619.793 311.99 619.755 312.195C619.727 312.391 619.713 312.564 619.713 312.713C619.713 312.853 619.723 312.984 619.741 313.105C619.76 313.227 619.83 313.329 619.951 313.413C620.073 313.497 620.278 313.567 620.567 313.623C620.857 313.67 621.272 313.693 621.813 313.693C622.009 313.693 622.149 313.749 622.233 313.861C622.327 313.964 622.373 314.09 622.373 314.239C622.373 314.389 622.308 314.529 622.177 314.659C622.047 314.781 621.879 314.841 621.673 314.841C621.104 314.841 620.651 314.813 620.315 314.757C619.979 314.692 619.723 314.599 619.545 314.477C619.377 314.356 619.256 314.207 619.181 314.029C619.116 313.843 619.065 313.628 619.027 313.385L619.447 313.413C619.298 313.712 619.135 313.955 618.957 314.141C618.789 314.328 618.593 314.473 618.369 314.575C618.145 314.678 617.875 314.748 617.557 314.785C617.249 314.823 616.881 314.841 616.451 314.841ZM619.979 317.487C619.783 317.487 619.615 317.417 619.475 317.277C619.345 317.147 619.279 316.988 619.279 316.801C619.279 316.615 619.345 316.451 619.475 316.311C619.615 316.171 619.783 316.101 619.979 316.101C620.166 316.101 620.325 316.171 620.455 316.311C620.595 316.451 620.665 316.615 620.665 316.801C620.665 316.988 620.595 317.147 620.455 317.277C620.325 317.417 620.166 317.487 619.979 317.487ZM618.061 317.487C617.865 317.487 617.697 317.417 617.557 317.277C617.427 317.147 617.361 316.988 617.361 316.801C617.361 316.615 617.427 316.451 617.557 316.311C617.697 316.171 617.865 316.101 618.061 316.101C618.248 316.101 618.407 316.171 618.537 316.311C618.677 316.451 618.747 316.615 618.747 316.801C618.747 316.988 618.677 317.147 618.537 317.277C618.407 317.417 618.248 317.487 618.061 317.487ZM621.674 314.841L621.814 313.693C622.206 313.693 622.514 313.661 622.738 313.595C622.962 313.521 623.13 313.385 623.242 313.189C623.363 312.984 623.466 312.69 623.55 312.307C623.634 311.925 623.737 311.425 623.858 310.809L624.95 311.019C624.913 311.187 624.871 311.374 624.824 311.579C624.777 311.785 624.735 311.99 624.698 312.195C624.67 312.391 624.656 312.564 624.656 312.713C624.656 312.9 624.698 313.068 624.782 313.217C624.866 313.367 625.048 313.483 625.328 313.567C625.608 313.651 626.037 313.693 626.616 313.693C626.812 313.693 626.952 313.749 627.036 313.861C627.129 313.964 627.176 314.09 627.176 314.239C627.176 314.389 627.111 314.529 626.98 314.659C626.849 314.781 626.681 314.841 626.476 314.841C625.869 314.841 625.393 314.79 625.048 314.687C624.703 314.575 624.451 314.412 624.292 314.197C624.133 313.973 624.026 313.703 623.97 313.385L624.39 313.413C624.241 313.712 624.077 313.955 623.9 314.141C623.732 314.328 623.545 314.473 623.34 314.575C623.135 314.678 622.897 314.748 622.626 314.785C622.355 314.823 622.038 314.841 621.674 314.841ZM623.858 309.367C623.662 309.367 623.494 309.302 623.354 309.171C623.223 309.031 623.158 308.868 623.158 308.681C623.158 308.495 623.223 308.331 623.354 308.191C623.494 308.051 623.662 307.981 623.858 307.981C624.045 307.981 624.203 308.051 624.334 308.191C624.474 308.331 624.544 308.495 624.544 308.681C624.544 308.868 624.474 309.031 624.334 309.171C624.203 309.302 624.045 309.367 623.858 309.367ZM626.473 314.841L626.613 313.693H627.929C628.48 313.693 628.914 313.665 629.231 313.609C629.558 313.544 629.796 313.465 629.945 313.371C630.104 313.269 630.206 313.161 630.253 313.049C630.309 312.928 630.337 312.807 630.337 312.685C630.337 312.471 630.253 312.205 630.085 311.887C629.926 311.57 629.595 311.159 629.091 310.655C628.83 310.394 628.568 310.156 628.307 309.941C628.046 309.717 627.803 309.521 627.579 309.353C627.364 309.176 627.192 309.027 627.061 308.905C626.93 308.784 626.865 308.691 626.865 308.625C626.865 308.485 626.874 308.35 626.893 308.219C626.921 308.089 626.954 307.967 626.991 307.855C627.038 307.743 627.094 307.655 627.159 307.589C627.346 307.393 627.584 307.197 627.873 307.001C628.172 306.805 628.517 306.6 628.909 306.385C629.31 306.171 629.758 305.942 630.253 305.699C630.757 305.447 631.308 305.172 631.905 304.873L632.381 305.909C631.634 306.264 631.009 306.567 630.505 306.819C630.01 307.062 629.59 307.281 629.245 307.477C628.9 307.664 628.596 307.841 628.335 308.009C628.074 308.177 627.808 308.364 627.537 308.569L627.747 308.037C628.335 308.504 628.853 308.943 629.301 309.353C629.758 309.764 630.141 310.161 630.449 310.543C630.757 310.917 630.99 311.285 631.149 311.649C631.308 312.013 631.387 312.382 631.387 312.755C631.387 312.961 631.35 313.185 631.275 313.427C631.2 313.67 631.042 313.899 630.799 314.113C630.556 314.328 630.192 314.505 629.707 314.645C629.222 314.776 628.568 314.841 627.747 314.841H626.473ZM636.369 314.141L636.929 313.175C637.116 313.297 637.377 313.413 637.713 313.525C638.049 313.637 638.441 313.693 638.889 313.693C639.356 313.693 639.724 313.647 639.995 313.553C640.275 313.46 640.476 313.325 640.597 313.147C640.728 312.961 640.793 312.746 640.793 312.503C640.793 312.317 640.751 312.088 640.667 311.817C640.592 311.537 640.424 311.164 640.163 310.697C639.902 310.221 639.5 309.601 638.959 308.835L639.925 308.205C640.42 308.887 640.812 309.503 641.101 310.053C641.4 310.604 641.61 311.089 641.731 311.509C641.862 311.92 641.927 312.275 641.927 312.573C641.927 312.947 641.834 313.311 641.647 313.665C641.46 314.011 641.148 314.295 640.709 314.519C640.27 314.743 639.664 314.855 638.889 314.855C638.553 314.855 638.226 314.827 637.909 314.771C637.601 314.715 637.316 314.636 637.055 314.533C636.794 314.421 636.565 314.291 636.369 314.141ZM642.183 317.991L641.777 316.927C642.72 316.629 643.443 316.269 643.947 315.849C644.461 315.439 644.811 315.009 644.997 314.561C645.193 314.113 645.291 313.684 645.291 313.273C645.291 313.012 645.263 312.76 645.207 312.517C645.151 312.275 645.053 311.999 644.913 311.691C644.773 311.383 644.577 311.001 644.325 310.543L645.347 310.025C645.702 310.632 645.954 311.206 646.103 311.747C646.262 312.289 646.341 312.765 646.341 313.175C646.341 313.763 646.243 314.295 646.047 314.771C645.861 315.247 645.609 315.667 645.291 316.031C644.983 316.405 644.643 316.722 644.269 316.983C643.905 317.245 643.537 317.459 643.163 317.627C642.799 317.795 642.473 317.917 642.183 317.991ZM648.556 314.771L648.276 304.775H649.41L649.69 314.771H648.556ZM651.416 317.991L651.164 316.843C651.724 316.769 652.237 316.661 652.704 316.521C653.18 316.391 653.586 316.199 653.922 315.947C654.267 315.695 654.533 315.364 654.72 314.953C654.906 314.543 655 314.029 655 313.413C655 313.124 654.972 312.849 654.916 312.587C654.86 312.317 654.776 312.079 654.664 311.873C654.552 311.668 654.416 311.505 654.258 311.383C654.108 311.262 653.936 311.201 653.74 311.201C653.525 311.201 653.329 311.285 653.152 311.453C652.984 311.612 652.848 311.817 652.746 312.069C652.652 312.321 652.606 312.573 652.606 312.825C652.606 313.021 652.643 313.194 652.718 313.343C652.802 313.483 652.937 313.591 653.124 313.665C653.31 313.74 653.553 313.777 653.852 313.777C654.122 313.777 654.393 313.749 654.664 313.693C654.944 313.637 655.182 313.563 655.378 313.469L655.434 314.449C655.21 314.608 654.944 314.72 654.636 314.785C654.337 314.851 654.034 314.883 653.726 314.883C653.371 314.883 653.054 314.846 652.774 314.771C652.503 314.697 652.27 314.589 652.074 314.449C651.887 314.3 651.742 314.113 651.64 313.889C651.546 313.665 651.5 313.404 651.5 313.105C651.5 312.751 651.556 312.396 651.668 312.041C651.78 311.677 651.938 311.346 652.144 311.047C652.349 310.749 652.596 310.511 652.886 310.333C653.175 310.147 653.497 310.053 653.852 310.053C654.225 310.053 654.552 310.151 654.832 310.347C655.112 310.534 655.345 310.791 655.532 311.117C655.718 311.444 655.858 311.813 655.952 312.223C656.045 312.634 656.092 313.059 656.092 313.497C656.092 314.365 655.914 315.112 655.56 315.737C655.214 316.372 654.692 316.876 653.992 317.249C653.301 317.623 652.442 317.87 651.416 317.991ZM661.79 314.771L661.51 304.775H662.644L662.924 314.771H661.79ZM663.539 317.991L663.133 316.927C664.075 316.629 664.799 316.269 665.303 315.849C665.816 315.439 666.166 315.009 666.353 314.561C666.549 314.113 666.647 313.684 666.647 313.273C666.647 313.012 666.619 312.76 666.563 312.517C666.507 312.275 666.409 311.999 666.269 311.691C666.129 311.383 665.933 311.001 665.681 310.543L666.703 310.025C667.057 310.632 667.309 311.206 667.459 311.747C667.617 312.289 667.697 312.765 667.697 313.175C667.697 313.763 667.599 314.295 667.403 314.771C667.216 315.247 666.964 315.667 666.647 316.031C666.339 316.405 665.998 316.722 665.625 316.983C665.261 317.245 664.892 317.459 664.519 317.627C664.155 317.795 663.828 317.917 663.539 317.991ZM672.75 314.141L673.31 313.175C673.497 313.297 673.758 313.413 674.094 313.525C674.43 313.637 674.822 313.693 675.27 313.693C675.737 313.693 676.105 313.647 676.376 313.553C676.656 313.46 676.857 313.325 676.978 313.147C677.109 312.961 677.174 312.746 677.174 312.503C677.174 312.317 677.132 312.088 677.048 311.817C676.973 311.537 676.805 311.164 676.544 310.697C676.283 310.221 675.881 309.601 675.34 308.835L676.306 308.205C676.801 308.887 677.193 309.503 677.482 310.053C677.781 310.604 677.991 311.089 678.112 311.509C678.243 311.92 678.308 312.275 678.308 312.573C678.308 312.947 678.215 313.311 678.028 313.665C677.841 314.011 677.529 314.295 677.09 314.519C676.651 314.743 676.045 314.855 675.27 314.855C674.934 314.855 674.607 314.827 674.29 314.771C673.982 314.715 673.697 314.636 673.436 314.533C673.175 314.421 672.946 314.291 672.75 314.141ZM678.564 317.991L678.158 316.927C679.101 316.629 679.824 316.269 680.328 315.849C680.841 315.439 681.191 315.009 681.378 314.561C681.574 314.113 681.672 313.684 681.672 313.273C681.672 313.012 681.644 312.76 681.588 312.517C681.532 312.275 681.434 311.999 681.294 311.691C681.154 311.383 680.958 311.001 680.706 310.543L681.728 310.025C682.083 310.632 682.335 311.206 682.484 311.747C682.643 312.289 682.722 312.765 682.722 313.175C682.722 313.763 682.624 314.295 682.428 314.771C682.241 315.247 681.989 315.667 681.672 316.031C681.364 316.405 681.023 316.722 680.65 316.983C680.286 317.245 679.917 317.459 679.544 317.627C679.18 317.795 678.853 317.917 678.564 317.991ZM684.461 317.991L684.209 316.843C684.769 316.769 685.282 316.661 685.749 316.521C686.225 316.391 686.631 316.199 686.967 315.947C687.312 315.695 687.578 315.364 687.765 314.953C687.951 314.543 688.045 314.029 688.045 313.413C688.045 312.779 687.928 312.251 687.695 311.831C687.461 311.411 687.158 311.201 686.785 311.201C686.589 311.201 686.407 311.276 686.239 311.425C686.071 311.575 685.931 311.775 685.819 312.027C685.716 312.279 685.665 312.555 685.665 312.853C685.665 313.021 685.702 313.161 685.777 313.273C685.851 313.376 685.959 313.46 686.099 313.525C686.248 313.581 686.435 313.623 686.659 313.651C686.883 313.679 687.144 313.693 687.443 313.693H690.397C690.593 313.693 690.733 313.749 690.817 313.861C690.91 313.964 690.957 314.09 690.957 314.239C690.957 314.389 690.891 314.529 690.761 314.659C690.63 314.781 690.462 314.841 690.257 314.841H686.911C686.491 314.841 686.099 314.781 685.735 314.659C685.38 314.538 685.091 314.351 684.867 314.099C684.652 313.838 684.545 313.497 684.545 313.077C684.545 312.685 684.605 312.312 684.727 311.957C684.848 311.593 685.011 311.271 685.217 310.991C685.431 310.702 685.679 310.473 685.959 310.305C686.248 310.137 686.561 310.053 686.897 310.053C687.326 310.053 687.709 310.179 688.045 310.431C688.381 310.683 688.647 311.066 688.843 311.579C689.039 312.083 689.137 312.723 689.137 313.497C689.137 314.365 688.959 315.112 688.605 315.737C688.259 316.372 687.737 316.876 687.037 317.249C686.346 317.623 685.487 317.87 684.461 317.991ZM690.252 314.841L690.378 313.693C690.864 313.693 691.34 313.656 691.806 313.581C692.273 313.507 692.73 313.399 693.178 313.259C693.626 313.119 694.056 312.951 694.466 312.755C694.886 312.55 695.283 312.317 695.656 312.055C695.414 311.841 695.134 311.654 694.816 311.495C694.499 311.337 694.149 311.215 693.766 311.131C693.393 311.038 692.996 310.991 692.576 310.991C692.427 310.991 692.287 310.996 692.156 311.005C692.026 311.015 691.895 311.033 691.764 311.061C691.634 311.08 691.484 311.108 691.316 311.145L691.092 310.081C691.344 310.007 691.596 309.951 691.848 309.913C692.1 309.867 692.343 309.843 692.576 309.843C693.062 309.843 693.5 309.904 693.892 310.025C694.284 310.137 694.639 310.277 694.956 310.445C695.283 310.613 695.586 310.781 695.866 310.949C696.156 311.117 696.436 311.262 696.706 311.383C696.977 311.495 697.257 311.551 697.546 311.551H697.84L697.938 312.559C697.537 312.559 697.168 312.615 696.832 312.727C696.496 312.839 696.165 312.984 695.838 313.161C695.521 313.329 695.185 313.511 694.83 313.707C694.476 313.894 694.084 314.076 693.654 314.253C693.225 314.421 692.73 314.561 692.17 314.673C691.62 314.785 690.98 314.841 690.252 314.841ZM692.59 308.401C692.394 308.401 692.226 308.336 692.086 308.205C691.956 308.065 691.89 307.902 691.89 307.715C691.89 307.529 691.956 307.365 692.086 307.225C692.226 307.085 692.394 307.015 692.59 307.015C692.777 307.015 692.936 307.085 693.066 307.225C693.206 307.365 693.276 307.529 693.276 307.715C693.276 307.902 693.206 308.065 693.066 308.205C692.936 308.336 692.777 308.401 692.59 308.401ZM702.553 314.785C702.553 314.561 702.572 314.323 702.609 314.071C702.656 313.81 702.721 313.535 702.805 313.245C702.898 312.947 703.01 312.634 703.141 312.307L704.149 312.699C704.056 312.961 703.972 313.208 703.897 313.441C703.832 313.675 703.78 313.894 703.743 314.099C703.715 314.305 703.701 314.501 703.701 314.687C703.701 315.163 703.827 315.565 704.079 315.891C704.331 316.218 704.658 316.461 705.059 316.619C705.47 316.787 705.908 316.871 706.375 316.871C707.29 316.871 708.004 316.708 708.517 316.381C709.03 316.064 709.39 315.639 709.595 315.107C709.8 314.585 709.889 314.011 709.861 313.385L709.553 304.775H710.715L710.939 311.873C710.958 312.349 711.032 312.723 711.163 312.993C711.303 313.255 711.49 313.437 711.723 313.539C711.956 313.642 712.213 313.693 712.493 313.693C712.689 313.693 712.829 313.749 712.913 313.861C713.006 313.964 713.053 314.09 713.053 314.239C713.053 314.389 712.988 314.529 712.857 314.659C712.726 314.781 712.558 314.841 712.353 314.841C712.064 314.841 711.816 314.804 711.611 314.729C711.406 314.645 711.238 314.543 711.107 314.421C710.976 314.291 710.874 314.146 710.799 313.987C710.724 313.819 710.668 313.651 710.631 313.483L711.023 313.875C710.986 314.37 710.878 314.86 710.701 315.345C710.533 315.84 710.272 316.288 709.917 316.689C709.562 317.091 709.086 317.413 708.489 317.655C707.901 317.898 707.173 318.019 706.305 318.019C705.82 318.019 705.348 317.945 704.891 317.795C704.443 317.655 704.042 317.445 703.687 317.165C703.342 316.885 703.066 316.545 702.861 316.143C702.656 315.751 702.553 315.299 702.553 314.785ZM712.36 314.841L712.5 313.693C712.966 313.693 713.33 313.661 713.592 313.595C713.853 313.521 714.049 313.385 714.18 313.189C714.32 312.984 714.432 312.69 714.516 312.307C714.6 311.925 714.702 311.425 714.824 310.809L715.916 311.019C715.878 311.187 715.836 311.374 715.79 311.579C715.743 311.785 715.701 311.99 715.664 312.195C715.636 312.391 715.622 312.564 715.622 312.713C715.622 312.853 715.631 312.984 715.65 313.105C715.668 313.227 715.738 313.329 715.86 313.413C715.981 313.497 716.186 313.567 716.476 313.623C716.765 313.67 717.18 313.693 717.722 313.693C717.918 313.693 718.058 313.749 718.142 313.861C718.235 313.964 718.282 314.09 718.282 314.239C718.282 314.389 718.216 314.529 718.086 314.659C717.955 314.781 717.787 314.841 717.582 314.841C717.012 314.841 716.56 314.813 716.224 314.757C715.888 314.692 715.631 314.599 715.454 314.477C715.286 314.356 715.164 314.207 715.09 314.029C715.024 313.843 714.973 313.628 714.936 313.385L715.356 313.413C715.206 313.712 715.043 313.955 714.866 314.141C714.698 314.328 714.502 314.473 714.278 314.575C714.054 314.678 713.783 314.748 713.466 314.785C713.158 314.823 712.789 314.841 712.36 314.841ZM715.888 317.487C715.692 317.487 715.524 317.417 715.384 317.277C715.253 317.147 715.188 316.988 715.188 316.801C715.188 316.615 715.253 316.451 715.384 316.311C715.524 316.171 715.692 316.101 715.888 316.101C716.074 316.101 716.233 316.171 716.364 316.311C716.504 316.451 716.574 316.615 716.574 316.801C716.574 316.988 716.504 317.147 716.364 317.277C716.233 317.417 716.074 317.487 715.888 317.487ZM713.97 317.487C713.774 317.487 713.606 317.417 713.466 317.277C713.335 317.147 713.27 316.988 713.27 316.801C713.27 316.615 713.335 316.451 713.466 316.311C713.606 316.171 713.774 316.101 713.97 316.101C714.156 316.101 714.315 316.171 714.446 316.311C714.586 316.451 714.656 316.615 714.656 316.801C714.656 316.988 714.586 317.147 714.446 317.277C714.315 317.417 714.156 317.487 713.97 317.487ZM717.582 314.841L717.722 313.693C717.984 313.693 718.189 313.637 718.338 313.525C718.497 313.413 718.646 313.227 718.786 312.965C718.936 312.704 719.122 312.354 719.346 311.915C719.57 311.467 719.794 311.103 720.018 310.823C720.252 310.534 720.476 310.31 720.69 310.151C720.914 309.983 721.124 309.867 721.32 309.801C721.516 309.736 721.698 309.703 721.866 309.703C722.174 309.703 722.45 309.773 722.692 309.913C722.935 310.044 723.164 310.273 723.378 310.599C723.593 310.917 723.812 311.355 724.036 311.915C724.251 312.429 724.442 312.816 724.61 313.077C724.788 313.329 724.97 313.497 725.156 313.581C725.352 313.656 725.572 313.693 725.814 313.693C726.01 313.693 726.15 313.749 726.234 313.861C726.328 313.964 726.374 314.09 726.374 314.239C726.374 314.389 726.309 314.529 726.178 314.659C726.048 314.781 725.88 314.841 725.674 314.841C725.31 314.841 724.974 314.781 724.666 314.659C724.368 314.538 724.116 314.347 723.91 314.085L724.106 313.791C724.004 314.081 723.864 314.319 723.686 314.505C723.518 314.683 723.327 314.813 723.112 314.897C722.898 314.991 722.669 315.037 722.426 315.037C722.118 315.037 721.801 314.972 721.474 314.841C721.157 314.711 720.849 314.524 720.55 314.281C720.252 314.039 719.99 313.754 719.766 313.427C719.524 313.857 719.29 314.174 719.066 314.379C718.852 314.575 718.628 314.701 718.394 314.757C718.161 314.813 717.89 314.841 717.582 314.841ZM720.298 312.363C720.457 312.625 720.625 312.853 720.802 313.049C720.989 313.245 721.176 313.409 721.362 313.539C721.549 313.661 721.731 313.754 721.908 313.819C722.095 313.875 722.263 313.903 722.412 313.903C722.739 313.903 722.977 313.787 723.126 313.553C723.285 313.32 723.28 312.993 723.112 312.573C723.028 312.359 722.94 312.149 722.846 311.943C722.762 311.738 722.669 311.551 722.566 311.383C722.464 311.206 722.347 311.071 722.216 310.977C722.086 310.875 721.941 310.823 721.782 310.823C721.642 310.823 721.493 310.87 721.334 310.963C721.185 311.057 721.022 311.215 720.844 311.439C720.676 311.663 720.494 311.971 720.298 312.363ZM725.676 314.841L725.816 313.693C726.367 313.693 726.796 313.675 727.104 313.637C727.412 313.591 727.631 313.483 727.762 313.315C727.893 313.138 727.958 312.863 727.958 312.489C727.958 312.256 727.921 311.981 727.846 311.663C727.771 311.337 727.673 310.991 727.552 310.627C727.431 310.263 727.3 309.904 727.16 309.549L728.294 309.129C728.415 309.428 728.527 309.769 728.63 310.151C728.742 310.534 728.835 310.912 728.91 311.285C728.985 311.659 729.022 311.985 729.022 312.265C729.022 312.732 728.957 313.129 728.826 313.455C728.705 313.782 728.509 314.048 728.238 314.253C727.967 314.459 727.617 314.608 727.188 314.701C726.768 314.795 726.264 314.841 725.676 314.841ZM728.266 317.487C728.07 317.487 727.902 317.417 727.762 317.277C727.631 317.147 727.566 316.988 727.566 316.801C727.566 316.615 727.631 316.451 727.762 316.311C727.902 316.171 728.07 316.101 728.266 316.101C728.453 316.101 728.611 316.171 728.742 316.311C728.882 316.451 728.952 316.615 728.952 316.801C728.952 316.988 728.882 317.147 728.742 317.277C728.611 317.417 728.453 317.487 728.266 317.487ZM726.348 317.487C726.152 317.487 725.984 317.417 725.844 317.277C725.713 317.147 725.648 316.988 725.648 316.801C725.648 316.615 725.713 316.451 725.844 316.311C725.984 316.171 726.152 316.101 726.348 316.101C726.535 316.101 726.693 316.171 726.824 316.311C726.964 316.451 727.034 316.615 727.034 316.801C727.034 316.988 726.964 317.147 726.824 317.277C726.693 317.417 726.535 317.487 726.348 317.487ZM731.148 314.771L730.868 304.775H732.002L732.282 314.771H731.148ZM740.906 314.841C740.16 314.841 739.586 314.757 739.184 314.589C738.792 314.421 738.522 314.16 738.372 313.805C738.223 313.451 738.139 312.993 738.12 312.433L737.84 304.775H738.988L739.268 311.985C739.287 312.443 739.329 312.797 739.394 313.049C739.469 313.292 739.628 313.46 739.87 313.553C740.122 313.647 740.514 313.693 741.046 313.693C741.242 313.693 741.382 313.749 741.466 313.861C741.56 313.964 741.606 314.09 741.606 314.239C741.606 314.389 741.541 314.529 741.41 314.659C741.28 314.781 741.112 314.841 740.906 314.841ZM740.906 314.841L741.046 313.693C741.28 313.693 741.518 313.693 741.76 313.693C742.012 313.684 742.26 313.67 742.502 313.651C742.745 313.633 742.978 313.609 743.202 313.581C743.426 313.553 743.627 313.511 743.804 313.455C744.131 313.353 744.43 313.217 744.7 313.049C744.98 312.881 745.204 312.676 745.372 312.433C745.55 312.191 745.638 311.911 745.638 311.593C745.638 311.379 745.587 311.159 745.484 310.935C745.382 310.702 745.242 310.506 745.064 310.347C744.887 310.189 744.682 310.109 744.448 310.109C744.224 310.109 744.014 310.184 743.818 310.333C743.632 310.483 743.478 310.679 743.356 310.921C743.244 311.155 743.188 311.397 743.188 311.649C743.188 311.948 743.263 312.219 743.412 312.461C743.571 312.695 743.762 312.895 743.986 313.063C744.21 313.231 744.434 313.367 744.658 313.469L743.328 313.861C743.179 313.749 743.002 313.595 742.796 313.399C742.6 313.194 742.423 312.942 742.264 312.643C742.115 312.345 742.04 312.004 742.04 311.621C742.04 311.248 742.106 310.903 742.236 310.585C742.376 310.259 742.558 309.974 742.782 309.731C743.016 309.489 743.277 309.302 743.566 309.171C743.865 309.031 744.173 308.961 744.49 308.961C744.948 308.961 745.349 309.087 745.694 309.339C746.04 309.591 746.306 309.913 746.492 310.305C746.688 310.688 746.786 311.089 746.786 311.509C746.786 311.911 746.712 312.275 746.562 312.601C746.413 312.919 746.208 313.203 745.946 313.455C745.694 313.707 745.396 313.922 745.05 314.099C744.714 314.277 744.355 314.421 743.972 314.533C743.758 314.599 743.524 314.65 743.272 314.687C743.03 314.725 742.773 314.753 742.502 314.771C742.232 314.799 741.961 314.818 741.69 314.827C741.42 314.837 741.158 314.841 740.906 314.841ZM747.836 314.841C747.37 314.841 746.884 314.813 746.38 314.757C745.886 314.692 745.414 314.613 744.966 314.519C744.528 314.417 744.164 314.305 743.874 314.183L744.84 313.483C745.12 313.521 745.452 313.558 745.834 313.595C746.217 313.623 746.6 313.647 746.982 313.665C747.365 313.684 747.696 313.693 747.976 313.693C748.172 313.693 748.312 313.749 748.396 313.861C748.49 313.964 748.536 314.09 748.536 314.239C748.536 314.389 748.471 314.529 748.34 314.659C748.21 314.781 748.042 314.841 747.836 314.841ZM744.364 307.519C744.168 307.519 744 307.454 743.86 307.323C743.73 307.183 743.664 307.02 743.664 306.833C743.664 306.647 743.73 306.483 743.86 306.343C744 306.203 744.168 306.133 744.364 306.133C744.551 306.133 744.71 306.203 744.84 306.343C744.98 306.483 745.05 306.647 745.05 306.833C745.05 307.02 744.98 307.183 744.84 307.323C744.71 307.454 744.551 307.519 744.364 307.519ZM757.778 314.841C757.535 314.841 757.227 314.818 756.854 314.771C756.49 314.715 756.117 314.622 755.734 314.491C755.361 314.361 755.043 314.179 754.782 313.945L755.93 313.371C756.257 313.502 756.593 313.591 756.938 313.637C757.293 313.675 757.619 313.693 757.918 313.693C758.114 313.693 758.254 313.749 758.338 313.861C758.431 313.964 758.478 314.09 758.478 314.239C758.478 314.389 758.413 314.529 758.282 314.659C758.151 314.781 757.983 314.841 757.778 314.841ZM747.838 314.841L747.978 313.693H750.904C751.716 313.693 752.416 313.661 753.004 313.595C753.601 313.521 754.091 313.413 754.474 313.273C754.857 313.133 755.141 312.956 755.328 312.741C755.515 312.517 755.608 312.256 755.608 311.957C755.608 311.799 755.557 311.626 755.454 311.439C755.351 311.253 755.193 311.094 754.978 310.963C754.763 310.823 754.479 310.753 754.124 310.753C753.676 310.753 753.228 310.87 752.78 311.103C752.341 311.337 751.921 311.631 751.52 311.985C751.128 312.331 750.778 312.685 750.47 313.049C750.162 313.413 749.915 313.731 749.728 314.001L748.51 313.959C748.809 313.474 749.163 312.979 749.574 312.475C749.994 311.962 750.451 311.491 750.946 311.061C751.45 310.623 751.977 310.273 752.528 310.011C753.079 309.741 753.639 309.605 754.208 309.605C754.721 309.605 755.16 309.713 755.524 309.927C755.897 310.133 756.182 310.413 756.378 310.767C756.583 311.122 756.686 311.523 756.686 311.971C756.686 312.41 756.527 312.853 756.21 313.301C755.893 313.74 755.347 314.085 754.572 314.337C754.18 314.468 753.732 314.571 753.228 314.645C752.724 314.72 752.15 314.771 751.506 314.799C750.862 314.827 750.129 314.841 749.308 314.841H747.838ZM749.168 313.455L748.888 304.775H750.022L750.302 312.475L749.168 313.455ZM757.778 314.841L757.904 313.693C758.436 313.693 758.809 313.642 759.024 313.539C759.238 313.437 759.36 313.255 759.388 312.993C759.425 312.732 759.434 312.368 759.416 311.901L759.15 304.775H760.284L760.564 311.775C760.582 312.27 760.564 312.709 760.508 313.091C760.461 313.474 760.34 313.796 760.144 314.057C759.957 314.319 759.672 314.515 759.29 314.645C758.916 314.776 758.412 314.841 757.778 314.841Z" fill="#A2A2A2"/>
<g filter="url(#filter1_d_301_23)">
<rect width="107" height="48.5676" rx="6" transform="matrix(-1 4.48204e-05 -3.84776e-05 -1 439.001 334.582)" fill="#B1BED0"/>
</g>
<path d="M354.345 317.056C354.345 316.8 354.366 316.528 354.409 316.24C354.462 315.941 354.537 315.626 354.633 315.296C354.739 314.954 354.867 314.597 355.017 314.224L356.169 314.672C356.062 314.97 355.966 315.253 355.881 315.52C355.806 315.786 355.747 316.037 355.705 316.272C355.673 316.506 355.657 316.73 355.657 316.944C355.657 317.488 355.801 317.946 356.089 318.32C356.377 318.693 356.75 318.97 357.209 319.152C357.678 319.344 358.179 319.44 358.713 319.44C359.758 319.44 360.574 319.253 361.161 318.88C361.747 318.517 362.158 318.032 362.393 317.424C362.627 316.826 362.729 316.17 362.697 315.456L362.345 305.616H363.673L363.929 313.728C363.95 314.272 364.035 314.698 364.185 315.008C364.345 315.306 364.558 315.514 364.825 315.632C365.091 315.749 365.385 315.808 365.705 315.808C365.929 315.808 366.089 315.872 366.185 316C366.291 316.117 366.345 316.261 366.345 316.432C366.345 316.602 366.27 316.762 366.121 316.912C365.971 317.05 365.779 317.12 365.545 317.12C365.214 317.12 364.931 317.077 364.697 316.992C364.462 316.896 364.27 316.778 364.121 316.64C363.971 316.49 363.854 316.325 363.769 316.144C363.683 315.952 363.619 315.76 363.577 315.568L364.025 316.016C363.982 316.581 363.859 317.141 363.657 317.696C363.465 318.261 363.166 318.773 362.761 319.232C362.355 319.69 361.811 320.058 361.129 320.336C360.457 320.613 359.625 320.752 358.633 320.752C358.078 320.752 357.539 320.666 357.017 320.496C356.505 320.336 356.046 320.096 355.641 319.776C355.246 319.456 354.931 319.066 354.697 318.608C354.462 318.16 354.345 317.642 354.345 317.056ZM365.872 317.12L366.032 315.808C366.331 315.808 366.566 315.744 366.736 315.616C366.918 315.488 367.088 315.274 367.248 314.976C367.419 314.677 367.632 314.277 367.888 313.776C368.144 313.264 368.4 312.848 368.656 312.528C368.923 312.197 369.179 311.941 369.424 311.76C369.68 311.568 369.92 311.434 370.144 311.36C370.368 311.285 370.576 311.248 370.768 311.248C371.12 311.248 371.435 311.328 371.712 311.488C371.99 311.637 372.251 311.898 372.496 312.272C372.742 312.634 372.992 313.136 373.248 313.776C373.494 314.362 373.712 314.805 373.904 315.104C374.107 315.392 374.315 315.584 374.528 315.68C374.752 315.765 375.003 315.808 375.28 315.808C375.504 315.808 375.664 315.872 375.76 316C375.867 316.117 375.92 316.261 375.92 316.432C375.92 316.602 375.846 316.762 375.696 316.912C375.547 317.05 375.355 317.12 375.12 317.12C374.704 317.12 374.32 317.05 373.968 316.912C373.627 316.773 373.339 316.554 373.104 316.256L373.328 315.92C373.211 316.25 373.051 316.522 372.848 316.736C372.656 316.938 372.438 317.088 372.192 317.184C371.947 317.29 371.686 317.344 371.408 317.344C371.056 317.344 370.694 317.269 370.32 317.12C369.958 316.97 369.606 316.757 369.264 316.48C368.923 316.202 368.624 315.877 368.368 315.504C368.091 315.994 367.824 316.357 367.568 316.592C367.323 316.816 367.067 316.96 366.8 317.024C366.534 317.088 366.224 317.12 365.872 317.12ZM368.976 314.288C369.158 314.586 369.35 314.848 369.552 315.072C369.766 315.296 369.979 315.482 370.192 315.632C370.406 315.77 370.614 315.877 370.816 315.952C371.03 316.016 371.222 316.048 371.392 316.048C371.766 316.048 372.038 315.914 372.208 315.648C372.39 315.381 372.384 315.008 372.192 314.528C372.096 314.282 371.995 314.042 371.888 313.808C371.792 313.573 371.686 313.36 371.568 313.168C371.451 312.965 371.318 312.81 371.168 312.704C371.019 312.586 370.854 312.528 370.672 312.528C370.512 312.528 370.342 312.581 370.16 312.688C369.99 312.794 369.803 312.976 369.6 313.232C369.408 313.488 369.2 313.84 368.976 314.288ZM375.442 317.12L375.602 315.808C376.232 315.808 376.722 315.786 377.074 315.744C377.426 315.69 377.677 315.568 377.826 315.376C377.976 315.173 378.05 314.858 378.05 314.432C378.05 314.165 378.008 313.85 377.922 313.488C377.837 313.114 377.725 312.72 377.586 312.304C377.448 311.888 377.298 311.477 377.138 311.072L378.434 310.592C378.573 310.933 378.701 311.322 378.818 311.76C378.946 312.197 379.053 312.629 379.138 313.056C379.224 313.482 379.266 313.856 379.266 314.176C379.266 314.709 379.192 315.162 379.042 315.536C378.904 315.909 378.68 316.213 378.37 316.448C378.061 316.682 377.661 316.853 377.17 316.96C376.69 317.066 376.114 317.12 375.442 317.12ZM378.402 320.144C378.178 320.144 377.986 320.064 377.826 319.904C377.677 319.754 377.602 319.573 377.602 319.36C377.602 319.146 377.677 318.96 377.826 318.8C377.986 318.64 378.178 318.56 378.402 318.56C378.616 318.56 378.797 318.64 378.946 318.8C379.106 318.96 379.186 319.146 379.186 319.36C379.186 319.573 379.106 319.754 378.946 319.904C378.797 320.064 378.616 320.144 378.402 320.144ZM376.21 320.144C375.986 320.144 375.794 320.064 375.634 319.904C375.485 319.754 375.41 319.573 375.41 319.36C375.41 319.146 375.485 318.96 375.634 318.8C375.794 318.64 375.986 318.56 376.21 318.56C376.424 318.56 376.605 318.64 376.754 318.8C376.914 318.96 376.994 319.146 376.994 319.36C376.994 319.573 376.914 319.754 376.754 319.904C376.605 320.064 376.424 320.144 376.21 320.144ZM382.015 317.04L381.695 305.616H382.991L383.311 317.04H382.015ZM392.592 315.808C393.126 315.808 393.547 315.754 393.856 315.648C394.176 315.541 394.406 315.386 394.544 315.184C394.694 314.97 394.768 314.725 394.768 314.448C394.768 314.234 394.71 313.978 394.592 313.68C394.486 313.381 394.336 313.05 394.144 312.688C393.952 312.314 393.728 311.925 393.472 311.52C393.227 311.104 392.96 310.682 392.672 310.256L393.776 309.536C394.192 310.165 394.555 310.762 394.864 311.328C395.174 311.882 395.435 312.405 395.648 312.896C395.862 313.376 396.032 313.829 396.16 314.256C396.31 314.725 396.475 315.072 396.656 315.296C396.848 315.52 397.046 315.664 397.248 315.728C397.451 315.781 397.638 315.808 397.808 315.808C398.032 315.808 398.198 315.872 398.304 316C398.411 316.117 398.464 316.261 398.464 316.432C398.464 316.602 398.39 316.762 398.24 316.912C398.091 317.05 397.899 317.12 397.664 317.12C397.312 317.12 396.966 317.056 396.624 316.928C396.294 316.789 396.006 316.57 395.76 316.272C395.515 315.962 395.344 315.552 395.248 315.04L395.888 314.528C395.888 314.954 395.798 315.37 395.616 315.776C395.435 316.17 395.104 316.496 394.624 316.752C394.155 317.008 393.478 317.136 392.592 317.136C392.208 317.136 391.835 317.104 391.472 317.04C391.12 316.976 390.795 316.885 390.496 316.768C390.198 316.64 389.936 316.49 389.712 316.32L390.352 315.216C390.566 315.354 390.864 315.488 391.248 315.616C391.632 315.744 392.08 315.808 392.592 315.808ZM397.988 317.12L398.148 315.808C398.681 315.808 399.097 315.77 399.396 315.696C399.694 315.61 399.918 315.456 400.068 315.232C400.228 314.997 400.356 314.661 400.452 314.224C400.548 313.786 400.665 313.216 400.804 312.512L402.052 312.752C402.009 312.944 401.961 313.157 401.908 313.392C401.854 313.626 401.806 313.861 401.764 314.096C401.732 314.32 401.716 314.517 401.716 314.688C401.716 314.848 401.726 314.997 401.748 315.136C401.769 315.274 401.849 315.392 401.988 315.488C402.126 315.584 402.361 315.664 402.692 315.728C403.022 315.781 403.497 315.808 404.116 315.808C404.34 315.808 404.5 315.872 404.596 316C404.702 316.117 404.756 316.261 404.756 316.432C404.756 316.602 404.681 316.762 404.532 316.912C404.382 317.05 404.19 317.12 403.956 317.12C403.305 317.12 402.788 317.088 402.404 317.024C402.02 316.949 401.726 316.842 401.524 316.704C401.332 316.565 401.193 316.394 401.108 316.192C401.033 315.978 400.974 315.733 400.932 315.456L401.412 315.488C401.241 315.829 401.054 316.106 400.852 316.32C400.66 316.533 400.436 316.698 400.18 316.816C399.924 316.933 399.614 317.013 399.252 317.056C398.9 317.098 398.478 317.12 397.988 317.12ZM402.02 320.144C401.796 320.144 401.604 320.064 401.444 319.904C401.294 319.754 401.22 319.573 401.22 319.36C401.22 319.146 401.294 318.96 401.444 318.8C401.604 318.64 401.796 318.56 402.02 318.56C402.233 318.56 402.414 318.64 402.564 318.8C402.724 318.96 402.804 319.146 402.804 319.36C402.804 319.573 402.724 319.754 402.564 319.904C402.414 320.064 402.233 320.144 402.02 320.144ZM399.828 320.144C399.604 320.144 399.412 320.064 399.252 319.904C399.102 319.754 399.028 319.573 399.028 319.36C399.028 319.146 399.102 318.96 399.252 318.8C399.412 318.64 399.604 318.56 399.828 318.56C400.041 318.56 400.222 318.64 400.372 318.8C400.532 318.96 400.612 319.146 400.612 319.36C400.612 319.573 400.532 319.754 400.372 319.904C400.222 320.064 400.041 320.144 399.828 320.144ZM404.277 317.12L404.437 315.808C405.066 315.808 405.557 315.786 405.909 315.744C406.261 315.69 406.511 315.568 406.661 315.376C406.81 315.173 406.885 314.858 406.885 314.432C406.885 314.165 406.842 313.85 406.757 313.488C406.671 313.114 406.559 312.72 406.421 312.304C406.282 311.888 406.133 311.477 405.973 311.072L407.269 310.592C407.407 310.933 407.535 311.322 407.653 311.76C407.781 312.197 407.887 312.629 407.973 313.056C408.058 313.482 408.101 313.856 408.101 314.176C408.101 314.709 408.026 315.162 407.877 315.536C407.738 315.909 407.514 316.213 407.205 316.448C406.895 316.682 406.495 316.853 406.005 316.96C405.525 317.066 404.949 317.12 404.277 317.12ZM407.237 320.144C407.013 320.144 406.821 320.064 406.661 319.904C406.511 319.754 406.437 319.573 406.437 319.36C406.437 319.146 406.511 318.96 406.661 318.8C406.821 318.64 407.013 318.56 407.237 318.56C407.45 318.56 407.631 318.64 407.781 318.8C407.941 318.96 408.021 319.146 408.021 319.36C408.021 319.573 407.941 319.754 407.781 319.904C407.631 320.064 407.45 320.144 407.237 320.144ZM405.045 320.144C404.821 320.144 404.629 320.064 404.469 319.904C404.319 319.754 404.245 319.573 404.245 319.36C404.245 319.146 404.319 318.96 404.469 318.8C404.629 318.64 404.821 318.56 405.045 318.56C405.258 318.56 405.439 318.64 405.589 318.8C405.749 318.96 405.829 319.146 405.829 319.36C405.829 319.573 405.749 319.754 405.589 319.904C405.439 320.064 405.258 320.144 405.045 320.144ZM414.034 317.12C413.18 317.12 412.524 317.024 412.066 316.832C411.618 316.64 411.308 316.341 411.138 315.936C410.967 315.53 410.871 315.008 410.85 314.368L410.53 305.616H411.842L412.162 313.856C412.183 314.378 412.231 314.784 412.306 315.072C412.391 315.349 412.572 315.541 412.85 315.648C413.138 315.754 413.586 315.808 414.194 315.808C414.418 315.808 414.578 315.872 414.674 316C414.78 316.117 414.834 316.261 414.834 316.432C414.834 316.602 414.759 316.762 414.61 316.912C414.46 317.05 414.268 317.12 414.034 317.12ZM414.354 317.12L414.514 315.808C415.143 315.808 415.634 315.786 415.986 315.744C416.338 315.69 416.589 315.568 416.738 315.376C416.887 315.173 416.962 314.858 416.962 314.432C416.962 314.165 416.919 313.85 416.834 313.488C416.749 313.114 416.637 312.72 416.498 312.304C416.359 311.888 416.21 311.477 416.05 311.072L417.346 310.592C417.485 310.933 417.613 311.322 417.73 311.76C417.858 312.197 417.965 312.629 418.05 313.056C418.135 313.482 418.178 313.856 418.178 314.176C418.178 314.709 418.103 315.162 417.954 315.536C417.815 315.909 417.591 316.213 417.282 316.448C416.973 316.682 416.573 316.853 416.082 316.96C415.602 317.066 415.026 317.12 414.354 317.12ZM417.842 308.928C417.618 308.928 417.426 308.853 417.266 308.704C417.117 308.544 417.042 308.357 417.042 308.144C417.042 307.93 417.117 307.744 417.266 307.584C417.426 307.424 417.618 307.344 417.842 307.344C418.055 307.344 418.237 307.424 418.386 307.584C418.546 307.744 418.626 307.93 418.626 308.144C418.626 308.357 418.546 308.544 418.386 308.704C418.237 308.853 418.055 308.928 417.842 308.928ZM415.65 308.928C415.426 308.928 415.234 308.853 415.074 308.704C414.925 308.544 414.85 308.357 414.85 308.144C414.85 307.93 414.925 307.744 415.074 307.584C415.234 307.424 415.426 307.344 415.65 307.344C415.863 307.344 416.045 307.424 416.194 307.584C416.354 307.744 416.434 307.93 416.434 308.144C416.434 308.357 416.354 308.544 416.194 308.704C416.045 308.853 415.863 308.928 415.65 308.928Z" fill="white"/>
<defs>
<filter id="filter0_d_301_23" x="411.999" y="276" width="378.001" height="72.583" filterUnits="userSpaceOnUse" color-interpolation-filters="sRGB">
<feFlood flood-opacity="0" result="BackgroundImageFix"/>
<feColorMatrix in="SourceAlpha" type="matrix" values="0 0 0 0 0 0 0 0 0 0 0 0 0 0 0 0 0 0 127 0" result="hardAlpha"/>
<feOffset dy="2"/>
<feGaussianBlur stdDeviation="6"/>
<feComposite in2="hardAlpha" operator="out"/>
<feColorMatrix type="matrix" values="0 0 0 0 0.204167 0 0 0 0 0.204167 0 0 0 0 0.204167 0 0 0 0.15 0"/>
<feBlend mode="normal" in2="BackgroundImageFix" result="effect1_dropShadow_301_23"/>
<feBlend mode="normal" in="SourceGraphic" in2="effect1_dropShadow_301_23" result="shape"/>
</filter>
<filter id="filter1_d_301_23" x="316.999" y="276.015" width="131.001" height="72.572" filterUnits="userSpaceOnUse" color-interpolation-filters="sRGB">
<feFlood flood-opacity="0" result="BackgroundImageFix"/>
<feColorMatrix in="SourceAlpha" type="matrix" values="0 0 0 0 0 0 0 0 0 0 0 0 0 0 0 0 0 0 127 0" result="hardAlpha"/>
<feOffset dx="-3" dy="2"/>
<feGaussianBlur stdDeviation="6"/>
<feComposite in2="hardAlpha" operator="out"/>
<feColorMatrix type="matrix" values="0 0 0 0 0 0 0 0 0 0 0 0 0 0 0 0 0 0 0.15 0"/>
<feBlend mode="normal" in2="BackgroundImageFix" result="effect1_dropShadow_301_23"/>
<feBlend mode="normal" in="SourceGraphic" in2="effect1_dropShadow_301_23" result="shape"/>
</filter>
</defs>
</svg>
