<svg width="40" height="36" viewBox="0 0 40 36" fill="none" xmlns="http://www.w3.org/2000/svg">
<g id="Layer_1" clip-path="url(#clip0_1541_9)">
<path id="Vector" d="M10.1 0C9.8 0.1188 9.476 0.2124 9.196 0.3636C8.4 0.7956 8.028 1.4832 8.012 2.286C7.976 4.1004 8 5.9148 8.06 7.758C8.628 7.0776 9.728 6.7752 9.62 5.6304C9.524 4.6044 9.596 3.564 9.6 2.5272C9.6 1.71 9.896 1.4436 10.792 1.4436C19.656 1.4436 28.524 1.4436 37.388 1.4436C38.208 1.4436 38.4 1.6236 38.4 2.3868C38.4 11.0988 38.4 19.8144 38.4 28.5264C38.4 30.222 38.4 31.914 38.4 33.6096C38.4 34.3584 38.168 34.5636 37.324 34.5636C28.424 34.5636 19.528 34.5636 10.628 34.5636C9.792 34.5636 9.6 34.3872 9.6 33.6348C9.6 32.436 9.62 31.2336 9.584 30.0348C9.576 29.7684 9.416 29.466 9.228 29.2536C8.9 28.8792 8.496 28.5588 8 28.1052C8 28.368 8 28.5012 8 28.6344C8 30.2076 8 31.7844 8 33.3576C8 34.7436 8.472 35.3736 9.884 35.892C9.96 35.9208 10.028 35.964 10.1 36H38C38.132 35.928 38.28 35.8704 38.4 35.784C38.804 35.4996 39.24 35.2368 39.588 34.902C39.8 34.7004 39.868 34.38 40 34.11C40 23.3712 40 12.6288 40 1.89C39.716 1.3608 39.552 0.7524 38.916 0.4356C38.588 0.2736 38.24 0.144 37.9 0C28.632 0 19.368 0 10.1 0Z" fill="#363636"/>
<path id="Vector_2" d="M-0.00031662 18.1804C2.85968 20.758 5.71568 23.3392 8.57569 25.9168C8.75168 26.0752 8.93568 26.23 9.13169 26.3704C9.52769 26.6512 9.89168 26.6296 10.1877 26.3236C10.4797 26.0212 10.4757 25.6756 10.1317 25.366C8.70368 24.0628 7.26369 22.774 5.83168 21.4744C4.85168 20.5816 3.88368 19.678 2.84768 18.724H3.54368C10.9917 18.724 18.4397 18.724 25.8877 18.7168C26.1917 18.7168 26.5437 18.6808 26.7917 18.544C26.9877 18.4324 27.1677 18.1372 27.1557 17.9284C27.1477 17.7448 26.9037 17.4964 26.6957 17.4172C26.4037 17.3056 26.0477 17.2876 25.7197 17.2876C18.3037 17.2804 10.8917 17.284 3.47569 17.284C3.26369 17.284 3.05169 17.284 2.74768 17.284C2.88769 17.1364 2.95568 17.0464 3.04368 16.9672C5.29968 14.9476 7.55968 12.9316 9.81568 10.9084C9.96768 10.7716 10.1117 10.624 10.2317 10.462C10.4517 10.1668 10.3717 9.88598 10.0997 9.65558C9.83568 9.42878 9.52369 9.32798 9.20368 9.55838C8.87968 9.79238 8.57568 10.0516 8.28368 10.3144C5.81168 12.5212 3.34369 14.7316 0.875685 16.942C0.583685 17.2048 0.291685 17.4676 0.003685 17.7304C0.003685 17.8816 0.003685 18.0292 0.003685 18.1804H-0.00031662Z" fill="#363636"/>
<path id="Vector_3" d="M40 34.1104C39.868 34.3804 39.8 34.7008 39.588 34.906C39.24 35.2408 38.804 35.5036 38.4 35.788C38.28 35.8744 38.136 35.932 38 36.004H40C40 35.374 40 34.744 40 34.114V34.1104Z" fill="white"/>
<path id="Vector_4" d="M37.9 0C38.24 0.144 38.588 0.2736 38.916 0.4356C39.552 0.7524 39.716 1.3608 40 1.89V0C39.3 0 38.6 0 37.9 0Z" fill="white"/>
</g>
<defs>
<clipPath id="clip0_1541_9">
<rect width="40" height="36" fill="white" transform="matrix(-1 0 0 1 40 0)"/>
</clipPath>
</defs>
</svg>
