<?xml version="1.0" encoding="UTF-8"?>
<svg id="Layer_1" data-name="Layer 1" xmlns="http://www.w3.org/2000/svg" viewBox="0 0 330.26 399.82">
  <defs>
    <style>
      .cls-1 {
        fill: #4f67af;
      }
    </style>
  </defs>
  <path d="M0,0C.49,.32,25.12,13.97,29.31,16.51c2.36,1.27,4.71,2.54,6.8,4.06,.52,.25,1.05,1.27,1.05,1.78,.26,6.86,.52,13.46,.52,20.32v98.81c.79-.51,1.31-.76,1.57-1.02,4.19-3.81,8.11-7.87,12.04-11.68,1.05-1.02,2.88-1.78,3.4-3.56,.26-1.02,.79-1.78,.79-2.79v-57.66c0-10.67-.26-21.08-.26-31.75,0-.51,0-1.02,.26-1.78,2.36,1.27,4.71,2.29,6.8,3.56,2.09,1.27,4.45,2.54,6.54,3.81,3.93,2.29,7.59,4.32,11.51,6.6,3.4,2.03,7.07,4.06,10.73,5.84,1.05,.51,1.57,1.52,1.57,2.54v56.65c0,8.89,.26,17.53,.52,26.42,0,1.78-.52,3.3-2.09,4.83-7.07,6.6-13.87,13.46-20.94,20.32-.52,.51-.79,1.02-1.31,1.52,.52,.25,1.31,.51,1.83,.76,4.19,1.02,8.11,2.03,12.3,2.79,2.62,.51,5.5,1.27,8.11,1.78,1.05,.25,1.57,.76,1.57,2.03v129.04c0,1.27-.52,1.78-1.57,2.29-4.97,2.79-10.21,5.84-15.18,8.64-4.19,2.54-8.64,4.83-12.82,7.37-2.35,1.27-4.71,2.54-7.59,4.06,0-2.29-.26-4.32-.26-6.35v-115.83c-.26-1.52-1.31-2.03-2.62-2.54-4.19-.76-8.11-1.78-12.3-2.54,0,0-3.35-1-3.41,3.31l.02,2.92c1.03,36.7,.25,73.41,.51,110.11,0,6.1,.26,12.19,.26,18.04,0,2.03-.79,3.3-2.36,4.06-4.19,2.29-8.37,4.83-12.56,7.11-3.66,2.03-7.33,4.06-10.73,6.1-2.88,1.52-5.5,3.3-8.37,4.83-1.05,.51-2.09,1.02-3.14,1.52V122.44"/>
  <path class="cls-1" d="M149.17,228.11c3.4-1.78,6.54-3.56,9.68-5.33,2.62-1.52,5.5-3.05,8.11-4.57,.79-.51,2.36-.51,3.14,0,4.45,2.29,8.64,4.57,12.82,6.86,4.71,2.54,9.16,5.08,13.87,7.62,2.88,1.52,5.5,3.05,8.37,4.57,.26,.25,.26,.51,.52,.76-1.83,1.02-3.66,2.03-5.23,3.05-4.19,2.29-8.37,4.83-12.56,7.11-2.88,1.52-5.76,3.3-8.64,4.83-5.23,3.05-10.21,5.84-15.44,8.89-2.36,1.27-4.71,2.54-6.8,3.81-4.19,2.29-8.37,4.83-12.56,7.11-5.76,3.3-11.51,6.35-17.27,9.65-3.66,2.03-7.59,4.32-11.25,6.35-1.05,.51-1.83,1.27-2.88,1.78-.26,.25-.79,.25-1.05,.25v-113.55c0-17.53-.26-35.05-.52-52.58v-1.52c2.36,1.27,4.71,2.54,6.8,3.56,1.57,.76,3.14,1.78,4.71,2.79,3.66,2.03,7.33,4.06,10.99,6.1,2.36,1.27,4.71,2.54,7.33,4.06,3.66,2.03,7.59,4.32,11.25,6.35,2.35,1.27,4.45,2.54,6.8,3.56,3.93,2.03,7.59,4.32,11.51,6.35,4.45,2.54,9.16,5.08,13.61,7.37,4.97,2.79,9.68,5.33,14.66,8.13,4.19,2.54,8.64,4.83,12.82,7.37,3.4,1.78,6.8,3.81,10.21,5.59,1.57,.76,2.88,1.02,4.45,0,3.93-2.54,7.85-4.57,12.04-6.86,1.05-.51,2.09-1.27,3.4-2.03-1.05-.76-2.09-1.52-3.14-2.03-3.66-2.03-7.59-4.06-11.25-6.1-4.19-2.29-8.37-4.83-12.56-7.11-2.62-1.52-4.97-2.54-7.59-4.06-3.66-2.03-7.07-4.06-10.73-6.1-2.62-1.52-5.23-2.79-8.11-4.32-3.4-2.03-6.8-3.81-10.21-5.84-2.62-1.52-5.5-2.79-8.11-4.32-4.45-2.54-8.9-5.08-13.61-7.62-2.62-1.52-5.23-2.79-7.59-4.06-4.45-2.54-9.16-5.08-13.61-7.62-5.23-3.05-10.47-5.84-15.96-8.64-2.09-1.02-4.19-2.29-6.02-3.56-1.31-.76-2.09-1.52-2.09-3.3v-34.29c0-1.52-.26-3.3-.52-5.08,2.88,1.78,5.5,3.05,8.11,4.57,5.23,3.05,10.73,5.84,15.96,8.89,4.71,2.54,9.68,5.33,14.39,8.13,4.19,2.29,8.11,4.57,12.3,6.86,4.97,2.79,9.68,5.33,14.66,8.13,3.93,2.29,8.11,4.32,12.04,6.6,4.45,2.54,8.9,5.08,13.09,7.62,2.62,1.52,5.5,2.79,8.11,4.32,3.4,2.03,6.8,3.81,10.21,5.84,2.09,1.27,4.19,2.29,6.54,3.56,4.71,2.54,9.16,5.33,13.87,7.87,2.62,1.52,5.23,2.79,7.85,4.32,5.23,2.79,10.47,5.84,15.96,8.64,4.19,2.29,8.11,4.57,12.3,6.86,4.71,2.79,9.68,5.33,14.39,8.13,4.19,2.29,8.11,4.57,12.3,6.86,4.19,2.29,8.11,4.57,12.3,6.86,.26,.25,.52,.25,.79,.51-2.62,1.52-4.97,2.79-7.33,4.06-3.93,2.29-7.59,4.32-11.51,6.6-2.09,1.27-4.45,2.54-6.54,3.56-3.14,1.78-6.28,3.56-9.42,5.33-2.36,1.27-4.71,2.54-6.8,3.81-4.19,2.29-8.37,4.83-12.82,7.37-4.97,2.79-9.94,5.59-14.92,8.64-3.4,2.03-6.8,3.81-10.21,5.59-3.66,2.03-7.07,4.06-10.73,6.1-1.05,.76-2.36,.51-3.4,0-2.88-1.52-5.76-3.3-8.64-4.83-5.5-3.05-10.99-6.1-16.49-9.14-3.66-2.03-7.33-4.06-10.99-6.1-4.45-2.54-8.9-5.08-13.35-7.62-2.35-1.27-4.71-2.54-6.8-3.81-4.19-2.54-8.64-4.83-12.82-7.37-1.31-.76-2.88-1.52-4.45-2.29v27.69c-.26,4.83-.79,9.65,.26,14.48Z"/>
  <path d="M34.81,372.89h1.57c4.71-.25,8.64,3.3,8.9,7.87,.26,4.06-1.31,7.11-4.19,9.91-4.19,3.81-9.16,6.6-14.39,8.89-.26,.25-.52,0-1.05,.25-4.19-10.92-8.37-21.85-12.56-32.77,4.97-3.56,9.68-7.87,16.49-8.13,6.28-.51,10.21,6.1,7.07,11.43-.26,.76-1.05,1.52-1.83,2.54Zm-4.71,18.29c2.88-1.27,5.23-2.79,6.8-5.08,1.05-1.78,1.05-4.06-.26-5.84-1.31-1.52-2.88-2.03-5.23-1.27-.79,.25-1.31,.51-1.83,.76q-3.14,1.52-1.83,4.57c.52,2.29,1.57,4.57,2.36,6.86Zm-5.5-14.99c2.36-1.27,4.71-2.54,6.02-4.83,1.05-1.52,1.05-3.3,0-4.83-1.05-1.52-2.62-2.03-4.19-1.27-1.57,.51-2.88,1.52-4.19,2.29-.26,.25-.52,.76-.26,1.27,.79,2.29,1.57,4.83,2.62,7.37Z"/>
  <path d="M91.59,362.23c-2.09,1.27-4.19,2.29-6.28,3.56-.52-1.02-.78-2.03-1.31-3.05-3.66-9.65-7.33-19.31-10.99-28.7-.52-1.02-.26-1.52,.52-2.29,3.4-2.79,7.07-5.33,11.25-6.6,8.37-2.79,13.61,3.3,13.87,9.91,.26,5.33-2.62,9.14-6.8,11.94-1.31,1.02-2.88,1.78-4.19,2.54-1.05,.51-1.05,1.02-.78,1.78,2.09,3.3,3.4,7.11,4.71,10.92Zm-6.8-18.04c2.36-.76,4.19-1.78,5.76-3.81,1.05-1.52,1.57-3.05,1.31-4.83-.26-2.79-2.88-5.33-5.5-4.57-1.83,.51-3.4,1.52-4.97,2.54-.26,.25-.26,.76-.26,1.02,1.31,3.05,2.36,6.35,3.66,9.65Z"/>
  <path d="M318.48,230.39c-2.09,1.27-3.93,2.29-5.76,3.3-.79-1.52-1.57-2.79-2.36-4.32h-.26c-.26,1.02-.26,2.03-.52,3.05-.52,3.56-3.4,6.35-7.33,7.11-3.14,.51-6.54-1.27-8.64-4.57-5.76-9.65-2.62-20.32,7.59-25.4,1.83-1.02,3.93-1.52,5.76-2.29,1.05-.51,1.57-.25,1.83,.76,2.35,6.1,4.71,11.94,7.07,18.04,1.05,1.52,1.83,2.79,2.62,4.32Zm-10.99-3.56c-.26-3.3-1.57-6.35-2.88-9.4-.26-.76-1.05-2.29-1.31-2.29-1.05,0-1.83,.76-2.62,1.27-.26,.25-.52,.51-.79,1.02-2.09,2.54-2.09,5.59-1.31,8.38,.52,1.78,1.31,3.56,2.62,5.08,1.57,2.03,4.19,1.78,5.23-.51,.52-.76,.52-2.29,1.05-3.56Z"/>
  <path d="M251.76,240.55c3.14,0,5.5,1.02,7.59,3.3,4.71,5.08,6.02,13.72,1.31,19.81-2.35,3.05-5.23,4.83-9.16,5.59-4.19,.76-8.11-1.27-10.73-5.08-4.45-6.86-3.4-15.24,2.35-20.32,2.62-2.03,5.23-3.3,8.64-3.3Zm-6.54,12.45c0,3.05,1.05,5.84,3.14,8.13,2.62,2.79,6.28,1.78,7.59-1.52,1.31-3.56-.52-9.65-3.66-11.94-1.31-1.02-2.62-1.27-4.19-.51-2.36,1.27-2.88,3.3-2.88,5.84Z"/>
  <path d="M121.15,322.6c0-6.35,3.93-11.68,9.94-13.97,4.19-1.52,8.9-.51,11.78,3.05,5.23,6.1,5.76,16.26-1.57,22.1-3.14,2.54-6.8,4.06-11.25,2.79-2.36-.76-4.19-2.03-5.5-4.06-2.09-3.05-3.4-6.35-3.4-9.91Zm7.07-2.29c0,3.05,1.05,6.1,3.14,8.38,2.62,2.79,6.54,1.78,7.59-1.78,1.05-4.32-.26-8.38-3.4-11.43-1.57-1.78-4.19-1.52-6.02,.25-.79,1.27-1.31,2.79-1.31,4.57Z"/>
  <path d="M291.8,245.89c-2.09,1.27-4.19,2.54-6.54,3.81-1.05-2.54-1.83-5.08-2.88-7.62-1.05-2.79-2.09-5.59-3.4-8.13-.52-1.27-1.31-2.29-2.88-2.29s-2.62,1.27-3.14,2.79c-1.05,2.79-.52,5.33,.52,7.87,1.31,3.56,2.62,7.11,3.93,10.41,.52,1.02,.26,1.52-.79,2.03-1.83,1.02-3.4,2.03-5.23,3.05-2.09-5.59-4.19-10.92-6.28-16.26-.79-2.29-1.83-4.83-2.88-7.11-.26-.76-.26-1.27,.52-1.78,1.57-.76,3.14-1.78,4.71-2.79,.52,1.27,1.31,2.54,1.83,3.81,.52-1.78,.79-3.05,1.31-4.32,1.31-2.54,3.4-4.32,6.02-5.33,2.62-.76,5.5,.25,7.07,2.79,1.31,2.29,2.36,4.57,3.4,7.11,1.83,3.81,3.4,7.87,4.71,11.94Z"/>
  <path d="M68.04,368.33c.79,.76,1.31,1.78,1.83,2.54,1.31,1.78,1.57,1.78-.26,3.56-2.36,2.54-5.23,4.57-8.64,5.84-3.93,1.52-8.11,.51-10.99-2.29-5.23-5.33-5.76-14.22-1.57-20.07,2.36-3.05,5.23-5.08,9.16-5.33,2.88-.25,5.23,.76,6.8,3.3,1.57,2.54,1.83,5.08,.26,7.62-1.83,3.05-4.45,5.08-7.33,6.86-.78,.51-1.57,.76-2.09,1.27-.78,.25-.78,.76-.26,1.27,1.31,1.52,3.4,2.03,5.5,1.27,2.88-1.02,4.71-2.29,7.59-5.84Zm-15.44-1.27c2.36-1.27,4.45-2.54,6.02-4.32,1.05-1.27,1.05-2.54,0-3.3-.78-.76-2.09-1.02-3.4-.25-2.62,1.27-3.66,4.32-2.62,7.87Z"/>
  <path d="M185.29,299.99c1.05,1.27,1.83,2.54,2.88,3.81,.26,.25,.26,.76,0,1.02-3.14,4.06-6.8,6.86-11.78,7.87-3.93,.76-7.07-.76-9.42-3.81-4.45-5.59-4.71-13.46-.79-19.05,2.36-3.05,5.23-5.08,9.16-5.59,2.88-.25,5.23,.76,6.8,3.3,1.57,2.54,1.83,5.08,.26,7.62-1.83,3.05-4.97,5.08-7.85,7.11-.26,0-.26,.25-.52,.25-.52,.51-1.05,1.02-1.57,1.52,.79,.51,1.57,1.78,2.62,1.78,1.31,.25,2.88,0,4.19-.51,2.36-1.02,4.19-3.05,6.02-5.33Zm-15.44-1.27c1.05-.51,2.09-1.02,2.88-1.78,1.31-1.02,2.36-2.03,3.4-3.05,.79-.76,.79-2.03,0-2.79-.78-.76-1.57-1.02-2.88-.51-3.14,1.02-4.71,4.57-3.4,8.13Z"/>
  <path d="M155.71,288.05c-4.97,1.78-4.71,4.57-3.66,7.87,.26,.76,.79,1.02,1.31,.51,1.05-.76,2.36-1.27,3.66-2.03,.79,1.78,1.31,3.56,2.09,5.33-1.31,.76-2.36,1.52-3.4,2.03-.79,.51-1.05,.76-.52,1.78,2.09,5.59,4.19,11.18,6.54,16.77,.26,1.02,.26,1.52-.52,2.03-1.83,1.02-3.4,2.03-5.23,3.05-2.35-6.35-4.71-12.7-7.33-19.05-1.05,.51-2.09,1.02-2.88,1.52-.78-1.78-1.31-3.3-1.83-5.08,1.05-.76,2.35-1.27,2.62-2.03s-.52-2.03-.79-3.05c-1.83-6.86,1.05-12.45,7.59-14.73,1.05-.25,1.31-.25,1.57,.76-.26,1.27,.26,2.79,.79,4.32Z"/>
  <path d="M210.14,286.02c2.09-.76,3.93-1.52,5.76-2.29,.52-.25,1.05-.76,1.31-1.27,.26-.76,.79-1.78,.52-2.54-.26-.76-1.31-1.27-2.09-1.52-1.05-.25-2.09,0-3.4,0-2.88,0-5.5-.51-6.8-3.81-1.31-3.3-.79-6.35,1.31-8.89,2.09-2.79,4.97-4.57,8.11-5.59,1.05-.25,1.57,0,1.83,1.27,.26,1.27,.52,2.54,.79,3.56-1.57,.76-3.14,1.27-4.45,2.03-1.57,.76-2.09,2.29-1.83,3.3,.26,1.27,1.31,1.78,3.14,1.78s3.66-.25,5.5,.25c3.93,1.02,5.76,6.1,3.93,10.41-1.57,3.81-4.45,5.84-7.85,7.37-1.05,.51-2.36,.76-3.66,1.02-.79,.25-1.05,0-1.31-1.02-.52-1.52-.78-2.79-.78-4.06Z"/>
  <path d="M199.16,276.12c-1.83,.76-3.4,1.27-4.97,2.03-.79,.25-1.31,1.02-1.83,1.78-.78,1.02-.26,2.29,1.05,2.79,1.05,.25,2.09,.25,3.4,.25,1.83,0,3.66,0,5.23,.25,4.19,1.27,6.02,6.1,4.19,10.16-1.83,3.81-4.97,5.84-8.9,7.62-1.31,.51-2.62,.76-3.93,1.02-1.05,.25-1.57-.25-1.57-1.02-.26-1.27-.52-2.54-.78-3.81,1.57-.51,3.14-.76,4.71-1.27,1.05-.51,2.09-1.02,3.14-1.78,.78-.76,1.31-1.52,.78-2.79-.52-1.02-1.31-1.52-2.35-1.52h-4.45c-6.54,0-9.16-5.84-6.8-10.41,2.09-4.57,6.02-6.6,10.73-8.13,1.05-.25,1.57,0,1.57,1.02,.26,1.27,.52,2.54,.78,3.81Z"/>
  <path d="M316.91,187.72c1.05,2.79,2.09,5.59,3.14,8.38,3.4,8.64,6.54,17.27,9.94,26.16,.52,1.02,.26,1.52-.79,2.03-1.83,1.02-3.4,2.03-5.23,3.05-1.05-3.05-2.36-6.1-3.4-9.14-3.14-8.38-6.28-16.77-9.42-25.4-.26-1.02-.26-1.52,.79-2.03,1.31-1.02,3.14-2.03,4.97-3.05Z"/>
  <path d="M101.8,326.41c1.57-1.02,3.4-2.03,5.23-3.05,.79,1.52,1.57,3.05,2.36,4.57h.52c0-4.06,.79-7.62,5.23-9.65,.79,2.29,1.57,4.32,2.36,6.6,0,0,0,.25-.26,.25-4.71,2.54-4.97,6.86-3.4,11.43,1.05,3.3,2.36,6.35,3.66,9.4,.26,1.02,.26,1.27-.52,1.78-1.83,1.02-3.4,2.03-5.23,3.05-3.4-8.13-6.8-16.26-9.94-24.39Z"/>
  <path d="M232.9,280.18c-3.14-8.13-6.28-16.26-9.16-24.64,2.09-1.27,4.19-2.54,6.54-3.81,1.31,3.3,2.62,6.6,3.66,9.65,1.83,4.57,3.4,9.14,5.23,13.46,.52,1.02,.26,1.52-.79,2.03-2.09,1.27-3.66,2.29-5.5,3.3Z"/>
  <path d="M228.2,246.65c0,2.03-2.09,4.06-4.45,4.06-2.09,0-3.66-1.78-3.66-4.06s2.09-4.06,4.19-4.06c2.36,.25,3.93,2.03,3.93,4.06Z"/>
</svg>