<svg width="278" height="111" viewBox="0 0 278 111" fill="none" xmlns="http://www.w3.org/2000/svg">
<path d="M0.454943 0.140992C0.67283 0.281987 0.890716 0.493477 1.1086 0.634472C2.27067 1.26895 3.50537 1.97392 4.66743 2.6084C5.8295 3.24287 7.0642 3.87735 8.22626 4.58233C8.87993 4.93481 9.53359 5.2873 10.1146 5.71029C10.2599 5.78078 10.4051 6.06277 10.4051 6.20377C10.4778 8.10719 10.5504 9.94012 10.5504 11.8436C10.5504 20.7967 10.5504 29.7499 10.5504 38.6325C10.5504 38.7735 10.5504 38.985 10.5504 39.267C10.7683 39.126 10.9135 39.0555 10.9862 38.985C12.1482 37.9276 13.2377 36.7996 14.3271 35.7421C14.6176 35.4602 15.126 35.2487 15.2713 34.7552C15.3439 34.4732 15.4892 34.2617 15.4892 33.9797C15.4892 28.6219 15.4892 23.3346 15.4892 17.9768C15.4892 15.0159 15.4166 12.1255 15.4166 9.16465C15.4166 9.02366 15.4166 8.88266 15.4892 8.67117C16.1428 9.02366 16.7965 9.30564 17.3775 9.65813C17.9586 10.0106 18.6122 10.3631 19.1933 10.7156C20.2827 11.3501 21.2995 11.914 22.389 12.5485C23.3331 13.1125 24.3499 13.6765 25.3668 14.17C25.6573 14.311 25.8025 14.5929 25.8025 14.8749C25.8025 16.0734 25.8025 17.3423 25.8025 18.5408C25.8025 22.5591 25.8025 26.5775 25.8025 30.5958C25.8025 33.0632 25.8752 35.4602 25.9478 37.9276C25.9478 38.421 25.8025 38.844 25.3668 39.267C23.4058 41.0999 21.5174 43.0034 19.5564 44.9068C19.4112 45.0478 19.3385 45.1888 19.1933 45.3298C19.3385 45.4003 19.5564 45.4708 19.7017 45.5413C20.8637 45.8233 21.9532 46.1052 23.1152 46.3167C23.8415 46.4577 24.6405 46.6692 25.3668 46.8102C25.6573 46.8807 25.8025 47.0217 25.8025 47.3742C25.8025 48.7136 25.8025 50.0531 25.8025 51.3925C25.8025 61.9671 25.8025 72.6122 25.8025 83.1868C25.8025 83.5393 25.6573 83.6803 25.3668 83.8213C23.9868 84.5968 22.5342 85.4427 21.1543 86.2182C19.9922 86.9232 18.7575 87.5577 17.5954 88.2627C16.9418 88.6151 16.2881 88.9676 15.4892 89.3906C15.4892 88.7561 15.4166 88.1921 15.4166 87.6282C15.4166 77.0536 15.4166 66.479 15.4166 55.9044C15.4166 55.7634 15.4166 55.6224 15.4166 55.4814C15.3439 55.0584 15.0534 54.9174 14.6903 54.7764C13.5282 54.5649 12.4388 54.2829 11.2767 54.0714C11.2767 54.0714 11.2767 54.0714 11.2041 54.0714C10.3325 53.7895 10.3325 53.7895 10.3325 54.6354C10.3325 54.9879 10.3325 55.3404 10.3325 55.6929C10.623 65.915 10.4051 76.1371 10.4778 86.3592C10.4778 88.0512 10.5504 89.7431 10.5504 91.3645C10.5504 91.9285 10.3325 92.281 9.89673 92.4925C8.73467 93.127 7.5726 93.8319 6.41054 94.4664C5.39373 95.0304 4.37692 95.5944 3.43274 96.1583C2.63382 96.5813 1.90752 97.0748 1.1086 97.4978C0.818087 97.6388 0.527573 97.7798 0.237056 97.9208C0.237056 97.6388 0.237056 97.4273 0.237056 97.2863C0.237056 76.2076 0.237056 55.0584 0.237056 33.9797C0.237056 33.7682 0.164426 33.6272 0.0917969 33.4157C0.0917969 22.2771 0.0917969 11.1386 0.0917969 0C0.309684 0.140995 0.382314 0.140992 0.454943 0.140992Z" fill="black"/>
<path d="M41.4906 63.3065C42.4348 62.8131 43.3063 62.3196 44.1779 61.8261C44.9042 61.4031 45.7031 60.9801 46.4294 60.5571C46.6473 60.4162 47.083 60.4162 47.3009 60.5571C48.5356 61.1916 49.6977 61.8261 50.8597 62.4606C52.1671 63.1656 53.4018 63.8705 54.7091 64.5755C55.508 64.9985 56.2343 65.4215 57.0332 65.8444C57.1059 65.9149 57.1059 65.9854 57.1785 66.0559C56.6701 66.3379 56.1617 66.6199 55.7259 66.9019C54.5638 67.5364 53.4018 68.2414 52.2397 68.8758C51.4408 69.2988 50.6419 69.7923 49.8429 70.2153C48.3904 71.0613 47.0104 71.8367 45.5578 72.6827C44.9042 73.0352 44.2505 73.3877 43.6695 73.7402C42.5074 74.3746 41.3453 75.0796 40.1833 75.7141C38.5854 76.6305 36.9876 77.4765 35.3897 78.393C34.3729 78.957 33.2835 79.5914 32.2667 80.1554C31.9762 80.2964 31.7583 80.5079 31.4678 80.6489C31.3951 80.7194 31.2499 80.7194 31.1772 80.7194C31.1772 80.5079 31.1772 80.3669 31.1772 80.1554C31.1772 69.8628 31.1772 59.5702 31.1772 49.2071C31.1772 44.3428 31.1046 39.4785 31.032 34.6141C31.032 34.4731 31.032 34.3321 31.032 34.1912C31.6856 34.5436 32.3393 34.8961 32.9203 35.1781C33.3561 35.3896 33.7919 35.6716 34.2277 35.9536C35.2445 36.5176 36.2613 37.0815 37.2781 37.6455C37.9318 37.998 38.5854 38.3505 39.3117 38.7735C40.3285 39.3375 41.418 39.9719 42.4348 40.5359C43.0884 40.8884 43.6695 41.2409 44.3231 41.5229C45.4126 42.0868 46.4294 42.7213 47.5188 43.2853C48.7535 43.9903 50.0608 44.6953 51.2955 45.3297C52.6755 46.1052 53.9828 46.8102 55.3628 47.5856C56.5248 48.2906 57.7595 48.9251 58.9216 49.6301C59.8658 50.1235 60.8099 50.6875 61.7541 51.181C62.1899 51.3925 62.553 51.463 62.9888 51.181C64.0783 50.476 65.1677 49.9121 66.3298 49.2776C66.6203 49.1366 66.9108 48.9251 67.2739 48.7136C66.9834 48.5021 66.6929 48.2906 66.4024 48.1496C65.3856 47.5856 64.2961 47.0217 63.2793 46.4577C62.1173 45.8232 60.9552 45.1182 59.7931 44.4838C59.0668 44.0608 58.4132 43.7788 57.6869 43.3558C56.6701 42.7918 55.7259 42.2279 54.7091 41.6639C53.9828 41.2409 53.2565 40.8884 52.4576 40.4654C51.5134 39.9014 50.5692 39.408 49.625 38.844C48.8988 38.421 48.0998 38.0685 47.3735 37.6455C46.1388 36.9405 44.9042 36.2356 43.5968 35.5306C42.8705 35.1076 42.1442 34.7551 41.4906 34.4026C40.2559 33.6977 38.9486 32.9927 37.7139 32.2877C36.2613 31.4418 34.8087 30.6663 33.2835 29.8908C32.7025 29.6088 32.1214 29.2563 31.613 28.9039C31.2499 28.6924 31.032 28.4809 31.032 27.9874C31.032 24.815 31.032 21.6426 31.032 18.4702C31.032 18.0473 30.9593 17.5538 30.8867 17.0603C31.6856 17.5538 32.4119 17.9063 33.1382 18.3293C34.5908 19.1752 36.116 19.9507 37.5686 20.7967C38.8759 21.5016 40.2559 22.2771 41.5632 23.0526C42.7253 23.6871 43.8147 24.3215 44.9768 24.956C46.3567 25.7315 47.6641 26.4365 49.044 27.2119C50.1335 27.8464 51.2955 28.4104 52.385 29.0448C53.6196 29.7498 54.8543 30.4548 56.0164 31.1598C56.7427 31.5828 57.5416 31.9352 58.2679 32.3582C59.2121 32.9222 60.1563 33.4157 61.1005 33.9797C61.6815 34.3321 62.2625 34.6141 62.9162 34.9666C64.2235 35.6716 65.4582 36.4471 66.7655 37.152C67.4918 37.575 68.2181 37.9275 68.9444 38.3505C70.397 39.126 71.8496 39.9719 73.3748 40.7474C74.5369 41.3819 75.6263 42.0164 76.7884 42.6508C78.0957 43.4263 79.4756 44.1313 80.783 44.9067C81.945 45.5412 83.0345 46.1757 84.1965 46.8102C85.3586 47.4446 86.448 48.0791 87.6101 48.7136C87.6827 48.7841 87.7554 48.7841 87.828 48.8546C87.1017 49.2776 86.448 49.6301 85.7944 49.9826C84.7049 50.617 83.6881 51.181 82.5987 51.8155C82.0177 52.168 81.364 52.5205 80.783 52.8024C79.9114 53.2959 79.0399 53.7894 78.1683 54.2829C77.5146 54.6354 76.861 54.9879 76.28 55.3404C75.1179 55.9748 73.9558 56.6798 72.7211 57.3848C71.3412 58.1602 69.9612 58.9357 68.5813 59.7817C67.6371 60.3457 66.6929 60.8391 65.7487 61.3326C64.7319 61.8966 63.7877 62.4606 62.7709 63.0246C62.4804 63.236 62.1173 63.1656 61.8267 63.0246C61.0278 62.6016 60.2289 62.1081 59.43 61.6851C57.9048 60.8391 56.3796 59.9932 54.8544 59.1472C53.8375 58.5832 52.8207 58.0192 51.8039 57.4553C50.5692 56.7503 49.3345 56.0453 48.0998 55.3404C47.4462 54.9879 46.7925 54.6354 46.2115 54.2829C45.0494 53.5779 43.8147 52.9434 42.6526 52.2385C42.2895 52.027 41.8537 51.8155 41.4179 51.604C41.4179 52.9434 41.4179 54.2124 41.4179 55.4813C41.4179 56.7503 41.4179 58.0193 41.4179 59.2882C41.3453 60.6277 41.2001 61.9671 41.4906 63.3065Z" fill="#4866CF"/>
<path d="M9.75185 103.49C9.96974 103.49 10.0424 103.49 10.1876 103.49C11.495 103.42 12.5844 104.407 12.657 105.676C12.7297 106.803 12.2939 107.649 11.495 108.425C10.3329 109.482 8.95293 110.258 7.50035 110.892C7.42772 110.963 7.35509 110.892 7.20983 110.963C6.04777 107.931 4.8857 104.9 3.72363 101.869C5.10359 100.882 6.41091 99.6833 8.29927 99.6128C10.0424 99.4718 11.1318 101.305 10.2603 102.785C10.1876 102.997 9.96974 103.208 9.75185 103.49ZM8.44453 108.566C9.24345 108.213 9.89711 107.79 10.3329 107.156C10.6234 106.663 10.6234 106.028 10.2603 105.535C9.89711 105.112 9.46134 104.971 8.80767 105.182C8.58979 105.253 8.44453 105.323 8.29927 105.394C7.42772 105.817 7.42772 105.817 7.79087 106.662C7.93613 107.297 8.22664 107.931 8.44453 108.566ZM6.91931 104.407C7.57298 104.054 8.22664 103.702 8.58979 103.067C8.8803 102.644 8.8803 102.151 8.58979 101.728C8.29927 101.305 7.8635 101.164 7.42772 101.375C6.99195 101.516 6.6288 101.798 6.26565 102.01C6.19302 102.08 6.12039 102.221 6.19302 102.362C6.41091 102.997 6.6288 103.702 6.91931 104.407Z" fill="black"/>
<path d="M25.5115 100.529C24.9305 100.882 24.3495 101.164 23.7684 101.516C23.6232 101.234 23.5506 100.952 23.4053 100.67C22.3885 97.9913 21.3717 95.3124 20.3549 92.704C20.2096 92.422 20.2822 92.281 20.5001 92.0695C21.4443 91.294 22.4611 90.5891 23.6232 90.2366C25.9473 89.4611 27.3999 91.153 27.4725 92.986C27.5452 94.4664 26.7462 95.5239 25.5842 96.2994C25.221 96.5813 24.7852 96.7928 24.4221 97.0043C24.1316 97.1453 24.1316 97.2863 24.2042 97.4978C24.7853 98.4143 25.1484 99.4717 25.5115 100.529ZM23.6232 95.5239C24.2768 95.3124 24.7853 95.0304 25.221 94.4664C25.5115 94.0434 25.6568 93.6205 25.5842 93.127C25.5115 92.3515 24.7852 91.6465 24.059 91.858C23.5506 91.999 23.1148 92.281 22.679 92.563C22.6064 92.6335 22.6064 92.7745 22.6064 92.845C22.9695 93.691 23.26 94.6074 23.6232 95.5239Z" fill="black"/>
<path d="M88.4814 63.9411C87.9004 64.2936 87.392 64.5755 86.8836 64.8575C86.6657 64.4346 86.4478 64.0821 86.2299 63.6591H86.1573C86.0847 63.9411 86.0847 64.2231 86.012 64.5051C85.8668 65.492 85.0678 66.2675 83.9784 66.479C83.1069 66.62 82.1627 66.1265 81.5816 65.21C79.9838 62.5311 80.8554 59.5702 83.6879 58.1603C84.1963 57.8783 84.7773 57.7373 85.2857 57.5258C85.5763 57.3848 85.7215 57.4553 85.7941 57.7373C86.4478 59.4292 87.1015 61.0507 87.7551 62.7426C88.0456 63.1656 88.2635 63.5181 88.4814 63.9411ZM85.431 62.9541C85.3584 62.0376 84.9952 61.1917 84.6321 60.3457C84.5595 60.1342 84.3416 59.7112 84.2689 59.7112C83.9784 59.7112 83.7605 59.9227 83.5426 60.0637C83.47 60.1342 83.3974 60.2047 83.3248 60.3457C82.7437 61.0507 82.7437 61.8966 82.9616 62.6721C83.1069 63.1656 83.3248 63.6591 83.6879 64.0821C84.1237 64.646 84.85 64.5755 85.1405 63.9411C85.2857 63.7296 85.2857 63.3066 85.431 62.9541Z" fill="black"/>
<path d="M69.9607 66.761C70.8322 66.761 71.4859 67.043 72.0669 67.6775C73.3743 69.0874 73.7374 71.4843 72.4301 73.1762C71.7764 74.0222 70.9775 74.5157 69.8881 74.7272C68.726 74.9387 67.6365 74.3747 66.9103 73.3172C65.6756 71.4138 65.9661 69.0874 67.5639 67.6775C68.2902 67.1135 69.0165 66.761 69.9607 66.761ZM68.145 70.2154C68.145 71.0613 68.4355 71.8368 69.0165 72.4713C69.7428 73.2467 70.7596 72.9647 71.1228 72.0483C71.4859 71.0613 70.9775 69.3694 70.1059 68.7349C69.7428 68.4529 69.3797 68.3824 68.9439 68.5939C68.2902 68.9464 68.145 69.5104 68.145 70.2154Z" fill="black"/>
<path d="M33.7188 89.5316C33.7188 87.7691 34.8082 86.2887 36.4787 85.6542C37.6407 85.2312 38.9481 85.5132 39.747 86.5002C41.1996 88.1921 41.3448 91.012 39.3112 92.6334C38.4396 93.3384 37.4228 93.7614 36.1881 93.4089C35.5345 93.1974 35.0261 92.8449 34.6629 92.281C34.0819 91.435 33.7188 90.5185 33.7188 89.5316ZM35.6797 88.8971C35.6797 89.7431 35.9703 90.589 36.5513 91.2235C37.2776 91.999 38.367 91.717 38.6575 90.73C38.9481 89.5316 38.5849 88.4036 37.7134 87.5576C37.2776 87.0642 36.5513 87.1346 36.0429 87.6281C35.825 87.9806 35.6797 88.4036 35.6797 88.8971Z" fill="black"/>
<path d="M81.0738 68.2414C80.4927 68.5939 79.9117 68.9464 79.258 69.2989C78.9675 68.5939 78.7496 67.889 78.4591 67.184C78.1686 66.4085 77.8781 65.633 77.515 64.9281C77.3697 64.5756 77.1518 64.2936 76.716 64.2936C76.2803 64.2936 75.9897 64.6461 75.8445 65.0691C75.554 65.8445 75.6992 66.5495 75.9897 67.2545C76.3529 68.2414 76.716 69.2284 77.0792 70.1449C77.2244 70.4269 77.1518 70.5679 76.8613 70.7089C76.3529 70.9908 75.9171 71.2728 75.4087 71.5548C74.8277 70.0039 74.2466 68.5234 73.6656 67.043C73.4477 66.4085 73.1572 65.7035 72.8667 65.0691C72.794 64.8576 72.7941 64.7166 73.0119 64.5756C73.4477 64.3641 73.8835 64.0821 74.3193 63.8001C74.4645 64.1526 74.6824 64.5051 74.8277 64.8576C74.9729 64.3641 75.0456 64.0116 75.1908 63.6591C75.554 62.9541 76.135 62.4607 76.8613 62.1787C77.5876 61.9672 78.3865 62.2492 78.8223 62.9541C79.1854 63.5886 79.4759 64.2231 79.7664 64.9281C80.2749 65.9855 80.7106 67.1135 81.0738 68.2414Z" fill="black"/>
<path d="M18.9758 102.221C19.1937 102.433 19.339 102.715 19.4842 102.926C19.8474 103.42 19.92 103.42 19.4116 103.913C18.7579 104.618 17.959 105.182 17.0148 105.534C15.9254 105.957 14.7633 105.675 13.9644 104.9C12.5118 103.42 12.3665 100.952 13.5286 99.3307C14.1823 98.4847 14.9812 97.9207 16.0706 97.8502C16.8696 97.7797 17.5232 98.0617 17.959 98.7667C18.3948 99.4717 18.4674 100.177 18.0316 100.882C17.5232 101.728 16.7969 102.292 15.998 102.785C15.7801 102.926 15.5622 102.997 15.417 103.138C15.1991 103.208 15.1991 103.349 15.3443 103.49C15.7075 103.913 16.2885 104.054 16.8696 103.842C17.6685 103.561 18.1769 103.208 18.9758 102.221ZM14.6907 101.869C15.3443 101.516 15.9254 101.164 16.3612 100.67C16.6517 100.318 16.6517 99.9652 16.3612 99.7537C16.1433 99.5422 15.7801 99.4717 15.417 99.6832C14.6907 100.036 14.4002 100.882 14.6907 101.869Z" fill="black"/>
<path d="M51.5133 83.2573C51.8038 83.6098 52.0217 83.9623 52.3122 84.3148C52.3848 84.3853 52.3848 84.5263 52.3122 84.5968C51.4406 85.7247 50.4238 86.5002 49.0439 86.7822C47.9544 86.9937 47.0829 86.5707 46.4292 85.7247C45.1945 84.1738 45.1219 81.9884 46.2113 80.4374C46.865 79.5915 47.6639 79.0275 48.7533 78.8865C49.5523 78.816 50.2059 79.098 50.6417 79.803C51.0775 80.5079 51.1501 81.2129 50.7143 81.9179C50.2059 82.7638 49.3344 83.3278 48.5355 83.8918C48.4628 83.8918 48.4628 83.9623 48.3902 83.9623C48.2449 84.1033 48.0997 84.2443 47.9544 84.3853C48.1723 84.5263 48.3902 84.8788 48.6807 84.8788C49.0439 84.9493 49.4796 84.8788 49.8428 84.7378C50.4964 84.4558 51.0049 83.8918 51.5133 83.2573ZM47.2281 82.9048C47.5186 82.7638 47.8092 82.6228 48.0271 82.4113C48.3902 82.1294 48.6807 81.8474 48.9712 81.5654C49.1891 81.3539 49.1891 81.0014 48.9712 80.7899C48.7533 80.5784 48.5355 80.5079 48.1723 80.6489C47.3008 80.9309 46.865 81.9179 47.2281 82.9048Z" fill="black"/>
<path d="M43.3064 79.944C41.9264 80.4375 41.9991 81.2129 42.2896 82.1294C42.3622 82.3409 42.5075 82.4114 42.6527 82.2704C42.9433 82.0589 43.3064 81.9179 43.6695 81.7064C43.8874 82.1999 44.0327 82.6934 44.2506 83.1869C43.8874 83.3984 43.5969 83.6098 43.3064 83.7508C43.0885 83.8918 43.0159 83.9623 43.1611 84.2443C43.7422 85.7953 44.3232 87.3462 44.9769 88.8972C45.0495 89.1791 45.0495 89.3201 44.8316 89.4611C44.3232 89.7431 43.8874 90.0251 43.379 90.3071C42.7254 88.5447 42.0717 86.7822 41.3454 85.0198C41.0549 85.1608 40.7644 85.3018 40.5465 85.4428C40.3286 84.9493 40.1833 84.5263 40.0381 84.0328C40.3286 83.8213 40.6917 83.6803 40.7644 83.4688C40.837 83.2574 40.6191 82.9049 40.5465 82.6229C40.0381 80.7195 40.837 79.1685 42.6527 78.534C42.9433 78.4635 43.0159 78.4636 43.0885 78.7455C43.0159 79.098 43.1611 79.521 43.3064 79.944Z" fill="black"/>
<path d="M58.4135 79.38C58.9945 79.1685 59.5029 78.957 60.0114 78.7455C60.1566 78.675 60.3019 78.534 60.3745 78.393C60.4471 78.1815 60.5924 77.8995 60.5198 77.688C60.4471 77.4766 60.1566 77.3356 59.9387 77.2651C59.6482 77.1946 59.3577 77.2651 58.9946 77.2651C58.1956 77.2651 57.4693 77.1241 57.1062 76.2076C56.743 75.2911 56.8883 74.4452 57.4693 73.7402C58.0504 72.9647 58.8493 72.4712 59.7208 72.1892C60.0114 72.1187 60.1566 72.1892 60.2292 72.5417C60.3019 72.8942 60.3745 73.2467 60.4471 73.5287C60.0114 73.7402 59.5756 73.8812 59.2124 74.0927C58.7767 74.3042 58.6314 74.7271 58.704 75.0091C58.7767 75.3616 59.0672 75.5026 59.5756 75.5026C60.084 75.5026 60.5924 75.4321 61.1008 75.5731C62.1902 75.8551 62.6986 77.265 62.1902 78.4635C61.7545 79.521 60.9555 80.085 60.0114 80.5079C59.7208 80.6489 59.3577 80.7194 58.9946 80.7899C58.7767 80.8604 58.704 80.7899 58.6314 80.5079C58.4861 80.085 58.4135 79.7325 58.4135 79.38Z" fill="black"/>
<path d="M55.3628 76.6306C54.8544 76.8421 54.4186 76.9831 53.9828 77.1946C53.765 77.2651 53.6197 77.4766 53.4744 77.6881C53.2566 77.9701 53.4018 78.3225 53.765 78.4635C54.0555 78.534 54.346 78.534 54.7091 78.534C55.2175 78.534 55.726 78.534 56.1617 78.6045C57.3238 78.957 57.8322 80.2965 57.3238 81.4244C56.8154 82.4819 55.9438 83.0459 54.8544 83.5394C54.4913 83.6804 54.1281 83.7508 53.765 83.8213C53.4745 83.8918 53.3292 83.7508 53.3292 83.5394C53.2566 83.1869 53.1839 82.8344 53.1113 82.4819C53.5471 82.3409 53.9829 82.2704 54.4186 82.1294C54.7091 81.9884 54.9997 81.8474 55.2902 81.6359C55.5081 81.4244 55.6533 81.213 55.5081 80.8605C55.3628 80.5785 55.1449 80.4375 54.8544 80.4375C54.4186 80.4375 54.0555 80.4375 53.6197 80.4375C51.804 80.4375 51.0777 78.816 51.7314 77.5471C52.3124 76.2781 53.4018 75.7142 54.7091 75.2912C54.9997 75.2207 55.1449 75.2912 55.1449 75.5732C55.2176 75.9257 55.2902 76.2781 55.3628 76.6306Z" fill="black"/>
<path d="M88.0454 52.0975C88.3359 52.873 88.6264 53.6485 88.917 54.4239C89.8611 56.8209 90.7327 59.2178 91.6769 61.6852C91.8221 61.9672 91.7495 62.1082 91.459 62.2492C90.9506 62.5311 90.5148 62.8131 90.0064 63.0951C89.7159 62.2492 89.3527 61.4032 89.0622 60.5572C88.1907 58.2308 87.3191 55.9044 86.4476 53.5075C86.3749 53.2255 86.3749 53.0845 86.6655 52.9435C87.0286 52.6615 87.537 52.3795 88.0454 52.0975Z" fill="black"/>
<path d="M28.3447 90.5891C28.7805 90.3071 29.2889 90.0251 29.7973 89.7431C30.0152 90.1661 30.2331 90.5891 30.451 91.012C30.5236 91.012 30.5236 91.012 30.5962 91.012C30.5962 89.8841 30.8141 88.8971 32.0488 88.3331C32.2667 88.9676 32.4846 89.5316 32.7025 90.1661C32.7025 90.1661 32.7025 90.2366 32.6298 90.2366C31.3225 90.9415 31.2499 92.14 31.6857 93.4089C31.9762 94.3254 32.3393 95.1714 32.7025 96.0174C32.7751 96.2993 32.7751 96.3698 32.5572 96.5108C32.0488 96.7928 31.613 97.0748 31.1046 97.3568C30.1605 95.1009 29.2163 92.845 28.3447 90.5891Z" fill="black"/>
<path d="M64.7315 77.7585C63.8599 75.5026 62.9884 73.2467 62.1895 70.9203C62.7705 70.5678 63.3515 70.2153 64.0052 69.8628C64.3683 70.7793 64.7315 71.6957 65.022 72.5417C65.5304 73.8106 65.9662 75.0796 66.4746 76.2781C66.6198 76.56 66.5472 76.701 66.2567 76.842C65.6757 77.1945 65.2399 77.4765 64.7315 77.7585Z" fill="black"/>
<path d="M63.4243 68.4529C63.4243 69.0169 62.8433 69.5809 62.1897 69.5809C61.6086 69.5809 61.1729 69.0874 61.1729 68.4529C61.1729 67.8184 61.7539 67.325 62.3349 67.325C62.9886 67.3954 63.4243 67.8889 63.4243 68.4529Z" fill="black"/>
<path d="M96.9062 110.963V0.140991" stroke="#231F20" stroke-width="3" stroke-miterlimit="10"/>
<path d="M124.433 23.8282L115.863 33.0634L124.433 42.228H119.204L113.248 35.8833V42.228H109.326V23.8282H113.248V30.2435L119.204 23.8282H124.433Z" fill="black"/>
<path d="M128.573 27.5646V23.8282H142.01V27.5646C139.758 27.5646 137.507 27.5646 135.328 27.5646C133.076 27.5646 130.825 27.5646 128.573 27.5646ZM128.573 34.8963V31.16C130.026 31.16 131.406 31.16 132.858 31.16C134.311 31.16 135.764 31.16 137.143 31.16V34.8963C135.691 34.8963 134.238 34.8963 132.858 34.8963C131.478 34.8963 130.026 34.8963 128.573 34.8963ZM142.01 42.228H128.573V38.4917C130.825 38.4917 133.076 38.4917 135.255 38.4917C137.507 38.4917 139.758 38.4917 141.937 38.4917V42.228H142.01Z" fill="black"/>
<path d="M161.91 23.8281L154.719 35.5306V42.1574H150.87V35.5306L143.68 23.7576H148.183L152.758 31.2303L157.407 23.7576H161.91V23.8281Z" fill="black"/>
<path d="M180.358 23.8282L171.788 33.0634L180.358 42.228H175.129L169.173 35.8833V42.228H165.251V23.8282H169.173V30.2435L175.129 23.8282H180.358Z" fill="black"/>
<path d="M200.113 42.2279H195.828L195.537 41.6639L191.688 33.6977L191.179 32.7107L189.727 35.6716L187.911 39.408L186.531 42.2279H182.246L191.179 23.7576L200.113 42.2279Z" fill="black"/>
<path d="M219.432 23.8282L210.716 42.228L202.001 23.8282H206.213L210.644 33.2044L215.074 23.8282H219.432Z" fill="black"/>
<path d="M239.841 33.0634C239.841 34.3323 239.623 35.5308 239.114 36.6588C238.606 37.7867 237.952 38.7032 237.081 39.5491C236.209 40.3951 235.265 41.0296 234.103 41.5231C232.941 42.0165 231.706 42.228 230.399 42.228C229.091 42.228 227.857 42.0165 226.695 41.5231C225.533 41.0296 224.516 40.3951 223.717 39.5491C222.845 38.7032 222.119 37.7162 221.683 36.6588C221.175 35.5308 220.957 34.3323 220.957 33.0634C220.957 31.7944 221.175 30.596 221.683 29.468C222.119 28.4106 222.845 27.4236 223.717 26.5071C224.589 25.6612 225.605 25.0267 226.695 24.5332C227.857 24.0397 229.091 23.8282 230.399 23.8282C231.779 23.8282 233.013 24.0397 234.103 24.5332C235.265 25.0267 236.282 25.6612 237.081 26.5071C237.952 27.3531 238.606 28.3401 239.114 29.468C239.55 30.596 239.841 31.7944 239.841 33.0634ZM235.991 33.0634C235.991 32.6404 235.919 32.1469 235.773 31.583C235.628 31.0895 235.41 30.596 235.12 30.1025C234.829 29.6795 234.466 29.186 233.958 28.8335C233.449 28.4811 232.868 28.1286 232.215 27.8466C232.069 27.7761 231.924 27.7761 231.706 27.7056C231.634 27.7056 231.488 27.7056 231.416 27.7056C231.343 27.7056 231.27 27.7056 231.198 27.6351C231.125 27.6351 230.98 27.5646 230.689 27.5646C230.399 27.5646 230.254 27.5646 230.326 27.5646C229.963 27.5646 229.527 27.6351 229.092 27.7056C228.656 27.7761 228.22 27.9876 227.784 28.1991C227.348 28.4106 226.913 28.6926 226.549 29.045C226.186 29.3975 225.823 29.75 225.533 30.2435C225.17 30.8075 224.952 31.442 224.879 31.9354C224.879 32.0059 224.806 32.1469 224.806 32.2174C224.806 32.2879 224.806 32.4289 224.806 32.4994C224.806 32.6404 224.734 32.8519 224.734 33.0634C224.734 33.8389 224.879 34.4733 225.17 35.1783C225.46 35.8128 225.896 36.4473 226.404 36.8702C226.913 37.3637 227.494 37.7867 228.22 38.0687C228.874 38.3507 229.6 38.4917 230.399 38.4917C231.125 38.4917 231.851 38.3507 232.578 38.0687C233.231 37.7867 233.812 37.4342 234.393 36.9407C234.902 36.4473 235.338 35.8833 235.628 35.2488C235.773 34.5438 235.991 33.8389 235.991 33.0634Z" fill="black"/>
<path d="M260.25 33.0634C260.25 34.3323 260.032 35.5308 259.524 36.6588C259.015 37.7867 258.361 38.7032 257.49 39.5491C256.618 40.3951 255.674 41.0296 254.512 41.5231C253.35 42.0165 252.115 42.228 250.808 42.228C249.501 42.228 248.266 42.0165 247.104 41.5231C245.942 41.0296 244.925 40.3951 244.126 39.5491C243.255 38.7032 242.528 37.7162 242.093 36.6588C241.584 35.5308 241.366 34.3323 241.366 33.0634C241.366 31.7944 241.584 30.596 242.093 29.468C242.528 28.4106 243.255 27.4236 244.126 26.5071C244.998 25.6612 246.014 25.0267 247.104 24.5332C248.266 24.0397 249.501 23.8282 250.808 23.8282C252.188 23.8282 253.423 24.0397 254.512 24.5332C255.674 25.0267 256.691 25.6612 257.49 26.5071C258.361 27.3531 259.015 28.3401 259.524 29.468C260.032 30.596 260.25 31.7944 260.25 33.0634ZM256.4 33.0634C256.4 32.6404 256.328 32.1469 256.183 31.583C256.037 31.0895 255.819 30.596 255.529 30.1025C255.238 29.6795 254.875 29.186 254.367 28.8335C253.858 28.4811 253.277 28.1286 252.624 27.8466C252.478 27.7761 252.333 27.7761 252.115 27.7056C252.043 27.7056 251.897 27.7056 251.825 27.7056C251.752 27.7056 251.68 27.7056 251.607 27.6351C251.534 27.6351 251.389 27.5646 251.099 27.5646C250.808 27.5646 250.663 27.5646 250.735 27.5646C250.372 27.5646 249.936 27.6351 249.501 27.7056C249.065 27.7761 248.629 27.9876 248.193 28.1991C247.758 28.4106 247.322 28.6926 246.959 29.045C246.596 29.3975 246.232 29.75 245.942 30.2435C245.579 30.8075 245.361 31.442 245.288 31.9354C245.288 32.0059 245.216 32.1469 245.216 32.2174C245.216 32.2879 245.216 32.4289 245.216 32.4994C245.216 32.6404 245.143 32.8519 245.143 33.0634C245.143 33.8389 245.288 34.4733 245.579 35.1783C245.869 35.8128 246.305 36.4473 246.813 36.8702C247.322 37.3637 247.903 37.7867 248.629 38.0687C249.283 38.3507 250.009 38.4917 250.808 38.4917C251.534 38.4917 252.261 38.3507 252.987 38.0687C253.641 37.7867 254.222 37.4342 254.803 36.9407C255.311 36.4473 255.747 35.8833 256.037 35.2488C256.255 34.5438 256.4 33.8389 256.4 33.0634Z" fill="black"/>
<path d="M277.68 27.5644L274.412 29.1859C274.267 28.8334 274.049 28.6219 273.831 28.4104C273.613 28.1989 273.323 27.9874 273.032 27.8464C272.742 27.7054 272.451 27.6349 272.16 27.5644C271.87 27.4939 271.652 27.4939 271.362 27.4939C271.071 27.4939 270.781 27.4939 270.563 27.5644C270.345 27.5644 270.054 27.7054 269.836 27.7759C269.618 27.8464 269.473 28.0579 269.328 28.2694C269.183 28.4809 269.11 28.7629 269.11 29.1154C269.11 29.3974 269.183 29.6793 269.401 29.9613C269.546 30.3138 269.836 30.5253 270.272 30.7368C270.272 30.7368 270.345 30.8073 270.49 30.8778C270.563 30.9483 270.635 30.9483 270.708 30.9483C270.926 31.0893 271.289 31.3008 271.797 31.5123C272.16 31.7238 272.524 31.8648 272.887 32.0058C272.959 32.0762 273.105 32.1468 273.177 32.1468C273.323 32.2173 273.395 32.2172 273.468 32.2877C273.613 32.3582 273.831 32.4287 273.976 32.4992C274.121 32.5697 274.267 32.6402 274.485 32.7812C274.993 33.0632 275.429 33.4157 275.792 33.7682C276.155 34.1207 276.373 34.5437 276.591 34.8961C276.809 35.3191 276.881 35.6716 277.027 36.0946C277.099 36.5176 277.172 36.9406 277.172 37.293C277.172 37.7865 277.099 38.2095 276.954 38.6325C276.809 39.126 276.591 39.549 276.373 39.9015C276.082 40.2539 275.719 40.6064 275.284 40.9589C274.848 41.3114 274.267 41.5934 273.613 41.8049C273.54 41.8049 273.468 41.8754 273.395 41.8754C273.323 41.8754 273.25 41.9459 273.105 41.9459C272.959 42.0164 272.742 42.0164 272.451 42.0869C272.306 42.0869 272.233 42.0869 272.088 42.1574C271.943 42.1574 271.87 42.1574 271.725 42.1574C271.434 42.1574 271.216 42.1574 271.144 42.1574C271.071 42.1574 271.071 42.1574 270.998 42.1574C270.853 42.1574 270.708 42.1574 270.635 42.1574C270.563 42.1574 270.49 42.1574 270.417 42.1574C270.345 42.1574 270.272 42.1574 270.2 42.1574C270.127 42.1574 270.054 42.1574 269.836 42.0869C269.401 42.0164 269.037 41.9459 268.602 41.8049C268.166 41.6639 267.73 41.5229 267.222 41.2409C266.713 40.9589 266.35 40.6769 265.987 40.3244C265.551 39.972 265.188 39.549 264.97 39.0555C264.898 38.9145 264.825 38.844 264.825 38.7735C264.752 38.6325 264.68 38.4915 264.68 38.4915L267.875 36.9406H267.948C268.093 37.2226 268.311 37.5045 268.529 37.716C268.747 37.9275 269.037 38.139 269.255 38.28C269.546 38.421 269.836 38.4915 270.127 38.562C270.417 38.6325 270.708 38.6325 270.926 38.6325C271.216 38.6325 271.507 38.6325 271.725 38.562C272.015 38.562 272.233 38.421 272.451 38.3505C272.669 38.28 272.814 38.0685 272.959 37.857C273.105 37.6455 273.177 37.3636 273.177 37.0111C273.177 36.3061 272.669 35.6716 271.652 35.1781C271.652 35.1781 271.579 35.1781 271.507 35.1076C271.434 35.0371 271.362 35.0371 271.289 34.9666C271.144 34.8961 270.926 34.7551 270.708 34.6847C270.635 34.6142 270.49 34.5437 270.417 34.5437C270.272 34.4732 270.2 34.4027 270.054 34.4027C269.764 34.2617 269.546 34.1912 269.473 34.1207C269.401 34.1207 269.328 34.0502 269.183 33.9797C269.11 33.9092 268.965 33.9092 268.82 33.8387C268.747 33.7682 268.674 33.7682 268.602 33.6977C268.529 33.6272 268.456 33.6272 268.311 33.5567C268.239 33.4862 268.166 33.4862 268.021 33.4157C267.948 33.3452 267.875 33.3452 267.73 33.2747C267.222 32.9927 266.786 32.7107 266.423 32.3582C266.06 32.0058 265.769 31.5828 265.624 31.2303C265.406 30.8778 265.333 30.4548 265.188 30.0318C265.115 29.6089 265.043 29.1859 265.043 28.8334C265.043 28.8334 265.043 28.7629 265.043 28.6924C265.043 28.6219 265.043 28.5514 265.043 28.4104C265.043 28.2694 265.043 28.1989 265.043 28.0579C265.043 27.9169 265.043 27.8464 265.115 27.7759C265.115 27.7054 265.188 27.6349 265.188 27.5644C265.188 27.4939 265.188 27.4234 265.261 27.2824C265.261 27.2119 265.333 27.2119 265.333 27.1414C265.333 27.0709 265.406 27.0004 265.406 26.9299C265.479 26.789 265.551 26.648 265.624 26.5775C265.769 26.2955 265.987 26.0135 266.205 25.802C266.423 25.5905 266.713 25.3085 267.004 25.1675C267.222 25.0265 267.512 24.815 267.803 24.6035C268.093 24.4625 268.384 24.3215 268.602 24.251C268.965 24.1101 269.401 24.0396 269.836 23.9691C270.272 23.8986 270.635 23.8986 271.071 23.8986C271.144 23.8986 271.144 23.8986 271.216 23.8986C271.216 23.8986 271.362 23.8986 271.579 23.8986C271.652 23.8986 271.725 23.8986 271.797 23.8986C271.87 23.8986 271.943 23.8986 272.015 23.8986C272.088 23.8986 272.233 23.8986 272.378 23.8986C272.742 23.9691 273.105 24.0396 273.686 24.1806C274.121 24.3215 274.557 24.533 275.066 24.7445C275.574 25.0265 275.937 25.3085 276.3 25.661C276.664 26.0135 277.027 26.4365 277.317 26.9299C277.317 26.9299 277.39 27.0709 277.462 27.2119C277.608 27.4234 277.68 27.4939 277.68 27.5644Z" fill="black"/>
<path d="M129.663 62.0378L116.372 77.5472H129.663V82.8345H109.254V77.6882L122.545 62.1788H109.254V56.8915H129.663V62.0378Z" fill="black"/>
<path d="M167.067 82.905H161.038L160.603 82.1295L155.155 70.8499L154.502 69.44L152.468 73.6698L149.853 78.9571L147.892 82.9755H141.864L154.502 56.8915L167.067 82.905Z" fill="black"/>
<path d="M204.325 82.9048H199.023V66.2674L191.761 76.9125L184.425 66.2674V82.8343H179.123V56.8208H184.352L191.688 67.4659L199.096 56.8208H204.325V82.9048Z" fill="black"/>
<path d="M241.875 82.905H235.847L235.411 82.1295L229.964 70.8499L229.31 69.44L227.277 73.6698L224.662 78.9571L222.701 82.9755H216.673L229.31 56.8915L241.875 82.905Z" fill="black"/>
<path d="M277.899 82.905H272.452L260.614 66.2676V82.905H255.094V56.8915H260.541L272.38 73.5289V56.8915H277.899V82.905Z" fill="black"/>
</svg>
