<svg width="92" height="111" viewBox="0 0 92 111" fill="none" xmlns="http://www.w3.org/2000/svg">
<g id="Group">
<path id="Vector" d="M0.363146 0.140992C0.581033 0.281987 0.798919 0.493477 1.01681 0.634472C2.17887 1.26895 3.41357 1.97392 4.57564 2.6084C5.7377 3.24287 6.9724 3.87735 8.13447 4.58233C8.78813 4.93481 9.44179 5.2873 10.0228 5.71029C10.1681 5.78079 10.3133 6.06277 10.3133 6.20377C10.386 8.10719 10.4586 9.94012 10.4586 11.8436C10.4586 20.7967 10.4586 29.7499 10.4586 38.6325C10.4586 38.7735 10.4586 38.985 10.4586 39.267C10.6765 39.126 10.8217 39.0555 10.8944 38.985C12.0564 37.9276 13.1459 36.7996 14.2353 35.7421C14.5258 35.4602 15.0342 35.2487 15.1795 34.7552C15.2521 34.4732 15.3974 34.2617 15.3974 33.9797C15.3974 28.6219 15.3974 23.3346 15.3974 17.9768C15.3974 15.0159 15.3248 12.1255 15.3248 9.16465C15.3248 9.02366 15.3248 8.88266 15.3974 8.67117C16.051 9.02366 16.7047 9.30564 17.2857 9.65813C17.8668 10.0106 18.5204 10.3631 19.1015 10.7156C20.1909 11.3501 21.2077 11.9141 22.2972 12.5485C23.2413 13.1125 24.2581 13.6765 25.275 14.17C25.5655 14.311 25.7107 14.5929 25.7107 14.8749C25.7107 16.0734 25.7107 17.3423 25.7107 18.5408C25.7107 22.5591 25.7107 26.5775 25.7107 30.5958C25.7107 33.0632 25.7834 35.4602 25.856 37.9276C25.856 38.421 25.7107 38.844 25.275 39.267C23.314 41.0999 21.4256 43.0034 19.4646 44.9068C19.3194 45.0478 19.2467 45.1888 19.1015 45.3298C19.2467 45.4003 19.4646 45.4708 19.6099 45.5413C20.7719 45.8233 21.8614 46.1052 23.0234 46.3167C23.7497 46.4577 24.5487 46.6692 25.275 46.8102C25.5655 46.8807 25.7107 47.0217 25.7107 47.3742C25.7107 48.7136 25.7107 50.0531 25.7107 51.3925C25.7107 61.9671 25.7107 72.6122 25.7107 83.1868C25.7107 83.5393 25.5655 83.6803 25.275 83.8213C23.895 84.5968 22.4424 85.4427 21.0625 86.2182C19.9004 86.9232 18.6657 87.5577 17.5036 88.2627C16.85 88.6151 16.1963 88.9676 15.3974 89.3906C15.3974 88.7561 15.3248 88.1921 15.3248 87.6282C15.3248 77.0536 15.3248 66.479 15.3248 55.9044C15.3248 55.7634 15.3248 55.6224 15.3248 55.4814C15.2521 55.0584 14.9616 54.9174 14.5985 54.7764C13.4364 54.5649 12.347 54.2829 11.1849 54.0714C11.1849 54.0714 11.1849 54.0714 11.1123 54.0714C10.2407 53.7895 10.2407 53.7895 10.2407 54.6354C10.2407 54.9879 10.2407 55.3404 10.2407 55.6929C10.5312 65.915 10.3133 76.1371 10.386 86.3592C10.386 88.0512 10.4586 89.7431 10.4586 91.3645C10.4586 91.9285 10.2407 92.281 9.80494 92.4925C8.64287 93.127 7.48081 93.8319 6.31874 94.4664C5.30193 95.0304 4.28512 95.5944 3.34094 96.1583C2.54202 96.5813 1.81573 97.0748 1.01681 97.4978C0.72629 97.6388 0.435776 97.7798 0.145259 97.9208C0.145259 97.6388 0.145259 97.4273 0.145259 97.2863C0.145259 76.2076 0.145259 55.0584 0.145259 33.9797C0.145259 33.7682 0.0726292 33.6272 0 33.4157C0 22.2771 0 11.1386 0 0C0.217888 0.140995 0.290517 0.140992 0.363146 0.140992Z" fill="black"/>
<path id="Vector_2" d="M41.3985 63.3066C42.3427 62.8131 43.2143 62.3196 44.0858 61.8262C44.8121 61.4032 45.611 60.9802 46.3373 60.5572C46.5552 60.4162 46.991 60.4162 47.2089 60.5572C48.4436 61.1917 49.6056 61.8262 50.7677 62.4606C52.075 63.1656 53.3097 63.8706 54.617 64.5756C55.416 64.9986 56.1423 65.4215 56.9412 65.8445C57.0138 65.915 57.0138 65.9855 57.0864 66.056C56.578 66.338 56.0696 66.62 55.6339 66.902C54.4718 67.5364 53.3097 68.2414 52.1477 68.8759C51.3487 69.2989 50.5498 69.7924 49.7509 70.2154C48.2983 71.0613 46.9184 71.8368 45.4658 72.6828C44.8121 73.0352 44.1584 73.3877 43.5774 73.7402C42.4153 74.3747 41.2533 75.0797 40.0912 75.7141C38.4934 76.6306 36.8955 77.4766 35.2977 78.393C34.2809 78.957 33.1914 79.5915 32.1746 80.1555C31.8841 80.2965 31.6662 80.5079 31.3757 80.6489C31.3031 80.7194 31.1578 80.7194 31.0852 80.7194C31.0852 80.508 31.0852 80.367 31.0852 80.1555C31.0852 69.8629 31.0852 59.5703 31.0852 49.2071C31.0852 44.3428 31.0126 39.4785 30.9399 34.6142C30.9399 34.4732 30.9399 34.3322 30.9399 34.1912C31.5936 34.5437 32.2473 34.8962 32.8283 35.1782C33.2641 35.3897 33.6998 35.6717 34.1356 35.9536C35.1524 36.5176 36.1692 37.0816 37.186 37.6456C37.8397 37.9981 38.4934 38.3506 39.2197 38.7735C40.2365 39.3375 41.3259 39.972 42.3427 40.536C42.9964 40.8885 43.5774 41.2409 44.2311 41.5229C45.3205 42.0869 46.3373 42.7214 47.4268 43.2854C48.6615 43.9903 49.9688 44.6953 51.2035 45.3298C52.5834 46.1053 53.8908 46.8102 55.2707 47.5857C56.4328 48.2907 57.6675 48.9252 58.8295 49.6301C59.7737 50.1236 60.7179 50.6876 61.6621 51.1811C62.0979 51.3926 62.461 51.4631 62.8968 51.1811C63.9862 50.4761 65.0756 49.9121 66.2377 49.2776C66.5282 49.1366 66.8187 48.9252 67.1819 48.7137C66.8914 48.5022 66.6009 48.2907 66.3103 48.1497C65.2935 47.5857 64.2041 47.0217 63.1873 46.4577C62.0252 45.8233 60.8632 45.1183 59.7011 44.4838C58.9748 44.0608 58.3211 43.7789 57.5948 43.3559C56.578 42.7919 55.6339 42.2279 54.617 41.6639C53.8908 41.241 53.1645 40.8885 52.3655 40.4655C51.4214 39.9015 50.4772 39.408 49.533 38.844C48.8067 38.4211 48.0078 38.0686 47.2815 37.6456C46.0468 36.9406 44.8121 36.2356 43.5048 35.5307C42.7785 35.1077 42.0522 34.7552 41.3985 34.4027C40.1638 33.6977 38.8565 32.9928 37.6218 32.2878C36.1692 31.4418 34.7167 30.6663 33.1914 29.8909C32.6104 29.6089 32.0294 29.2564 31.521 28.9039C31.1578 28.6924 30.9399 28.4809 30.9399 27.9874C30.9399 24.8151 30.9399 21.6427 30.9399 18.4703C30.9399 18.0473 30.8673 17.5538 30.7947 17.0604C31.5936 17.5538 32.3199 17.9063 33.0462 18.3293C34.4988 19.1753 36.024 19.9508 37.4766 20.7967C38.7839 21.5017 40.1638 22.2772 41.4712 23.0526C42.6332 23.6871 43.7227 24.3216 44.8847 24.9561C46.2647 25.7315 47.572 26.4365 48.952 27.212C50.0414 27.8465 51.2035 28.4104 52.2929 29.0449C53.5276 29.7499 54.7623 30.4549 55.9244 31.1598C56.6507 31.5828 57.4496 31.9353 58.1759 32.3583C59.1201 32.9223 60.0642 33.4157 61.0084 33.9797C61.5894 34.3322 62.1705 34.6142 62.8241 34.9667C64.1315 35.6717 65.3662 36.4471 66.6735 37.1521C67.3998 37.5751 68.1261 37.9276 68.8524 38.3506C70.305 39.126 71.7575 39.972 73.2828 40.7475C74.4448 41.3819 75.5343 42.0164 76.6963 42.6509C78.0036 43.4264 79.3836 44.1313 80.6909 44.9068C81.853 45.5413 82.9424 46.1758 84.1045 46.8102C85.2666 47.4447 86.356 48.0792 87.5181 48.7137C87.5907 48.7842 87.6633 48.7842 87.736 48.8547C87.0097 49.2776 86.356 49.6301 85.7023 49.9826C84.6129 50.6171 83.5961 51.1811 82.5067 51.8155C81.9256 52.168 81.272 52.5205 80.6909 52.8025C79.8194 53.296 78.9478 53.7895 78.0763 54.283C77.4226 54.6354 76.769 54.9879 76.1879 55.3404C75.0259 55.9749 73.8638 56.6799 72.6291 57.3848C71.2491 58.1603 69.8692 58.9358 68.4892 59.7817C67.545 60.3457 66.6009 60.8392 65.6567 61.3327C64.6399 61.8967 63.6957 62.4606 62.6789 63.0246C62.3884 63.2361 62.0252 63.1656 61.7347 63.0246C60.9358 62.6016 60.1369 62.1082 59.3379 61.6852C57.8127 60.8392 56.2875 59.9932 54.7623 59.1473C53.7455 58.5833 52.7287 58.0193 51.7119 57.4553C50.4772 56.7504 49.2425 56.0454 48.0078 55.3404C47.3541 54.9879 46.7005 54.6354 46.1194 54.283C44.9574 53.578 43.7227 52.9435 42.5606 52.2385C42.1975 52.027 41.7617 51.8155 41.3259 51.604C41.3259 52.9435 41.3259 54.2125 41.3259 55.4814C41.3259 56.7504 41.3259 58.0193 41.3259 59.2883C41.2533 60.6277 41.108 61.9672 41.3985 63.3066Z" fill="#4866CF"/>
<path id="Vector_3" d="M9.65957 103.49C9.87746 103.49 9.95008 103.49 10.0953 103.49C11.4027 103.42 12.4921 104.407 12.5647 105.675C12.6374 106.803 12.2016 107.649 11.4027 108.425C10.2406 109.482 8.86065 110.258 7.40807 110.892C7.33544 110.963 7.26281 110.892 7.11755 110.963C5.95548 107.931 4.79341 104.9 3.63135 101.869C5.0113 100.882 6.31863 99.6832 8.20699 99.6127C9.95009 99.4717 11.0395 101.305 10.168 102.785C10.0953 102.997 9.87746 103.208 9.65957 103.49ZM8.35224 108.566C9.15116 108.213 9.80483 107.79 10.2406 107.156C10.5311 106.662 10.5311 106.028 10.168 105.534C9.80482 105.112 9.36905 104.971 8.71539 105.182C8.4975 105.253 8.35224 105.323 8.20699 105.393C7.33544 105.816 7.33544 105.816 7.69858 106.662C7.84384 107.297 8.13435 107.931 8.35224 108.566ZM6.82703 104.407C7.48069 104.054 8.13436 103.702 8.4975 103.067C8.78802 102.644 8.78802 102.151 8.4975 101.728C8.20699 101.305 7.77121 101.164 7.33544 101.375C6.89966 101.516 6.53651 101.798 6.17337 102.01C6.10074 102.08 6.02811 102.221 6.10074 102.362C6.31863 102.997 6.53651 103.702 6.82703 104.407Z" fill="black"/>
<path id="Vector_4" d="M25.4202 100.529C24.8392 100.882 24.2582 101.164 23.6771 101.516C23.5319 101.234 23.4592 100.952 23.314 100.67C22.2972 97.9913 21.2804 95.3124 20.2636 92.704C20.1183 92.422 20.1909 92.281 20.4088 92.0695C21.353 91.294 22.3698 90.5891 23.5319 90.2366C25.856 89.4611 27.3086 91.153 27.3812 92.986C27.4539 94.4664 26.6549 95.5239 25.4929 96.2994C25.1297 96.5813 24.6939 96.7928 24.3308 97.0043C24.0403 97.1453 24.0403 97.2863 24.1129 97.4978C24.6939 98.4143 25.0571 99.4717 25.4202 100.529ZM23.5319 95.5239C24.1855 95.3124 24.6939 95.0304 25.1297 94.4664C25.4202 94.0434 25.5655 93.6205 25.4929 93.127C25.4202 92.3515 24.6939 91.6465 23.9676 91.858C23.4592 91.999 23.0235 92.281 22.5877 92.563C22.5151 92.6335 22.5151 92.7745 22.5151 92.845C22.8782 93.691 23.1687 94.6074 23.5319 95.5239Z" fill="black"/>
<path id="Vector_5" d="M88.3896 63.9411C87.8086 64.2936 87.3002 64.5755 86.7918 64.8575C86.5739 64.4346 86.356 64.0821 86.1381 63.6591H86.0655C85.9929 63.9411 85.9929 64.2231 85.9202 64.5051C85.775 65.492 84.9761 66.2675 83.8866 66.479C83.0151 66.62 82.0709 66.1265 81.4898 65.21C79.892 62.5311 80.7636 59.5702 83.5961 58.1603C84.1045 57.8783 84.6855 57.7373 85.1939 57.5258C85.4845 57.3848 85.6297 57.4553 85.7023 57.7373C86.356 59.4292 87.0097 61.0507 87.6633 62.7426C87.9538 63.1656 88.1717 63.5181 88.3896 63.9411ZM85.3392 62.9541C85.2666 62.0376 84.9034 61.1917 84.5403 60.3457C84.4677 60.1342 84.2498 59.7112 84.1771 59.7112C83.8866 59.7112 83.6687 59.9227 83.4508 60.0637C83.3782 60.1342 83.3056 60.2047 83.233 60.3457C82.6519 61.0507 82.6519 61.8966 82.8698 62.6721C83.0151 63.1656 83.233 63.6591 83.5961 64.0821C84.0319 64.646 84.7582 64.5755 85.0487 63.9411C85.1939 63.7296 85.1939 63.3066 85.3392 62.9541Z" fill="black"/>
<path id="Vector_6" d="M69.8694 66.761C70.7409 66.761 71.3946 67.043 71.9756 67.6775C73.2829 69.0874 73.6461 71.4843 72.3388 73.1762C71.6851 74.0222 70.8862 74.5157 69.7967 74.7272C68.6347 74.9387 67.5452 74.3747 66.8189 73.3172C65.5843 71.4138 65.8748 69.0874 67.4726 67.6775C68.1989 67.1135 68.9252 66.761 69.8694 66.761ZM68.0536 70.2154C68.0536 71.0613 68.3442 71.8368 68.9252 72.4713C69.6515 73.2467 70.6683 72.9647 71.0314 72.0483C71.3946 71.0613 70.8862 69.3694 70.0146 68.7349C69.6515 68.4529 69.2883 68.3824 68.8526 68.5939C68.1989 68.9464 68.0536 69.5104 68.0536 70.2154Z" fill="black"/>
<path id="Vector_7" d="M33.6272 89.5316C33.6272 87.7692 34.7166 86.2887 36.3871 85.6543C37.5492 85.2313 38.8565 85.5133 39.6554 86.5002C41.108 88.1922 41.2533 91.0121 39.2196 92.6335C38.3481 93.3385 37.3313 93.7615 36.0966 93.409C35.4429 93.1975 34.9345 92.845 34.5714 92.281C33.9903 91.435 33.6272 90.5186 33.6272 89.5316ZM35.5882 88.8972C35.5882 89.7431 35.8787 90.5891 36.4597 91.2236C37.186 91.999 38.2755 91.717 38.566 90.7301C38.8565 89.5316 38.4934 88.4037 37.6218 87.5577C37.186 87.0642 36.4597 87.1347 35.9513 87.6282C35.7334 87.9807 35.5882 88.4037 35.5882 88.8972Z" fill="black"/>
<path id="Vector_8" d="M80.9815 68.2414C80.4005 68.5939 79.8194 68.9464 79.1658 69.2988C78.8752 68.5939 78.6574 67.8889 78.3668 67.1839C78.0763 66.4085 77.7858 65.633 77.4227 64.928C77.2774 64.5755 77.0595 64.2935 76.6237 64.2935C76.188 64.2935 75.8975 64.646 75.7522 65.069C75.4617 65.8445 75.6069 66.5494 75.8974 67.2544C76.2606 68.2414 76.6237 69.2283 76.9869 70.1448C77.1321 70.4268 77.0595 70.5678 76.769 70.7088C76.2606 70.9908 75.8248 71.2728 75.3164 71.5548C74.7354 70.0038 74.1544 68.5234 73.5733 67.0429C73.3554 66.4085 73.0649 65.7035 72.7744 65.069C72.7018 64.8575 72.7018 64.7165 72.9197 64.5755C73.3554 64.364 73.7912 64.082 74.227 63.8001C74.3722 64.1525 74.5901 64.505 74.7354 64.8575C74.8806 64.364 74.9533 64.0115 75.0985 63.6591C75.4617 62.9541 76.0427 62.4606 76.769 62.1786C77.4953 61.9671 78.2942 62.2491 78.73 62.9541C79.0931 63.5886 79.3836 64.223 79.6742 64.928C80.1826 65.9855 80.6183 67.1134 80.9815 68.2414Z" fill="black"/>
<path id="Vector_9" d="M18.8835 102.221C19.1014 102.433 19.2467 102.715 19.3919 102.926C19.7551 103.42 19.8277 103.42 19.3193 103.913C18.6656 104.618 17.8667 105.182 16.9225 105.535C15.8331 105.957 14.671 105.675 13.8721 104.9C12.4195 103.42 12.2743 100.952 13.4363 99.3307C14.09 98.4848 14.8889 97.9208 15.9784 97.8503C16.7773 97.7798 17.4309 98.0618 17.8667 98.7668C18.3025 99.4717 18.3751 100.177 17.9393 100.882C17.4309 101.728 16.7046 102.292 15.9057 102.785C15.6878 102.926 15.47 102.997 15.3247 103.138C15.1068 103.208 15.1068 103.349 15.2521 103.49C15.6152 103.913 16.1962 104.054 16.7773 103.843C17.5762 103.561 18.0846 103.208 18.8835 102.221ZM14.5984 101.869C15.2521 101.516 15.8331 101.164 16.2689 100.67C16.5594 100.318 16.5594 99.9652 16.2689 99.7537C16.051 99.5422 15.6878 99.4717 15.3247 99.6832C14.5984 100.036 14.3079 100.882 14.5984 101.869Z" fill="black"/>
<path id="Vector_10" d="M51.4215 83.2573C51.712 83.6098 51.9299 83.9623 52.2204 84.3148C52.293 84.3853 52.293 84.5263 52.2204 84.5968C51.3488 85.7247 50.332 86.5002 48.9521 86.7822C47.8626 86.9937 46.9911 86.5707 46.3374 85.7247C45.1027 84.1738 45.0301 81.9884 46.1195 80.4374C46.7732 79.5915 47.5721 79.0275 48.6615 78.8865C49.4605 78.816 50.1141 79.098 50.5499 79.803C50.9857 80.5079 51.0583 81.2129 50.6225 81.9179C50.1141 82.7638 49.2426 83.3278 48.4437 83.8918C48.371 83.8918 48.371 83.9623 48.2984 83.9623C48.1531 84.1033 48.0079 84.2443 47.8626 84.3853C48.0805 84.5263 48.2984 84.8788 48.5889 84.8788C48.9521 84.9493 49.3878 84.8788 49.751 84.7378C50.4046 84.4558 50.9131 83.8918 51.4215 83.2573ZM47.1363 82.9048C47.4269 82.7638 47.7174 82.6228 47.9353 82.4113C48.2984 82.1294 48.5889 81.8474 48.8794 81.5654C49.0973 81.3539 49.0973 81.0014 48.8794 80.7899C48.6615 80.5784 48.4437 80.5079 48.0805 80.6489C47.209 80.9309 46.7732 81.9179 47.1363 82.9048Z" fill="black"/>
<path id="Vector_11" d="M43.2144 79.944C41.8344 80.4375 41.907 81.2129 42.1976 82.1294C42.2702 82.3409 42.4154 82.4114 42.5607 82.2704C42.8512 82.0589 43.2144 81.9179 43.5775 81.7064C43.7954 82.1999 43.9407 82.6934 44.1585 83.1869C43.7954 83.3984 43.5049 83.6098 43.2144 83.7508C42.9965 83.8918 42.9238 83.9623 43.0691 84.2443C43.6501 85.7953 44.2312 87.3462 44.8848 88.8972C44.9575 89.1791 44.9575 89.3201 44.7396 89.4611C44.2312 89.7431 43.7954 90.0251 43.287 90.3071C42.6333 88.5447 41.9797 86.7822 41.2534 85.0198C40.9629 85.1608 40.6723 85.3018 40.4545 85.4428C40.2366 84.9493 40.0913 84.5263 39.946 84.0328C40.2366 83.8213 40.5997 83.6803 40.6723 83.4688C40.745 83.2574 40.5271 82.9049 40.4545 82.6229C39.946 80.7195 40.745 79.1685 42.5607 78.534C42.8512 78.4635 42.9238 78.4636 42.9965 78.7455C42.9238 79.098 43.0691 79.521 43.2144 79.944Z" fill="black"/>
<path id="Vector_12" d="M58.3212 79.38C58.9023 79.1685 59.4107 78.957 59.9191 78.7455C60.0643 78.675 60.2096 78.534 60.2822 78.393C60.3548 78.1815 60.5001 77.8995 60.4275 77.688C60.3548 77.4766 60.0643 77.3356 59.8464 77.2651C59.5559 77.1946 59.2654 77.2651 58.9023 77.2651C58.1033 77.2651 57.377 77.1241 57.0139 76.2076C56.6508 75.2911 56.796 74.4452 57.377 73.7402C57.9581 72.9647 58.757 72.4712 59.6286 72.1892C59.9191 72.1187 60.0643 72.1892 60.137 72.5417C60.2096 72.8942 60.2822 73.2467 60.3548 73.5287C59.9191 73.7402 59.4833 73.8812 59.1202 74.0927C58.6844 74.3042 58.5391 74.7271 58.6117 75.0091C58.6844 75.3616 58.9749 75.5026 59.4833 75.5026C59.9917 75.5026 60.5001 75.4321 61.0085 75.5731C62.0979 75.8551 62.6063 77.265 62.0979 78.4635C61.6622 79.521 60.8632 80.085 59.9191 80.5079C59.6286 80.6489 59.2654 80.7194 58.9023 80.7899C58.6844 80.8604 58.6117 80.7899 58.5391 80.5079C58.3939 80.085 58.3212 79.7325 58.3212 79.38Z" fill="black"/>
<path id="Vector_13" d="M55.2708 76.6306C54.7624 76.8421 54.3266 76.9831 53.8908 77.1946C53.6729 77.2651 53.5277 77.4766 53.3824 77.6881C53.1645 77.9701 53.3098 78.3225 53.6729 78.4635C53.9634 78.534 54.254 78.534 54.6171 78.534C55.1255 78.534 55.6339 78.534 56.0697 78.6045C57.2318 78.957 57.7402 80.2965 57.2318 81.4244C56.7234 82.4819 55.8518 83.0459 54.7624 83.5394C54.3992 83.6804 54.0361 83.7508 53.6729 83.8213C53.3824 83.8918 53.2372 83.7508 53.2372 83.5394C53.1645 83.1869 53.0919 82.8344 53.0193 82.4819C53.455 82.3409 53.8908 82.2704 54.3266 82.1294C54.6171 81.9884 54.9076 81.8474 55.1981 81.6359C55.416 81.4244 55.5613 81.213 55.416 80.8605C55.2708 80.5785 55.0529 80.4375 54.7624 80.4375C54.3266 80.4375 53.9634 80.4375 53.5277 80.4375C51.7119 80.4375 50.9856 78.816 51.6393 77.5471C52.2203 76.2781 53.3098 75.7142 54.6171 75.2912C54.9076 75.2207 55.0529 75.2912 55.0529 75.5732C55.1255 75.9257 55.1981 76.2781 55.2708 76.6306Z" fill="black"/>
<path id="Vector_14" d="M87.9539 52.0975C88.2444 52.873 88.5349 53.6485 88.8254 54.4239C89.7696 56.8209 90.6411 59.2178 91.5853 61.6852C91.7306 61.9672 91.658 62.1082 91.3674 62.2492C90.859 62.5311 90.4233 62.8131 89.9149 63.0951C89.6243 62.2492 89.2612 61.4032 88.9707 60.5572C88.0991 58.2308 87.2276 55.9044 86.356 53.5075C86.2834 53.2255 86.2834 53.0845 86.5739 52.9435C86.9371 52.6615 87.4455 52.3795 87.9539 52.0975Z" fill="black"/>
<path id="Vector_15" d="M28.2527 90.5891C28.6885 90.3071 29.1969 90.0251 29.7053 89.7431C29.9232 90.1661 30.141 90.5891 30.3589 91.012C30.4316 91.012 30.4316 91.012 30.5042 91.012C30.5042 89.8841 30.7221 88.8971 31.9568 88.3331C32.1747 88.9676 32.3925 89.5316 32.6104 90.1661C32.6104 90.1661 32.6104 90.2366 32.5378 90.2366C31.2305 90.9415 31.1579 92.14 31.5936 93.4089C31.8841 94.3254 32.2473 95.1714 32.6104 96.0174C32.6831 96.2993 32.6831 96.3698 32.4652 96.5108C31.9568 96.7928 31.521 97.0748 31.0126 97.3568C30.0684 95.1009 29.1242 92.845 28.2527 90.5891Z" fill="black"/>
<path id="Vector_16" d="M64.6399 77.7585C63.7684 75.5026 62.8968 73.2467 62.0979 70.9203C62.6789 70.5678 63.26 70.2153 63.9136 69.8629C64.2768 70.7793 64.6399 71.6958 64.9304 72.5417C65.4388 73.8107 65.8746 75.0797 66.383 76.2781C66.5283 76.5601 66.4557 76.7011 66.1651 76.8421C65.5841 77.1946 65.1483 77.4766 64.6399 77.7585Z" fill="black"/>
<path id="Vector_17" d="M63.3326 68.4529C63.3326 69.0169 62.7515 69.5809 62.0979 69.5809C61.5168 69.5809 61.0811 69.0874 61.0811 68.4529C61.0811 67.8184 61.6621 67.325 62.2431 67.325C62.8968 67.3954 63.3326 67.8889 63.3326 68.4529Z" fill="black"/>
</g>
</svg>
