<svg width="40" height="40" viewBox="0 0 40 40" fill="none" xmlns="http://www.w3.org/2000/svg">
<g id="Vector">
<path d="M40.0002 19.8807C39.8173 30.9037 31.3933 39.8807 19.9653 39.9547C9.37326 40.02 0.226542 31.5872 0.000160074 20.3944C-0.221869 9.03608 8.6767 0.18541 19.7694 0.00256305C30.6184 -0.171577 39.7041 8.54849 40.0002 19.8763V19.8807ZM38.2413 19.3539C38.1499 9.87196 29.6171 0.642528 18.0106 1.7875C9.65623 2.61467 1.18867 9.88066 1.72415 21.0648C2.18127 30.6556 10.2962 38.6747 20.7838 38.2394C30.8578 37.8171 38.668 29.3452 38.2413 19.3495V19.3539Z" fill="#363636"/>
<path d="M16.4869 19.9416C16.4999 18.9621 16.9788 18.1915 17.7015 17.6125C18.2892 17.1467 18.9423 16.7113 19.6345 16.437C23.7877 14.7827 27.9584 13.1806 32.1203 11.5655C32.338 11.4828 32.5687 11.4218 32.7908 11.3478C33.2 11.2128 33.5047 11.3652 33.7181 11.7091C33.9401 12.0618 33.9009 12.4144 33.6179 12.7061C33.2653 13.0674 32.8909 13.4157 32.5078 13.7466C29.2252 16.5764 25.9514 19.4148 22.6471 22.2141C21.7111 23.0065 20.6227 23.5855 19.321 23.3635C17.6362 23.0761 16.4825 21.6569 16.4869 19.9416ZM28.5374 14.9525C28.52 14.9177 28.4982 14.8828 28.4808 14.848C28.2501 14.922 28.0106 14.983 27.7842 15.07C25.6249 15.8972 23.4656 16.7287 21.3106 17.5603C20.5705 17.8476 19.8173 18.1088 19.1033 18.4527C18.3371 18.8184 18.0716 19.5803 18.3067 20.4858C18.5156 21.2912 19.0772 21.7091 19.9305 21.7222C20.6967 21.7353 21.193 21.2477 21.7154 20.8036C23.8661 18.9708 26.0124 17.138 28.1586 15.3051C28.2892 15.1919 28.4111 15.07 28.5417 14.9525H28.5374Z" fill="#363636"/>
<path d="M34.6715 20.7731C34.4059 20.7427 34.0054 20.7296 33.6223 20.6425C33.1956 20.5468 33.0215 20.2333 33.0302 19.7936C33.0389 19.3626 33.3088 19.1362 33.6615 19.1101C34.3754 19.0579 35.0981 19.0491 35.8121 19.0927C36.2692 19.1188 36.513 19.454 36.5087 19.9111C36.5087 20.3857 36.1865 20.6295 35.7686 20.7122C35.4551 20.7775 35.1242 20.7514 34.6671 20.7731H34.6715Z" fill="#363636"/>
<path d="M5.23308 20.7818C4.85868 20.747 4.49298 20.7427 4.1447 20.6687C3.72241 20.5816 3.49168 20.2855 3.50474 19.8458C3.5178 19.3974 3.77465 19.1188 4.21 19.097C4.8935 19.0622 5.58136 19.0622 6.26486 19.097C6.6828 19.1188 6.89176 19.4018 6.93094 19.8197C6.97448 20.2681 6.78293 20.5729 6.35193 20.6687C5.98188 20.747 5.59877 20.7514 5.23308 20.7862V20.7818Z" fill="#363636"/>
<path d="M6.31275 28.6704C6.08636 28.4527 5.7555 28.2786 5.67714 28.0217C5.60313 27.7736 5.68584 27.3165 5.86869 27.1771C6.45206 26.7374 7.09638 26.3543 7.76682 26.0539C7.97579 25.9582 8.4329 26.1149 8.59398 26.3108C8.75506 26.5067 8.83343 27.003 8.70282 27.1728C8.11945 27.9085 7.2444 28.2394 6.31275 28.6704Z" fill="#363636"/>
<path d="M19.0642 5.14406C19.1077 4.74789 19.1338 4.38655 19.1948 4.03391C19.2688 3.61598 19.5996 3.35912 19.961 3.40701C20.2396 3.44619 20.6706 3.74658 20.6967 3.97296C20.7925 4.71306 20.7969 5.47928 20.7054 6.21502C20.6793 6.43705 20.257 6.70696 19.9697 6.78533C19.5866 6.88981 19.3167 6.58507 19.2165 6.23243C19.1164 5.87109 19.1077 5.48798 19.0598 5.14406H19.0642Z" fill="#363636"/>
<path d="M27.0833 8.68345C26.3998 8.69652 25.9558 8.20457 26.1778 7.71698C26.4912 7.03348 26.8918 6.38045 27.3228 5.76225C27.5491 5.43574 27.941 5.40091 28.2936 5.65341C28.6419 5.90592 28.803 6.22808 28.5679 6.63731C28.2457 7.20326 27.9235 7.76922 27.5622 8.30905C27.436 8.49625 27.1834 8.60509 27.0833 8.6791V8.68345Z" fill="#363636"/>
<path d="M7.95402 13.9294C7.16168 13.3852 6.41723 12.9194 5.74679 12.3665C5.60313 12.249 5.60313 11.7135 5.74679 11.5568C5.93399 11.3478 6.40417 11.1562 6.61314 11.252C7.29228 11.5655 7.94096 11.9791 8.53303 12.4405C8.71153 12.5798 8.75942 13.0413 8.6767 13.2982C8.60269 13.5246 8.26747 13.6682 7.95837 13.9251L7.95402 13.9294Z" fill="#363636"/>
<path d="M12.9301 8.68781C12.8343 8.62686 12.5818 8.55285 12.4686 8.38306C12.0637 7.76486 11.7024 7.1249 11.3454 6.47623C11.1451 6.11053 11.3541 5.86674 11.6501 5.66212C11.9505 5.45315 12.3162 5.35738 12.5296 5.66212C13.0128 6.35433 13.4568 7.07701 13.8269 7.83452C14.0054 8.19151 13.5178 8.67039 12.9301 8.68781Z" fill="#363636"/>
<path d="M31.8199 25.9669C32.0463 26.0235 32.1639 26.0235 32.2509 26.0801C32.8561 26.437 33.4699 26.7853 34.0489 27.1815C34.4146 27.4296 34.4712 27.8171 34.2318 28.1828C34.001 28.5311 33.6484 28.7009 33.2479 28.4745C32.621 28.1219 31.9897 27.7692 31.4194 27.3339C31.2453 27.1989 31.1713 26.7592 31.2453 26.5241C31.3236 26.2847 31.6458 26.1236 31.8156 25.9712L31.8199 25.9669Z" fill="#363636"/>
</g>
</svg>
