<svg width="40" height="40" viewBox="0 0 40 40" fill="none" xmlns="http://www.w3.org/2000/svg">
<g id="Isolation_Mode" clip-path="url(#clip0_542_757)">
<path id="Vector" d="M21.2062 40H18.8664C18.7531 39.9776 18.6408 39.9502 18.5266 39.9327C17.4377 39.7637 16.3312 39.6729 15.2629 39.417C5.01874 36.9629 -1.58184 26.668 0.42304 16.3037C1.25605 11.9951 3.26874 8.3223 6.50898 5.37113C11.132 1.16117 16.5949 -0.517545 22.7853 0.268588C26.7287 0.769565 30.2023 2.38773 33.1818 5.01859C36.6906 8.11722 38.885 11.9737 39.6926 16.5977C39.8234 17.3477 39.8986 18.1084 40.0002 18.8643V21.2041C39.9767 21.3291 39.9475 21.4532 39.9309 21.5791C39.8351 22.3125 39.7795 23.0528 39.6418 23.7784C38.8869 27.7549 37.0764 31.1905 34.2316 34.0635C31.2492 37.0752 27.6643 38.9717 23.4777 39.6934C22.7258 39.8233 21.9641 39.8994 21.2072 40.001L21.2062 40ZM33.3439 31.4893C38.3469 26.085 39.926 15.6934 33.0158 8.14066C26.0334 0.507846 14.2385 0.457065 7.14472 8.05472C0.201361 15.4922 1.61933 25.9395 6.73847 31.5039C7.31464 29.3164 8.33027 27.3828 9.8332 25.7168C11.3439 24.041 13.1682 22.8145 15.301 22.003C10.2609 18.3887 11.0383 12.0215 14.1125 9.05765C17.4689 5.82132 22.7424 5.84574 26.0119 9.10746C29.1711 12.2588 29.6447 18.5039 24.7941 21.9815C29.1935 23.7608 32.0402 26.9307 33.3439 31.4893ZM20.1779 37.6592C20.5627 37.6397 21.0822 37.6182 21.6008 37.584C21.8332 37.5684 22.0646 37.5313 22.2961 37.501C25.6105 37.0694 28.5568 35.7823 31.1496 33.6807C31.2365 33.6104 31.3049 33.4424 31.2912 33.3321C30.509 27.1797 24.7443 22.7823 18.5588 23.6104C13.4777 24.291 9.51581 28.2178 8.7873 33.3096C8.76972 33.4297 8.83906 33.6143 8.93281 33.6895C12.174 36.3028 15.884 37.6104 20.1769 37.6582L20.1779 37.6592ZM20.0461 21.0811C23.384 21.0674 26.093 18.3633 26.1027 15.0323C26.1125 11.7032 23.3615 8.95316 20.0256 8.95999C16.6867 8.96683 13.9338 11.7364 13.9689 15.0528C14.0051 18.3975 16.7238 21.0948 20.0461 21.0811Z" fill="#363636"/>
<path id="Vector_2" d="M40 18.8643C39.8994 18.1084 39.8242 17.3486 39.6924 16.5977C38.8848 11.9736 36.6904 8.11719 33.1816 5.01855C30.2031 2.3877 26.7285 0.769531 22.7852 0.268555C16.5947 -0.517578 11.1318 1.16113 6.50879 5.37207C3.26953 8.32324 1.25684 11.9961 0.423828 16.3037C-1.58105 26.667 5.01953 36.9619 15.2646 39.416C16.332 39.6719 17.4395 39.7627 18.5283 39.9316C18.6426 39.9492 18.7549 39.9766 18.8682 39.999H0V0H40V18.8643Z" fill="white"/>
<path id="Vector_3" d="M21.207 40C21.9639 39.8984 22.7256 39.8223 23.4775 39.6924C27.665 38.9707 31.249 37.0742 34.2314 34.0625C37.0762 31.1904 38.8867 27.7549 39.6416 23.7773C39.7793 23.0518 39.834 22.3115 39.9307 21.5781C39.9473 21.4521 39.9766 21.3281 40 21.2031V39.999H21.207V40Z" fill="white"/>
</g>
<defs>
<clipPath id="clip0_542_757">
<rect width="40" height="40" fill="white"/>
</clipPath>
</defs>
</svg>
