<svg width="40" height="40" viewBox="0 0 40 40" fill="none" xmlns="http://www.w3.org/2000/svg">
<g id="Isolation_Mode" clip-path="url(#clip0_542_748)">
<path id="Vector" d="M0 40V0H40V40H0ZM19.992 35.2C25.924 35.2 31.86 35.2 37.792 35.2C38.94 35.2 39.212 34.932 39.212 33.796C39.212 24.912 39.212 16.032 39.212 7.148C39.212 6.98 39.216 6.816 39.208 6.648C39.168 5.952 38.892 5.668 38.188 5.604C38.024 5.588 37.856 5.592 37.688 5.592C25.872 5.592 14.052 5.592 2.236 5.592C2.036 5.592 1.836 5.592 1.64 5.62C1.176 5.696 0.876 5.944 0.868 6.448C0.86 6.912 0.872 7.38 0.872 7.844C0.872 16.276 0.872 24.708 0.872 33.14C0.872 33.524 0.872 33.908 0.872 34.288C0.872 34.808 1.156 35.088 1.644 35.168C1.84 35.2 2.044 35.192 2.244 35.192C8.16 35.192 14.08 35.192 19.996 35.192L19.992 35.2Z" fill="white"/>
<path id="Vector_2" d="M19.9921 35.2C14.0761 35.2 8.15608 35.2 2.24008 35.2C2.04008 35.2 1.83608 35.208 1.64008 35.176C1.14808 35.096 0.864078 34.82 0.868078 34.296C0.868078 33.912 0.868078 33.528 0.868078 33.148C0.868078 24.716 0.868078 16.284 0.868078 7.85201C0.868078 7.38801 0.856078 6.92001 0.864078 6.45601C0.872078 5.95601 1.17208 5.70401 1.63608 5.62801C1.83208 5.59601 2.03608 5.60001 2.23208 5.60001C14.0481 5.60001 25.8681 5.60001 37.6841 5.60001C37.8521 5.60001 38.0201 5.60001 38.1841 5.61201C38.8881 5.67201 39.1641 5.95601 39.2041 6.65601C39.2121 6.82401 39.2081 6.98801 39.2081 7.15601C39.2081 16.04 39.2081 24.92 39.2081 33.804C39.2081 34.94 38.9361 35.208 37.7881 35.208C31.8561 35.208 25.9201 35.208 19.9881 35.208L19.9921 35.2ZM37.5761 33.58V7.23201H2.42808V33.576H37.5801L37.5761 33.58Z" fill="#363636"/>
<path id="Vector_3" d="M16.0353 10.4159H14.4033C14.4033 10.7959 14.4153 11.1719 14.4033 11.5479C14.3953 11.7599 14.3713 11.9799 14.3113 12.1839C14.2073 12.5479 13.9233 12.7839 13.5713 12.7039C13.3273 12.6479 13.0993 12.4039 12.9233 12.1919C12.8233 12.0679 12.8153 11.8439 12.8113 11.6639C12.7993 11.0639 12.7953 10.4639 12.8113 9.8639C12.8273 9.1839 13.1433 8.8599 13.8153 8.7999C13.9473 8.7879 14.0833 8.7919 14.2153 8.7919C17.7993 8.7919 21.3793 8.7919 24.9633 8.7919C25.2273 8.7919 25.4953 8.8199 25.7513 8.8799C26.1073 8.9599 26.3593 9.1879 26.3513 9.5719C26.3433 9.9639 26.1273 10.2479 25.7353 10.3119C25.3793 10.3719 25.0073 10.3679 24.6433 10.3879C24.4473 10.3959 24.2513 10.3879 24.0193 10.3879C24.0193 11.3959 23.9953 12.3599 24.0353 13.3199C24.0473 13.5839 24.2153 13.8519 24.3393 14.1039C25.8153 17.0919 23.5433 20.6679 20.2433 20.7559C16.5033 20.8599 14.2153 17.0519 15.6073 14.2839C16.2393 13.0239 15.8713 11.7359 16.0393 10.4079L16.0353 10.4159ZM20.0033 14.3959C19.2033 14.3959 18.4073 14.4159 17.6073 14.3879C17.2513 14.3759 17.1033 14.5199 16.9993 14.8239C16.7593 15.5399 16.7393 16.2519 16.9673 16.9759C17.5313 18.7359 19.4433 19.6399 21.1873 18.9599C22.8713 18.2999 23.6713 16.3159 22.8953 14.6559C22.8353 14.5279 22.6033 14.4119 22.4473 14.4079C21.6313 14.3839 20.8193 14.3959 20.0033 14.3959ZM17.6233 12.7599H22.3633V10.4199H17.6233V12.7599Z" fill="#363636"/>
<path id="Vector_4" d="M27.8195 26.872C27.4475 27.04 27.0795 27.232 26.6915 27.364C26.6035 27.396 26.4035 27.248 26.3275 27.136C25.2355 25.504 23.7515 24.44 21.7995 24.152C19.7435 23.844 17.7035 23.916 15.8515 25.028C14.9595 25.564 14.1995 26.256 13.6755 27.184C13.6195 27.284 13.4275 27.4 13.3515 27.372C12.9555 27.224 12.5715 27.032 12.1875 26.856C13.1315 24.748 16.1195 22.232 20.3475 22.392C24.2955 22.54 27.0115 24.948 27.8235 26.872H27.8195Z" fill="#363636"/>
<path id="Vector_5" d="M11.9678 31.9759H6.42383V28.8359H11.9678V31.9759Z" fill="#363636"/>
<path id="Vector_6" d="M19.1688 31.9759H13.6328V28.8359H19.1688V31.9759Z" fill="#363636"/>
<path id="Vector_7" d="M26.3798 31.9759H20.8398V28.8279H26.3798V31.9759Z" fill="#363636"/>
<path id="Vector_8" d="M33.6127 28.832C33.6127 29.812 33.6127 30.76 33.6127 31.708C33.6127 31.788 33.6007 31.868 33.5967 31.972H28.0527V28.832H33.6127Z" fill="#363636"/>
</g>
<defs>
<clipPath id="clip0_542_748">
<rect width="40" height="40" fill="white"/>
</clipPath>
</defs>
</svg>
