<svg width="40" height="40" viewBox="0 0 40 40" fill="none" xmlns="http://www.w3.org/2000/svg">
<g id="Isolation_Mode" clip-path="url(#clip0_542_743)">
<path id="Vector" d="M24.8003 40V34.12C25.6083 34.168 26.3643 34.208 27.1243 34.252C28.1363 34.308 29.1443 34.432 30.1483 34.112C32.1803 33.464 33.5683 31.652 33.5963 29.516C33.6163 28.032 33.6123 26.548 33.5963 25.068C33.5923 24.684 33.7043 24.46 34.0603 24.288C35.0763 23.796 36.0843 23.28 37.0843 22.748C37.6843 22.428 37.7523 22.224 37.4203 21.632C36.5643 20.108 35.7323 18.568 34.7923 17.096C33.9563 15.788 33.5643 14.38 33.2763 12.872C32.5723 9.16 30.8883 5.996 27.6323 3.864C25.8283 2.68 23.8083 2.096 21.6923 1.804C21.4123 1.764 21.1363 1.736 20.8283 1.696C20.8163 1.848 20.8003 1.98 20.8003 2.112C20.8003 5.98 20.8003 9.844 20.7923 13.712C20.7923 14.02 20.8843 14.184 21.1723 14.32C24.4163 15.844 25.9123 19.884 23.8443 23.244C23.5763 23.684 23.5523 23.896 24.0403 24.208C25.1203 24.892 26.1483 25.664 27.1883 26.416C27.4963 26.64 27.7763 26.688 28.1563 26.576C29.1203 26.292 29.9843 26.52 30.6323 27.304C31.2643 28.064 31.3723 28.924 30.9163 29.82C30.4603 30.712 29.7283 31.204 28.7163 31.196C27.3123 31.184 26.2003 29.808 26.4723 28.428C26.5563 28 26.5203 27.74 26.0803 27.468C24.9483 26.772 23.8683 25.984 22.7843 25.212C22.5243 25.028 22.3443 25.024 22.0803 25.204C17.7403 28.188 12.6203 25.156 12.0363 20.576C11.7843 18.616 12.6803 15.884 15.2363 14.54C15.8683 14.208 16.0243 13.848 16.0203 13.176C15.9843 9.56 16.0043 5.944 16.0043 2.328C16.0043 2.132 16.0043 1.932 16.0043 1.696C13.0963 2.02 10.4563 2.908 8.20028 4.768C5.64428 6.876 4.22828 9.656 3.58028 12.84C2.81628 16.6 3.10428 20.276 4.84428 23.744C5.49228 25.036 6.35628 26.216 7.02428 27.5C8.20428 29.764 8.78028 32.2 8.80028 34.756C8.81628 36.504 8.80028 38.256 8.80028 40.004H7.20028C7.20028 38.304 7.16428 36.604 7.20828 34.904C7.28428 32.12 6.48428 29.584 5.13628 27.196C4.51628 26.096 3.74428 25.064 3.23628 23.916C1.02828 18.948 1.00828 13.936 3.23228 8.968C5.18428 4.596 8.57228 1.872 13.1963 0.7C14.1643 0.456 15.1683 0.34 16.1243 0.168C16.0163 0.124 15.8563 0.064 15.7003 0C17.7323 0 19.7683 0 21.8003 0C21.4923 0.056 21.1843 0.108 20.8723 0.164C21.5923 0.308 22.3203 0.368 23.0283 0.504C25.8723 1.04 28.4203 2.204 30.4963 4.256C32.8563 6.588 34.2403 9.448 34.7843 12.7C34.9883 13.932 35.3283 15.068 36.0003 16.14C36.9403 17.628 37.7923 19.176 38.6563 20.712C39.5443 22.296 39.1723 23.456 37.5403 24.268C36.9443 24.564 36.3483 24.856 35.7363 25.116C35.3363 25.284 35.1803 25.508 35.1843 25.972C35.2003 27.352 35.2123 28.74 35.1003 30.116C34.8563 33.168 32.1963 35.724 29.1323 35.904C28.2443 35.956 27.3483 35.912 26.3963 35.912V40H24.7963H24.8003ZM18.3403 24.796C20.9923 24.804 23.1683 22.696 23.1843 20.1C23.2003 17.284 21.1883 15.248 18.3523 15.216C15.8083 15.188 13.6123 17.388 13.6083 19.972C13.6043 22.6 15.7483 24.788 18.3363 24.796H18.3403ZM19.1723 13.576V1.636H17.6363V13.58H19.1723V13.576ZM28.7883 29.6C29.3163 29.596 29.5963 29.324 29.6003 28.812C29.6003 28.284 29.2963 27.988 28.7603 28C28.2763 28.012 27.9923 28.324 28.0003 28.844C28.0083 29.316 28.3083 29.604 28.7883 29.6Z" fill="#363636"/>
<path id="Vector_2" d="M26.401 40V35.912C27.349 35.912 28.245 35.956 29.137 35.904C32.201 35.72 34.861 33.164 35.105 30.116C35.217 28.74 35.201 27.356 35.189 25.972C35.185 25.508 35.337 25.284 35.741 25.116C36.353 24.86 36.953 24.564 37.545 24.268C39.173 23.456 39.549 22.292 38.661 20.712C37.797 19.176 36.945 17.632 36.005 16.14C35.329 15.072 34.993 13.932 34.789 12.7C34.245 9.448 32.865 6.584 30.501 4.256C28.425 2.204 25.881 1.04 23.033 0.504C22.321 0.372 21.597 0.308 20.877 0.164C21.185 0.108 21.493 0.056 21.801 0C27.869 0 33.933 0 40.001 0V40H26.401Z" fill="white"/>
<path id="Vector_3" d="M15.7 0C15.856 0.064 16.016 0.124 16.124 0.168C15.168 0.336 14.168 0.452 13.196 0.7C8.568 1.872 5.184 4.6 3.228 8.968C1.008 13.932 1.024 18.948 3.232 23.916C3.744 25.064 4.512 26.096 5.132 27.196C6.48 29.584 7.28 32.12 7.204 34.904C7.156 36.604 7.196 38.304 7.196 40.004H0C0 26.668 0 13.332 0 0C5.232 0 10.468 0 15.7 0Z" fill="white"/>
<path id="Vector_4" d="M21.5992 19.9841C21.5992 21.7401 20.1512 23.1921 18.3952 23.2001C16.6472 23.2041 15.1992 21.7481 15.1992 19.9881C15.1992 18.2401 16.6592 16.7961 18.4232 16.8001C20.1432 16.8001 21.5992 18.2641 21.5992 19.9841ZM16.7992 19.9761C16.8032 20.9521 17.4312 21.6001 18.3752 21.6001C19.3112 21.6001 19.9992 20.9001 19.9992 19.9441C19.9992 19.0481 19.3152 18.3761 18.4072 18.3841C17.4512 18.3921 16.7952 19.0401 16.7992 19.9761Z" fill="#363636"/>
</g>
<defs>
<clipPath id="clip0_542_743">
<rect width="40" height="40" fill="white"/>
</clipPath>
</defs>
</svg>
