<svg width="40" height="41" viewBox="0 0 40 41" fill="none" xmlns="http://www.w3.org/2000/svg">
<g id="Layer_1" clip-path="url(#clip0_542_740)">
<path id="Vector" d="M32.3781 7.5887H30.4738C30.4738 7.3459 30.4785 7.11739 30.4738 6.88887C30.4404 5.52253 30.4404 4.15619 30.35 2.78984C30.2976 1.9948 30.0596 1.80913 29.2645 1.91386C28.1886 2.05669 27.1079 2.2376 26.0605 2.52324C20.0429 4.15143 14.0348 5.80817 8.02671 7.46968C6.46994 7.89815 5.02267 8.57894 3.68489 9.49301C3.4659 9.64536 3.2707 9.83579 3.1136 10.1072C3.21357 10.0929 3.31831 10.0881 3.41829 10.0691C4.50374 9.87863 5.58444 9.5311 6.66989 9.52634C15.6154 9.48349 24.5609 9.50729 33.5064 9.49777C35.6106 9.49777 37.453 10.0405 38.8051 11.7829C39.6763 12.9065 39.9763 14.2109 39.981 15.5725C40.0001 22.0805 40.0048 28.5837 39.981 35.0917C39.9763 37.3292 39.1812 39.2193 37.0817 40.2238C36.1867 40.6523 35.106 40.8855 34.1062 40.8903C24.6847 40.9379 15.2631 40.9284 5.84152 40.9141C3.18025 40.9093 1.0379 39.4859 0.328547 37.2721C0.109552 36.5866 0.0143362 35.8344 0.0143362 35.1107C5.387e-05 28.1124 0.019097 21.1093 5.38702e-05 14.111C-0.00946767 10.8974 1.24262 8.45992 4.22762 7.08406C5.33688 6.5699 6.4747 6.07002 7.64585 5.73676C13.8729 3.97052 20.1096 2.24712 26.3509 0.533239C27.1888 0.304722 28.0505 0.152377 28.9122 0.0381187C30.6118 -0.185638 31.7972 0.666541 32.1781 2.34233C32.2352 2.59465 32.2924 2.84697 32.2971 3.10406C32.3352 4.37042 32.3543 5.64155 32.3781 6.90791C32.3781 7.12215 32.3781 7.33638 32.3781 7.59346V7.5887ZM20.0143 39.0241C20.0143 39.0241 20.0143 39.0288 20.0143 39.0336C24.8132 39.0336 29.6168 39.0336 34.4157 39.0336C34.7489 39.0336 35.0965 39.0336 35.4202 38.9622C37.1245 38.5956 38.0862 37.2864 38.091 35.325C38.091 28.7408 38.091 22.1519 38.091 15.5678C38.091 13.1636 36.339 11.4164 33.9253 11.4164C24.6609 11.4164 15.3964 11.4164 6.13669 11.4164C3.65633 11.4164 1.91388 13.1588 1.90912 15.6392C1.90912 22.2424 1.90912 28.8503 1.90912 35.4535C1.90912 37.5958 3.34212 39.0241 5.49398 39.0241C10.3357 39.0241 15.1726 39.0241 20.0143 39.0241Z" fill="#363636"/>
<path id="Vector_2" d="M32.8058 27.5982C31.5157 27.5839 30.4492 26.4699 30.473 25.1702C30.4969 23.9229 31.5823 22.8469 32.8106 22.8612C34.0817 22.8755 35.2433 24.0181 35.2291 25.2464C35.2148 26.5223 34.0912 27.6125 32.8011 27.5982H32.8058Z" fill="#363636"/>
</g>
<defs>
<clipPath id="clip0_542_740">
<rect width="40" height="40.9379" fill="white"/>
</clipPath>
</defs>
</svg>
