<svg width="40" height="37" viewBox="0 0 40 37" fill="none" xmlns="http://www.w3.org/2000/svg">
<g id="Layer_1" clip-path="url(#clip0_542_735)">
<path id="Vector" d="M29.9 0C30.2 0.118986 30.524 0.212732 30.804 0.364169C31.6 0.796845 31.972 1.48552 31.988 2.28958C32.024 4.10682 32 5.92406 31.94 7.77014C31.372 7.08868 30.272 6.7858 30.38 5.63921C30.476 4.61161 30.404 3.56958 30.4 2.53116C30.4 1.71268 30.104 1.44586 29.208 1.44586C20.344 1.44586 11.476 1.44586 2.612 1.44586C1.792 1.44586 1.6 1.62614 1.6 2.39054C1.6 11.1162 1.6 19.8454 1.6 28.571C1.6 30.2693 1.6 31.9639 1.6 33.6622C1.6 34.4122 1.832 34.6177 2.676 34.6177C11.576 34.6177 20.472 34.6177 29.372 34.6177C30.208 34.6177 30.4 34.441 30.4 33.6874C30.4 32.4868 30.38 31.2825 30.416 30.0818C30.424 29.815 30.584 29.5121 30.772 29.2994C31.1 28.9244 31.504 28.6035 32 28.1492C32 28.4124 32 28.5458 32 28.6792C32 30.2549 32 31.8341 32 33.4098C32 34.798 31.528 35.429 30.116 35.9482C30.04 35.977 29.972 36.0203 29.9 36.0563H2C1.868 35.9842 1.72 35.9265 1.6 35.84C1.196 35.5552 0.76 35.2919 0.412 34.9566C0.2 34.7547 0.132 34.4338 0 34.1634C0 23.4078 0 12.6486 0 1.89296C0.284 1.36293 0.448 0.753578 1.084 0.436282C1.412 0.274028 1.76 0.144225 2.1 0C11.368 0 20.632 0 29.9 0Z" fill="#363636"/>
<path id="Vector_2" d="M40.0003 18.2085C37.1403 20.7901 34.2843 23.3754 31.4243 25.957C31.2483 26.1156 31.0643 26.2707 30.8683 26.4113C30.4723 26.6925 30.1083 26.6709 29.8123 26.3644C29.5203 26.0616 29.5243 25.7154 29.8683 25.4053C31.2963 24.1001 32.7363 22.8093 34.1683 21.5076C35.1483 20.6134 36.1163 19.7084 37.1523 18.7529H36.4563C29.0083 18.7529 21.5603 18.7529 14.1123 18.7457C13.8083 18.7457 13.4563 18.7097 13.2083 18.5727C13.0123 18.4609 12.8323 18.1652 12.8443 17.9561C12.8523 17.7722 13.0963 17.5234 13.3043 17.4441C13.5963 17.3323 13.9523 17.3143 14.2803 17.3143C21.6963 17.3071 29.1083 17.3107 36.5243 17.3107C36.7363 17.3107 36.9483 17.3107 37.2523 17.3107C37.1123 17.1628 37.0443 17.0727 36.9563 16.9934C34.7003 14.9706 32.4403 12.9515 30.1843 10.9251C30.0323 10.7881 29.8883 10.6403 29.7683 10.478C29.5483 10.1823 29.6283 9.9011 29.9003 9.67034C30.1643 9.44319 30.4763 9.34223 30.7963 9.57299C31.1203 9.80736 31.4243 10.067 31.7163 10.3302C34.1883 12.5404 36.6563 14.7543 39.1243 16.9681C39.4163 17.2314 39.7083 17.4946 39.9963 17.7578C39.9963 17.9092 39.9963 18.057 39.9963 18.2085H40.0003Z" fill="#363636"/>
<path id="Vector_3" d="M0 34.1633C0.132 34.4338 0.2 34.7547 0.412 34.9602C0.76 35.2955 1.196 35.5587 1.6 35.8436C1.72 35.9301 1.864 35.9878 2 36.0599H0C0 35.4289 0 34.7979 0 34.1669V34.1633Z" fill="white"/>
<path id="Vector_4" d="M2.1 0C1.76 0.144225 1.412 0.274028 1.084 0.436282C0.448 0.753577 0.284 1.36293 0 1.89296V0C0.7 0 1.4 0 2.1 0Z" fill="white"/>
</g>
<defs>
<clipPath id="clip0_542_735">
<rect width="40" height="36.0563" fill="white"/>
</clipPath>
</defs>
</svg>
