<svg width="51" height="48" viewBox="0 0 51 48" fill="none" xmlns="http://www.w3.org/2000/svg">
<path id="Star 5" d="M23.5727 1.63571C24.1712 -0.207469 26.7788 -0.20746 27.3772 1.63571L31.8341 15.3628C32.1017 16.187 32.8697 16.7452 33.7364 16.7452L48.1623 16.7452C50.0994 16.7452 50.9052 19.2236 49.3384 20.3628L37.6651 28.8503C36.9646 29.3596 36.6715 30.2618 36.939 31.0855L41.3972 44.8167C41.9955 46.6596 39.8859 48.1914 38.3188 47.052L26.6511 38.5686C25.9499 38.0588 25.0001 38.0588 24.2988 38.5686L12.6312 47.0519C11.064 48.1914 8.95442 46.6596 9.55277 44.8167L14.011 31.0855C14.2784 30.2618 13.9853 29.3596 13.2849 28.8503L1.61151 20.3628C0.0447756 19.2236 0.850564 16.7452 2.78765 16.7452L17.2136 16.7452C18.0802 16.7452 18.8482 16.187 19.1158 15.3628L23.5727 1.63571Z" fill="#FFE710"/>
</svg>
