<svg width="28" height="154" viewBox="0 0 28 154" fill="none" xmlns="http://www.w3.org/2000/svg">
<g id="Group 382">
<path id="Star 1" d="M12.9799 34.4526C13.2812 33.5353 14.5787 33.5353 14.88 34.4526L16.8315 40.3939C16.9663 40.8044 17.3495 41.0818 17.7815 41.0818H24.0733C25.0447 41.0818 25.4457 42.327 24.657 42.8939L19.5855 46.5389C19.2312 46.7935 19.0829 47.2484 19.219 47.6629L21.1605 53.574C21.4625 54.4934 20.4127 55.2629 19.6268 54.6981L14.5136 51.0231C14.1649 50.7724 13.695 50.7724 13.3463 51.0231L8.23306 54.6981C7.44723 55.2629 6.39738 54.4934 6.69937 53.574L8.64089 47.6629C8.77704 47.2484 8.62873 46.7935 8.27445 46.5389L3.20295 42.8939C2.4142 42.327 2.81523 41.0818 3.78657 41.0818H10.0784C10.5104 41.0818 10.8936 40.8044 11.0284 40.3939L12.9799 34.4526Z" fill="#FFE710"/>
<path id="Star 2" d="M12.9799 2.89253C13.2812 1.97527 14.5787 1.97527 14.88 2.89253L16.8315 8.83383C16.9663 9.2443 17.3495 9.52178 17.7815 9.52178H24.0733C25.0447 9.52178 25.4457 10.7669 24.657 11.3338L19.5855 14.9788C19.2312 15.2334 19.0829 15.6884 19.219 16.1029L21.1605 22.014C21.4625 22.9334 20.4127 23.7028 19.6268 23.138L14.5136 19.463C14.1649 19.2124 13.695 19.2124 13.3463 19.463L8.23306 23.138C7.44723 23.7028 6.39738 22.9334 6.69937 22.014L8.64089 16.1029C8.77704 15.6884 8.62873 15.2334 8.27445 14.9788L3.20295 11.3338C2.4142 10.7669 2.81523 9.52178 3.78657 9.52178H10.0784C10.5104 9.52178 10.8936 9.2443 11.0284 8.83383L12.9799 2.89253Z" fill="#FFE710"/>
<path id="Star 3" d="M12.9799 66.0127C13.2812 65.0954 14.5787 65.0954 14.88 66.0127L16.8315 71.954C16.9663 72.3645 17.3495 72.642 17.7815 72.642H24.0733C25.0447 72.642 25.4457 73.8871 24.657 74.454L19.5855 78.099C19.2312 78.3536 19.0829 78.8086 19.219 79.2231L21.1605 85.1342C21.4625 86.0536 20.4127 86.823 19.6268 86.2582L14.5136 82.5832C14.1649 82.3326 13.695 82.3326 13.3463 82.5832L8.23306 86.2582C7.44723 86.823 6.39738 86.0536 6.69937 85.1341L8.64089 79.2231C8.77704 78.8086 8.62873 78.3536 8.27445 78.099L3.20295 74.454C2.4142 73.8871 2.81523 72.642 3.78657 72.642H10.0784C10.5104 72.642 10.8936 72.3645 11.0284 71.954L12.9799 66.0127Z" fill="#FFE710"/>
<path id="Star 4" d="M12.9799 97.5728C13.2812 96.6556 14.5787 96.6556 14.88 97.5728L16.8315 103.514C16.9663 103.925 17.3495 104.202 17.7815 104.202H24.0733C25.0447 104.202 25.4457 105.447 24.6569 106.014L19.5855 109.659C19.2312 109.914 19.0829 110.369 19.219 110.783L21.1605 116.694C21.4625 117.614 20.4127 118.383 19.6268 117.818L14.5136 114.143C14.1649 113.893 13.695 113.893 13.3463 114.143L8.23306 117.818C7.44723 118.383 6.39738 117.614 6.69937 116.694L8.64089 110.783C8.77704 110.369 8.62873 109.914 8.27444 109.659L3.20295 106.014C2.4142 105.447 2.81523 104.202 3.78657 104.202H10.0784C10.5104 104.202 10.8936 103.925 11.0284 103.514L12.9799 97.5728Z" fill="#FFE710"/>
<path id="Star 5" d="M12.9799 129.133C13.2812 128.216 14.5787 128.216 14.88 129.133L16.8315 135.074C16.9663 135.485 17.3495 135.762 17.7815 135.762H24.0733C25.0447 135.762 25.4457 137.007 24.657 137.574L19.5855 141.219C19.2312 141.474 19.0829 141.929 19.219 142.343L21.1605 148.254C21.4625 149.174 20.4127 149.943 19.6268 149.378L14.5136 145.703C14.1649 145.453 13.695 145.453 13.3463 145.703L8.23306 149.378C7.44723 149.943 6.39738 149.174 6.69937 148.254L8.64089 142.343C8.77704 141.929 8.62873 141.474 8.27445 141.219L3.20295 137.574C2.4142 137.007 2.81523 135.762 3.78657 135.762H10.0784C10.5104 135.762 10.8936 135.485 11.0284 135.074L12.9799 129.133Z" fill="#FFE710"/>
</g>
</svg>
