<svg width="51" height="48" viewBox="0 0 51 48" fill="none" xmlns="http://www.w3.org/2000/svg">
<path id="Star 2" d="M23.7756 1.78385C24.3781 -0.0506797 26.9733 -0.0506821 27.5758 1.78384L32.1109 15.5912C32.3806 16.4121 33.147 16.9671 34.0111 16.9671L48.6405 16.9671C50.5832 16.9671 51.3852 19.4573 49.8077 20.5911L38.0096 29.0707C37.3011 29.58 37.0045 30.4898 37.2768 31.3189L41.792 45.0658C42.396 46.9046 40.2963 48.4435 38.7246 47.3139L26.843 38.7743C26.1455 38.273 25.2059 38.273 24.5085 38.7743L12.6268 47.3139C11.0552 48.4435 8.95549 46.9046 9.55946 45.0658L14.0747 31.3189C14.347 30.4898 14.0504 29.58 13.3418 29.0707L1.54372 20.5911C-0.0337923 19.4573 0.768278 16.9671 2.71096 16.9671L17.3404 16.9671C18.2045 16.9671 18.9709 16.4121 19.2405 15.5912L23.7756 1.78385Z" fill="#FFE710"/>
</svg>
