<svg width="50" height="50" viewBox="0 0 50 50" fill="none" xmlns="http://www.w3.org/2000/svg">
<path d="M30.1297 25.7086L25.0244 24.1865C23.6681 25.8004 21.9581 26.9136 20.0257 26.9136C18.0932 26.9136 16.3832 25.8004 15.027 24.1865L9.9216 25.7086C8.94883 25.9992 8.28555 26.8841 8.26172 27.8945C8.76826 28.6523 9.35196 29.3731 10.0202 30.0413C12.6923 32.7135 16.2462 34.1854 20.0257 34.1854C23.8054 34.1854 27.359 32.7135 30.0321 30.0413C30.7002 29.373 31.2832 28.6522 31.7897 27.8954C31.7666 26.8841 31.1025 25.999 30.1297 25.7086Z" fill="white"/>
<path d="M49.2513 45.6948L35.8503 32.2938C41.9409 24.4415 41.3991 13.0742 34.1921 5.86811C30.4083 2.08433 25.3768 0 20.0251 0C14.6735 0 9.64203 2.08433 5.85835 5.86811C-1.95278 13.6802 -1.95278 26.3897 5.85835 34.2018C9.64203 37.9863 14.6735 40.0698 20.0251 40.0698C24.5255 40.0698 28.7894 38.5799 32.285 35.8609L45.6851 49.261C46.1777 49.7536 46.823 50 47.4682 50C48.1136 50 48.7586 49.7537 49.2512 49.261C50.2364 48.2766 50.2364 46.6792 49.2513 45.6948ZM8.23579 31.8242C1.73641 25.3233 1.73641 14.7464 8.23579 8.24545C11.385 5.09722 15.5717 3.36249 20.0251 3.36249C24.4786 3.36249 28.6655 5.09722 31.8146 8.24545C38.3147 14.7464 38.3147 25.3233 31.8146 31.8242C28.6655 34.9734 24.4787 36.7072 20.0251 36.7072C15.5716 36.7072 11.385 34.9734 8.23579 31.8242Z" fill="white"/>
<path d="M12.4717 19.5187C12.9271 20.0923 13.5069 20.4374 14.0609 20.4272C15.3118 23.2959 17.517 25.7591 20.0358 25.7591C22.5547 25.7591 24.7598 23.2958 26.0107 20.4272C26.5648 20.4374 27.1445 20.0923 27.5999 19.5187C27.8408 19.2159 28.0497 18.8563 28.1941 18.441C28.4649 17.664 28.4608 16.8938 28.2475 16.3024C28.08 15.839 27.7863 15.4829 27.3745 15.3383C27.3074 15.3602 27.2404 15.3842 27.1676 15.3899C27.1451 15.3917 27.1229 15.3922 27.1004 15.3922C26.9668 15.3922 26.8429 15.3514 26.7265 15.2953C26.5052 15.188 26.325 14.9999 26.2516 14.7533C26.2339 14.6942 25.7853 13.3006 23.1357 13.3006C22.8811 13.3006 22.6116 13.3137 22.3276 13.3396C22.3276 13.3396 22.0505 13.3642 21.6234 13.3642C20.2101 13.3642 18.3066 13.1199 17.2646 11.9579C17.0442 11.7119 16.8746 11.4367 16.757 11.1367C15.7774 11.759 14.3688 12.9347 13.8269 14.7819C13.7581 15.0154 13.5952 15.1915 13.3934 15.2998C13.2678 15.3675 13.1307 15.4146 12.9821 15.4146C12.9477 15.4146 12.9134 15.4128 12.8783 15.4081C12.8072 15.3996 12.7436 15.372 12.6788 15.3474C12.2773 15.4964 11.9894 15.8457 11.8243 16.3023C11.611 16.8935 11.6069 17.6638 11.8776 18.4409C12.0221 18.8563 12.2309 19.2159 12.4717 19.5187Z" fill="white"/>
<path d="M17.457 9.76976C17.1891 12.2151 20.2626 12.4829 21.6235 12.4829C22.0055 12.4829 22.2527 12.4617 22.2527 12.4617C22.5664 12.4324 22.8605 12.4193 23.1359 12.4193C26.5821 12.4193 27.1017 14.5223 27.1017 14.5223L27.3151 12.9389C27.7642 9.61072 25.4489 6.54176 22.126 6.05947C21.9321 6.03133 21.7376 6.01758 21.5445 6.01758C20.4342 6.01758 19.3628 6.47415 18.5919 7.29658L18.5335 7.35905C18.0236 7.1262 17.4792 7.01145 16.9374 7.01145C16.1574 7.01145 15.3825 7.24892 14.7235 7.71347C13.4693 8.59732 12.7565 10.0627 12.8338 11.5946L12.9818 14.5332C13.9837 11.1198 17.457 9.76976 17.457 9.76976Z" fill="white"/>
</svg>
