<svg width="46" height="50" viewBox="0 0 46 50" fill="none" xmlns="http://www.w3.org/2000/svg">
<path d="M7.8702 16.4917C7.57826 16.4759 7.30411 16.347 7.10635 16.1326C6.90858 15.9182 6.80288 15.6352 6.81185 15.3442C6.80472 15.1995 6.82654 15.0547 6.87603 14.9184C6.92553 14.7821 7.00171 14.657 7.10017 14.5502C7.19863 14.4435 7.3174 14.3573 7.44958 14.2966C7.58177 14.2359 7.72474 14.202 7.8702 14.1968H25.9112C26.2039 14.2105 26.4793 14.3388 26.6775 14.5537C26.8757 14.7686 26.9806 15.0527 26.9695 15.3442C26.9772 15.4888 26.9559 15.6334 26.9069 15.7697C26.8579 15.906 26.7821 16.0312 26.6839 16.138C26.5858 16.2448 26.4673 16.3311 26.3353 16.3918C26.2033 16.4525 26.0606 16.4865 25.9153 16.4917H7.8702ZM32.4493 26.8555C34.278 26.8547 36.0729 27.3462 37.644 28.2781C39.2152 29.21 40.504 30.5475 41.3742 32.1492C42.2444 33.7508 42.6635 35.5569 42.5872 37.3763C42.5108 39.1958 41.9419 40.9608 40.9406 42.4845L45.3333 47.2494L42.3013 50.0041L38.0679 45.3654C36.75 46.2377 35.2454 46.7909 33.6744 46.9806C32.1033 47.1703 30.5096 46.9913 29.0205 46.4579C27.5313 45.9245 26.1882 45.0515 25.0986 43.9088C24.0089 42.7661 23.2029 41.3853 22.745 39.8768C22.2871 38.3684 22.1901 36.7742 22.4617 35.2218C22.7332 33.6693 23.3658 32.2017 24.3089 30.9363C25.252 29.6708 26.4793 28.6427 27.8928 27.9341C29.3063 27.2255 30.8667 26.8561 32.4493 26.8555ZM37.8432 31.5837C36.5954 30.3421 34.954 29.5696 33.1984 29.398C31.4429 29.2264 29.6819 29.6661 28.2155 30.6423C26.7491 31.6186 25.6679 33.0709 25.1562 34.7518C24.6445 36.4328 24.7339 38.2385 25.4092 39.8611C26.0845 41.4838 27.3039 42.8232 28.8596 43.651C30.4154 44.4789 32.2113 44.744 33.9413 44.4012C35.6714 44.0585 37.2286 43.129 38.3476 41.7712C39.4666 40.4134 40.0783 38.7113 40.0784 36.9548C40.0784 35.9572 39.881 34.9693 39.4975 34.0477C39.114 33.1261 38.5518 32.2888 37.8432 31.5837ZM7.88246 22.6318C7.59088 22.616 7.31714 22.487 7.12003 22.2725C6.92291 22.0579 6.81814 21.775 6.82819 21.4844C6.82162 21.3405 6.84375 21.1967 6.89329 21.0614C6.94283 20.926 7.0188 20.8018 7.11683 20.6959C7.21485 20.5899 7.33298 20.5044 7.46439 20.4442C7.59581 20.384 7.7379 20.3503 7.88246 20.3451H16.905C17.2013 20.3567 17.4808 20.4849 17.6823 20.7016C17.8838 20.9182 17.9907 21.2056 17.9797 21.5007C17.9874 21.6452 17.9661 21.7899 17.917 21.9261C17.868 22.0624 17.7922 22.1876 17.6941 22.2944C17.596 22.4012 17.4774 22.4875 17.3455 22.5482C17.2135 22.609 17.0707 22.6429 16.9254 22.6481L7.88246 22.6318ZM33.8182 6.97428H37.5939C38.3093 6.9775 38.9944 7.2619 39.5003 7.7656C40.0061 8.26931 40.2917 8.95156 40.2949 9.6639V22.4528C40.2132 23.2951 38.1415 23.3073 37.9657 22.4528V9.6639C37.9669 9.61337 37.9577 9.56313 37.9388 9.51622C37.9199 9.46932 37.8916 9.42671 37.8557 9.39097C37.8198 9.35523 37.777 9.32709 37.7299 9.30826C37.6828 9.28944 37.6324 9.2803 37.5816 9.28141H33.8059V22.4528C33.6057 23.2178 31.8772 23.3317 31.489 22.4528V2.68962C31.4901 2.63908 31.4809 2.58885 31.462 2.54194C31.4431 2.49503 31.4148 2.45242 31.379 2.41668C31.3431 2.38094 31.3003 2.35281 31.2532 2.33398C31.2061 2.31515 31.1556 2.30602 31.1049 2.30713H2.68878C2.58555 2.30748 2.48627 2.34673 2.41091 2.41699C2.3428 2.49162 2.30493 2.58877 2.30467 2.68962V34.6598C2.30493 34.7607 2.3428 34.8578 2.41091 34.9325C2.48627 35.0027 2.58555 35.042 2.68878 35.0423H17.7182C18.8868 35.1603 18.9441 37.1704 17.7182 37.3494H8.78553V41.6341C8.78441 41.6847 8.79359 41.7349 8.8125 41.7818C8.8314 41.8287 8.85966 41.8713 8.89555 41.9071C8.93144 41.9428 8.97423 41.9709 9.02134 41.9897C9.06844 42.0086 9.11889 42.0177 9.16964 42.0166H17.7182C18.564 42.1102 18.8378 44.0267 17.7182 44.3237H9.18599C8.46996 44.3227 7.78357 44.0389 7.27726 43.5348C6.77095 43.0306 6.48603 42.3471 6.48495 41.6341V37.3494H2.70104C2.34503 37.348 1.99296 37.2752 1.66581 37.1354C1.33866 36.9956 1.04312 36.7916 0.796827 36.5356C0.292679 36.0398 0.00619074 35.3654 0 34.6598L0 2.68962C0.0041605 2.33855 0.0785807 1.99183 0.218908 1.66975C0.359235 1.34766 0.562651 1.05667 0.817259 0.813802C1.062 0.561352 1.35439 0.35951 1.67766 0.219857C2.00092 0.0802035 2.3487 0.00548894 2.70104 0L31.1212 0C31.4771 0.00189287 31.8291 0.0748948 32.1562 0.214682C32.4832 0.354469 32.7788 0.558198 33.0254 0.813802C33.2771 1.0618 33.4768 1.35714 33.6129 1.68265C33.749 2.00817 33.8188 2.35737 33.8182 2.70996V6.97428ZM7.8702 10.3353C7.57826 10.3195 7.30411 10.1906 7.10635 9.97618C6.90858 9.76176 6.80288 9.47882 6.81185 9.18783C6.80472 9.04306 6.82654 8.89833 6.87603 8.76203C6.92553 8.62572 7.00171 8.50057 7.10017 8.39382C7.19863 8.28707 7.3174 8.20086 7.44958 8.14018C7.58177 8.07951 7.72474 8.04558 7.8702 8.04037H25.9112C26.2035 8.05514 26.4783 8.18372 26.6762 8.39837C26.8742 8.61302 26.9796 8.89655 26.9695 9.18783C26.9767 9.33226 26.955 9.47667 26.9057 9.61271C26.8565 9.74876 26.7807 9.87374 26.6827 9.98043C26.5846 10.0871 26.4663 10.1734 26.3346 10.2343C26.2029 10.2952 26.0604 10.3295 25.9153 10.3353H7.8702Z" fill="white"/>
</svg>
