<svg width="79" height="929" viewBox="0 0 79 929" fill="none" xmlns="http://www.w3.org/2000/svg">
<path d="M0 118.158C0 95 16.5351 75.8879 33.5606 60.3075C41.3639 53.1671 50.4268 47.5504 57.1588 39.1104C66.4823 27.4289 75.1832 15.4187 78.1945 0.0773092C78.6433 0.405946 79.7002 -0.684532 79.6423 0.824212C79.5843 2.81097 79.6278 4.81267 79.6278 6.79943C79.6278 311.954 79.6278 617.108 79.5409 922.278C79.5409 924.459 81.2058 927.342 78.1945 929C73.0406 907.34 60.4886 892.745 40.061 885.276C31.2008 882.035 23.1368 877.105 16.3035 870.099C8.9924 862.6 0.479674 855 0.479674 843.868" fill="#4866CE"/>
</svg>
