<svg width="50" height="50" viewBox="0 0 50 50" fill="none" xmlns="http://www.w3.org/2000/svg">
<path d="M34.9938 3.48959C34.0312 0.785425 31.05 -0.631242 28.3417 0.327092L26.3812 1.02501C25.0708 1.49167 24.0187 2.43959 23.4229 3.69376C23.1125 4.34376 22.9458 5.03751 22.9188 5.73334V5.20626C22.9188 2.33334 20.5812 -0.0020752 17.7104 -0.0020752H5.20833C2.3375 8.13836e-06 0 2.33542 0 5.20834V50H22.9167V6.14584C22.9375 6.65834 23.0354 7.17084 23.2125 7.66668L37.8062 50.0458L49.9854 45.8833L34.9938 3.48959ZM20.8333 5.20834V10.4167H12.5V2.08334H17.7083C19.4312 2.08334 20.8333 3.48542 20.8333 5.20834ZM12.5 12.5H20.8333V37.5H12.5V12.5ZM10.4167 37.5H2.08333V12.5H10.4167V37.5ZM5.20833 2.08334H10.4167V10.4167H2.08333V5.20834C2.08333 3.48542 3.48542 2.08334 5.20833 2.08334ZM2.08333 39.5833H10.4167V47.9167H2.08333V39.5833ZM12.5 47.9167V39.5833H20.8333V47.9167H12.5ZM43.9979 35.1979L35.8917 38.0792L27.6771 14.225L35.5875 11.4146L43.9979 35.1979ZM25.3021 4.58959C25.6604 3.83751 26.2917 3.26667 27.0792 2.98542L29.0396 2.28959C29.3854 2.16459 29.7375 2.10834 30.0833 2.10834C31.3687 2.10834 32.5771 2.90834 33.0312 4.18543L34.8937 9.45209L26.9979 12.2563L25.1792 6.97709C24.9 6.19168 24.9438 5.34376 25.3021 4.58959ZM36.5708 40.0479L44.6937 37.1604L47.3229 44.5938L39.1042 47.4021L36.5708 40.05V40.0479Z" fill="#4866CF"/>
</svg>
