<svg width="50" height="50" viewBox="0 0 50 50" fill="none" xmlns="http://www.w3.org/2000/svg">
<path d="M34.9938 3.48971C34.0312 0.785547 31.05 -0.63112 28.3417 0.327214L26.3812 1.02513C25.0708 1.4918 24.0187 2.43971 23.4229 3.69388C23.1125 4.34388 22.9458 5.03763 22.9188 5.73346V5.20638C22.9188 2.33346 20.5812 -0.00195312 17.7104 -0.00195312H5.20833C2.3375 0.000130209 0 2.33555 0 5.20846V50.0001H22.9167V6.14596C22.9375 6.65846 23.0354 7.17096 23.2125 7.6668L37.8062 50.046L49.9854 45.8835L34.9938 3.48971ZM20.8333 5.20846V10.4168H12.5V2.08346H17.7083C19.4312 2.08346 20.8333 3.48555 20.8333 5.20846ZM12.5 12.5001H20.8333V37.5001H12.5V12.5001ZM10.4167 37.5001H2.08333V12.5001H10.4167V37.5001ZM5.20833 2.08346H10.4167V10.4168H2.08333V5.20846C2.08333 3.48555 3.48542 2.08346 5.20833 2.08346ZM2.08333 39.5835H10.4167V47.9168H2.08333V39.5835ZM12.5 47.9168V39.5835H20.8333V47.9168H12.5ZM43.9979 35.198L35.8917 38.0793L27.6771 14.2251L35.5875 11.4147L43.9979 35.198ZM25.3021 4.58971C25.6604 3.83763 26.2917 3.2668 27.0792 2.98555L29.0396 2.28971C29.3854 2.16471 29.7375 2.10846 30.0833 2.10846C31.3687 2.10846 32.5771 2.90846 33.0312 4.18555L34.8937 9.45221L26.9979 12.2564L25.1792 6.97721C24.9 6.1918 24.9438 5.34388 25.3021 4.58971ZM36.5708 40.048L44.6937 37.1605L47.3229 44.5939L39.1042 47.4022L36.5708 40.0501V40.048Z" fill="white"/>
</svg>
