<svg width="50" height="50" viewBox="0 0 50 50" fill="none" xmlns="http://www.w3.org/2000/svg">
<path d="M35.4167 0C27.2396 0 20.8333 3.66042 20.8333 8.33333V17.4542C18.9458 16.9542 16.8354 16.6667 14.5833 16.6667C6.40625 16.6667 0 20.3271 0 25V41.6667C0 46.3396 6.40625 50 14.5833 50C22.7604 50 29.1667 46.3396 29.1667 41.6667V40.8646C31.1104 41.3812 33.2396 41.6667 35.4167 41.6667C43.5938 41.6667 50 38.0062 50 33.3333V8.33333C50 3.66042 43.5938 0 35.4167 0ZM35.4167 2.08333C42.1917 2.08333 47.9167 4.94583 47.9167 8.33333C47.9167 11.7208 42.1917 14.5833 35.4167 14.5833C28.6417 14.5833 22.9167 11.7208 22.9167 8.33333C22.9167 4.94583 28.6417 2.08333 35.4167 2.08333ZM14.5833 18.75C21.3583 18.75 27.0833 21.6125 27.0833 25C27.0833 28.3875 21.3583 31.25 14.5833 31.25C7.80833 31.25 2.08333 28.3875 2.08333 25C2.08333 21.6125 7.80833 18.75 14.5833 18.75ZM2.08333 29.3333C4.61042 31.7458 9.20625 33.3333 14.5833 33.3333C19.9604 33.3333 24.5562 31.7458 27.0833 29.3333V33.3333C27.0833 36.7208 21.3583 39.5833 14.5833 39.5833C7.80833 39.5833 2.08333 36.7208 2.08333 33.3333V29.3333ZM14.5833 47.9167C7.80833 47.9167 2.08333 45.0542 2.08333 41.6667V37.6667C4.61042 40.0792 9.20625 41.6667 14.5833 41.6667C19.9604 41.6667 24.5562 40.0792 27.0833 37.6667V41.6667C27.0833 45.0542 21.3583 47.9167 14.5833 47.9167ZM35.4167 39.5833C33.2146 39.5833 31.0708 39.2729 29.1667 38.7042V32.5333C31.1083 33.05 33.2354 33.3312 35.4167 33.3312C40.7937 33.3312 45.3896 31.7437 47.9167 29.3312V33.3312C47.9167 36.7187 42.1917 39.5833 35.4167 39.5833ZM35.4167 31.25C33.2062 31.25 31.0708 30.9354 29.1667 30.3667V25C29.1667 24.7229 29.1417 24.45 29.0958 24.1812C31.05 24.7104 33.1854 25 35.4167 25C40.7937 25 45.3896 23.4125 47.9167 21V25C47.9167 28.3875 42.1917 31.25 35.4167 31.25ZM35.4167 22.9167C32.6896 22.9167 30.1292 22.4583 27.9458 21.6167C26.8667 20.1938 25.1208 18.9896 22.9167 18.125V12.6687C25.4437 15.0812 30.0396 16.6688 35.4167 16.6688C40.7937 16.6688 45.3896 15.0812 47.9167 12.6687V16.6688C47.9167 20.0562 42.1917 22.9188 35.4167 22.9188V22.9167Z" fill="#4866CF"/>
</svg>
