<svg width="50" height="50" viewBox="0 0 50 50" fill="none" xmlns="http://www.w3.org/2000/svg">
<g clip-path="url(#clip0_300_239)">
<path d="M34.375 12.5H15.625C12.7521 12.5 10.4167 14.8375 10.4167 17.7083L10.4312 35.4292H39.5979L39.5833 17.7062C39.5833 14.8354 37.2458 12.5 34.375 12.5ZM34.375 14.5833C35.1271 14.5833 35.8187 14.85 36.3583 15.2937L27.8125 23.8396C26.3188 25.3333 23.7167 25.3333 22.2229 23.8396L13.6625 15.2792C14.2 14.8438 14.8833 14.5833 15.625 14.5833H34.375ZM12.5146 33.3479L12.5 17.7083C12.5 17.5062 12.5208 17.3104 12.5562 17.1187L20.75 25.3125C21.8917 26.4521 23.4062 27.0812 25.0187 27.0812C26.6312 27.0812 28.1458 26.4542 29.2854 25.3125L37.45 17.1479C37.4833 17.3292 37.5021 17.5167 37.5021 17.7062L37.5167 33.3458L12.5146 33.3479ZM25 0C11.2146 0 0 11.2146 0 25C0 38.7854 11.2146 50 25 50C38.7854 50 50 38.7854 50 25C50 11.2146 38.7854 0 25 0ZM25 47.9167C12.3646 47.9167 2.08333 37.6354 2.08333 25C2.08333 12.3646 12.3646 2.08333 25 2.08333C37.6354 2.08333 47.9167 12.3646 47.9167 25C47.9167 37.6354 37.6354 47.9167 25 47.9167Z" fill="#4866CF"/>
</g>
<defs>
<clipPath id="clip0_300_239">
<rect width="50" height="50" fill="white"/>
</clipPath>
</defs>
</svg>
