<svg width="50" height="50" viewBox="0 0 50 50" fill="none" xmlns="http://www.w3.org/2000/svg">
<g clip-path="url(#clip0_35_9914)">
<path d="M36.4583 22.9979C28.9917 22.9979 22.9167 29.0729 22.9167 36.5396C22.9167 43.9625 28.9917 50 36.4583 50C43.925 50 50 43.925 50 36.4583C50 29.0354 43.925 22.9979 36.4583 22.9979ZM36.4583 47.9167C30.1417 47.9167 25 42.8125 25 36.5396C25 30.2208 30.1417 25.0812 36.4583 25.0812C42.775 25.0812 47.9167 30.1854 47.9167 36.4583C47.9167 42.7771 42.775 47.9167 36.4583 47.9167ZM39.2792 37.8042C39.6854 38.2104 39.6854 38.8708 39.2792 39.2771C39.075 39.4813 38.8083 39.5812 38.5417 39.5812C38.275 39.5812 38.0083 39.4792 37.8042 39.2771L35.7208 37.1937C35.525 36.9979 35.4167 36.7333 35.4167 36.4562V32.2896C35.4167 31.7146 35.8833 31.2479 36.4583 31.2479C37.0333 31.2479 37.5 31.7146 37.5 32.2896V36.025L39.2792 37.8042ZM40.625 4.16667H37.5V1.04167C37.5 0.466667 37.0333 0 36.4583 0C35.8833 0 35.4167 0.466667 35.4167 1.04167V4.16667H14.5833V1.04167C14.5833 0.466667 14.1167 0 13.5417 0C12.9667 0 12.5 0.466667 12.5 1.04167V4.16667H9.375C4.20625 4.16667 0 8.37292 0 13.5417V40.625C0 45.7937 4.20625 50 9.375 50H21.875C22.45 50 22.9167 49.5333 22.9167 48.9583C22.9167 48.3833 22.45 47.9167 21.875 47.9167H9.375C5.35417 47.9167 2.08333 44.6458 2.08333 40.625V18.75H47.9167V21.875C47.9167 22.45 48.3833 22.9167 48.9583 22.9167C49.5333 22.9167 50 22.45 50 21.875V13.5417C50 8.37292 45.7937 4.16667 40.625 4.16667ZM2.08333 16.6667V13.5417C2.08333 9.52083 5.35417 6.25 9.375 6.25H40.625C44.6458 6.25 47.9167 9.52083 47.9167 13.5417V16.6667H2.08333Z" fill="#4866CF"/>
</g>
<defs>
<clipPath id="clip0_35_9914">
<rect width="50" height="50" fill="white"/>
</clipPath>
</defs>
</svg>
