<svg width="1920" height="1080" viewBox="0 0 1920 1080" fill="none" xmlns="http://www.w3.org/2000/svg">
<g clip-path="url(#clip0_175_204)">
<rect width="1920" height="1080" fill="white"/>
<rect x="-4" width="1970" height="1080" fill="white"/>
<path d="M1718.42 58.4C1718.42 58.4 1718.42 48.9 1728.25 48.9H1787.23C1787.23 48.9 1797.06 48.9 1797.06 58.4V72.6C1797.06 72.6 1797.06 82.1 1787.23 82.1H1728.25C1728.25 82.1 1718.42 82.1 1718.42 72.6V58.4Z" fill="#4866CF"/>
<path d="M1664.3 115.4C1664.3 115.4 1664.3 105.9 1674.13 105.9H1733.11C1733.11 105.9 1742.94 105.9 1742.94 115.4V129.6C1742.94 129.6 1742.94 139.1 1733.11 139.1H1674.13C1674.13 139.1 1664.3 139.1 1664.3 129.6V115.4Z" fill="#4866CF"/>
<path d="M1767.57 115.4C1767.57 115.4 1767.57 105.9 1777.4 105.9H1836.39C1836.39 105.9 1846.22 105.9 1846.22 115.4V129.6C1846.22 129.6 1846.22 139.1 1836.39 139.1H1777.4C1777.4 139.1 1767.57 139.1 1767.57 129.6V115.4Z" fill="#4866CF"/>
<path d="M856.725 228.3C856.725 228.3 856.725 218.8 866.556 218.8H925.541C925.541 218.8 935.371 218.8 935.371 228.3V242.5C935.371 242.5 935.371 252 925.541 252H866.556C866.556 252 856.725 252 856.725 242.5V228.3Z" fill="#4866CF"/>
<path d="M802.604 285.3C802.604 285.3 802.604 275.8 812.435 275.8H871.42C871.42 275.8 881.251 275.8 881.251 285.3V299.5C881.251 299.5 881.251 309 871.42 309H812.435C812.435 309 802.604 309 802.604 299.5V285.3Z" fill="#4866CF"/>
<path d="M905.879 285.3C905.879 285.3 905.879 275.8 915.71 275.8H974.694C974.694 275.8 984.525 275.8 984.525 285.3V299.5C984.525 299.5 984.525 309 974.694 309H915.71C915.71 309 905.879 309 905.879 299.5V285.3Z" fill="#4866CF"/>
<path d="M1035.02 235.4C1035.02 235.4 1009.77 235.4 1009.77 259.8C1009.77 284.2 1035.02 284.2 1035.02 284.2H1186.52C1186.52 284.2 1211.77 284.2 1211.77 308.6C1211.77 333 1186.52 333 1186.52 333H934.026C934.026 333 908.777 333 908.777 357.4C908.777 381.8 934.026 381.8 934.026 381.8H1110.77C1110.77 381.8 1136.02 381.8 1136.02 406.2C1136.02 430.6 1110.77 430.6 1110.77 430.6H984.525C984.525 430.6 959.276 430.6 959.276 455C959.276 479.4 984.525 479.4 984.525 479.4H1186.52C1186.52 479.4 1211.77 479.4 1211.77 503.8C1211.77 528.2 1186.52 528.2 1186.52 528.2H858.381C858.381 528.2 833.132 528.2 833.132 552.6C833.132 577 858.381 577 858.381 577H1110.77C1110.77 577 1136.02 577 1136.02 601.4C1136.02 625.8 1110.77 625.8 1110.77 625.8H934.026C934.026 625.8 908.777 625.8 908.777 650.2C908.777 674.6 934.026 674.6 934.026 674.6H1711.28C1711.28 674.6 1736.53 674.6 1736.53 650.2C1736.53 625.8 1711.28 625.8 1711.28 625.8H1660.78C1660.78 625.8 1635.53 625.8 1635.53 601.4C1635.53 577 1660.78 577 1660.78 577H1812.28C1812.28 577 1837.53 577 1837.53 552.6C1837.53 528.2 1812.28 528.2 1812.28 528.2H1585.13C1585.13 528.2 1559.88 528.2 1559.88 503.8C1559.88 479.4 1585.13 479.4 1585.13 479.4H1862.77C1862.77 479.4 1888.02 479.4 1888.02 455C1888.02 430.6 1862.77 430.6 1862.77 430.6H1635.63C1635.63 430.6 1610.38 430.6 1610.38 406.2C1610.38 381.8 1635.63 381.8 1635.63 381.8H1812.38C1812.38 381.8 1837.63 381.8 1837.63 357.4C1837.63 333 1812.38 333 1812.38 333H1585.24C1585.24 333 1559.99 333 1559.99 308.6C1559.99 284.2 1585.24 284.2 1585.24 284.2H1736.73C1736.73 284.2 1761.98 284.2 1761.98 259.8C1761.98 235.4 1736.73 235.4 1736.73 235.4H1035.02Z" fill="#4866CF"/>
<path d="M1198.42 131.8V113.6L1172.45 105.2C1170.79 99.3 1168.41 93.6 1165.31 88.4L1177.52 64.8L1164.27 52L1139.85 63.8C1134.47 60.8 1128.68 58.4 1122.47 56.8L1113.77 31.7H1094.94L1086.25 56.8C1080.04 58.4 1074.24 60.7 1068.86 63.8L1044.44 52L1031.09 64.9L1043.3 88.5C1040.2 93.7 1037.71 99.3 1036.16 105.3L1010.19 113.7V131.9L1036.16 140.3C1037.82 146.2 1040.2 151.9 1043.3 157.1L1031.09 180.7L1044.44 193.6L1068.86 181.8C1074.24 184.8 1080.04 187.1 1086.25 188.7L1094.94 213.8H1113.77L1122.47 188.7C1128.68 187.1 1134.47 184.8 1139.85 181.8L1164.27 193.6L1177.62 180.7L1165.41 157.1C1168.52 151.9 1171 146.3 1172.55 140.3L1198.42 131.8ZM1104.36 152.2C1087.49 152.2 1073.83 139 1073.83 122.7C1073.83 106.4 1087.49 93.2 1104.36 93.2C1121.22 93.2 1134.99 106.4 1134.99 122.7C1134.88 139 1121.22 152.2 1104.36 152.2Z" fill="#4866CF"/>
<path d="M1116.77 217.7H1091.84L1082.94 191.9C1077.97 190.5 1073.31 188.6 1068.76 186.2L1043.61 198.4L1026.02 181.4L1038.65 157.1C1036.27 152.8 1034.3 148.2 1032.75 143.4L1006.05 134.8V110.7L1032.75 102C1034.2 97.2 1036.16 92.7 1038.65 88.3L1026.02 64L1043.61 47L1068.76 59.2C1073.21 56.9 1077.97 55 1082.94 53.5L1091.84 27.7H1116.77L1125.67 53.5C1130.64 54.9 1135.3 56.8 1139.85 59.2L1165 47L1182.59 64L1169.96 88.3C1172.34 92.6 1174.31 97.2 1175.86 102L1202.56 110.6V134.7L1175.86 143.3C1174.41 148.1 1172.45 152.6 1169.96 157L1182.59 181.3L1165 198.3L1139.85 186.1C1135.4 188.4 1130.64 190.3 1125.67 191.8L1116.77 217.7ZM1098.04 209.5H1110.77L1119.15 185.1L1121.33 184.5C1127.12 183 1132.61 180.8 1137.68 178L1139.64 176.9L1163.45 188.4L1172.45 179.7L1160.55 156.7L1161.69 154.8C1164.69 149.9 1166.86 144.6 1168.41 139L1169.03 136.9L1194.28 128.8V116.5L1169.03 108.4L1168.41 106.3C1166.86 100.7 1164.58 95.4 1161.69 90.5L1160.55 88.6L1172.45 65.6L1163.45 56.9L1139.64 68.4L1137.68 67.3C1132.61 64.4 1127.12 62.3 1121.33 60.8L1119.15 60.2L1110.77 35.8H1098.04L1089.66 60.2L1087.49 60.8C1081.69 62.3 1076.21 64.5 1071.14 67.3L1069.17 68.4L1045.37 56.9L1036.37 65.6L1048.27 88.6L1047.13 90.5C1044.13 95.4 1041.96 100.7 1040.41 106.3L1039.78 108.4L1014.53 116.5V128.8L1039.78 136.9L1040.41 139C1041.96 144.6 1044.23 149.9 1047.13 154.8L1048.27 156.7L1036.37 179.7L1045.37 188.4L1069.17 176.9L1071.14 178C1076.21 180.9 1081.69 183.1 1087.49 184.5L1089.66 185.1L1098.04 209.5Z" fill="#545454"/>
<path d="M1104.36 156.4C1085.11 156.4 1069.48 141.3 1069.48 122.7C1069.48 104.1 1085.11 89 1104.36 89C1123.6 89 1139.23 104.1 1139.23 122.7C1139.23 141.3 1123.6 156.4 1104.36 156.4ZM1104.36 97.3C1089.87 97.3 1078.07 108.7 1078.07 122.7C1078.07 136.7 1089.87 148.1 1104.36 148.1C1118.84 148.1 1130.64 136.7 1130.64 122.7C1130.64 108.7 1118.84 97.3 1104.36 97.3Z" fill="#545454"/>
<path d="M1481.96 791.2C1481.96 801.4 1471.41 801.4 1471.41 801.4H1299.73C1299.73 801.4 1289.18 801.4 1289.18 791.2C1289.18 781 1315.46 760.7 1315.46 760.7V695.2H1455.57V760.7C1455.68 760.7 1481.96 781 1481.96 791.2Z" fill="white"/>
<path d="M1385.62 291.5H1630.67C1672.78 291.5 1672.78 332.2 1672.78 332.2V654.5C1672.78 654.5 1672.78 695.2 1630.67 695.2H1385.62H1140.58C1098.46 695.2 1098.46 654.5 1098.46 654.5V332.2C1098.46 332.2 1098.46 291.5 1140.58 291.5H1385.62Z" fill="white"/>
<path d="M1623.73 338.9H1147.61V647.7H1623.73V338.9Z" fill="#4866CF"/>
<path d="M1471.51 805.5H1299.83C1293.94 805.5 1285.04 801.7 1285.04 791.2C1285.04 780.6 1304.49 764.2 1311.32 758.7V691.1H1459.92V758.7C1466.85 764.2 1486.2 780.6 1486.2 791.2C1486.2 801.7 1477.41 805.5 1471.51 805.5ZM1319.81 699.3V762.6L1318.25 763.8C1306.35 773 1293.52 786.1 1293.52 791.1C1293.52 796.9 1298.7 797.2 1299.83 797.2H1471.51C1473.37 797.2 1477.82 796.5 1477.82 791.1C1477.82 786 1464.99 773 1453.09 763.8L1451.54 762.6V699.3H1319.81Z" fill="#545454"/>
<path d="M1630.67 699.3H1140.58C1094.73 699.3 1094.22 654.9 1094.22 654.5V332.2C1094.22 331.8 1094.73 287.4 1140.58 287.4H1630.67C1676.51 287.4 1677.02 331.8 1677.02 332.2V654.5C1677.02 654.9 1676.51 699.3 1630.67 699.3ZM1140.58 295.6C1103.12 295.6 1102.7 330.7 1102.7 332.2V654.5C1102.7 656 1103.32 691.1 1140.58 691.1H1630.67C1668.13 691.1 1668.54 656 1668.54 654.5V332.2C1668.54 330.7 1667.92 295.6 1630.67 295.6H1140.58Z" fill="#545454"/>
<path d="M1627.97 651.8H1143.37V334.8H1627.97V651.8ZM1151.86 643.6H1619.39V343.1H1151.86V643.6Z" fill="#545454"/>
<path d="M1455.68 756.5H1315.56V764.7H1455.68V756.5Z" fill="#545454"/>
<path d="M947.065 832.6L883.113 913.3V832.6H947.065Z" fill="white"/>
<path d="M1001.19 832.6L937.234 913.3H883.113L947.065 832.6H1001.19Z" fill="#4866CF"/>
<path d="M1114.08 832.8V913.3H1050.24L1114.08 832.8Z" fill="white"/>
<path d="M1114.08 832.6V832.8L1050.24 913.3H991.252L1055.2 832.6H1114.08Z" fill="#4866CF"/>
<path d="M1055.2 832.6L991.252 913.3H937.234L1001.19 832.6H1055.2Z" fill="white"/>
<path d="M1133.85 970.9H1118.43L1118.33 913.3V828.5H878.87V970.9H863.452C861.071 970.9 859.209 972.7 859.209 975C859.209 977.3 861.071 979.1 863.452 979.1H902.775C905.155 979.1 907.017 977.3 907.017 975C907.017 972.7 905.155 970.9 902.775 970.9H887.356V917.4H1109.84V970.9H1094.42C1092.04 970.9 1090.18 972.7 1090.18 975C1090.18 977.3 1092.04 979.1 1094.42 979.1H1133.75C1136.13 979.1 1137.99 977.3 1137.99 975C1138.09 972.7 1136.23 970.9 1133.85 970.9ZM1003.26 836.7H1046.61L989.182 909.2H945.823L1003.26 836.7ZM935.164 909.2H891.805L949.238 836.7H992.597L935.164 909.2ZM1057.27 836.7H1105.6L1048.17 909.2H999.84L1057.27 836.7ZM938.476 836.7L887.459 901.2V836.7H938.476ZM1058.93 909.2L1109.84 844.9V909.2H1058.93Z" fill="#545454"/>
<path d="M1358.09 792.7C1358.09 792.7 1358.09 783.2 1367.93 783.2H1426.91C1426.91 783.2 1436.74 783.2 1436.74 792.7V807C1436.74 807 1436.74 816.5 1426.91 816.5H1367.93C1367.93 816.5 1358.09 816.5 1358.09 807V792.7Z" fill="#4866CF"/>
<path d="M1303.97 849.7C1303.97 849.7 1303.97 840.2 1313.8 840.2H1372.79C1372.79 840.2 1382.62 840.2 1382.62 849.7V864C1382.62 864 1382.62 873.5 1372.79 873.5H1313.8C1313.8 873.5 1303.97 873.5 1303.97 864V849.7Z" fill="#4866CF"/>
<path d="M1407.25 849.7C1407.25 849.7 1407.25 840.2 1417.08 840.2H1476.06C1476.06 840.2 1485.89 840.2 1485.89 849.7V864C1485.89 864 1485.89 873.5 1476.06 873.5H1417.08C1417.08 873.5 1407.25 873.5 1407.25 864V849.7Z" fill="#4866CF"/>
<path d="M1426.91 820.6H1367.92C1362.23 820.6 1353.85 817 1353.85 807V792.8C1353.85 787.3 1357.58 779.2 1367.92 779.2H1426.91C1432.6 779.2 1440.98 782.8 1440.98 792.8V807C1440.98 812.4 1437.15 820.6 1426.91 820.6ZM1426.81 787.3H1367.82C1362.85 787.3 1362.34 791.1 1362.23 792.7V807C1362.23 812 1366.48 812.4 1367.82 812.4H1426.81C1431.98 812.4 1432.39 808.3 1432.39 807V792.8C1432.39 788 1428.46 787.4 1426.81 787.3Z" fill="#545454"/>
<path d="M1372.79 877.6H1313.8C1308.11 877.6 1299.73 874 1299.73 864V849.8C1299.73 844.3 1303.46 836.2 1313.8 836.2H1372.79C1378.48 836.2 1386.86 839.8 1386.86 849.8V864C1386.86 869.4 1383.14 877.6 1372.79 877.6ZM1372.79 844.3H1313.8C1308.63 844.3 1308.22 848.4 1308.22 849.7V864C1308.22 868.8 1312.15 869.4 1313.8 869.4H1372.79C1377.96 869.4 1378.38 865.3 1378.38 864V849.8C1378.38 845 1374.44 844.4 1372.79 844.3Z" fill="#545454"/>
<path d="M1476.06 877.6H1417.08C1411.39 877.6 1403.01 874 1403.01 864V849.8C1403.01 844.3 1406.73 836.2 1417.08 836.2H1476.06C1481.75 836.2 1490.14 839.8 1490.14 849.8V864C1490.14 869.4 1486.31 877.6 1476.06 877.6ZM1475.96 844.3H1416.98C1412.01 844.3 1411.39 848.1 1411.39 849.7V864C1411.39 868.8 1415.32 869.4 1416.98 869.4H1475.96C1480.93 869.4 1481.55 865.6 1481.55 864V849.8C1481.55 845 1477.62 844.4 1475.96 844.3Z" fill="#545454"/>
<path d="M884.148 486.2C884.148 486.2 884.148 467.2 903.809 467.2H1100.42C1100.42 467.2 1120.09 467.2 1120.09 486.2C1120.09 505.2 1120.09 614.4 1120.09 614.4C1120.09 614.4 1120.09 633.4 1100.42 633.4H903.809C903.809 633.4 884.148 633.4 884.148 614.4C884.148 595.4 884.148 486.2 884.148 486.2Z" fill="white"/>
<path d="M1045.06 513L1052.72 516.5L1013.4 597.2L1005.74 593.7L1045.06 513ZM982.663 518.4L943.029 547C941.994 547.8 941.373 549 941.373 550.3C941.373 551.6 941.994 552.8 943.029 553.6L982.663 582.3L987.733 575.7L952.653 550.3L987.733 524.9L982.663 518.4ZM1124.33 486.2V614.4C1124.33 622.4 1119.36 637.5 1100.42 637.5H903.81C895.531 637.5 879.905 632.7 879.905 614.4V486.2C879.905 478.2 884.872 463.1 903.81 463.1H1100.42C1108.7 463.1 1124.33 467.9 1124.33 486.2ZM1115.84 486.2C1115.84 471.9 1101.98 471.3 1100.42 471.3H903.81C888.805 471.3 888.391 484.7 888.391 486.2V614.4C888.391 628.7 902.257 629.3 903.81 629.3H1100.32C1115.12 629.3 1115.74 615.9 1115.74 614.4V486.2H1115.84Z" fill="#545454"/>
<path d="M1920 743.2H1455.68V735H1920V743.2ZM1315.56 742.7V734.5L794.74 734.9V743.1L1315.56 742.7Z" fill="#545454"/>
<path d="M1682.41 658.5L1719.04 693.9C1738.18 687.3 1760.22 691.4 1775.64 706.2C1793.03 723 1796.13 748.4 1785.06 768.2L1753.7 738H1731.77V759.2L1763.12 789.4C1742.53 800.2 1716.35 797.2 1698.96 780.3C1683.65 765.5 1679.4 744.1 1686.23 725.6L1649.6 690.2L1612.97 654.8C1593.83 661.4 1571.78 657.3 1556.37 642.5C1538.98 625.7 1535.88 600.3 1546.95 580.5L1578.3 610.7H1600.24V589.5L1568.89 559.3C1589.48 548.5 1615.66 551.5 1633.05 568.4C1648.36 583.2 1652.6 604.6 1645.77 623.1L1682.41 658.5Z" fill="white"/>
<path d="M1737.15 799.9C1721.52 799.9 1706.83 794 1695.75 783.3C1680.23 768.3 1674.75 746.9 1681.16 726.8L1611.62 659.6C1606.04 661.3 1600.34 662.1 1594.45 662.1C1578.92 662.1 1564.23 656.2 1553.16 645.5C1534.74 627.7 1530.6 600.8 1543.02 578.6L1545.71 573.8L1579.75 606.7H1595.69V591.3L1561.64 558.4L1566.61 555.8C1575.1 551.3 1584.72 549 1594.45 549C1610.07 549 1624.77 554.9 1635.84 565.6C1651.36 580.6 1656.85 602 1650.43 622.1L1719.97 689.3C1725.56 687.7 1731.25 686.8 1737.15 686.8C1752.67 686.8 1767.36 692.7 1778.44 703.4C1796.86 721.2 1801 748.1 1788.58 770.3L1785.89 775.1L1751.84 742.2H1735.91V757.6L1769.95 790.5L1764.98 793.1C1756.5 797.5 1746.87 799.9 1737.15 799.9ZM1614 650.2L1691.1 724.7L1690.17 727.2C1683.54 744.9 1688.1 764.2 1701.86 777.6C1711.28 786.7 1723.9 791.8 1737.25 791.8C1743.56 791.8 1749.88 790.6 1755.77 788.4L1727.52 761.1V734.1H1755.46L1783.71 761.4C1791.17 743.6 1787.03 723.2 1772.64 709.3C1763.23 700.2 1750.7 695.1 1737.35 695.1C1731.56 695.1 1725.87 696.1 1720.49 697.9L1717.9 698.8L1640.81 624.3L1641.74 621.8C1648.36 604.1 1643.81 584.8 1630.04 571.4C1620.63 562.3 1608 557.2 1594.65 557.2C1588.34 557.2 1581.93 558.4 1576.13 560.6L1604.38 587.9V614.9H1576.44L1548.19 587.6C1540.74 605.4 1544.88 625.8 1559.26 639.7C1568.68 648.8 1581.2 653.9 1594.55 653.9C1600.34 653.9 1606.04 652.9 1611.42 651.1L1614 650.2Z" fill="#545454"/>
<path d="M877.215 974.1H928.955C937.648 956.3 956.275 944.1 978.006 944.1C1002.63 944.1 1023.33 959.9 1030.06 981.6H985.767L970.245 996.6L985.767 1011.6H1030.06C1023.43 1033.3 1002.74 1049.1 978.006 1049.1C956.275 1049.1 937.648 1036.9 928.955 1019.1H877.215H825.474C816.781 1036.9 798.155 1049.1 776.423 1049.1C751.795 1049.1 731.098 1033.3 724.372 1011.6H768.662L784.185 996.6L768.662 981.6H724.372C730.995 959.9 751.691 944.1 776.423 944.1C798.155 944.1 816.781 956.3 825.474 974.1H877.215Z" fill="#4866CF"/>
<path d="M776.423 1053.1C750.346 1053.1 727.787 1036.9 720.336 1012.7L718.681 1007.4H766.903L778.183 996.5L766.903 985.6H718.681L720.336 980.3C727.787 956.1 750.346 939.9 776.423 939.9C798.362 939.9 817.92 951.3 828.061 969.9H926.368C936.51 951.3 956.068 939.9 978.006 939.9C1004.08 939.9 1026.64 956.1 1034.09 980.3L1035.75 985.6H987.526L976.247 996.5L987.526 1007.4H1035.75L1034.09 1012.7C1026.64 1036.9 1004.08 1053.1 978.006 1053.1C956.068 1053.1 936.51 1041.7 926.368 1023.1H828.061C817.92 1041.7 798.362 1053.1 776.423 1053.1ZM730.478 1015.7C738.239 1033.4 756.141 1044.9 776.423 1044.9C795.981 1044.9 813.263 1034.3 821.542 1017.3L822.68 1014.9H931.646L932.784 1017.3C941.063 1034.3 958.448 1044.9 977.902 1044.9C998.288 1044.9 1016.09 1033.4 1023.85 1015.7H983.904L964.139 996.6L983.904 977.5H1023.85C1016.09 959.8 998.185 948.3 977.902 948.3C958.344 948.3 941.063 958.9 932.784 975.9L931.646 978.3H822.68L821.542 975.9C813.263 958.9 795.878 948.3 776.423 948.3C756.038 948.3 738.239 959.8 730.478 977.5H770.422L790.187 996.6L770.422 1015.7H730.478Z" fill="#545454"/>
<path d="M1637.7 832.6L1573.75 913.3V832.6H1637.7Z" fill="white"/>
<path d="M1691.72 832.6L1627.87 913.3H1573.75L1637.7 832.6H1691.72Z" fill="#4866CF"/>
<path d="M1804.62 832.8V913.3H1740.87L1804.62 832.8Z" fill="white"/>
<path d="M1804.62 832.6V832.8L1740.87 913.3H1681.89L1745.84 832.6H1804.62Z" fill="#4866CF"/>
<path d="M1745.84 832.6L1681.89 913.3H1627.87L1691.72 832.6H1745.84Z" fill="white"/>
<path d="M1824.49 970.9H1809.07L1808.96 913.3V828.5H1569.61V970.9H1554.19C1551.81 970.9 1549.95 972.7 1549.95 975C1549.95 977.3 1551.81 979.1 1554.19 979.1H1593.52C1595.9 979.1 1597.76 977.3 1597.76 975C1597.76 972.7 1595.9 970.9 1593.52 970.9H1578.1V917.4H1800.58V970.9H1785.16C1782.78 970.9 1780.92 972.7 1780.92 975C1780.92 977.3 1782.78 979.1 1785.16 979.1H1824.49C1826.87 979.1 1828.73 977.3 1828.73 975C1828.73 972.7 1826.76 970.9 1824.49 970.9ZM1693.89 836.7H1737.25L1679.82 909.2H1636.46L1693.89 836.7ZM1625.7 909.2H1582.34L1639.77 836.7H1683.13L1625.7 909.2ZM1747.91 836.7H1796.24L1738.8 909.2H1690.48L1747.91 836.7ZM1629.11 836.7L1578.1 901.2V836.7H1629.11ZM1749.46 909.2L1800.38 844.9V909.2H1749.46Z" fill="#545454"/>
<path d="M1450.09 159.4L1442.64 152.2L1450.09 145C1451.75 143.4 1451.75 140.8 1450.09 139.2C1448.43 137.6 1445.74 137.6 1444.09 139.2L1436.64 146.4L1429.19 139.2C1427.53 137.6 1424.84 137.6 1423.18 139.2C1421.53 140.8 1421.53 143.4 1423.18 145L1430.63 152.2L1423.18 159.4C1421.53 161 1421.53 163.6 1423.18 165.2C1424.01 166 1425.15 166.4 1426.19 166.4C1427.32 166.4 1428.36 166 1429.19 165.2L1436.64 158L1444.09 165.2C1444.92 166 1446.05 166.4 1447.09 166.4C1448.23 166.4 1449.26 166 1450.09 165.2C1451.75 163.6 1451.75 161 1450.09 159.4Z" fill="#545454"/>
<path d="M882.906 698.2L875.455 691L882.906 683.8C884.562 682.2 884.562 679.6 882.906 678C881.25 676.4 878.56 676.4 876.904 678L869.453 685.2L862.003 678C860.347 676.4 857.657 676.4 856.001 678C854.345 679.6 854.345 682.2 856.001 683.8L863.452 691L856.001 698.2C854.345 699.8 854.345 702.4 856.001 704C856.829 704.8 857.967 705.2 859.002 705.2C860.037 705.2 861.175 704.8 862.003 704L869.453 696.8L876.904 704C877.732 704.8 878.87 705.2 879.905 705.2C880.94 705.2 882.078 704.8 882.906 704C884.562 702.4 884.562 699.8 882.906 698.2Z" fill="#545454"/>
<path d="M1887.92 369H1877.47V358.9C1877.47 356.6 1875.61 354.8 1873.23 354.8C1870.85 354.8 1868.98 356.6 1868.98 358.9V369H1858.53C1856.15 369 1854.29 370.8 1854.29 373.1C1854.29 375.4 1856.15 377.2 1858.53 377.2H1868.98V387.3C1868.98 389.6 1870.85 391.4 1873.23 391.4C1875.61 391.4 1877.47 389.6 1877.47 387.3V377.2H1887.92C1890.3 377.2 1892.16 375.4 1892.16 373.1C1892.16 370.8 1890.3 369 1887.92 369Z" fill="#545454"/>
<path d="M1873.23 54.2H1862.67V44.1C1862.67 41.8 1860.81 40 1858.43 40C1856.05 40 1854.19 41.8 1854.19 44.1V54.2H1843.73C1841.35 54.2 1839.49 56 1839.49 58.3C1839.49 60.6 1841.35 62.4 1843.73 62.4H1854.19V72.5C1854.19 74.8 1856.05 76.6 1858.43 76.6C1860.81 76.6 1862.67 74.8 1862.67 72.5V62.4H1873.12C1875.5 62.4 1877.37 60.6 1877.37 58.3C1877.37 56 1875.5 54.2 1873.23 54.2Z" fill="#545454"/>
<path d="M1810.62 661.9L1818.07 654.7C1819.73 653.1 1819.73 650.5 1818.07 648.9C1816.41 647.3 1813.72 647.3 1812.07 648.9L1804.62 656.1L1797.17 648.9C1795.51 647.3 1792.82 647.3 1791.17 648.9C1789.51 650.5 1789.51 653.1 1791.17 654.7L1798.62 661.9L1791.17 669.1C1789.51 670.7 1789.51 673.3 1791.17 674.9C1791.99 675.7 1793.13 676.1 1794.17 676.1C1795.3 676.1 1796.34 675.7 1797.17 674.9L1804.62 667.7L1812.07 674.9C1812.9 675.7 1814.03 676.1 1815.07 676.1C1816.21 676.1 1817.24 675.7 1818.07 674.9C1819.73 673.3 1819.73 670.7 1818.07 669.1L1810.62 661.9Z" fill="#4866CF"/>
<path d="M1526.15 93.2L1533.6 86C1535.25 84.4 1535.25 81.8 1533.6 80.2C1531.94 78.6 1529.25 78.6 1527.6 80.2L1520.15 87.4L1512.7 80.2C1511.04 78.6 1508.35 78.6 1506.69 80.2C1505.04 81.8 1505.04 84.4 1506.69 86L1514.14 93.2L1506.69 100.4C1505.04 102 1505.04 104.6 1506.69 106.2C1507.52 107 1508.66 107.4 1509.69 107.4C1510.83 107.4 1511.87 107 1512.7 106.2L1520.15 99L1527.6 106.2C1528.43 107 1529.56 107.4 1530.6 107.4C1531.74 107.4 1532.77 107 1533.6 106.2C1535.25 104.6 1535.25 102 1533.6 100.4L1526.15 93.2Z" fill="#4866CF"/>
<path d="M849.585 423.6L857.036 416.4C858.691 414.8 858.691 412.2 857.036 410.6C855.38 409 852.689 409 851.034 410.6L843.583 417.8L836.132 410.6C834.477 409 831.786 409 830.13 410.6C828.475 412.2 828.475 414.8 830.13 416.4L837.581 423.6L830.13 430.8C828.475 432.4 828.475 435 830.13 436.6C830.958 437.4 832.097 437.8 833.131 437.8C834.166 437.8 835.305 437.4 836.132 436.6L843.583 429.4L851.034 436.6C851.862 437.4 853 437.8 854.035 437.8C855.07 437.8 856.208 437.4 857.036 436.6C858.691 435 858.691 432.4 857.036 430.8L849.585 423.6Z" fill="#4866CF"/>
<path d="M1385.62 91.5C1374.86 91.5 1366.06 83 1366.06 72.6C1366.06 62.2 1374.86 53.7 1385.62 53.7C1396.38 53.7 1405.18 62.2 1405.18 72.6C1405.18 83 1396.38 91.5 1385.62 91.5ZM1385.62 61.9C1379.51 61.9 1374.55 66.7 1374.55 72.6C1374.55 78.5 1379.51 83.3 1385.62 83.3C1391.73 83.3 1396.69 78.5 1396.69 72.6C1396.69 66.7 1391.73 61.9 1385.62 61.9Z" fill="#4866CF"/>
<path d="M1827.18 249.5C1816.41 249.5 1807.62 241 1807.62 230.6C1807.62 220.2 1816.41 211.7 1827.18 211.7C1837.94 211.7 1846.73 220.2 1846.73 230.6C1846.73 241.1 1837.94 249.5 1827.18 249.5ZM1827.18 220C1821.07 220 1816.1 224.8 1816.1 230.7C1816.1 236.6 1821.07 241.4 1827.18 241.4C1833.28 241.4 1838.25 236.6 1838.25 230.7C1838.15 224.8 1833.18 220 1827.18 220Z" fill="#4866CF"/>
<path d="M1285.24 193C1274.48 193 1265.69 184.5 1265.69 174.1C1265.69 163.7 1274.48 155.2 1285.24 155.2C1296.01 155.2 1304.8 163.7 1304.8 174.1C1304.8 184.5 1296.01 193 1285.24 193ZM1285.24 163.4C1279.14 163.4 1274.17 168.2 1274.17 174.1C1274.17 180 1279.14 184.8 1285.24 184.8C1291.35 184.8 1296.32 180 1296.32 174.1C1296.32 168.2 1291.25 163.4 1285.24 163.4Z" fill="#545454"/>
<path d="M1877.47 631.3C1866.71 631.3 1857.91 622.8 1857.91 612.4C1857.91 602 1866.71 593.5 1877.47 593.5C1888.23 593.5 1897.03 602 1897.03 612.4C1897.03 622.8 1888.23 631.3 1877.47 631.3ZM1877.47 601.8C1871.36 601.8 1866.4 606.6 1866.4 612.5C1866.4 618.4 1871.36 623.2 1877.47 623.2C1883.57 623.2 1888.54 618.4 1888.54 612.5C1888.54 606.6 1883.57 601.8 1877.47 601.8Z" fill="#545454"/>
<path d="M1465.82 0C1465.82 0 618.924 254.3 722.716 461.9C826.509 669.5 737.514 887.3 358.875 1080H0V0H1465.82Z" fill="#545454"/>
<path d="M367.153 575.6C370.361 576.2 373.776 576.3 376.57 577.6C393.437 585.1 410.305 592.7 426.862 600.9C429.863 602.4 432.657 606 433.485 609.2C434.623 613.9 430.794 616.7 426.448 618.4C410.408 624.7 394.576 631.3 378.433 637.2C371.603 639.7 364.256 640.8 357.012 642.2C354.114 642.8 350.906 643 348.009 642.5C346.146 642.2 343.145 640.5 343.145 639.4C343.145 637.4 344.491 634.2 346.146 633.5C352.873 630.7 360.013 628.8 366.843 626.2C371.292 624.5 376.777 624.4 380.502 619.3C375.225 619 370.878 618.8 366.636 618.4C324.726 614 288.197 598.1 259.015 568.6C240.285 549.7 232.627 527.5 245.976 502.2C248.253 497.8 247.321 494.8 244.941 490.7C230.247 465.8 223.52 438.7 223.624 410.3C223.727 399.7 226.728 389 229.419 378.5C230.35 374.8 233.765 371.3 236.87 368.6C238.215 367.4 241.63 368.4 244.838 368.4C229.005 401 235.938 459.7 258.29 485.8C261.705 483.5 265.12 481.1 268.639 478.9C285.713 468.2 303.926 460.7 324.622 462.5C344.387 464.2 351.631 480.3 340.351 495.9C324.829 517.5 294.509 525 269.88 513.4C266.465 511.8 263.051 510.3 259.429 508.6C253.22 519.2 253.737 529.3 257.462 539.6C260.981 549.3 267.5 557.2 275.365 563.9C307.548 591.3 344.801 605.6 388.056 603.8C391.161 603.7 394.265 602.9 398.198 602.3C387.746 592.5 372.224 591 365.083 579.2C365.808 578 366.532 576.8 367.153 575.6ZM269.363 496.2C276.814 505.5 289.956 509.4 303.098 505.7C316.551 501.9 328.141 495.5 333.108 478.2C306.616 473.3 287.679 483.3 269.363 496.2Z" fill="white"/>
<path d="M584.7 757.8C665.002 757.8 730.1 692.702 730.1 612.4C730.1 532.098 665.002 467 584.7 467C504.398 467 439.3 532.098 439.3 612.4C439.3 692.702 504.398 757.8 584.7 757.8Z" fill="white"/>
<path d="M521.5 491.6C522 492 522.4 492.4 522.9 492.7C525.4 494.1 527.9 495.5 530.4 497C532.9 498.4 535.4 499.8 538 501.3C539.4 502.1 540.7 502.9 542.1 503.8C542.4 504 542.7 504.5 542.7 504.9C542.8 509 543 513.1 543 517.2C543 536.7 543 556.2 543 575.7C543 576.1 543 576.4 543 577C543.4 576.7 543.7 576.6 543.9 576.4C546.3 574 548.7 571.7 551 569.3C551.7 568.6 552.7 568.3 552.9 567.1C553 566.5 553.3 565.9 553.3 565.4C553.3 553.8 553.3 542.2 553.3 530.5C553.3 524.1 553.2 517.7 553.1 511.3C553.1 511 553.2 510.7 553.2 510.2C554.6 511 556 511.6 557.3 512.4C558.6 513.1 559.9 513.9 561.2 514.7C563.5 516 565.7 517.3 568 518.7C570.1 519.9 572.1 521.1 574.2 522.3C574.9 522.7 575.1 523.2 575.1 523.8C575.1 526.5 575.1 529.1 575.1 531.8C575.1 540.6 575.1 549.4 575.1 558.1C575.1 563.4 575.3 568.7 575.4 574.1C575.4 575.2 575.1 576.2 574.2 577C570.1 581.1 566 585.2 562 589.3C561.7 589.6 561.5 589.9 561.3 590.3C561.7 590.5 562 590.7 562.4 590.8C564.8 591.4 567.2 592 569.6 592.5C571.2 592.9 572.8 593.3 574.4 593.6C575.1 593.7 575.4 594.1 575.4 594.8C575.4 597.7 575.4 600.6 575.4 603.5C575.4 626.6 575.4 649.7 575.4 672.9C575.4 673.6 575.1 674 574.5 674.3C571.5 676 568.6 677.8 565.6 679.5C563.1 681 560.6 682.5 558.1 683.9C556.7 684.7 555.3 685.5 553.6 686.4C553.5 685 553.4 683.8 553.4 682.5C553.4 659.4 553.4 636.4 553.4 613.3C553.4 613 553.4 612.7 553.4 612.4C553.3 611.5 552.6 611.1 551.8 610.9C549.4 610.4 547 609.9 544.6 609.4H544.5C542.7 608.8 542.7 608.8 542.7 610.7C542.7 611.5 542.7 612.3 542.7 613C543.4 635.3 542.8 657.6 543 680C543 683.7 543.1 687.3 543.2 691C543.2 692.2 542.8 692.9 541.8 693.5C539.3 694.9 536.9 696.4 534.5 697.8C532.4 699 530.2 700.2 528.1 701.5C526.5 702.5 524.8 703.5 523.2 704.5C522.6 704.8 522 705.1 521.3 705.5C521.3 704.9 521.3 704.5 521.3 704.1C521.3 658 521.3 612 521.3 565.9C521.3 565.5 521.1 565.1 521 564.7C521 540.4 521 516.1 521 491.8C521.2 491.6 521.4 491.6 521.5 491.6Z" fill="black"/>
<path d="M608.4 629.3C610.4 628.2 612.2 627.1 614.1 626.1C615.7 625.2 617.3 624.2 618.9 623.4C619.4 623.1 620.3 623.1 620.8 623.4C623.4 624.7 625.9 626.2 628.4 627.6C631.1 629.1 633.8 630.6 636.5 632.2C638.1 633.1 639.8 634.1 641.4 635C641.5 635.1 641.6 635.2 641.8 635.4C640.7 636.1 639.7 636.7 638.7 637.3C636.2 638.7 633.8 640.2 631.3 641.6C629.6 642.6 627.9 643.6 626.2 644.5C623.2 646.3 620.1 648.1 617.1 649.8C615.8 650.6 614.4 651.3 613 652.1C610.5 653.5 608.1 655 605.7 656.4C602.3 658.4 598.9 660.3 595.5 662.3C593.3 663.6 591.1 664.9 588.8 666.2C588.2 666.5 587.7 666.9 587.1 667.2C586.9 667.3 586.7 667.3 586.4 667.4C586.4 666.9 586.4 666.6 586.4 666.2C586.4 643.7 586.4 621.2 586.4 598.7C586.4 588.1 586.2 577.5 586.1 566.9C586.1 566.6 586.1 566.4 586.1 565.9C587.5 566.7 588.8 567.4 590.1 568.1C591 568.6 591.9 569.2 592.8 569.7C595 571 597.1 572.2 599.3 573.5C600.7 574.3 602.1 575.1 603.6 575.9C605.8 577.2 608 578.4 610.2 579.7C611.5 580.5 612.9 581.2 614.2 581.9C616.4 583.2 618.7 584.5 620.9 585.8C623.6 587.3 626.2 588.8 628.9 590.3C631.8 591.9 634.6 593.6 637.5 595.2C640 596.7 642.5 598.2 645 599.6C647 600.7 648.9 601.8 650.9 602.9C651.8 603.4 652.5 603.4 653.5 602.8C655.8 601.3 658.2 600 660.5 598.6C661.1 598.2 661.7 597.8 662.4 597.4C661.7 596.9 661.2 596.5 660.6 596.2C658.4 595 656.2 593.8 654 592.5C651.5 591.1 649.1 589.6 646.7 588.2C645.2 587.4 643.7 586.6 642.3 585.8C640.2 584.6 638.1 583.3 636 582.1C634.4 581.2 632.8 580.4 631.3 579.5C629.3 578.3 627.3 577.1 625.2 576C623.6 575.1 622 574.3 620.5 573.4C617.9 571.9 615.2 570.3 612.6 568.8C611.1 567.9 609.6 567.1 608.1 566.3C605.4 564.8 602.8 563.2 600.1 561.7C597 559.9 593.9 558.2 590.8 556.4C589.6 555.7 588.4 555 587.2 554.3C586.5 553.9 586 553.3 586 552.3C586.1 545.4 586 538.5 586 531.6C586 530.6 585.8 529.7 585.7 528.5C587.4 529.5 589 530.4 590.5 531.3C593.6 533.1 596.8 534.8 599.9 536.6C602.7 538.2 605.5 539.8 608.3 541.5C610.7 542.9 613.1 544.2 615.5 545.6C618.4 547.2 621.2 548.9 624.1 550.5C626.5 551.9 628.8 553.2 631.2 554.6C633.8 556.1 636.4 557.7 639 559.2C640.6 560.1 642.2 560.9 643.7 561.8C645.7 563 647.7 564.2 649.8 565.4C651 566.1 652.3 566.8 653.6 567.5C656.3 569.1 659.1 570.7 661.8 572.3C663.3 573.2 664.9 574 666.5 574.9C669.6 576.6 672.7 578.4 675.8 580.2C678.2 581.6 680.6 582.9 683 584.3C685.8 585.9 688.7 587.6 691.5 589.2C693.9 590.6 696.3 592 698.7 593.3C701.1 594.7 703.5 596 705.9 597.4C706 597.5 706.1 597.6 706.3 597.8C704.8 598.7 703.4 599.5 702 600.3C699.7 601.6 697.5 602.9 695.2 604.3C693.9 605 692.6 605.8 691.4 606.5C689.6 607.6 687.8 608.7 685.9 609.8C684.6 610.6 683.2 611.3 681.8 612.1C679.3 613.6 676.8 615 674.3 616.5C671.4 618.2 668.4 620 665.5 621.7C663.5 622.9 661.5 624 659.4 625.1C657.3 626.3 655.2 627.6 653.2 628.9C652.5 629.3 651.9 629.2 651.3 628.9C649.6 627.9 647.9 626.9 646.2 625.9C643 624 639.7 622.1 636.5 620.3C634.3 619.1 632.2 617.9 630 616.7C627.4 615.2 624.8 613.6 622.2 612.1C620.9 611.3 619.5 610.6 618.1 609.8C615.6 608.3 613.1 606.8 610.5 605.4C609.7 604.9 608.9 604.5 607.9 604.1C607.9 607 607.9 609.8 607.9 612.6C607.9 615.4 607.9 618.2 607.9 621C608.2 623.5 607.9 626.3 608.4 629.3Z" fill="#4866CF"/>
<path d="M541.3 717.1C541.7 717.1 542 717.1 542.2 717.1C544.9 716.9 547.3 719.1 547.4 721.8C547.5 724.2 546.6 726.1 544.9 727.8C542.4 730.2 539.5 731.8 536.4 733.2C536.2 733.3 536 733.3 535.8 733.3C533.4 726.7 530.9 720.1 528.5 713.4C531.5 711.3 534.2 708.7 538.2 708.4C541.9 708.1 544.2 712 542.4 715.3C542.1 715.9 541.7 716.4 541.3 717.1ZM538.5 728.1C540.2 727.3 541.6 726.5 542.5 725C543.2 723.9 543.1 722.5 542.3 721.5C541.5 720.5 540.6 720.2 539.2 720.7C538.8 720.8 538.4 721 538.1 721.2C536.3 722.1 536.3 722.1 537 724C537.5 725.3 538 726.6 538.5 728.1ZM535.3 719C536.7 718.2 538.1 717.5 538.9 716.1C539.5 715.1 539.5 714.1 538.8 713.2C538.2 712.3 537.3 712 536.4 712.4C535.5 712.7 534.7 713.3 533.9 713.8C533.7 713.9 533.6 714.3 533.7 714.5C534.1 716 534.7 717.4 535.3 719Z" fill="black"/>
<path d="M574.7 710.5C573.5 711.2 572.3 711.9 571 712.7C570.7 712 570.5 711.4 570.2 710.8C568.1 705 565.9 699.2 563.8 693.4C563.6 692.8 563.7 692.4 564.2 692C566.2 690.4 568.3 688.8 570.9 688C575.9 686.3 578.9 690 579.1 693.9C579.2 697.1 577.5 699.4 575.1 701.2C574.3 701.8 573.5 702.3 572.6 702.7C572.1 703 572 703.3 572.2 703.7C573 706 573.9 708.2 574.7 710.5ZM570.7 699.6C572.1 699.1 573.2 698.5 574 697.4C574.7 696.5 574.9 695.5 574.8 694.4C574.6 692.6 573.1 691.2 571.6 691.6C570.6 691.9 569.6 692.6 568.7 693.1C568.6 693.2 568.5 693.6 568.5 693.8C569.2 695.7 570 697.6 570.7 699.6Z" fill="black"/>
<path d="M708 630.7C706.8 631.4 705.7 632.1 704.5 632.8C704 631.9 703.6 631.1 703.2 630.2C703.1 630.2 703.1 630.2 703 630.2C702.9 630.8 702.8 631.5 702.7 632.1C702.3 634.3 700.6 636 698.5 636.3C696.6 636.6 694.7 635.5 693.5 633.5C690.1 627.7 692 621.3 698 618.1C699.1 617.5 700.2 617.1 701.4 616.7C702 616.5 702.3 616.5 702.5 617.2C703.8 620.8 705.2 624.5 706.7 628.1C707 629 707.5 629.8 708 630.7ZM701.5 628.6C701.4 626.6 700.5 624.8 699.9 623C699.7 622.5 699.3 621.7 699.1 621.7C698.5 621.8 698 622.2 697.5 622.5C697.3 622.6 697.2 622.9 697 623.1C695.8 624.7 695.8 626.5 696.2 628.2C696.4 629.3 697 630.4 697.7 631.3C698.6 632.5 700.1 632.3 700.8 630.9C701.2 630.2 701.3 629.4 701.5 628.6Z" fill="black"/>
<path d="M668.8 636.8C670.6 636.8 672.1 637.5 673.2 638.8C675.9 641.9 676.7 647.1 673.9 650.8C672.5 652.6 670.8 653.8 668.5 654.2C666.1 654.7 663.7 653.5 662.2 651.1C659.6 647 660.2 641.8 663.7 638.9C665.2 637.7 666.8 636.8 668.8 636.8ZM664.9 644.4C665 646.3 665.5 648 666.7 649.4C668.2 651 670.5 650.5 671.2 648.4C671.9 646.3 670.8 642.6 669.1 641.2C668.3 640.6 667.5 640.4 666.6 640.9C665.2 641.6 664.9 642.9 664.9 644.4Z" fill="black"/>
<path d="M592.1 686.6C592.1 682.8 594.4 679.5 597.9 678.1C600.4 677.2 603.1 677.8 604.8 679.9C607.8 683.7 608.2 689.7 603.8 693.2C601.9 694.8 599.7 695.6 597.2 694.9C595.8 694.5 594.8 693.6 594 692.5C592.7 690.7 592.1 688.7 592.1 686.6ZM596.3 685.2C596.4 687.1 596.9 688.9 598.2 690.3C599.7 691.9 602.1 691.4 602.6 689.2C603.2 686.6 602.5 684.2 600.7 682.2C599.7 681.1 598.3 681.2 597.2 682.3C596.4 683.1 596.2 684.1 596.3 685.2Z" fill="black"/>
<path d="M692.4 640.1C691.1 640.9 689.9 641.6 688.6 642.4C688 640.8 687.5 639.3 686.9 637.8C686.3 636.1 685.6 634.5 684.9 632.9C684.6 632.2 684.1 631.4 683.2 631.5C682.2 631.6 681.6 632.3 681.3 633.2C680.7 634.8 681 636.5 681.5 638C682.2 640.1 683 642.2 683.8 644.3C684 644.9 683.9 645.2 683.4 645.5C682.4 646.1 681.4 646.7 680.3 647.3C679.1 644 677.9 640.7 676.7 637.5C676.2 636.1 675.6 634.6 675 633.2C674.8 632.7 674.8 632.5 675.3 632.2C676.2 631.7 677.1 631.1 678.1 630.5C678.5 631.3 678.8 632 679.2 632.8C679.5 631.8 679.7 630.9 680 630.2C680.7 628.6 682 627.5 683.6 626.9C685.1 626.4 686.8 627 687.7 628.6C688.5 630 689.1 631.4 689.7 632.9C690.6 635.2 691.5 637.6 692.4 640.1Z" fill="black"/>
<path d="M560.9 714.3C561.3 714.8 561.6 715.3 562 715.8C562.8 716.9 562.9 716.9 561.9 718C560.5 719.6 558.8 720.8 556.8 721.6C554.5 722.5 552 722 550.4 720.2C547.4 716.9 547 711.6 549.5 708.1C550.8 706.3 552.6 705.1 554.9 704.8C556.7 704.6 558 705.3 559 706.7C560 708.2 560.1 709.8 559.2 711.4C558.2 713.2 556.5 714.4 554.8 715.6C554.4 715.9 554 716.1 553.5 716.4C553.1 716.6 553.1 716.9 553.4 717.2C554.2 718.1 555.4 718.4 556.6 717.9C558 717.2 559 716.4 560.9 714.3ZM551.7 713.5C553.1 712.8 554.3 712 555.2 710.8C555.8 710.1 555.7 709.3 555.2 708.8C554.7 708.3 554 708.2 553.2 708.7C551.7 709.5 551.1 711.4 551.7 713.5Z" fill="black"/>
<path d="M629.7 672.8C630.3 673.6 630.8 674.3 631.3 675C631.4 675.1 631.4 675.5 631.3 675.6C629.5 678 627.3 679.8 624.3 680.4C622 680.9 620.1 680 618.7 678.1C616.1 674.7 615.9 669.9 618.3 666.6C619.6 664.8 621.4 663.5 623.8 663.3C625.5 663.1 626.9 663.8 627.8 665.3C628.8 666.8 628.8 668.4 627.9 669.9C626.8 671.8 625 673 623.2 674.2C623.1 674.3 623 674.3 622.9 674.4C622.6 674.7 622.2 675 621.9 675.3C622.4 675.7 622.9 676.3 623.4 676.4C624.2 676.5 625.1 676.4 625.9 676.1C627.5 675.4 628.7 674.3 629.7 672.8ZM620.7 672.1C621.3 671.7 621.9 671.5 622.4 671C623.1 670.4 623.8 669.8 624.4 669.1C624.8 668.6 624.8 667.9 624.3 667.4C623.9 666.9 623.3 666.8 622.7 667C620.7 667.8 619.8 670 620.7 672.1Z" fill="black"/>
<path d="M612.3 665.6C609.4 666.6 609.5 668.3 610.2 670.4C610.3 670.9 610.6 670.9 611 670.7C611.7 670.3 612.3 669.9 613.1 669.5C613.5 670.6 613.9 671.6 614.3 672.7C613.6 673.1 612.9 673.6 612.2 673.9C611.8 674.1 611.7 674.4 611.8 674.9C613.1 678.3 614.3 681.7 615.6 685.1C615.8 685.7 615.8 686 615.2 686.3C614.2 686.9 613.2 687.5 612.1 688.1C610.7 684.3 609.3 680.5 607.8 676.5C607.2 676.8 606.6 677.1 606 677.4C605.6 676.3 605.2 675.3 604.9 674.4C605.5 674 606.3 673.7 606.4 673.2C606.6 672.7 606.1 672 605.9 671.4C604.8 667.2 606.5 663.9 610.4 662.5C611 662.3 611.2 662.4 611.4 663C611.7 663.9 612 664.7 612.3 665.6Z" fill="black"/>
<path d="M644.3 664.4C645.5 663.9 646.6 663.5 647.7 663.1C648 663 648.4 662.7 648.5 662.4C648.7 661.9 648.9 661.3 648.8 660.9C648.6 660.5 648.1 660.1 647.6 660C647 659.8 646.3 660 645.7 660C644 660 642.5 659.6 641.7 657.7C640.9 655.7 641.3 653.9 642.5 652.2C643.7 650.5 645.4 649.5 647.3 648.8C647.9 648.6 648.2 648.8 648.3 649.5C648.4 650.3 648.6 651 648.7 651.7C647.8 652.1 646.9 652.5 646.1 652.9C645.2 653.4 644.8 654.3 645 654.9C645.2 655.6 645.8 655.9 646.9 655.9C648 655.9 649.1 655.8 650.1 656C652.4 656.6 653.5 659.7 652.4 662.3C651.4 664.5 649.7 665.8 647.7 666.7C647 667 646.3 667.1 645.6 667.3C645.2 667.4 644.9 667.2 644.9 666.7C644.6 666 644.4 665.1 644.3 664.4Z" fill="black"/>
<path d="M637.8 658.4C636.8 658.8 635.8 659.2 634.9 659.6C634.5 659.8 634.1 660.3 633.8 660.7C633.4 661.4 633.6 662.1 634.4 662.4C635 662.6 635.7 662.6 636.4 662.6C637.4 662.7 638.5 662.5 639.5 662.8C642 663.5 643.1 666.5 642 668.9C640.9 671.2 639 672.5 636.8 673.4C636.1 673.7 635.3 673.8 634.6 674C634 674.1 633.7 673.9 633.6 673.3C633.5 672.5 633.3 671.7 633.2 670.9C634.1 670.7 635.1 670.5 635.9 670.2C636.6 670 637.2 669.6 637.8 669.1C638.3 668.7 638.6 668.1 638.3 667.5C638 666.9 637.5 666.6 636.9 666.5C636 666.5 635.2 666.5 634.3 666.5C630.4 666.5 629 662.9 630.3 660.2C631.6 657.5 633.9 656.2 636.6 655.3C637.2 655.1 637.5 655.4 637.6 656C637.5 656.9 637.7 657.7 637.8 658.4Z" fill="black"/>
<path d="M707.1 604.9C707.7 606.6 708.3 608.3 709 610C710.9 615.3 712.8 620.5 714.8 625.8C715 626.4 714.9 626.7 714.4 627.1C713.4 627.7 712.4 628.3 711.3 628.9C710.6 627 709.9 625.2 709.3 623.4C707.4 618.3 705.6 613.2 703.7 608.1C703.5 607.5 703.5 607.2 704.1 606.9C705 606.2 705.9 605.5 707.1 604.9Z" fill="black"/>
<path d="M580.6 688.9C581.6 688.3 582.6 687.7 583.7 687C584.2 687.9 584.6 688.8 585.1 689.7C585.2 689.7 585.3 689.7 585.3 689.7C585.3 687.2 585.8 685 588.4 683.8C588.9 685.2 589.4 686.5 589.8 687.8C589.8 687.9 589.7 687.9 589.7 688C586.9 689.5 586.8 692.1 587.6 694.9C588.2 696.8 589 698.7 589.7 700.6C589.9 701.1 589.9 701.4 589.3 701.7C588.3 702.3 587.2 702.9 586.2 703.5C584.4 698.7 582.5 693.8 580.6 688.9Z" fill="black"/>
<path d="M657.7 660.9C655.9 655.9 654.1 651 652.3 646.1C653.6 645.3 654.8 644.6 656.1 643.8C656.9 645.8 657.6 647.7 658.3 649.7C659.3 652.4 660.3 655.2 661.3 657.9C661.5 658.5 661.4 658.8 660.8 659.1C659.8 659.7 658.8 660.3 657.7 660.9Z" fill="black"/>
<path d="M654.9 640.6C654.9 641.9 653.6 643.1 652.4 643.1C651.2 643.1 650.3 642 650.3 640.6C650.3 639.2 651.5 638.1 652.8 638.1C654 638.2 654.9 639.3 654.9 640.6Z" fill="black"/>
<path d="M111.8 201.8C106.1 201.8 103.2 198.9 103.2 193.1C103.2 189.9 103.9 187.6 105.4 186.3C106.9 184.9 109 184.2 111.8 184.2C114.5 184.2 116.6 184.9 118.1 186.3C119.5 187.7 120.2 190 120.2 193.1C120.2 198.9 117.4 201.8 111.8 201.8ZM118.2 123.1C118.2 128.6 118.1 133.5 118 137.7C117.9 141.9 117.7 145.9 117.5 149.6C117.3 153.3 117 156.9 116.8 160.3C116.5 163.8 116.2 167.4 115.9 171.1H107.7C107.4 167.4 107 163.8 106.6 160.4C106.2 157 105.9 153.4 105.7 149.7C105.5 146 105.3 142 105.1 137.7C104.9 133.5 104.9 128.6 104.9 123.1V102.3H118.3V123.1H118.2Z" fill="white"/>
<path d="M148.6 201.8C142.9 201.8 140 198.9 140 193.1C140 189.9 140.7 187.6 142.2 186.3C143.7 184.9 145.8 184.2 148.6 184.2C151.3 184.2 153.4 184.9 154.9 186.3C156.3 187.7 157 190 157 193.1C157 198.9 154.2 201.8 148.6 201.8ZM155 123.1C155 128.6 154.9 133.5 154.8 137.7C154.7 141.9 154.5 145.9 154.3 149.6C154.1 153.3 153.8 156.9 153.6 160.3C153.3 163.8 153 167.4 152.7 171.1H144.5C144.2 167.4 143.8 163.8 143.4 160.4C143 157 142.7 153.4 142.5 149.7C142.3 146 142.1 142 141.9 137.7C141.7 133.5 141.7 128.6 141.7 123.1V102.3H155V123.1Z" fill="white"/>
<path d="M185.4 201.8C179.7 201.8 176.8 198.9 176.8 193.1C176.8 189.9 177.5 187.6 179 186.3C180.5 184.9 182.6 184.2 185.4 184.2C188.1 184.2 190.2 184.9 191.7 186.3C193.1 187.7 193.8 190 193.8 193.1C193.8 198.9 191 201.8 185.4 201.8ZM191.8 123.1C191.8 128.6 191.7 133.5 191.6 137.7C191.5 141.9 191.3 145.9 191.1 149.6C190.9 153.3 190.6 156.9 190.4 160.3C190.1 163.8 189.8 167.4 189.5 171.1H181.3C181 167.4 180.6 163.8 180.2 160.4C179.8 157 179.5 153.4 179.3 149.7C179.1 146 178.9 142 178.7 137.7C178.5 133.5 178.5 128.6 178.5 123.1V102.3H191.9V123.1H191.8Z" fill="white"/>
<path d="M298.6 173.1C298.6 178.3 299.8 181.9 302.1 184.1C304.4 186.3 307.2 187.3 310.5 187.3H313.1C314.5 187.3 315.5 187.9 316 189C316.5 190.2 316.7 191.9 316.7 194.4C316.7 196.9 316.5 198.8 316 200C315.5 201.2 314.5 201.8 313.1 201.8H310.5C308.9 201.8 307.2 201.7 305.6 201.5C303.9 201.3 302.3 200.8 300.7 200.1C299.1 199.4 297.6 198.3 296.2 197C294.8 195.6 293.5 193.8 292.4 191.6C291.1 193.7 289.5 195.4 287.7 196.7C285.9 198 284 199.1 282.1 199.8C280.2 200.6 278.2 201.1 276.2 201.4C274.2 201.7 272.3 201.8 270.5 201.8C262.9 201.8 256.8 199.8 252.1 195.8C247.4 191.8 245.1 185.9 245.1 178.2V168.8C245.1 165.5 245.5 162.7 246.2 160.4C246.9 158.1 248.3 156.1 250.2 154.3H244.8C238.5 154.3 233.9 155.8 230.9 158.7C227.9 161.6 226.4 165.5 226.4 170.3V241.7H212.9V169.8C212.9 166 213.6 162.2 215 158.7C216.4 155.1 218.4 152 221 149.3C223.6 146.6 226.9 144.4 230.9 142.8C234.9 141.1 239.5 140.3 244.8 140.3H274.7C279.2 140.3 283 140.9 286.1 142.2C289.2 143.5 291.7 145.2 293.6 147.3C295.5 149.4 296.9 151.9 297.7 154.6C298.5 157.4 298.9 160.2 298.9 163.2V173.1H298.6ZM271.5 187.3C276 187.3 279.5 186.3 281.9 184.4C284.3 182.5 285.5 179.6 285.5 175.7V166.5C285.5 163.3 284.6 160.6 282.8 158.3C281 156 278 154.8 274 154.8H269.4C265.3 154.8 262.4 156 260.6 158.3C258.8 160.6 257.9 163.5 257.9 167V175.2C257.9 179.1 259 182 261.3 184.1C263.5 186.2 266.9 187.3 271.5 187.3Z" fill="white"/>
<path d="M325.1 187.3C333.7 187.3 338 183.3 338 175.3V154.2H351.5V175.3C351.5 177.5 351.9 179.4 352.6 180.9C353.3 182.4 354.3 183.7 355.5 184.6C356.7 185.5 358.1 186.2 359.7 186.7C361.3 187.1 362.9 187.4 364.6 187.4H369.2C371.7 187.4 373 189.8 373 194.5C373 199.4 371.7 201.9 369.2 201.9H364.1C360.1 201.9 356.4 201.2 353 199.8C349.5 198.4 346.6 195.6 344.3 191.4C341.8 195.6 338.9 198.4 335.6 199.8C332.4 201.2 328.9 201.9 325.1 201.9H313.1C311.7 201.9 310.7 201.3 310.2 200.2C309.7 199 309.5 197.3 309.5 195C309.5 192.4 309.7 190.4 310.2 189.2C310.7 188 311.7 187.4 313.1 187.4H325.1V187.3ZM336.8 234.5H322.1V220.6H336.8V234.5ZM359.3 234.5H344.8V220.6H359.3V234.5Z" fill="white"/>
<path d="M397.1 187.3C392.5 184 389 180.4 386.6 176.5C384.2 172.6 383.1 168.2 383.1 163.4C383.1 159.8 383.8 156.3 385.2 152.8C386.6 149.4 388.5 146.4 391.1 143.8C393.6 141.2 396.7 139.1 400.4 137.5C404.1 135.9 408.2 135.1 412.7 135.1C417.2 135.1 421.2 135.9 424.6 137.5C428 139.1 430.8 141.2 433.1 143.8C435.4 146.4 437.1 149.3 438.2 152.5C439.4 155.7 439.9 159 439.9 162.3C439.9 172.3 435.6 180.6 427 187.2H453.7C456.1 187.2 457.3 189.6 457.3 194.3C457.3 199.2 456.1 201.7 453.7 201.7H436.2C431.1 201.7 426.6 201.5 422.7 201.2C418.8 200.9 415.7 200.1 413.5 198.9C412 199.6 410.1 200.1 407.8 200.5C405.5 200.9 403.2 201.2 400.9 201.3C398.5 201.5 396.2 201.6 394 201.6C391.7 201.7 389.8 201.7 388.3 201.7H369.3C367.9 201.7 366.9 201.1 366.4 200C365.9 198.8 365.7 197.1 365.7 194.8C365.7 192.2 365.9 190.2 366.4 189C366.9 187.8 367.9 187.2 369.3 187.2H397.1V187.3ZM411.4 149.7C406.8 149.7 403.1 151.2 400.3 154.2C397.5 157.2 396.1 160.9 396.1 165.3C396.1 167.6 396.6 169.8 397.5 171.8C398.4 173.8 399.7 175.7 401.3 177.3C402.9 178.9 404.7 180.4 406.6 181.7C408.5 183 410.5 184 412.5 184.9C414.1 184 415.8 182.9 417.5 181.7C419.2 180.4 420.7 179 422.1 177.3C423.5 175.7 424.6 173.9 425.5 171.9C426.4 170 426.8 167.9 426.8 165.5C426.8 160.8 425.4 156.9 422.6 153.9C419.8 151.1 416 149.7 411.4 149.7ZM420.5 120.6H404.3V106.4H420.5V120.6Z" fill="white"/>
<path d="M460.3 187.3C469 187.3 473.3 183.3 473.3 175.3V154.2H486.8V175.3C486.8 177.5 487.2 179.4 488 180.9C488.8 182.4 489.8 183.7 491 184.6C492.2 185.5 493.6 186.2 495.2 186.7C496.8 187.1 498.4 187.4 500.1 187.4C509.6 187.4 514.3 183.4 514.3 175.4V154.3H527.8V175.4C527.8 179.9 529 183 531.3 184.8C533.7 186.6 536.4 187.4 539.6 187.4C543.3 187.4 546.3 186.4 548.5 184.3C550.7 182.2 551.8 179.2 551.8 175.4V154.3H565.3V176.1C565.3 184.5 563 190.9 558.5 195.3C554 199.8 547.8 202 540 202C536.1 202 532.5 201.3 529 199.9C525.5 198.5 522.6 195.7 520.3 191.5C517.8 195.7 514.7 198.5 511.1 199.9C507.5 201.3 503.7 202 499.9 202C495.7 202 491.8 201.3 488.3 199.9C484.7 198.5 481.8 195.7 479.5 191.5C477 195.7 474 198.5 470.6 199.9C467.2 201.3 463.6 202 459.7 202H453.6C452.2 202 451.2 201.4 450.7 200.3C450.2 199.1 450 197.4 450 195.1C450 192.5 450.2 190.5 450.7 189.3C451.2 188.1 452.2 187.5 453.6 187.5H460.3V187.3Z" fill="white"/>
<path d="M607.8 201.8C604.8 201.8 602 201.4 599.2 200.6C596.4 199.8 594.1 198.4 592 196.4C590 194.4 588.3 191.8 587.1 188.6C585.9 185.4 585.3 181.3 585.3 176.5V99.5H598.8V173.4C598.8 177.6 599.7 180.9 601.5 183.5C603.3 186 606.2 187.3 610.2 187.3H613.5C615.9 187.3 617.1 189.7 617.1 194.4C617.1 199.3 615.9 201.8 613.5 201.8H607.8Z" fill="white"/>
<path d="M625.6 187.3C634.2 187.3 638.5 183.3 638.5 175.3V154.2H652V175.3C652 177.5 652.4 179.4 653.1 180.9C653.8 182.4 654.8 183.7 656 184.6C657.2 185.5 658.6 186.2 660.2 186.7C661.8 187.1 663.4 187.4 665.1 187.4H669.7C672.2 187.4 673.5 189.8 673.5 194.5C673.5 199.4 672.2 201.9 669.7 201.9H664.6C660.6 201.9 656.9 201.2 653.5 199.8C650 198.4 647.1 195.6 644.8 191.4C642.3 195.6 639.4 198.4 636.1 199.8C632.9 201.2 629.4 201.9 625.6 201.9H613.6C612.2 201.9 611.2 201.3 610.7 200.2C610.2 199 610 197.3 610 195C610 192.4 610.2 190.4 610.7 189.2C611.2 188 612.2 187.4 613.6 187.4H625.6V187.3ZM639.6 133.8H624.6V120H639.6V133.8ZM661.7 133.8H646.7V120H661.7V133.8Z" fill="white"/>
<path d="M671.8 187.3C680.2 187.3 684.3 183.8 684.3 176.7V171.6C684.3 162.3 686.7 154.9 691.6 149.4C696.5 144 703.3 141.2 712 141.2C716.5 141.2 720.5 141.9 723.9 143.4C727.3 144.9 730.2 146.9 732.5 149.6C734.8 152.2 736.5 155.4 737.7 159.1C738.9 162.8 739.4 166.8 739.4 171.2C739.4 180.9 736.9 188.4 732 193.7C727 199 720.2 201.7 711.5 201.7C707.1 201.7 702.9 200.8 698.9 199.1C694.9 197.4 691.8 194.5 689.6 190.4C688.6 192.7 687.4 194.6 686 196.1C684.6 197.6 683.1 198.7 681.5 199.6C680 200.4 678.3 201 676.6 201.2C674.9 201.5 673.3 201.6 671.7 201.6H669.6C668.2 201.6 667.2 201 666.7 199.9C666.2 198.7 666 197 666 194.7C666 192.1 666.2 190.1 666.7 188.9C667.2 187.7 668.2 187.1 669.6 187.1H671.8V187.3ZM726.2 172.3C726.2 167.5 725.1 163.5 723 160.4C720.9 157.3 717.1 155.8 711.7 155.8C706.7 155.8 703.1 157.3 700.7 160.3C698.3 163.3 697.2 167.5 697.2 172.8C697.2 177.6 698.5 181.3 701.2 183.7C703.9 186.1 707.3 187.3 711.5 187.3C716.4 187.3 720.1 186 722.6 183.4C725 180.8 726.2 177.1 726.2 172.3Z" fill="white"/>
<path d="M1423.8 502V483.8L1398.7 475.4C1397.1 469.5 1394.8 463.8 1391.8 458.6L1403.6 435L1390.7 422.1L1367.1 433.9C1361.9 430.9 1356.3 428.5 1350.3 426.9L1341.9 401.8H1323.7L1315.3 426.9C1309.3 428.5 1303.7 430.8 1298.5 433.9L1274.9 422.1L1262 435L1273.8 458.6C1270.8 463.8 1268.4 469.4 1266.9 475.4L1241.8 483.8V502L1266.9 510.4C1268.5 516.3 1270.8 522 1273.8 527.2L1262 550.8L1274.9 563.7L1298.5 551.9C1303.7 554.9 1309.3 557.3 1315.3 558.8L1323.7 583.9H1341.9L1350.3 558.8C1356.3 557.2 1361.9 554.9 1367.1 551.9L1390.7 563.7L1403.6 550.8L1391.8 527.2C1394.8 522 1397.2 516.4 1398.7 510.4L1423.8 502ZM1332.9 522.5C1316.6 522.5 1303.3 509.3 1303.3 492.9C1303.3 476.6 1316.5 463.4 1332.9 463.4C1349.2 463.4 1362.4 476.6 1362.4 492.9C1362.5 509.3 1349.2 522.5 1332.9 522.5Z" fill="white"/>
<path d="M1345 587.9H1320.9L1312.3 562.1C1307.5 560.7 1303 558.8 1298.6 556.4L1274.3 568.6L1257.3 551.6L1269.5 527.3C1267.2 523 1265.3 518.4 1263.8 513.6L1238 505V480.9L1263.8 472.3C1265.2 467.5 1267.1 463 1269.5 458.6L1257.3 434.3L1274.3 417.3L1298.6 429.5C1302.9 427.2 1307.5 425.3 1312.3 423.8L1320.9 398H1345L1353.6 423.8C1358.4 425.2 1362.9 427.1 1367.3 429.5L1391.6 417.3L1408.6 434.3L1396.4 458.6C1398.7 462.9 1400.6 467.5 1402.1 472.3L1427.9 480.9V505L1402.1 513.6C1400.7 518.4 1398.8 522.9 1396.4 527.3L1408.6 551.6L1391.6 568.6L1367.3 556.4C1363 558.7 1358.4 560.6 1353.6 562.1L1345 587.9ZM1326.8 579.7H1339.1L1347.2 555.3L1349.3 554.7C1354.9 553.2 1360.2 551 1365.1 548.2L1367 547.1L1390 558.6L1398.7 549.9L1387.2 526.9L1388.3 525C1391.2 520.1 1393.3 514.8 1394.8 509.2L1395.4 507.1L1419.8 499V486.7L1395.4 478.6L1394.8 476.5C1393.3 471 1391.1 465.6 1388.3 460.7L1387.2 458.8L1398.7 435.8L1390 427.1L1367 438.6L1365.1 437.5C1360.2 434.6 1354.9 432.4 1349.3 431L1347.2 430.4L1339.1 406H1326.8L1318.7 430.4L1316.6 431C1311 432.5 1305.7 434.7 1300.8 437.5L1298.9 438.6L1275.9 427.1L1267.2 435.8L1278.7 458.8L1277.6 460.7C1274.7 465.6 1272.6 470.9 1271.1 476.5L1270.5 478.6L1246.1 486.7V499L1270.5 507.1L1271.1 509.2C1272.6 514.8 1274.8 520.1 1277.6 525L1278.7 526.9L1267.2 549.9L1275.9 558.6L1298.9 547.1L1300.8 548.2C1305.7 551.1 1311 553.2 1316.6 554.7L1318.7 555.3L1326.8 579.7Z" fill="#545454"/>
<path d="M1332.9 526.6C1314.3 526.6 1299.2 511.5 1299.2 492.9C1299.2 474.3 1314.3 459.2 1332.9 459.2C1351.5 459.2 1366.6 474.3 1366.6 492.9C1366.6 511.5 1351.5 526.6 1332.9 526.6ZM1332.9 467.5C1318.9 467.5 1307.5 478.9 1307.5 492.9C1307.5 506.9 1318.9 518.3 1332.9 518.3C1346.9 518.3 1358.3 506.9 1358.3 492.9C1358.3 478.9 1346.9 467.5 1332.9 467.5Z" fill="#545454"/>
<path d="M1812.5 260.1V328.2C1812.5 397.2 1812.5 490 1812.5 490C1812.5 490 1812.5 524 1778.5 524H1438C1438 524 1404 524 1404 490V328.1C1404 289.8 1404 260 1404 260C1404 260 1404 226 1438 226H1778.5C1778.5 226 1812.5 226 1812.5 260.1Z" fill="white"/>
<path d="M1812.5 260V328.1H1403.9C1403.9 289.8 1403.9 260 1403.9 260C1403.9 260 1403.9 226 1437.9 226H1778.4C1778.5 225.9 1812.5 225.9 1812.5 260Z" fill="#4866CF"/>
<path d="M1778.5 218.5H1438C1405.2 218.5 1396.6 245.6 1396.6 259.9V489.8C1396.6 522.6 1423.7 531.2 1438 531.2H1778.5C1811.3 531.2 1819.9 504.1 1819.9 489.8V260C1819.9 227.2 1792.8 218.5 1778.5 218.5ZM1805.2 320.7H1412.4V335.4H1805.2V489.8C1805.2 492.6 1804.5 516.5 1778.5 516.5H1438C1435.2 516.5 1411.3 515.8 1411.3 489.8V260C1411.3 257.2 1412 233.3 1438 233.3H1778.5C1781.2 233.3 1805.2 234 1805.2 260V320.7ZM1768.7 276.9C1768.7 285.7 1761.6 292.8 1752.8 292.8C1744 292.8 1736.9 285.7 1736.9 276.9C1736.9 268.2 1744 261 1752.8 261C1761.6 261.1 1768.7 268.2 1768.7 276.9ZM1709.1 276.9C1709.1 285.7 1702 292.8 1693.2 292.8C1684.5 292.8 1677.3 285.7 1677.3 276.9C1677.3 268.2 1684.4 261 1693.2 261C1702 261.1 1709.1 268.2 1709.1 276.9ZM1649.5 276.9C1649.5 285.7 1642.4 292.8 1633.6 292.8C1624.9 292.8 1617.7 285.7 1617.7 276.9C1617.7 268.2 1624.8 261 1633.6 261C1642.4 261.1 1649.5 268.2 1649.5 276.9Z" fill="#545454"/>
<path d="M1525.8 301.1C1493 301.1 1484.4 274 1484.4 259.7C1484.4 255.6 1487.7 252.3 1491.8 252.3C1495.9 252.3 1499.1 255.6 1499.2 259.6C1499.2 262.3 1500.2 286.3 1525.9 286.3C1551.6 286.3 1552.5 262.3 1552.6 259.6C1552.6 247 1547 240 1539.8 231.3C1530.3 219.7 1518.6 205.3 1518.6 174.5V140.5C1518.6 136.4 1521.9 133.1 1526 133.1C1530.1 133.1 1533.4 136.4 1533.4 140.5V174.5C1533.4 200 1542.5 211.1 1551.3 221.9C1559.2 231.6 1567.4 241.6 1567.4 259.6C1567.2 274.1 1558.5 301.1 1525.8 301.1Z" fill="#545454"/>
<path d="M1559.9 72.5H1491.8V140.6H1559.9V72.5Z" fill="#4866CF"/>
<path d="M1567.2 148H1484.4V65.2H1567.2V148ZM1499.1 133.2H1552.4V79.9H1499.1V133.2Z" fill="#545454"/>
<path d="M1533.1 -145H1518.4V72.5H1533.1V-145Z" fill="#545454"/>
<path d="M136.317 317C134.637 317 133.797 316.24 133.797 314.28C133.797 312.32 134.637 311.68 136.317 311.68C137.997 311.68 138.877 312.32 138.877 314.28C138.877 316.24 137.997 317 136.317 317ZM153.172 312.68C154.812 312.68 155.892 311.96 155.892 310.84C155.892 309.8 155.252 308.12 151.572 298.36L155.412 296.56L160.052 309.64C160.812 311.8 161.612 312.68 163.332 312.68H164.252C164.452 312.68 164.652 312.96 164.652 314.92C164.652 316.96 164.452 317 164.252 317H163.172C160.772 317 159.172 316.32 158.212 314.64C157.212 316.32 155.612 317 153.172 317H144.052L143.652 312.68H153.172ZM175.794 299.16H171.034V295.2H175.794V299.16ZM169.034 312.68C170.714 312.68 171.874 311.76 171.874 310.16V303.72H176.034V310C176.034 311.8 176.954 312.68 178.794 312.68H180.154C180.314 312.68 180.554 312.88 180.554 314.88C180.554 316.84 180.314 317 180.154 317H178.634C176.354 317 174.714 316.32 173.914 314.84C172.954 316.32 171.274 317 169.034 317H164.234C164.074 317 163.834 316.88 163.834 314.92C163.834 312.92 164.074 312.68 164.234 312.68H169.034ZM181.532 299.16V295.28H192.452V299.16H181.532ZM196.092 312.68C196.252 312.68 196.492 312.88 196.492 314.88C196.492 316.84 196.252 317 196.092 317H194.572C192.292 317 190.652 316.32 189.852 314.84C188.892 316.32 187.212 317 184.972 317H180.172C180.012 317 179.772 316.88 179.772 314.92C179.772 312.92 180.012 312.68 180.172 312.68H184.972C186.652 312.68 187.812 311.76 187.812 310.16V303.72H191.972V310C191.972 311.8 192.892 312.68 194.732 312.68H196.092ZM199.269 312.68C201.469 312.68 202.589 311.6 202.589 309.84V303.72H206.749V309.84C206.749 311.6 207.709 312.68 209.989 312.68C212.189 312.68 213.309 311.6 213.309 309.84V303.72H217.469V309.84C217.469 311.6 218.429 312.68 220.509 312.68C222.629 312.68 223.629 311.6 223.629 309.84V303.72H227.749V309.84C227.749 311.8 228.709 312.68 230.509 312.68H231.909C232.069 312.68 232.309 312.88 232.309 314.92C232.309 316.84 232.069 317 231.909 317H230.509C227.909 317 226.309 316.32 225.509 314.84C224.509 316.32 222.909 317 220.509 317C217.629 317 215.989 316.16 215.229 314.68C214.229 316.16 212.549 317 209.989 317C206.909 317 205.269 316.16 204.509 314.68C203.509 316.16 201.829 317 199.269 317H196.109C195.949 317 195.709 316.88 195.709 314.92C195.709 312.92 195.949 312.68 196.109 312.68H199.269ZM237.131 312.68C235.931 311.6 235.091 309.76 235.091 307.96C235.091 303.44 238.491 300.12 243.011 300.12C247.291 300.12 250.491 303.4 250.491 307.6C250.491 309.6 249.491 311.56 247.891 312.68H252.771C254.811 312.68 255.771 311.92 255.771 310.68C255.771 309.8 255.491 309.04 254.091 307.64L246.171 299.28L249.131 296.2L257.251 304.92C259.171 306.96 259.931 308.8 259.931 310.8C259.931 314.52 257.251 317 252.771 317H248.291C244.891 317 243.691 316.88 242.691 316.28C241.691 316.84 240.091 317 236.971 317H231.891C231.731 317 231.491 316.88 231.491 314.92C231.491 312.92 231.731 312.68 231.891 312.68H237.131ZM242.611 312.64C245.131 311.56 246.491 309.92 246.491 307.96C246.491 305.8 245.051 304.28 242.811 304.28C240.531 304.28 239.091 305.8 239.091 307.96C239.091 309.96 240.291 311.56 242.611 312.64ZM284.081 315.72C284.081 322.4 279.841 326.68 273.401 326.68H272.241L271.881 322.36H273.361C277.481 322.36 279.921 319.92 279.921 315.72V303.72H284.081V315.72ZM298.127 312.68C298.327 312.68 298.527 312.88 298.527 314.92C298.527 316.84 298.327 317 298.127 317H296.927C292.607 317 290.447 314.32 290.447 309.8V291.16H294.567V309.52C294.567 311.68 295.367 312.68 297.167 312.68H298.127ZM309.061 312.68C311.101 312.68 312.261 311.92 312.261 310.68C312.261 309.64 311.781 308.88 310.741 307.8L301.701 298.88V295.4L316.501 289.6L317.741 293.56L306.661 297.8L313.861 305.08C315.661 306.84 316.381 308.8 316.381 310.8C316.381 314.36 313.861 317 309.061 317H298.141C297.981 317 297.741 316.88 297.741 314.92C297.741 312.92 297.981 312.68 298.141 312.68H309.061ZM343.109 326.68C336.229 326.68 332.469 322.52 332.469 315.48V307.72H336.589V315.4C336.589 319.96 338.669 322.36 343.149 322.36H344.789C349.029 322.36 351.669 319.88 351.669 315.76V291.16H355.829V315.4C355.829 322.6 351.269 326.68 344.789 326.68H343.109ZM381.234 312.68C381.394 312.68 381.634 312.88 381.634 314.92C381.634 316.84 381.394 317 381.234 317H377.674C377.154 323.08 373.274 326.68 367.354 326.68H362.194L361.834 322.36H367.474C371.274 322.36 373.594 320.28 373.634 317H370.194C364.474 317 362.274 314.68 362.274 309.8C362.274 304.64 365.434 301.12 370.114 301.12C374.834 301.12 377.754 304.48 377.754 310V312.68H381.234ZM366.434 309.6C366.434 311.8 367.394 312.68 370.394 312.68H373.634V310.08C373.634 306.88 372.274 305.28 369.914 305.28C367.674 305.28 366.434 307.04 366.434 309.6ZM396.027 295.88H391.227V291.96H396.027V295.88ZM384.267 312.68C387.187 312.68 388.387 312.56 389.227 312.24L384.267 305.04L386.427 301H396.547C399.707 301 402.067 302.48 402.067 305.56C402.067 307.68 401.227 309.28 397.667 312.4C398.307 312.6 399.187 312.68 401.187 312.68H405.347C405.547 312.68 405.747 312.88 405.747 314.92C405.747 316.84 405.547 317 405.347 317H401.187C396.227 317 394.627 316.56 393.027 315.08C390.707 316.56 388.227 317 384.107 317H381.227C381.067 317 380.827 316.88 380.827 314.92C380.827 312.92 381.067 312.68 381.227 312.68H384.267ZM398.107 306.4C398.107 305.48 397.307 305 395.987 305H388.907L393.427 311.64C397.227 308.4 398.107 307.32 398.107 306.4ZM426.568 289.44V293.16H422.368V289.44H426.568ZM419.008 299.16V295.28H429.928V299.16H419.008ZM441.128 312.68C441.288 312.68 441.528 312.88 441.528 314.92C441.528 316.84 441.288 317 441.128 317H439.728C437.128 317 435.528 316.32 434.728 314.84C433.728 316.32 432.128 317 429.728 317C426.848 317 425.208 316.16 424.448 314.68C423.448 316.16 421.768 317 419.208 317C416.128 317 414.488 316.16 413.728 314.68C412.728 316.16 411.048 317 408.488 317H405.328C405.168 317 404.928 316.88 404.928 314.92C404.928 312.92 405.168 312.68 405.328 312.68H408.488C410.688 312.68 411.808 311.6 411.808 309.84V303.72H415.968V309.84C415.968 311.6 416.928 312.68 419.208 312.68C421.408 312.68 422.528 311.6 422.528 309.84V303.72H426.688V309.84C426.688 311.6 427.648 312.68 429.728 312.68C431.848 312.68 432.848 311.6 432.848 309.84V303.72H436.968V309.84C436.968 311.8 437.928 312.68 439.728 312.68H441.128ZM442.069 312.68C443.829 312.68 444.549 312 444.549 310.44V309.04C444.549 303.88 447.629 300.72 452.509 300.72C457.389 300.72 460.109 303.64 460.109 309C460.109 314.08 457.189 317 452.349 317C449.549 317 447.709 316.16 446.869 314.8C445.909 316.32 444.509 317 442.069 317H441.109C440.949 317 440.709 316.88 440.709 314.92C440.709 312.92 440.949 312.68 441.109 312.68H442.069ZM455.989 309C455.989 306.24 454.829 304.88 452.349 304.88C449.869 304.88 448.709 306.24 448.709 309.04C448.709 311.32 449.909 312.68 452.349 312.68C454.789 312.68 455.989 311.52 455.989 309ZM488.717 302.76H483.957V298.8H488.717V302.76ZM486.117 326.68C479.237 326.68 475.477 322.52 475.477 315.48V307.72H479.597V315.4C479.597 319.96 481.677 322.36 486.157 322.36H487.797C492.037 322.36 494.677 319.88 494.677 315.76V303.72H498.837V315.4C498.837 322.6 494.277 326.68 487.797 326.68H486.117ZM512.932 312.68C513.132 312.68 513.332 312.88 513.332 314.92C513.332 316.84 513.132 317 512.932 317H511.732C507.412 317 505.252 314.32 505.252 309.8V291.16H509.372V309.52C509.372 311.68 510.172 312.68 511.972 312.68H512.932ZM516.105 312.68C518.305 312.68 519.425 311.6 519.425 309.84V303.72H523.585V309.84C523.585 311.6 524.545 312.68 526.825 312.68C529.025 312.68 530.145 311.6 530.145 309.84V303.72H534.305V309.84C534.305 311.6 535.265 312.68 537.345 312.68C539.465 312.68 540.465 311.6 540.465 309.84V303.72H544.585V309.84C544.585 311.8 545.545 312.68 547.345 312.68H548.745C548.905 312.68 549.145 312.88 549.145 314.92C549.145 316.84 548.905 317 548.745 317H547.345C544.745 317 543.145 316.32 542.345 314.84C541.345 316.32 539.745 317 537.345 317C534.465 317 532.825 316.16 532.065 314.68C531.065 316.16 529.385 317 526.825 317C523.745 317 522.105 316.16 521.345 314.68C520.345 316.16 518.665 317 516.105 317H512.945C512.785 317 512.545 316.88 512.545 314.92C512.545 312.92 512.785 312.68 512.945 312.68H516.105ZM555.567 303.72H559.727V310.28C559.727 314.52 556.967 317 552.807 317H548.727C548.567 317 548.327 316.88 548.327 314.92C548.327 312.92 548.567 312.68 548.727 312.68H552.807C554.407 312.68 555.567 311.8 555.567 310.16V303.72ZM557.367 321.68V325.56H546.487V321.68H557.367ZM584.672 312.68C584.832 312.68 585.072 312.88 585.072 314.92C585.072 316.84 584.832 317 584.672 317H581.112C580.592 323.08 576.712 326.68 570.792 326.68H565.632L565.272 322.36H570.912C574.712 322.36 577.032 320.28 577.072 317H573.632C567.912 317 565.712 314.68 565.712 309.8C565.712 304.64 568.872 301.12 573.552 301.12C578.272 301.12 581.192 304.48 581.192 310V312.68H584.672ZM569.872 309.6C569.872 311.8 570.832 312.68 573.832 312.68H577.072V310.08C577.072 306.88 575.712 305.28 573.352 305.28C571.112 305.28 569.872 307.04 569.872 309.6ZM593.944 299.16H589.184V295.2H593.944V299.16ZM595.664 310.28C595.664 314.52 592.904 317 588.744 317H584.664C584.504 317 584.264 316.88 584.264 314.92C584.264 312.92 584.504 312.68 584.664 312.68H588.744C590.344 312.68 591.504 311.8 591.504 310.16V303.72H595.664V310.28ZM626.464 309.24C626.464 311.76 627.384 312.68 628.984 312.68H630.104C630.304 312.68 630.504 312.88 630.504 314.92C630.504 316.84 630.304 317 630.104 317H628.984C626.184 317 624.224 316.04 623.504 313.52C622.304 314.64 620.184 315.12 618.184 315.12C613.544 315.12 610.984 312.6 610.984 307.6C610.984 303.16 614.144 299.28 618.984 299.28H622.344V296.6H626.464V309.24ZM615.104 307.56C615.104 309.68 616.104 310.8 618.384 310.8C620.864 310.8 622.344 309.88 622.344 308.32V303.44H618.984C616.544 303.44 615.104 304.84 615.104 307.56ZM631.054 312.68C632.814 312.68 633.534 312 633.534 310.44V309.04C633.534 303.88 636.614 300.72 641.494 300.72C646.374 300.72 649.094 303.64 649.094 309C649.094 314.08 646.174 317 641.334 317C638.534 317 636.694 316.16 635.854 314.8C634.894 316.32 633.494 317 631.054 317H630.094C629.934 317 629.694 316.88 629.694 314.92C629.694 312.92 629.934 312.68 630.094 312.68H631.054ZM644.974 309C644.974 306.24 643.814 304.88 641.334 304.88C638.854 304.88 637.694 306.24 637.694 309.04C637.694 311.32 638.894 312.68 641.334 312.68C643.774 312.68 644.974 311.52 644.974 309ZM663.166 312.68C663.366 312.68 663.566 312.88 663.566 314.92C663.566 316.84 663.366 317 663.166 317H661.966C657.646 317 655.486 314.32 655.486 309.8V291.16H659.606V309.52C659.606 311.68 660.406 312.68 662.206 312.68H663.166ZM672.46 299.16H667.7V295.2H672.46V299.16ZM674.18 310.28C674.18 314.52 671.42 317 667.26 317H663.18C663.02 317 662.78 316.88 662.78 314.92C662.78 312.92 663.02 312.68 663.18 312.68H667.26C668.86 312.68 670.02 311.8 670.02 310.16V303.72H674.18V310.28ZM686.464 309.88C686.464 311.76 687.464 312.68 689.504 312.68H690.064C690.224 312.68 690.464 312.96 690.464 314.92C690.464 316.84 690.224 317 690.064 317H689.504C688.184 317 686.984 316.56 686.464 315.88V316.12C686.264 322.4 682.224 326.68 675.784 326.68H672.784L672.424 322.36H675.744C679.864 322.36 682.304 319.92 682.304 315.72V303.72H686.464V309.88ZM701.055 310.28C701.055 314.52 698.295 317 694.135 317H690.055C689.895 317 689.655 316.88 689.655 314.92C689.655 312.92 689.895 312.68 690.055 312.68H694.135C695.735 312.68 696.895 311.8 696.895 310.16V303.72H701.055V310.28ZM695.655 325.6H690.855V321.68H695.655V325.6Z" fill="white"/>
<path d="M117.592 841.24C122.536 841.24 127.144 845.848 127.144 850.744C127.144 855.688 122.536 860.296 117.592 860.296C112.648 860.296 108.04 855.688 108.04 850.744C108.04 845.848 112.648 841.24 117.592 841.24ZM117.592 855.544C119.992 855.544 122.392 853.144 122.392 850.744C122.392 848.392 119.992 846.04 117.592 846.04C115.24 846.04 112.792 848.392 112.792 850.744C112.792 853.144 115.24 855.544 117.592 855.544ZM145.403 850.792C143.867 850.792 142.715 850.408 142.139 849.784C142.187 850.552 142.187 851.464 142.187 852.472V865H137.243V852.52C137.243 846.328 136.763 842.68 134.843 836.152L139.595 834.472L141.755 842.872C142.235 844.744 143.387 845.608 145.019 845.608C146.747 845.608 148.139 844.456 148.139 842.776C148.139 841.72 147.899 839.752 147.179 835.528L152.171 834.472C152.843 838.456 153.131 841 153.131 842.92C153.131 847.528 149.867 850.792 145.403 850.792ZM161.243 865V852.52C161.243 846.328 160.763 842.68 158.843 836.152L163.643 834.472C165.707 841 166.187 844.792 166.187 852.472V865H161.243ZM173.866 857.848V852.856H195.178V857.848H173.866ZM215.422 865V852.28C213.838 852.952 211.822 853.192 210.142 853.192C204.91 853.192 201.886 850.168 201.886 845.08C201.886 839.56 205.726 834.472 211.246 834.472C217.102 834.472 220.366 839.032 220.366 847.528V865H215.422ZM215.422 847.096C215.422 841.912 214.03 839.464 211.006 839.464C208.606 839.464 206.83 841.672 206.83 844.648C206.83 846.904 208.222 848.008 210.718 848.008C212.446 848.008 214.078 847.816 215.422 847.096ZM229.024 865V852.52C229.024 846.328 228.544 842.68 226.624 836.152L231.424 834.472C233.488 841 233.968 844.792 233.968 852.472V865H229.024ZM258.783 849.448C254.271 853.048 250.239 858.28 246.207 865.432L242.031 863.128C244.047 859.432 246.783 855.304 249.615 852.376C249.279 852.472 248.991 852.52 248.655 852.52C243.087 852.52 240.207 849.064 240.207 844.12C240.207 838.888 244.095 834.472 249.087 834.472C251.199 834.472 253.023 834.952 255.183 836.104L253.503 840.232C251.823 839.656 250.527 839.464 249.279 839.464C246.879 839.464 245.151 841.384 245.151 843.64C245.151 846.184 246.591 847.528 249.663 847.528C251.391 847.528 253.839 847 256.479 845.752L258.783 849.448ZM278.984 865V852.28C277.4 852.952 275.384 853.192 273.704 853.192C268.472 853.192 265.448 850.168 265.448 845.08C265.448 839.56 269.288 834.472 274.808 834.472C280.664 834.472 283.928 839.032 283.928 847.528V865H278.984ZM278.984 847.096C278.984 841.912 277.592 839.464 274.568 839.464C272.168 839.464 270.392 841.672 270.392 844.648C270.392 846.904 271.784 848.008 274.28 848.008C276.008 848.008 277.64 847.816 278.984 847.096ZM292.587 865V852.52C292.587 846.328 292.107 842.68 290.187 836.152L294.987 834.472C297.051 841 297.531 844.792 297.531 852.472V865H292.587ZM322.345 849.448C317.833 853.048 313.801 858.28 309.769 865.432L305.593 863.128C307.609 859.432 310.345 855.304 313.177 852.376C312.841 852.472 312.553 852.52 312.217 852.52C306.649 852.52 303.769 849.064 303.769 844.12C303.769 838.888 307.657 834.472 312.649 834.472C314.761 834.472 316.585 834.952 318.745 836.104L317.065 840.232C315.385 839.656 314.089 839.464 312.841 839.464C310.441 839.464 308.713 841.384 308.713 843.64C308.713 846.184 310.153 847.528 313.225 847.528C314.953 847.528 317.401 847 320.041 845.752L322.345 849.448ZM329.491 856.36C329.491 851.8 331.987 846.616 339.235 839.752L337.027 837.784L340.147 834.04C352.531 843.544 356.227 849.064 356.227 855.64C356.227 861.592 352.387 865 348.067 865C345.475 865 343.555 864.232 342.547 862.984C341.539 864.232 339.571 865 337.219 865C332.323 865 329.491 861.736 329.491 856.36ZM351.283 855.64C351.283 851.368 348.691 847.672 342.787 842.872C337.123 847.912 334.435 851.944 334.435 856.12C334.435 858.664 335.587 859.816 337.603 859.816C339.811 859.816 340.963 858.472 340.963 856.264V853.048H345.331V856.216C345.331 857.272 345.283 858.04 345.091 858.712C345.715 859.528 346.723 859.816 348.067 859.816C349.843 859.816 351.283 858.376 351.283 855.64ZM374.42 841.24C379.364 841.24 383.972 845.848 383.972 850.744C383.972 855.688 379.364 860.296 374.42 860.296C369.476 860.296 364.868 855.688 364.868 850.744C364.868 845.848 369.476 841.24 374.42 841.24ZM374.42 855.544C376.82 855.544 379.22 853.144 379.22 850.744C379.22 848.392 376.82 846.04 374.42 846.04C372.068 846.04 369.62 848.392 369.62 850.744C369.62 853.144 372.068 855.544 374.42 855.544ZM406.901 852.808C405.173 852.808 404.309 852.04 404.309 849.928C404.309 847.912 405.173 847.192 406.901 847.192C408.677 847.192 409.541 847.912 409.541 849.928C409.541 852.04 408.677 852.808 406.901 852.808ZM406.901 865C405.173 865 404.309 864.232 404.309 862.12C404.309 860.104 405.173 859.384 406.901 859.384C408.677 859.384 409.541 860.104 409.541 862.12C409.541 864.232 408.677 865 406.901 865ZM437.805 860.872C438.045 860.872 438.285 861.064 438.285 862.984C438.285 864.856 438.045 865 437.805 865H436.557C431.613 865 429.117 861.88 429.117 856.6V833.944H433.101V856.408C433.101 859.384 434.301 860.872 436.749 860.872H437.805ZM438.932 860.872C441.236 860.872 442.34 859.864 442.34 857.8V855.832C442.34 849.688 445.796 845.944 451.508 845.944C457.22 845.944 460.388 849.352 460.388 855.64C460.388 861.592 456.98 865 451.364 865C448.004 865 445.748 863.944 444.644 862.024C443.588 864.088 441.908 865 438.932 865H437.828C437.636 865 437.348 864.856 437.348 862.984C437.348 861.064 437.636 860.872 437.828 860.872H438.932ZM456.404 855.64C456.404 851.896 454.772 849.976 451.364 849.976C447.956 849.976 446.324 851.896 446.324 855.832C446.324 858.952 448.148 860.872 451.364 860.872C454.676 860.872 456.404 859.192 456.404 855.64ZM488.664 860.872C488.904 860.872 489.144 861.064 489.144 862.984C489.144 864.856 488.904 865 488.664 865H487.416C482.472 865 479.976 861.88 479.976 856.6V833.944H483.96V856.408C483.96 859.384 485.16 860.872 487.608 860.872H488.664ZM501.552 857.368C501.552 862.168 498.384 865 493.68 865H488.688C488.495 865 488.207 864.856 488.207 862.984C488.207 861.064 488.495 860.872 488.688 860.872H493.68C495.936 860.872 497.568 859.624 497.568 857.32V849.544H501.552V857.368ZM495.072 875.08H489.984V871.048H495.072V875.08ZM561.165 857.08C561.165 859.48 562.509 860.872 565.197 860.872C567.885 860.872 569.373 859.48 569.373 857.08V849.544H573.357V856.984C573.357 862.024 570.189 865 565.197 865C561.885 865 559.869 863.944 559.005 862.024C557.805 863.944 555.693 865 552.669 865C550.461 865 549.069 864.424 548.397 863.608V864.184C548.253 871.576 542.973 876.712 535.341 876.712H533.229C525.117 876.712 520.653 871.768 520.653 863.416V854.344H524.637V863.32C524.637 869.368 527.613 872.584 533.325 872.584H535.341C540.812 872.584 544.413 869.176 544.413 863.704V849.544H548.397V857.176C548.397 859.384 549.741 860.872 552.669 860.872C555.597 860.872 557.181 859.384 557.181 857.08V849.544H561.165V857.08ZM590.196 860.872C590.436 860.872 590.676 861.064 590.676 862.984C590.676 864.856 590.436 865 590.196 865H588.948C584.004 865 581.508 861.88 581.508 856.6V833.944H585.492V856.408C585.492 859.384 586.692 860.872 589.14 860.872H590.196ZM591.323 860.872C593.627 860.872 594.731 859.864 594.731 857.8V855.832C594.731 849.688 598.187 845.944 603.899 845.944C609.611 845.944 612.779 849.352 612.779 855.64V856.984C612.779 859.768 613.931 860.872 616.091 860.872H617.291C617.483 860.872 617.771 861.064 617.771 862.984C617.771 864.856 617.483 865 617.291 865H616.091C613.355 865 611.531 864.088 610.667 861.928C609.323 863.992 606.683 865 603.755 865C600.395 865 598.139 863.944 597.035 862.024C595.979 864.088 594.299 865 591.323 865H590.219C590.027 865 589.739 864.856 589.739 862.984C589.739 861.064 590.027 860.872 590.219 860.872H591.323ZM608.795 855.64C608.795 851.896 607.163 849.976 603.755 849.976C600.347 849.976 598.715 851.896 598.715 855.832C598.715 858.952 600.539 860.872 603.755 860.872C607.067 860.872 608.795 859.192 608.795 855.64ZM631.665 839.992V843.784H618.993V839.992H631.665ZM626.193 857.32V849.544H630.177V857.368C630.177 862.168 627.009 865 622.305 865H617.312C617.12 865 616.832 864.856 616.832 862.984C616.832 861.064 617.12 860.872 617.312 860.872H622.305C624.561 860.872 626.193 859.624 626.193 857.32Z" fill="white"/>
</g>
<defs>
<clipPath id="clip0_175_204">
<rect width="1920" height="1080" fill="white"/>
</clipPath>
</defs>
</svg>
