<svg width="360" height="640" viewBox="0 0 360 640" fill="none" xmlns="http://www.w3.org/2000/svg">
<g clip-path="url(#clip0_175_415)">
<rect width="360" height="640" fill="white"/>
<path d="M301.277 9.28965C301.277 9.28965 301.277 6.32217 304.244 6.32217H322.049C322.049 6.32217 325.016 6.32217 325.016 9.28965V13.7252C325.016 13.7252 325.016 16.6927 322.049 16.6927H304.244C304.244 16.6927 301.277 16.6927 301.277 13.7252V9.28965Z" fill="#4866CF"/>
<path d="M284.94 27.0945C284.94 27.0945 284.94 24.127 287.907 24.127H305.712C305.712 24.127 308.68 24.127 308.68 27.0945V31.5301C308.68 31.5301 308.68 34.4976 305.712 34.4976H287.907C287.907 34.4976 284.94 34.4976 284.94 31.5301V27.0945Z" fill="#4866CF"/>
<path d="M316.114 27.0945C316.114 27.0945 316.114 24.127 319.081 24.127H336.886C336.886 24.127 339.854 24.127 339.854 27.0945V31.5301C339.854 31.5301 339.854 34.4976 336.886 34.4976H319.081C319.081 34.4976 316.114 34.4976 316.114 31.5301V27.0945Z" fill="#4866CF"/>
<path d="M41.1694 62.3606C41.1694 62.3606 41.1694 59.3931 44.1369 59.3931H61.9418C61.9418 59.3931 64.9092 59.3931 64.9092 62.3606V66.7962C64.9092 66.7962 64.9092 69.7637 61.9418 69.7637H44.1369C44.1369 69.7637 41.1694 69.7637 41.1694 66.7962V62.3606Z" fill="#4866CF"/>
<path d="M24.8328 80.1655C24.8328 80.1655 24.8328 77.198 27.8002 77.198H45.6051C45.6051 77.198 48.5726 77.198 48.5726 80.1655V84.6011C48.5726 84.6011 48.5726 87.5685 45.6051 87.5685H27.8002C27.8002 87.5685 24.8328 87.5685 24.8328 84.6011V80.1655Z" fill="#4866CF"/>
<path d="M56.0068 80.1655C56.0068 80.1655 56.0068 77.198 58.9743 77.198H76.7792C76.7792 77.198 79.7466 77.198 79.7466 80.1655V84.6011C79.7466 84.6011 79.7466 87.5685 76.7792 87.5685H58.9743C58.9743 87.5685 56.0068 87.5685 56.0068 84.6011V80.1655Z" fill="#4866CF"/>
<path d="M94.9902 64.5784C94.9902 64.5784 87.3685 64.5784 87.3685 72.2001C87.3685 79.8219 94.9902 79.8219 94.9902 79.8219H140.721C140.721 79.8219 148.342 79.8219 148.342 87.4436C148.342 95.0653 140.721 95.0653 140.721 95.0653H64.5033C64.5033 95.0653 56.8816 95.0653 56.8816 102.687C56.8816 110.309 64.5033 110.309 64.5033 110.309H117.855C117.855 110.309 125.477 110.309 125.477 117.93C125.477 125.552 117.855 125.552 117.855 125.552H79.7468C79.7468 125.552 72.125 125.552 72.125 133.174C72.125 140.796 79.7468 140.796 79.7468 140.796H140.721C140.721 140.796 148.342 140.796 148.342 148.417C148.342 156.039 140.721 156.039 140.721 156.039H41.6693C41.6693 156.039 34.0476 156.039 34.0476 163.661C34.0476 171.283 41.6693 171.283 41.6693 171.283H117.855C117.855 171.283 125.477 171.283 125.477 178.904C125.477 186.526 117.855 186.526 117.855 186.526H64.5033C64.5033 186.526 56.8816 186.526 56.8816 194.148C56.8816 201.769 64.5033 201.769 64.5033 201.769H299.121C299.121 201.769 306.743 201.769 306.743 194.148C306.743 186.526 299.121 186.526 299.121 186.526H283.878C283.878 186.526 276.256 186.526 276.256 178.904C276.256 171.283 283.878 171.283 283.878 171.283H329.608C329.608 171.283 337.23 171.283 337.23 163.661C337.23 156.039 329.608 156.039 329.608 156.039H261.044C261.044 156.039 253.422 156.039 253.422 148.417C253.422 140.796 261.044 140.796 261.044 140.796H344.852C344.852 140.796 352.473 140.796 352.473 133.174C352.473 125.552 344.852 125.552 344.852 125.552H276.287C276.287 125.552 268.666 125.552 268.666 117.93C268.666 110.309 276.287 110.309 276.287 110.309H329.639C329.639 110.309 337.261 110.309 337.261 102.687C337.261 95.0653 329.639 95.0653 329.639 95.0653H261.075C261.075 95.0653 253.453 95.0653 253.453 87.4436C253.453 79.8219 261.075 79.8219 261.075 79.8219H306.806C306.806 79.8219 314.427 79.8219 314.427 72.2001C314.427 64.5784 306.806 64.5784 306.806 64.5784H94.9902Z" fill="#4866CF"/>
<path d="M144.313 32.2173V26.5322L136.472 23.9084C135.973 22.0654 135.254 20.2849 134.317 18.6606L138.003 11.2888L134.005 7.29049L126.633 10.9764C125.009 10.0393 123.259 9.28963 121.385 8.78985L118.761 0.949463H113.076L110.452 8.78985C108.578 9.28963 106.829 10.0081 105.205 10.9764L97.8327 7.29049L93.8032 11.32L97.4891 18.6918C96.552 20.3161 95.8023 22.0654 95.3338 23.9396L87.4934 26.5635V32.2485L95.3338 34.8724C95.8336 36.7154 96.552 38.4958 97.4891 40.1201L93.8032 47.492L97.8327 51.5215L105.205 47.8356C106.829 48.7727 108.578 49.4911 110.452 49.9909L113.076 57.8313H118.761L121.385 49.9909C123.259 49.4911 125.009 48.7727 126.633 47.8356L134.005 51.5215L138.034 47.492L134.348 40.1201C135.285 38.4958 136.035 36.7466 136.504 34.8724L144.313 32.2173ZM115.919 38.5896C110.827 38.5896 106.704 34.4663 106.704 29.3748C106.704 24.2832 110.827 20.16 115.919 20.16C121.01 20.16 125.165 24.2832 125.165 29.3748C125.134 34.4663 121.01 38.5896 115.919 38.5896Z" fill="#4866CF"/>
<path d="M119.667 59.0495H112.139L109.453 50.9905C107.953 50.5532 106.548 49.9597 105.173 49.21L97.5828 53.0209L92.2726 47.7106L96.0834 40.1202C95.365 38.777 94.7715 37.3401 94.3029 35.8407L86.2439 33.1544V25.6264L94.3029 22.9088C94.7402 21.4094 95.3337 20.0038 96.0834 18.6294L92.2726 11.0389L97.5828 5.72867L105.173 9.53954C106.516 8.8211 107.953 8.2276 109.453 7.75905L112.139 -0.299988H119.667L122.353 7.75905C123.853 8.19636 125.258 8.78986 126.633 9.53954L134.223 5.72867L139.534 11.0389L135.723 18.6294C136.441 19.9726 137.035 21.4094 137.503 22.9088L145.562 25.5951V33.1232L137.503 35.8095C137.066 37.3089 136.472 38.7145 135.723 40.0889L139.534 47.6794L134.223 52.9896L126.633 49.1788C125.29 49.8972 123.853 50.4907 122.353 50.9593L119.667 59.0495ZM114.013 56.4881H117.855L120.385 48.8664L121.041 48.679C122.791 48.2104 124.446 47.5232 125.977 46.6486L126.57 46.305L133.755 49.8972L136.472 47.1796L132.88 39.9952L133.224 39.4017C134.13 37.8711 134.786 36.2156 135.254 34.4663L135.442 33.8104L143.063 31.2802V27.4381L135.442 24.9079L135.254 24.252C134.786 22.5027 134.098 20.8472 133.224 19.3166L132.88 18.7231L136.472 11.5387L133.755 8.8211L126.57 12.4133L125.977 12.0697C124.446 11.1638 122.791 10.5079 121.041 10.0393L120.385 9.8519L117.855 2.23018H114.013L111.483 9.8519L110.827 10.0393C109.078 10.5079 107.422 11.1951 105.892 12.0697L105.298 12.4133L98.1138 8.8211L95.3962 11.5387L98.9884 18.7231L98.6448 19.3166C97.739 20.8472 97.083 22.5027 96.6144 24.252L96.427 24.9079L88.8053 27.4381V31.2802L96.427 33.8104L96.6144 34.4663C97.083 36.2156 97.7702 37.8711 98.6448 39.4017L98.9884 39.9952L95.3962 47.1796L98.1138 49.8972L105.298 46.305L105.892 46.6486C107.422 47.5545 109.078 48.2417 110.827 48.679L111.483 48.8664L114.013 56.4881Z" fill="#545454"/>
<path d="M115.919 39.9015C110.109 39.9015 105.392 35.1848 105.392 29.3748C105.392 23.5647 110.109 18.848 115.919 18.848C121.729 18.848 126.445 23.5647 126.445 29.3748C126.445 35.1848 121.729 39.9015 115.919 39.9015ZM115.919 21.4407C111.545 21.4407 107.984 25.0016 107.984 29.3748C107.984 33.7479 111.545 37.3088 115.919 37.3088C120.292 37.3088 123.853 33.7479 123.853 29.3748C123.853 25.0016 120.292 21.4407 115.919 21.4407Z" fill="#545454"/>
<path d="M229.901 238.191C229.901 241.377 226.715 241.377 226.715 241.377H174.894C174.894 241.377 171.708 241.377 171.708 238.191C171.708 235.005 179.642 228.664 179.642 228.664V208.204H221.936V228.664C221.967 228.664 229.901 235.005 229.901 238.191Z" fill="white"/>
<path d="M200.82 82.1021H274.788C287.502 82.1021 287.501 94.8154 287.501 94.8154V195.491C287.501 195.491 287.502 208.204 274.788 208.204H200.82H126.852C114.138 208.204 114.138 195.491 114.138 195.491V94.8154C114.138 94.8154 114.138 82.1021 126.852 82.1021H200.82Z" fill="white"/>
<path d="M272.695 96.9083H128.976V193.367H272.695V96.9083Z" fill="#4866CF"/>
<path d="M226.746 242.658H174.925C173.144 242.658 170.458 241.471 170.458 238.191C170.458 234.88 176.33 229.757 178.392 228.039V206.924H223.248V228.039C225.341 229.757 231.182 234.88 231.182 238.191C231.182 241.471 228.527 242.658 226.746 242.658ZM180.953 209.485V229.258L180.485 229.633C176.893 232.506 173.019 236.598 173.019 238.16C173.019 239.972 174.581 240.066 174.925 240.066H226.746C227.309 240.066 228.652 239.847 228.652 238.16C228.652 236.567 224.778 232.506 221.186 229.633L220.718 229.258V209.485H180.953Z" fill="#545454"/>
<path d="M274.788 209.485H126.852C113.014 209.485 112.858 195.616 112.858 195.491V94.8154C112.858 94.6905 113.014 80.8214 126.852 80.8214H274.788C288.626 80.8214 288.782 94.6905 288.782 94.8154V195.491C288.782 195.616 288.626 209.485 274.788 209.485ZM126.852 83.3828C115.544 83.3828 115.419 94.3469 115.419 94.8154V195.491C115.419 195.959 115.606 206.924 126.852 206.924H274.788C286.096 206.924 286.221 195.959 286.221 195.491V94.8154C286.221 94.3469 286.033 83.3828 274.788 83.3828H126.852Z" fill="#545454"/>
<path d="M273.976 194.648H127.695V95.6276H273.976V194.648ZM130.256 192.086H271.383V98.2202H130.256V192.086Z" fill="#545454"/>
<path d="M221.967 227.352H179.673V229.914H221.967V227.352Z" fill="#545454"/>
<path d="M68.439 251.123L49.1348 276.331V251.123H68.439Z" fill="white"/>
<path d="M84.7757 251.123L65.4715 276.331H49.1348L68.439 251.123H84.7757Z" fill="#4866CF"/>
<path d="M118.855 251.186V276.331H99.582L118.855 251.186Z" fill="white"/>
<path d="M118.855 251.123V251.186L99.582 276.331H81.7771L101.081 251.123H118.855Z" fill="#4866CF"/>
<path d="M101.081 251.123L81.7772 276.331H65.4717L84.7759 251.123H101.081Z" fill="white"/>
<path d="M124.821 294.324H120.167L120.136 276.331V249.843H47.8541V294.324H43.1999C42.4815 294.324 41.9192 294.886 41.9192 295.604C41.9192 296.323 42.4815 296.885 43.1999 296.885H55.0698C55.7882 296.885 56.3505 296.323 56.3505 295.604C56.3505 294.886 55.7882 294.324 55.0698 294.324H50.4155V277.612H117.574V294.324H112.92C112.202 294.324 111.639 294.886 111.639 295.604C111.639 296.323 112.202 296.885 112.92 296.885H124.79C125.508 296.885 126.071 296.323 126.071 295.604C126.102 294.886 125.54 294.324 124.821 294.324ZM85.4005 252.404H98.4887L81.1524 275.051H68.0642L85.4005 252.404ZM64.8469 275.051H51.7587L69.095 252.404H82.1832L64.8469 275.051ZM101.706 252.404H116.294L98.9572 275.051H84.3697L101.706 252.404ZM65.8464 252.404L50.4468 272.552V252.404H65.8464ZM102.206 275.051L117.574 254.965V275.051H102.206Z" fill="#545454"/>
<path d="M192.511 238.66C192.511 238.66 192.511 235.692 195.478 235.692H213.283C213.283 235.692 216.251 235.692 216.251 238.66V243.127C216.251 243.127 216.251 246.094 213.283 246.094H195.478C195.478 246.094 192.511 246.094 192.511 243.127V238.66Z" fill="#4866CF"/>
<path d="M176.174 256.465C176.174 256.465 176.174 253.497 179.142 253.497H196.947C196.947 253.497 199.914 253.497 199.914 256.465V260.932C199.914 260.932 199.914 263.899 196.947 263.899H179.142C179.142 263.899 176.174 263.899 176.174 260.932V256.465Z" fill="#4866CF"/>
<path d="M207.348 256.465C207.348 256.465 207.348 253.497 210.316 253.497H228.121C228.121 253.497 231.088 253.497 231.088 256.465V260.932C231.088 260.932 231.088 263.899 228.121 263.899H210.316C210.316 263.899 207.348 263.899 207.348 260.932V256.465Z" fill="#4866CF"/>
<path d="M213.283 247.375H195.478C193.76 247.375 191.23 246.25 191.23 243.127V238.691C191.23 236.973 192.355 234.443 195.478 234.443H213.283C215.001 234.443 217.531 235.568 217.531 238.691V243.127C217.531 244.814 216.376 247.375 213.283 247.375ZM213.252 236.973H195.447C193.948 236.973 193.792 238.16 193.76 238.66V243.127C193.76 244.689 195.041 244.814 195.447 244.814H213.252C214.814 244.814 214.939 243.533 214.939 243.127V238.691C214.939 237.192 213.752 237.004 213.252 236.973Z" fill="#545454"/>
<path d="M196.947 265.18H179.142C177.424 265.18 174.894 264.055 174.894 260.932V256.496C174.894 254.778 176.018 252.248 179.142 252.248H196.947C198.665 252.248 201.195 253.372 201.195 256.496V260.932C201.195 262.618 200.07 265.18 196.947 265.18ZM196.947 254.778H179.142C177.58 254.778 177.455 256.059 177.455 256.465V260.932C177.455 262.431 178.642 262.618 179.142 262.618H196.947C198.508 262.618 198.633 261.338 198.633 260.932V256.496C198.633 254.997 197.446 254.809 196.947 254.778Z" fill="#545454"/>
<path d="M228.121 265.18H210.316C208.598 265.18 206.068 264.055 206.068 260.932V256.496C206.068 254.778 207.192 252.248 210.316 252.248H228.121C229.839 252.248 232.369 253.372 232.369 256.496V260.932C232.369 262.618 231.213 265.18 228.121 265.18ZM228.089 254.778H210.285C208.785 254.778 208.598 255.965 208.598 256.465V260.932C208.598 262.431 209.785 262.618 210.285 262.618H228.089C229.589 262.618 229.776 261.431 229.776 260.932V256.496C229.776 254.997 228.589 254.809 228.089 254.778Z" fill="#545454"/>
<path d="M49.4473 142.92C49.4473 142.92 49.4473 136.985 55.3822 136.985H114.732C114.732 136.985 120.667 136.985 120.667 142.92C120.667 148.855 120.667 182.965 120.667 182.965C120.667 182.965 120.667 188.9 114.732 188.9H55.3822C55.3822 188.9 49.4473 188.9 49.4473 182.965C49.4473 177.03 49.4473 142.92 49.4473 142.92Z" fill="white"/>
<path d="M98.0201 151.291L100.332 152.384L88.4617 177.592L86.1502 176.499L98.0201 151.291ZM79.1844 152.978L67.2208 161.912C66.9085 162.161 66.721 162.536 66.721 162.942C66.721 163.348 66.9085 163.723 67.2208 163.973L79.1844 172.938L80.715 170.877L70.1258 162.942L80.715 155.008L79.1844 152.978ZM121.947 142.92V182.965C121.947 185.464 120.448 190.181 114.732 190.181H55.3822C52.8832 190.181 48.1665 188.681 48.1665 182.965V142.92C48.1665 140.421 49.6659 135.704 55.3822 135.704H114.732C117.231 135.704 121.947 137.203 121.947 142.92ZM119.386 142.92C119.386 138.453 115.2 138.265 114.732 138.265H55.3822C50.8529 138.265 50.7279 142.451 50.7279 142.92V182.965C50.7279 187.432 54.9136 187.619 55.3822 187.619H114.7C119.167 187.619 119.355 183.434 119.355 182.965V142.92H119.386Z" fill="#545454"/>
<path d="M362.126 223.198H221.967V220.636H362.126V223.198ZM179.673 223.042V220.48L22.459 220.605V223.167L179.673 223.042Z" fill="#545454"/>
<path d="M290.406 196.74L301.464 207.798C307.243 205.737 313.896 207.017 318.551 211.64C323.798 216.888 324.735 224.822 321.393 231.007L311.928 221.574H305.306V228.196L314.771 237.629C308.555 241.003 300.652 240.066 295.404 234.787C290.781 230.164 289.501 223.479 291.562 217.7L280.504 206.642L269.447 195.585C263.668 197.646 257.015 196.366 252.36 191.743C247.113 186.495 246.175 178.561 249.518 172.376L258.982 181.809H265.605V175.187L256.14 165.754C262.356 162.38 270.259 163.317 275.507 168.596C280.13 173.219 281.41 179.904 279.349 185.683L290.406 196.74Z" fill="white"/>
<path d="M306.931 240.909C302.214 240.909 297.778 239.066 294.436 235.724C289.75 231.038 288.095 224.354 290.032 218.075L269.041 197.084C267.354 197.615 265.636 197.865 263.855 197.865C259.17 197.865 254.734 196.022 251.392 192.68C245.832 187.12 244.582 178.717 248.331 171.782L249.143 170.283L259.42 180.56H264.23V175.749L253.953 165.473L255.453 164.66C258.014 163.255 260.919 162.536 263.855 162.536C268.572 162.536 273.008 164.379 276.35 167.722C281.035 172.407 282.691 179.092 280.754 185.37L301.745 206.361C303.432 205.862 305.15 205.58 306.931 205.58C311.616 205.58 316.052 207.423 319.394 210.766C324.954 216.326 326.204 224.728 322.455 231.663L321.643 233.162L311.366 222.885H306.556V227.696L316.833 237.973L315.333 238.785C312.772 240.159 309.867 240.909 306.931 240.909ZM269.759 194.148L293.03 217.419L292.749 218.2C290.75 223.729 292.124 229.758 296.279 233.943C299.121 236.786 302.932 238.379 306.962 238.379C308.867 238.379 310.773 238.004 312.553 237.317L304.026 228.789V220.355H312.459L320.987 228.883C323.236 223.323 321.987 216.951 317.645 212.609C314.802 209.766 311.023 208.173 306.993 208.173C305.244 208.173 303.526 208.485 301.902 209.048L301.121 209.329L277.849 186.058L278.13 185.277C280.13 179.748 278.755 173.719 274.601 169.533C271.758 166.691 267.947 165.098 263.918 165.098C262.012 165.098 260.076 165.473 258.326 166.16L266.854 174.687V183.121H258.42L249.893 174.594C247.644 180.154 248.893 186.526 253.235 190.868C256.077 193.71 259.857 195.304 263.887 195.304C265.636 195.304 267.354 194.991 268.978 194.429L269.759 194.148Z" fill="#545454"/>
<path d="M47.3545 295.323H62.9728C65.5966 289.763 71.2192 285.952 77.7789 285.952C85.2132 285.952 91.4605 290.887 93.4909 297.666H80.1216L75.4361 302.351L80.1216 307.037H93.4909C91.4918 313.815 85.2444 318.751 77.7789 318.751C71.2192 318.751 65.5966 314.94 62.9728 309.38H47.3545H31.7362C29.1123 314.94 23.4897 318.751 16.93 318.751C9.49571 318.751 3.2484 313.815 1.21802 307.037H14.5873L19.2728 302.351L14.5873 297.666H1.21802C3.21716 290.887 9.46447 285.952 16.93 285.952C23.4897 285.952 29.1123 289.763 31.7362 295.323H47.3545Z" fill="#4866CF"/>
<path d="M16.93 320C9.05839 320 2.24881 314.94 -0.000222206 307.38L-0.5 305.725H14.0562L17.461 302.32L14.0562 298.915H-0.5L-0.000222206 297.26C2.24881 289.7 9.05839 284.64 16.93 284.64C23.5522 284.64 29.4559 288.201 32.5171 294.011H62.1918C65.253 288.201 71.1567 284.64 77.7789 284.64C85.6505 284.64 92.4601 289.7 94.7091 297.26L95.2089 298.915H80.6527L77.2479 302.32L80.6527 305.725H95.2089L94.7091 307.38C92.4601 314.94 85.6505 320 77.7789 320C71.1567 320 65.253 316.439 62.1918 310.629H32.5171C29.4559 316.439 23.5522 320 16.93 320ZM3.06098 308.317C5.40372 313.846 10.8076 317.439 16.93 317.439C22.8337 317.439 28.0502 314.127 30.5492 308.817L30.8928 308.068H63.7849L64.1285 308.817C66.6274 314.127 71.8752 317.439 77.7477 317.439C83.9013 317.439 89.274 313.846 91.6167 308.317H79.5594L73.5932 302.351L79.5594 296.385H91.6167C89.274 290.856 83.87 287.264 77.7477 287.264C71.8439 287.264 66.6274 290.575 64.1285 295.885L63.7849 296.635H30.8928L30.5492 295.885C28.0502 290.575 22.8025 287.264 16.93 287.264C10.7764 287.264 5.40372 290.856 3.06098 296.385H15.1183L21.0845 302.351L15.1183 308.317H3.06098Z" fill="#545454"/>
<path d="M276.912 251.123L257.608 276.331V251.123H276.912Z" fill="white"/>
<path d="M293.218 251.123L273.945 276.331H257.608L276.912 251.123H293.218Z" fill="#4866CF"/>
<path d="M327.297 251.186V276.331H308.055L327.297 251.186Z" fill="white"/>
<path d="M327.297 251.123V251.186L308.055 276.331H290.25L309.554 251.123H327.297Z" fill="#4866CF"/>
<path d="M309.554 251.123L290.25 276.331H273.945L293.218 251.123H309.554Z" fill="white"/>
<path d="M333.294 294.324H328.64L328.609 276.331V249.843H256.359V294.324H251.704C250.986 294.324 250.424 294.886 250.424 295.604C250.424 296.323 250.986 296.885 251.704 296.885H263.574C264.293 296.885 264.855 296.323 264.855 295.604C264.855 294.886 264.293 294.324 263.574 294.324H258.92V277.612H326.079V294.324H321.424C320.706 294.324 320.144 294.886 320.144 295.604C320.144 296.323 320.706 296.885 321.424 296.885H333.294C334.013 296.885 334.575 296.323 334.575 295.604C334.575 294.886 333.981 294.324 333.294 294.324ZM293.874 252.404H306.962L289.626 275.051H276.537L293.874 252.404ZM273.289 275.051H260.201L277.537 252.404H290.625L273.289 275.051ZM310.179 252.404H324.767L307.43 275.051H292.843L310.179 252.404ZM274.32 252.404L258.92 272.552V252.404H274.32ZM310.648 275.051L326.016 254.965V275.051H310.648Z" fill="#545454"/>
<path d="M220.28 40.8386L218.031 38.5896L220.28 36.3405C220.78 35.8407 220.78 35.0286 220.28 34.5288C219.781 34.029 218.968 34.029 218.469 34.5288L216.22 36.7778L213.97 34.5288C213.471 34.029 212.659 34.029 212.159 34.5288C211.659 35.0286 211.659 35.8407 212.159 36.3405L214.408 38.5896L212.159 40.8386C211.659 41.3384 211.659 42.1505 212.159 42.6503C212.409 42.9002 212.752 43.0252 213.065 43.0252C213.408 43.0252 213.721 42.9002 213.97 42.6503L216.22 40.4013L218.469 42.6503C218.718 42.9002 219.062 43.0252 219.374 43.0252C219.718 43.0252 220.03 42.9002 220.28 42.6503C220.78 42.1505 220.78 41.3384 220.28 40.8386Z" fill="#545454"/>
<path d="M49.0725 209.141L46.8235 206.892L49.0725 204.643C49.5723 204.143 49.5723 203.331 49.0725 202.832C48.5727 202.332 47.7606 202.332 47.2608 202.832L45.0118 205.081L42.7627 202.832C42.2629 202.332 41.4508 202.332 40.951 202.832C40.4512 203.331 40.4512 204.143 40.951 204.643L43.2 206.892L40.951 209.141C40.4512 209.641 40.4512 210.453 40.951 210.953C41.2009 211.203 41.5445 211.328 41.8569 211.328C42.1692 211.328 42.5128 211.203 42.7627 210.953L45.0118 208.704L47.2608 210.953C47.5107 211.203 47.8543 211.328 48.1667 211.328C48.479 211.328 48.8226 211.203 49.0725 210.953C49.5723 210.453 49.5723 209.641 49.0725 209.141Z" fill="#545454"/>
<path d="M352.442 106.31H349.288V103.156C349.288 102.437 348.725 101.875 348.007 101.875C347.288 101.875 346.726 102.437 346.726 103.156V106.31H343.571C342.853 106.31 342.291 106.873 342.291 107.591C342.291 108.31 342.853 108.872 343.571 108.872H346.726V112.027C346.726 112.745 347.288 113.307 348.007 113.307C348.725 113.307 349.288 112.745 349.288 112.027V108.872H352.442C353.161 108.872 353.723 108.31 353.723 107.591C353.723 106.873 353.161 106.31 352.442 106.31Z" fill="#545454"/>
<path d="M348.007 7.97771H344.821V4.82281C344.821 4.10437 344.258 3.54211 343.54 3.54211C342.822 3.54211 342.259 4.10437 342.259 4.82281V7.97771H339.104C338.386 7.97771 337.824 8.53997 337.824 9.25841C337.824 9.97685 338.386 10.5391 339.104 10.5391H342.259V13.694C342.259 14.4124 342.822 14.9747 343.54 14.9747C344.258 14.9747 344.821 14.4124 344.821 13.694V10.5391H347.976C348.694 10.5391 349.256 9.97685 349.256 9.25841C349.256 8.53997 348.694 7.97771 348.007 7.97771Z" fill="#545454"/>
<path d="M329.109 197.802L331.358 195.553C331.857 195.054 331.857 194.242 331.358 193.742C330.858 193.242 330.046 193.242 329.546 193.742L327.297 195.991L325.048 193.742C324.548 193.242 323.736 193.242 323.236 193.742C322.736 194.242 322.736 195.054 323.236 195.553L325.485 197.802L323.236 200.051C322.736 200.551 322.736 201.363 323.236 201.863C323.486 202.113 323.83 202.238 324.142 202.238C324.486 202.238 324.798 202.113 325.048 201.863L327.297 199.614L329.546 201.863C329.796 202.113 330.139 202.238 330.452 202.238C330.795 202.238 331.108 202.113 331.358 201.863C331.857 201.363 331.857 200.551 331.358 200.051L329.109 197.802Z" fill="#4866CF"/>
<path d="M243.239 20.16L245.488 17.9109C245.988 17.4111 245.988 16.599 245.488 16.0992C244.989 15.5994 244.176 15.5994 243.677 16.0992L241.428 18.3482L239.179 16.0992C238.679 15.5994 237.867 15.5994 237.367 16.0992C236.867 16.599 236.867 17.4111 237.367 17.9109L239.616 20.16L237.367 22.409C236.867 22.9088 236.867 23.7209 237.367 24.2207C237.617 24.4706 237.96 24.5956 238.273 24.5956C238.616 24.5956 238.929 24.4706 239.179 24.2207L241.428 21.9717L243.677 24.2207C243.926 24.4706 244.27 24.5956 244.582 24.5956C244.926 24.5956 245.238 24.4706 245.488 24.2207C245.988 23.7209 245.988 22.9088 245.488 22.409L243.239 20.16Z" fill="#4866CF"/>
<path d="M39.0144 123.366L41.2634 121.117C41.7632 120.617 41.7632 119.805 41.2634 119.305C40.7637 118.805 39.9515 118.805 39.4517 119.305L37.2027 121.554L34.9536 119.305C34.4539 118.805 33.6417 118.805 33.1419 119.305C32.6421 119.805 32.6421 120.617 33.1419 121.117L35.391 123.366L33.1419 125.615C32.6421 126.114 32.6421 126.927 33.1419 127.426C33.3918 127.676 33.7354 127.801 34.0478 127.801C34.3601 127.801 34.7038 127.676 34.9536 127.426L37.2027 125.177L39.4517 127.426C39.7016 127.676 40.0452 127.801 40.3576 127.801C40.6699 127.801 41.0135 127.676 41.2634 127.426C41.7632 126.927 41.7632 126.114 41.2634 125.615L39.0144 123.366Z" fill="#4866CF"/>
<path d="M200.82 19.629C197.571 19.629 194.916 16.9739 194.916 13.7252C194.916 10.4766 197.571 7.82153 200.82 7.82153C204.069 7.82153 206.724 10.4766 206.724 13.7252C206.724 16.9739 204.069 19.629 200.82 19.629ZM200.82 10.3829C198.977 10.3829 197.478 11.8823 197.478 13.7252C197.478 15.5682 198.977 17.0676 200.82 17.0676C202.663 17.0676 204.162 15.5682 204.162 13.7252C204.162 11.8823 202.663 10.3829 200.82 10.3829Z" fill="#4866CF"/>
<path d="M334.106 68.9828C330.858 68.9828 328.203 66.3276 328.203 63.079C328.203 59.8304 330.858 57.1753 334.106 57.1753C337.355 57.1753 340.01 59.8304 340.01 63.079C340.01 66.3589 337.355 68.9828 334.106 68.9828ZM334.106 59.768C332.263 59.768 330.764 61.2673 330.764 63.1103C330.764 64.9532 332.263 66.4526 334.106 66.4526C335.949 66.4526 337.449 64.9532 337.449 63.1103C337.417 61.2673 335.918 59.768 334.106 59.768Z" fill="#4866CF"/>
<path d="M170.52 51.3341C167.272 51.3341 164.617 48.679 164.617 45.4304C164.617 42.1818 167.272 39.5267 170.52 39.5267C173.769 39.5267 176.424 42.1818 176.424 45.4304C176.424 48.679 173.769 51.3341 170.52 51.3341ZM170.52 42.0881C168.677 42.0881 167.178 43.5874 167.178 45.4304C167.178 47.2733 168.677 48.7727 170.52 48.7727C172.363 48.7727 173.863 47.2733 173.863 45.4304C173.863 43.5874 172.332 42.0881 170.52 42.0881Z" fill="#545454"/>
<path d="M349.288 188.244C346.039 188.244 343.384 185.589 343.384 182.34C343.384 179.092 346.039 176.437 349.288 176.437C352.536 176.437 355.191 179.092 355.191 182.34C355.191 185.589 352.536 188.244 349.288 188.244ZM349.288 179.029C347.445 179.029 345.945 180.529 345.945 182.372C345.945 184.215 347.445 185.714 349.288 185.714C351.13 185.714 352.63 184.215 352.63 182.372C352.63 180.529 351.13 179.029 349.288 179.029Z" fill="#545454"/>
<path d="M233.532 148.241V141.724L224.544 138.716C223.971 136.603 223.148 134.562 222.073 132.7L226.299 124.249L221.679 119.63L213.229 123.855C211.367 122.781 209.361 121.922 207.213 121.349L204.205 112.361H197.688L194.68 121.349C192.531 121.922 190.526 122.745 188.664 123.855L180.213 119.63L175.594 124.249L179.82 132.7C178.745 134.562 177.886 136.567 177.349 138.716L168.361 141.724V148.241L177.349 151.249C177.922 153.361 178.745 155.402 179.82 157.264L175.594 165.715L180.213 170.334L188.664 166.109C190.526 167.183 192.531 168.043 194.68 168.58L197.688 177.568H204.205L207.213 168.58C209.361 168.007 211.367 167.183 213.229 166.109L221.679 170.334L226.299 165.715L222.073 157.264C223.148 155.402 224.007 153.397 224.544 151.249L233.532 148.241ZM200.982 155.581C195.145 155.581 190.383 150.855 190.383 144.982C190.383 139.145 195.11 134.419 200.982 134.419C206.819 134.419 211.546 139.145 211.546 144.982C211.581 150.855 206.819 155.581 200.982 155.581Z" fill="white"/>
<path d="M205.315 179H196.685L193.606 169.761C191.887 169.26 190.275 168.58 188.7 167.72L179.998 172.089L173.911 166.002L178.28 157.3C177.456 155.76 176.776 154.113 176.239 152.394L167 149.315V140.685L176.239 137.606C176.74 135.887 177.42 134.275 178.28 132.7L173.911 123.998L179.998 117.911L188.7 122.28C190.24 121.456 191.887 120.776 193.606 120.239L196.685 111H205.315L208.394 120.239C210.113 120.74 211.725 121.42 213.3 122.28L222.002 117.911L228.089 123.998L223.72 132.7C224.544 134.24 225.224 135.887 225.761 137.606L235 140.685V149.315L225.761 152.394C225.26 154.113 224.58 155.725 223.72 157.3L228.089 166.002L222.002 172.089L213.3 167.72C211.76 168.544 210.113 169.224 208.394 169.761L205.315 179ZM198.798 176.064H203.202L206.103 167.326L206.855 167.112C208.86 166.575 210.758 165.787 212.512 164.784L213.193 164.39L221.429 168.508L224.544 165.393L220.426 157.157L220.82 156.477C221.858 154.722 222.61 152.824 223.147 150.819L223.362 150.067L232.1 147.166V142.762L223.362 139.862L223.147 139.11C222.61 137.14 221.823 135.206 220.82 133.452L220.426 132.771L224.544 124.536L221.429 121.42L213.193 125.538L212.512 125.144C210.758 124.106 208.86 123.318 206.855 122.817L206.103 122.602L203.202 113.865H198.798L195.897 122.602L195.145 122.817C193.14 123.354 191.242 124.142 189.488 125.144L188.807 125.538L180.571 121.42L177.456 124.536L181.574 132.771L181.18 133.452C180.142 135.206 179.39 137.104 178.853 139.11L178.638 139.862L169.9 142.762V147.166L178.638 150.067L178.853 150.819C179.39 152.824 180.177 154.722 181.18 156.477L181.574 157.157L177.456 165.393L180.571 168.508L188.807 164.39L189.488 164.784C191.242 165.823 193.14 166.575 195.145 167.112L195.897 167.326L198.798 176.064Z" fill="#545454"/>
<path d="M200.982 157.05C194.322 157.05 188.915 151.642 188.915 144.982C188.915 138.322 194.322 132.915 200.982 132.915C207.643 132.915 213.05 138.322 213.05 144.982C213.05 151.642 207.643 157.05 200.982 157.05ZM200.982 135.887C195.969 135.887 191.887 139.969 191.887 144.982C191.887 149.995 195.969 154.077 200.982 154.077C205.995 154.077 210.078 149.995 210.078 144.982C210.078 139.969 205.995 135.887 200.982 135.887Z" fill="#545454"/>
<path d="M335.794 89.2307V105.244C335.794 121.468 335.794 143.289 335.794 143.289C335.794 143.289 335.794 151.283 327.799 151.283H247.735C247.735 151.283 239.74 151.283 239.74 143.289V105.22C239.74 96.2143 239.74 89.2072 239.74 89.2072C239.74 89.2072 239.74 81.2125 247.735 81.2125H327.799C327.799 81.2125 335.794 81.2125 335.794 89.2307Z" fill="white"/>
<path d="M335.794 89.2307V105.244H239.717C239.717 96.2378 239.717 89.2307 239.717 89.2307C239.717 89.2307 239.717 81.2361 247.711 81.2361H327.776C327.799 81.2125 335.794 81.2125 335.794 89.2307Z" fill="#4866CF"/>
<path d="M327.799 79.4725H247.735C240.022 79.4725 238 85.8447 238 89.2072V143.265C238 150.978 244.372 153 247.735 153H327.799C335.512 153 337.534 146.628 337.534 143.265V89.2307C337.534 81.5182 331.161 79.4725 327.799 79.4725ZM334.077 103.504H241.715V106.96H334.077V143.265C334.077 143.924 333.913 149.543 327.799 149.543H247.735C247.076 149.543 241.457 149.379 241.457 143.265V89.2307C241.457 88.5723 241.621 82.9525 247.735 82.9525H327.799C328.434 82.9525 334.077 83.1171 334.077 89.2307V103.504ZM325.495 93.2045C325.495 95.2737 323.825 96.9432 321.756 96.9432C319.687 96.9432 318.017 95.2737 318.017 93.2045C318.017 91.1588 319.687 89.4658 321.756 89.4658C323.825 89.4893 325.495 91.1588 325.495 93.2045ZM311.48 93.2045C311.48 95.2737 309.811 96.9432 307.742 96.9432C305.696 96.9432 304.003 95.2737 304.003 93.2045C304.003 91.1588 305.673 89.4658 307.742 89.4658C309.811 89.4893 311.48 91.1588 311.48 93.2045ZM297.466 93.2045C297.466 95.2737 295.797 96.9432 293.728 96.9432C291.682 96.9432 289.989 95.2737 289.989 93.2045C289.989 91.1588 291.658 89.4658 293.728 89.4658C295.797 89.4893 297.466 91.1588 297.466 93.2045Z" fill="#545454"/>
<path d="M268.38 98.8948C260.667 98.8948 258.645 92.5226 258.645 89.1601C258.645 88.1961 259.421 87.4201 260.385 87.4201C261.349 87.4201 262.102 88.1961 262.125 89.1366C262.125 89.7715 262.36 95.4148 268.403 95.4148C274.446 95.4148 274.658 89.7715 274.681 89.1366C274.681 86.1739 273.365 84.5279 271.672 82.4822C269.438 79.7546 266.687 76.3687 266.687 69.1264V61.1317C266.687 60.1677 267.463 59.3917 268.427 59.3917C269.391 59.3917 270.167 60.1677 270.167 61.1317V69.1264C270.167 75.1224 272.307 77.7325 274.376 80.2719C276.233 82.5528 278.161 84.9041 278.161 89.1366C278.114 92.5461 276.069 98.8948 268.38 98.8948Z" fill="#545454"/>
<path d="M276.398 45.1425H260.385V61.1553H276.398V45.1425Z" fill="#4866CF"/>
<path d="M278.114 62.8953H258.645V43.4259H278.114V62.8953ZM262.102 59.4153H274.634V46.8825H262.102V59.4153Z" fill="#545454"/>
<path d="M270.096 -6H266.64V45.1424H270.096V-6Z" fill="#545454"/>
<path d="M-308 0C-308 0 -76.7754 369.768 111.987 324.45C300.749 279.133 498.786 317.989 674 483.31V640L-308 640L-308 0Z" fill="#545454"/>
<path d="M62.35 460.7C85.7392 460.7 104.7 441.739 104.7 418.35C104.7 394.961 85.7392 376 62.35 376C38.9607 376 20 394.961 20 418.35C20 441.739 38.9607 460.7 62.35 460.7Z" fill="white"/>
<path d="M43.942 383.165C44.0877 383.282 44.2042 383.398 44.3498 383.485C45.078 383.893 45.8061 384.301 46.5343 384.738C47.2625 385.146 47.9906 385.553 48.7479 385.99C49.1557 386.223 49.5343 386.456 49.9421 386.719C50.0295 386.777 50.1168 386.922 50.1168 387.039C50.146 388.233 50.2042 389.427 50.2042 390.621C50.2042 396.301 50.2042 401.981 50.2042 407.661C50.2042 407.777 50.2042 407.864 50.2042 408.039C50.3207 407.952 50.4081 407.923 50.4664 407.864C51.1654 407.165 51.8644 406.495 52.5343 405.796C52.7382 405.593 53.0295 405.505 53.0878 405.156C53.1169 404.981 53.2043 404.806 53.2043 404.66C53.2043 401.282 53.2043 397.903 53.2043 394.495C53.2043 392.631 53.1751 390.767 53.146 388.903C53.146 388.816 53.1751 388.728 53.1751 388.583C53.5829 388.816 53.9907 388.99 54.3693 389.223C54.748 389.427 55.1266 389.66 55.5053 389.893C56.1752 390.272 56.8159 390.651 57.4859 391.058C58.0975 391.408 58.68 391.757 59.2917 392.107C59.4956 392.223 59.5538 392.369 59.5538 392.544C59.5538 393.33 59.5538 394.088 59.5538 394.874C59.5538 397.437 59.5538 400 59.5538 402.534C59.5538 404.078 59.6121 405.622 59.6412 407.194C59.6412 407.515 59.5538 407.806 59.2917 408.039C58.0975 409.233 56.9033 410.428 55.7383 411.622C55.6509 411.709 55.5926 411.796 55.5344 411.913C55.6509 411.971 55.7383 412.029 55.8548 412.059C56.5538 412.233 57.2528 412.408 57.9519 412.554C58.4179 412.67 58.8839 412.787 59.35 412.874C59.5538 412.903 59.6412 413.02 59.6412 413.224C59.6412 414.068 59.6412 414.913 59.6412 415.758C59.6412 422.486 59.6412 429.214 59.6412 435.972C59.6412 436.175 59.5538 436.292 59.3791 436.379C58.5053 436.874 57.6606 437.399 56.7868 437.894C56.0586 438.331 55.3305 438.768 54.6023 439.175C54.1946 439.408 53.7868 439.641 53.2916 439.904C53.2625 439.496 53.2334 439.146 53.2334 438.768C53.2334 432.039 53.2334 425.34 53.2334 418.612C53.2334 418.525 53.2334 418.437 53.2334 418.35C53.2043 418.088 53.0004 417.971 52.7674 417.913C52.0683 417.767 51.3693 417.622 50.6702 417.476H50.6411C50.1168 417.301 50.1168 417.301 50.1168 417.855C50.1168 418.088 50.1168 418.321 50.1168 418.525C50.3207 425.02 50.146 431.515 50.2042 438.039C50.2042 439.117 50.2334 440.166 50.2625 441.243C50.2625 441.593 50.146 441.797 49.8547 441.972C49.1265 442.379 48.4275 442.816 47.7285 443.224C47.1168 443.574 46.476 443.923 45.8644 444.302C45.3983 444.593 44.9032 444.884 44.4372 445.175C44.2624 445.263 44.0876 445.35 43.8838 445.467C43.8838 445.292 43.8838 445.175 43.8838 445.059C43.8838 431.632 43.8838 418.233 43.8838 404.806C43.8838 404.69 43.8255 404.573 43.7964 404.457C43.7964 397.379 43.7964 390.301 43.7964 383.223C43.8546 383.165 43.9129 383.165 43.942 383.165Z" fill="black"/>
<path d="M69.2528 423.272C69.8354 422.952 70.3596 422.632 70.913 422.34C71.3791 422.078 71.8451 421.787 72.3111 421.554C72.4568 421.466 72.7189 421.466 72.8645 421.554C73.6218 421.933 74.35 422.369 75.0781 422.777C75.8646 423.214 76.651 423.651 77.4374 424.117C77.9034 424.379 78.3986 424.67 78.8646 424.933C78.8937 424.962 78.9228 424.991 78.9811 425.049C78.6607 425.253 78.3694 425.428 78.0782 425.602C77.35 426.01 76.651 426.447 75.9228 426.855C75.4277 427.146 74.9325 427.437 74.4374 427.7C73.5636 428.224 72.6606 428.748 71.7868 429.243C71.4082 429.476 71.0004 429.68 70.5927 429.913C69.8645 430.321 69.1655 430.758 68.4664 431.166C67.4761 431.748 66.4858 432.302 65.4955 432.884C64.8547 433.263 64.2139 433.641 63.544 434.02C63.3693 434.107 63.2236 434.224 63.0489 434.311C62.9906 434.34 62.9324 434.34 62.845 434.37C62.845 434.224 62.845 434.137 62.845 434.02C62.845 427.467 62.845 420.913 62.845 414.36C62.845 411.272 62.7867 408.185 62.7576 405.097C62.7576 405.01 62.7576 404.952 62.7576 404.806C63.1654 405.039 63.544 405.243 63.9227 405.447C64.1848 405.593 64.447 405.767 64.7091 405.913C65.3499 406.292 65.9615 406.641 66.6023 407.02C67.0101 407.253 67.4179 407.486 67.8548 407.719C68.4955 408.097 69.1363 408.447 69.7771 408.826C70.1558 409.059 70.5635 409.262 70.9422 409.466C71.583 409.845 72.2529 410.224 72.8937 410.602C73.6801 411.039 74.4374 411.476 75.2238 411.913C76.0684 412.379 76.884 412.874 77.7287 413.34C78.4568 413.777 79.185 414.214 79.9131 414.622C80.4957 414.942 81.0491 415.263 81.6316 415.583C81.8938 415.729 82.0976 415.729 82.3889 415.554C83.0588 415.117 83.7578 414.738 84.4278 414.33C84.6025 414.214 84.7773 414.097 84.9812 413.981C84.7773 413.835 84.6316 413.719 84.4569 413.631C83.8161 413.282 83.1753 412.932 82.5345 412.554C81.8064 412.146 81.1073 411.709 80.4083 411.301C79.9714 411.068 79.5345 410.835 79.1267 410.602C78.5151 410.253 77.9034 409.874 77.2918 409.525C76.8257 409.262 76.3597 409.029 75.9228 408.767C75.3403 408.418 74.7578 408.068 74.1461 407.748C73.6801 407.486 73.214 407.253 72.7771 406.991C72.0199 406.554 71.2334 406.088 70.4761 405.651C70.0392 405.389 69.6023 405.156 69.1654 404.923C68.379 404.486 67.6217 404.02 66.8353 403.583C65.9324 403.059 65.0295 402.563 64.1266 402.039C63.777 401.835 63.4275 401.631 63.078 401.427C62.8741 401.311 62.7285 401.136 62.7285 400.845C62.7576 398.835 62.7285 396.825 62.7285 394.816C62.7285 394.524 62.6702 394.262 62.6411 393.913C63.1363 394.204 63.6023 394.466 64.0392 394.728C64.9421 395.253 65.8742 395.748 66.7771 396.272C67.5926 396.738 68.4082 397.204 69.2237 397.699C69.9227 398.107 70.6218 398.486 71.3208 398.893C72.1655 399.359 72.981 399.855 73.8257 400.321C74.5247 400.728 75.1946 401.107 75.8937 401.515C76.651 401.952 77.4083 402.418 78.1656 402.855C78.6316 403.117 79.0976 403.35 79.5345 403.612C80.117 403.961 80.6996 404.311 81.3112 404.66C81.6607 404.864 82.0394 405.068 82.418 405.272C83.2044 405.738 84.02 406.204 84.8064 406.67C85.2433 406.932 85.7093 407.165 86.1753 407.427C87.0783 407.923 87.9812 408.447 88.8841 408.971C89.5831 409.379 90.2822 409.758 90.9812 410.165C91.7968 410.631 92.6414 411.127 93.457 411.593C94.156 412 94.8551 412.408 95.5541 412.787C96.2531 413.195 96.9522 413.573 97.6512 413.981C97.6803 414.01 97.7094 414.039 97.7677 414.097C97.3308 414.36 96.923 414.593 96.5153 414.826C95.8454 415.204 95.2046 415.583 94.5347 415.991C94.156 416.195 93.7774 416.428 93.4279 416.631C92.9036 416.952 92.3793 417.272 91.8259 417.593C91.4473 417.826 91.0395 418.03 90.6317 418.263C89.9035 418.699 89.1754 419.107 88.4472 419.544C87.6025 420.039 86.7288 420.564 85.8841 421.059C85.3015 421.408 84.719 421.729 84.1074 422.049C83.4957 422.399 82.8841 422.777 82.3015 423.156C82.0976 423.272 81.9229 423.243 81.7481 423.156C81.253 422.865 80.7578 422.573 80.2627 422.282C79.3306 421.729 78.3694 421.175 77.4374 420.651C76.7966 420.301 76.1849 419.952 75.5442 419.602C74.7869 419.165 74.0296 418.699 73.2723 418.263C72.8937 418.03 72.4859 417.826 72.0781 417.593C71.3499 417.156 70.6218 416.719 69.8645 416.311C69.6315 416.165 69.3985 416.049 69.1072 415.932C69.1072 416.777 69.1072 417.593 69.1072 418.408C69.1072 419.224 69.1072 420.039 69.1072 420.855C69.1946 421.583 69.1072 422.399 69.2528 423.272Z" fill="#4866CF"/>
<path d="M49.7091 448.845C49.8257 448.845 49.913 448.845 49.9713 448.845C50.7577 448.787 51.4568 449.428 51.4859 450.214C51.515 450.913 51.2529 451.467 50.7577 451.962C50.0296 452.661 49.1849 453.127 48.282 453.535C48.2237 453.564 48.1654 453.564 48.1072 453.564C47.4082 451.642 46.68 449.719 45.981 447.768C46.8548 447.156 47.6412 446.399 48.8062 446.311C49.8839 446.224 50.5538 447.36 50.0296 448.321C49.9422 448.496 49.8257 448.642 49.7091 448.845ZM48.8936 452.049C49.3888 451.816 49.7965 451.583 50.0587 451.146C50.2626 450.826 50.2334 450.418 50.0004 450.127C49.7674 449.836 49.5053 449.748 49.0975 449.894C48.981 449.923 48.8645 449.981 48.7771 450.04C48.2528 450.302 48.2528 450.302 48.4567 450.855C48.6023 451.234 48.748 451.612 48.8936 452.049ZM47.9616 449.399C48.3693 449.166 48.7771 448.962 49.0101 448.554C49.1849 448.263 49.1849 447.972 48.981 447.71C48.8062 447.447 48.5441 447.36 48.282 447.477C48.0198 447.564 47.7868 447.739 47.5538 447.884C47.4955 447.913 47.4664 448.03 47.4955 448.088C47.612 448.525 47.7868 448.933 47.9616 449.399Z" fill="black"/>
<path d="M59.4373 446.923C59.0878 447.127 58.7383 447.331 58.3596 447.564C58.2722 447.36 58.214 447.185 58.1266 447.01C57.515 445.321 56.8742 443.632 56.2625 441.942C56.2042 441.768 56.2334 441.651 56.379 441.535C56.9615 441.069 57.5732 440.603 58.3305 440.37C59.7868 439.874 60.6606 440.952 60.7189 442.088C60.748 443.02 60.2528 443.69 59.5538 444.214C59.3208 444.389 59.0878 444.535 58.8256 444.651C58.68 444.739 58.6509 444.826 58.7091 444.942C58.9422 445.612 59.2043 446.253 59.4373 446.923ZM58.2722 443.748C58.68 443.603 59.0004 443.428 59.2334 443.107C59.4373 442.845 59.4955 442.554 59.4664 442.234C59.4082 441.709 58.9713 441.302 58.5344 441.418C58.2431 441.506 57.9518 441.709 57.6897 441.855C57.6606 441.884 57.6315 442.001 57.6315 442.059C57.8353 442.612 58.0684 443.166 58.2722 443.748Z" fill="black"/>
<path d="M98.2631 423.68C97.9135 423.884 97.5931 424.088 97.2436 424.292C97.098 424.03 96.9815 423.797 96.865 423.535C96.8359 423.535 96.8359 423.535 96.8067 423.535C96.7776 423.709 96.7485 423.913 96.7193 424.088C96.6028 424.729 96.1077 425.224 95.496 425.311C94.9426 425.399 94.3892 425.078 94.0397 424.496C93.0494 422.806 93.6028 420.942 95.3504 420.01C95.6708 419.835 95.9912 419.719 96.3407 419.602C96.5155 419.544 96.6028 419.544 96.6611 419.748C97.0397 420.797 97.4475 421.874 97.8844 422.923C97.9718 423.185 98.1174 423.418 98.2631 423.68ZM96.3698 423.068C96.3407 422.486 96.0786 421.962 95.9038 421.437C95.8456 421.292 95.729 421.059 95.6708 421.059C95.496 421.088 95.3504 421.204 95.2048 421.292C95.1465 421.321 95.1174 421.408 95.0591 421.467C94.7096 421.933 94.7096 422.457 94.8261 422.952C94.8844 423.272 95.0591 423.593 95.263 423.855C95.5252 424.204 95.9621 424.146 96.1659 423.738C96.2824 423.535 96.3116 423.301 96.3698 423.068Z" fill="black"/>
<path d="M86.8454 425.457C87.3697 425.457 87.8066 425.661 88.127 426.039C88.9134 426.942 89.1464 428.457 88.3309 429.535C87.9231 430.059 87.428 430.408 86.758 430.525C86.059 430.67 85.36 430.321 84.9231 429.622C84.1658 428.428 84.3405 426.913 85.36 426.068C85.7969 425.719 86.2629 425.457 86.8454 425.457ZM85.7095 427.67C85.7386 428.224 85.8842 428.719 86.2338 429.127C86.6707 429.593 87.3406 429.447 87.5445 428.835C87.7483 428.224 87.4279 427.146 86.9328 426.738C86.6998 426.564 86.4668 426.505 86.2046 426.651C85.7969 426.855 85.7095 427.234 85.7095 427.67Z" fill="black"/>
<path d="M64.5054 439.962C64.5054 438.855 65.1753 437.894 66.1947 437.486C66.9229 437.224 67.7093 437.399 68.2044 438.01C69.0782 439.117 69.1947 440.865 67.9132 441.884C67.3598 442.35 66.719 442.583 65.9908 442.379C65.5831 442.263 65.2918 442.001 65.0588 441.68C64.6801 441.156 64.5054 440.573 64.5054 439.962ZM65.7287 439.554C65.7578 440.107 65.9035 440.632 66.2821 441.04C66.719 441.506 67.418 441.36 67.5637 440.719C67.7384 439.962 67.5345 439.263 67.0103 438.68C66.719 438.36 66.3112 438.389 65.9908 438.709C65.7578 438.942 65.6996 439.234 65.7287 439.554Z" fill="black"/>
<path d="M93.7192 426.418C93.3405 426.651 92.991 426.855 92.6123 427.088C92.4376 426.622 92.292 426.185 92.1172 425.748C91.9424 425.253 91.7386 424.787 91.5347 424.321C91.4473 424.117 91.3017 423.884 91.0395 423.913C90.7483 423.942 90.5735 424.146 90.4861 424.408C90.3113 424.874 90.3987 425.369 90.5444 425.806C90.7483 426.418 90.9813 427.03 91.2143 427.641C91.2725 427.816 91.2434 427.903 91.0978 427.991C90.8065 428.166 90.5152 428.34 90.1948 428.515C89.8453 427.554 89.4958 426.593 89.1463 425.661C89.0007 425.253 88.8259 424.816 88.6511 424.408C88.5929 424.263 88.5929 424.204 88.7385 424.117C89.0007 423.971 89.2628 423.797 89.5541 423.622C89.6706 423.855 89.758 424.059 89.8745 424.292C89.9618 424.001 90.0201 423.738 90.1075 423.534C90.3114 423.068 90.69 422.748 91.156 422.573C91.5929 422.428 92.0881 422.602 92.3502 423.068C92.5832 423.476 92.758 423.884 92.9327 424.321C93.1949 424.991 93.457 425.69 93.7192 426.418Z" fill="black"/>
<path d="M55.4179 448.03C55.5344 448.175 55.6217 448.321 55.7382 448.467C55.9712 448.787 56.0004 448.787 55.7091 449.108C55.3013 449.574 54.8062 449.923 54.2237 450.156C53.5537 450.418 52.8256 450.273 52.3596 449.748C51.4858 448.787 51.3693 447.243 52.0974 446.224C52.4761 445.7 53.0003 445.35 53.6703 445.263C54.1945 445.205 54.5732 445.408 54.8644 445.816C55.1557 446.253 55.1848 446.719 54.9227 447.185C54.6314 447.709 54.1363 448.059 53.6411 448.409C53.5246 448.496 53.4081 448.554 53.2625 448.642C53.146 448.7 53.146 448.787 53.2334 448.875C53.4664 449.137 53.8159 449.224 54.1654 449.078C54.5732 448.875 54.8644 448.642 55.4179 448.03ZM52.7382 447.797C53.146 447.593 53.4955 447.36 53.7576 447.01C53.9324 446.807 53.9033 446.574 53.7576 446.428C53.612 446.282 53.4081 446.253 53.1751 446.399C52.7382 446.632 52.5634 447.185 52.7382 447.797Z" fill="black"/>
<path d="M75.457 435.942C75.6317 436.175 75.7774 436.379 75.923 436.583C75.9521 436.612 75.9521 436.729 75.923 436.758C75.3987 437.457 74.7579 437.981 73.8842 438.156C73.2142 438.302 72.6608 438.039 72.2531 437.486C71.4958 436.496 71.4375 435.098 72.1366 434.137C72.5152 433.612 73.0395 433.234 73.7385 433.175C74.2337 433.117 74.6414 433.321 74.9036 433.758C75.1948 434.195 75.1949 434.661 74.9327 435.098C74.6123 435.651 74.088 436.001 73.5638 436.35C73.5346 436.379 73.5055 436.379 73.4764 436.408C73.389 436.496 73.2725 436.583 73.1851 436.671C73.3308 436.787 73.4764 436.962 73.622 436.991C73.855 437.02 74.1172 436.991 74.3502 436.904C74.8162 436.7 75.1657 436.379 75.457 435.942ZM72.8356 435.738C73.0104 435.622 73.1851 435.564 73.3308 435.418C73.5346 435.243 73.7385 435.069 73.9133 434.865C74.0298 434.719 74.0298 434.515 73.8842 434.37C73.7676 434.224 73.5929 434.195 73.4181 434.253C72.8356 434.486 72.5735 435.127 72.8356 435.738Z" fill="black"/>
<path d="M70.389 433.845C69.5443 434.136 69.5735 434.632 69.7773 435.243C69.8065 435.389 69.8938 435.389 70.0104 435.331C70.2142 435.214 70.389 435.098 70.622 434.981C70.7385 435.302 70.855 435.593 70.9715 435.913C70.7676 436.03 70.5638 436.175 70.3599 436.263C70.2434 436.321 70.2142 436.408 70.2434 436.554C70.622 437.544 70.9715 438.535 71.3502 439.525C71.4084 439.7 71.4084 439.787 71.2337 439.874C70.9424 440.049 70.6511 440.224 70.3307 440.399C69.923 439.292 69.5152 438.185 69.0783 437.02C68.9035 437.107 68.7288 437.195 68.554 437.282C68.4375 436.962 68.321 436.671 68.2336 436.408C68.4084 436.292 68.6414 436.204 68.6705 436.059C68.7288 435.913 68.5832 435.709 68.5249 435.535C68.2045 434.311 68.6997 433.35 69.8356 432.942C70.0104 432.884 70.0686 432.913 70.1269 433.088C70.2142 433.35 70.3016 433.583 70.389 433.845Z" fill="black"/>
<path d="M79.7093 433.496C80.0588 433.35 80.3792 433.234 80.6996 433.117C80.787 433.088 80.9035 433.001 80.9326 432.913C80.9909 432.768 81.0491 432.593 81.02 432.476C80.9618 432.36 80.8161 432.243 80.6705 432.214C80.4957 432.156 80.2919 432.214 80.1171 432.214C79.6219 432.214 79.1851 432.098 78.952 431.544C78.719 430.962 78.8355 430.437 79.185 429.942C79.5346 429.447 80.0297 429.156 80.5831 428.952C80.7579 428.894 80.8453 428.952 80.8744 429.156C80.9035 429.389 80.9618 429.593 80.9909 429.797C80.7288 429.913 80.4666 430.03 80.2336 430.146C79.9715 430.292 79.855 430.554 79.9132 430.729C79.9715 430.933 80.1462 431.02 80.4666 431.02C80.787 431.02 81.1074 430.991 81.3987 431.049C82.0686 431.224 82.389 432.127 82.0686 432.884C81.7773 433.525 81.2822 433.904 80.6996 434.166C80.4957 434.253 80.2918 434.282 80.088 434.34C79.9715 434.37 79.8841 434.311 79.8841 434.166C79.7967 433.962 79.7384 433.7 79.7093 433.496Z" fill="black"/>
<path d="M77.8162 431.748C77.5249 431.865 77.2337 431.981 76.9715 432.098C76.855 432.156 76.7385 432.302 76.6511 432.418C76.5346 432.622 76.5929 432.826 76.8259 432.913C77.0007 432.971 77.2045 432.971 77.4084 432.971C77.6997 433.001 78.0201 432.942 78.3113 433.03C79.0395 433.234 79.3599 434.107 79.0395 434.806C78.7191 435.476 78.1657 435.855 77.5249 436.117C77.321 436.205 77.088 436.234 76.8841 436.292C76.7094 436.321 76.622 436.263 76.5929 436.088C76.5637 435.855 76.5055 435.622 76.4764 435.389C76.7385 435.331 77.0298 435.272 77.2628 435.185C77.4667 435.127 77.6414 435.01 77.8162 434.865C77.9618 434.748 78.0492 434.573 77.9618 434.399C77.8744 434.224 77.7288 434.137 77.5541 434.107C77.2919 434.107 77.0589 434.107 76.7968 434.107C75.6608 434.107 75.2531 433.059 75.6317 432.272C76.0103 431.486 76.6802 431.107 77.4667 430.845C77.6414 430.787 77.7288 430.874 77.7579 431.049C77.7288 431.311 77.7871 431.544 77.8162 431.748Z" fill="black"/>
<path d="M98.0007 416.165C98.1755 416.661 98.3502 417.156 98.5541 417.651C99.1075 419.195 99.6609 420.709 100.243 422.253C100.302 422.428 100.273 422.515 100.127 422.632C99.8357 422.806 99.5444 422.981 99.224 423.156C99.0202 422.602 98.8163 422.078 98.6415 421.554C98.0881 420.068 97.5638 418.583 97.0104 417.098C96.9522 416.923 96.9522 416.835 97.1269 416.748C97.3891 416.544 97.6512 416.34 98.0007 416.165Z" fill="black"/>
<path d="M61.1558 440.632C61.447 440.457 61.7383 440.282 62.0587 440.078C62.2043 440.34 62.3208 440.603 62.4665 440.865C62.4956 440.865 62.5247 440.865 62.5247 440.865C62.5247 440.137 62.6704 439.496 63.4276 439.146C63.5733 439.554 63.7189 439.933 63.8354 440.311C63.8354 440.34 63.8063 440.34 63.8063 440.37C62.9907 440.807 62.9616 441.564 63.1946 442.379C63.3694 442.933 63.6024 443.486 63.8063 444.04C63.8645 444.185 63.8645 444.273 63.6898 444.36C63.3985 444.535 63.0781 444.709 62.7869 444.884C62.2626 443.486 61.7092 442.059 61.1558 440.632Z" fill="black"/>
<path d="M83.6124 432.476C83.0881 431.02 82.5638 429.593 82.0396 428.166C82.4182 427.933 82.7677 427.729 83.1464 427.496C83.3794 428.078 83.5833 428.632 83.7871 429.214C84.0784 430.001 84.3697 430.816 84.6609 431.603C84.7192 431.777 84.6901 431.865 84.5153 431.952C84.224 432.127 83.9328 432.302 83.6124 432.476Z" fill="black"/>
<path d="M82.7969 426.564C82.7969 426.942 82.4182 427.292 82.0687 427.292C81.7192 427.292 81.457 426.971 81.457 426.564C81.457 426.156 81.8065 425.835 82.1852 425.835C82.5347 425.865 82.7969 426.185 82.7969 426.564Z" fill="black"/>
<path d="M123.687 408.88C123.303 405.776 123.047 403.2 122.919 401.152C122.791 399.072 122.727 396.576 122.727 393.664V387.088H129.063V393.664C129.063 396.608 128.983 399.12 128.823 401.2C128.695 403.248 128.439 405.808 128.055 408.88H123.687ZM125.799 418.384C124.615 418.384 123.719 418.112 123.111 417.568C122.535 416.992 122.247 416.08 122.247 414.832C122.247 413.616 122.535 412.752 123.111 412.24C123.687 411.728 124.583 411.472 125.799 411.472C127.015 411.472 127.911 411.728 128.487 412.24C129.095 412.752 129.399 413.616 129.399 414.832C129.399 416.08 129.095 416.992 128.487 417.568C127.911 418.112 127.015 418.384 125.799 418.384ZM137.281 408.88C136.897 405.776 136.641 403.2 136.513 401.152C136.385 399.072 136.321 396.576 136.321 393.664V387.088H142.657V393.664C142.657 396.608 142.577 399.12 142.417 401.2C142.289 403.248 142.033 405.808 141.649 408.88H137.281ZM139.393 418.384C138.209 418.384 137.313 418.112 136.705 417.568C136.129 416.992 135.841 416.08 135.841 414.832C135.841 413.616 136.129 412.752 136.705 412.24C137.281 411.728 138.177 411.472 139.393 411.472C140.609 411.472 141.505 411.728 142.081 412.24C142.689 412.752 142.993 413.616 142.993 414.832C142.993 416.08 142.689 416.992 142.081 417.568C141.505 418.112 140.609 418.384 139.393 418.384ZM150.875 408.88C150.491 405.776 150.235 403.2 150.107 401.152C149.979 399.072 149.915 396.576 149.915 393.664V387.088H156.251V393.664C156.251 396.608 156.171 399.12 156.011 401.2C155.883 403.248 155.627 405.808 155.243 408.88H150.875ZM152.987 418.384C151.803 418.384 150.907 418.112 150.299 417.568C149.723 416.992 149.435 416.08 149.435 414.832C149.435 413.616 149.723 412.752 150.299 412.24C150.875 411.728 151.771 411.472 152.987 411.472C154.203 411.472 155.099 411.728 155.675 412.24C156.283 412.752 156.587 413.616 156.587 414.832C156.587 416.08 156.283 416.992 155.675 417.568C155.099 418.112 154.203 418.384 152.987 418.384ZM195.381 418C192.597 418 190.757 417.232 189.861 415.696C188.645 417.232 186.421 418 183.189 418C180.117 418 177.781 417.28 176.181 415.84C174.613 414.368 173.829 412.304 173.829 409.648V407.248C173.829 405.776 174.117 404.64 174.693 403.84H173.109C171.797 403.84 170.805 404.192 170.133 404.896C169.461 405.568 169.125 406.544 169.125 407.824V429.424H163.029V407.824C163.029 404.72 163.957 402.256 165.812 400.432C167.669 398.608 170.181 397.696 173.349 397.696H183.717C186.789 397.696 189.077 398.448 190.581 399.952C192.085 401.424 192.837 403.584 192.837 406.432V408.928C192.837 409.792 193.045 410.464 193.461 410.944C193.877 411.392 194.485 411.616 195.285 411.616H196.821C197.141 411.616 197.301 412.72 197.301 414.928C197.301 416.976 197.141 418 196.821 418H195.381ZM183.429 411.664C184.517 411.664 185.349 411.456 185.925 411.04C186.501 410.592 186.789 409.84 186.789 408.784V406.912C186.789 405.92 186.517 405.152 185.973 404.608C185.429 404.064 184.661 403.792 183.669 403.792H182.805C181.845 403.792 181.109 404.08 180.597 404.656C180.117 405.232 179.877 405.984 179.877 406.912V408.544C179.877 409.728 180.149 410.544 180.693 410.992C181.237 411.44 182.149 411.664 183.429 411.664ZM202.412 411.616C203.212 411.616 203.852 411.408 204.332 410.992C204.844 410.544 205.1 409.936 205.1 409.168V401.488H211.196V408.976C211.196 410.736 212.092 411.616 213.884 411.616H215.708C216.028 411.616 216.188 412.688 216.188 414.832C216.188 416.944 216.028 418 215.708 418H213.596C210.908 418 209.084 417.232 208.124 415.696C207.548 416.496 206.78 417.088 205.82 417.472C204.892 417.824 203.756 418 202.412 418H196.844C196.524 418 196.364 416.976 196.364 414.928C196.364 412.72 196.524 411.616 196.844 411.616H202.412ZM206.924 422.992V428.464H193.388V422.992H206.924ZM220.92 411.616C220.376 411.04 219.944 410.288 219.624 409.36C219.336 408.432 219.192 407.504 219.192 406.576C219.192 404.816 219.608 403.2 220.44 401.728C221.304 400.256 222.472 399.088 223.944 398.224C225.416 397.36 227.048 396.928 228.84 396.928C230.76 396.928 232.44 397.328 233.88 398.128C235.352 398.896 236.488 400 237.288 401.44C238.12 402.88 238.536 404.512 238.536 406.336C238.536 408.448 237.864 410.208 236.52 411.616H242.04C242.36 411.616 242.52 412.72 242.52 414.928C242.52 416.976 242.36 418 242.04 418H235.512C233.688 418 232.264 417.936 231.24 417.808C230.216 417.648 229.416 417.392 228.84 417.04C228.264 417.392 227.432 417.648 226.344 417.808C225.288 417.936 223.912 418 222.216 418H215.688C215.367 418 215.207 416.976 215.207 414.928C215.207 412.72 215.367 411.616 215.688 411.616H220.92ZM228.84 403.024C227.752 403.024 226.872 403.376 226.2 404.08C225.56 404.752 225.24 405.6 225.24 406.624C225.24 407.616 225.56 408.56 226.2 409.456C226.84 410.32 227.72 411.04 228.84 411.616C230.024 411.072 230.92 410.352 231.528 409.456C232.136 408.528 232.44 407.584 232.44 406.624C232.44 405.504 232.12 404.624 231.48 403.984C230.84 403.344 229.96 403.024 228.84 403.024ZM225.576 392.128V386.656H232.104V392.128H225.576ZM245.727 411.616C246.815 411.616 247.631 411.36 248.175 410.848C248.751 410.336 249.039 409.632 249.039 408.736V401.488H255.135V408.736C255.135 410.656 256.239 411.616 258.447 411.616C259.535 411.616 260.351 411.36 260.895 410.848C261.471 410.336 261.759 409.632 261.759 408.736V401.488H267.855V408.736C267.855 410.656 268.879 411.616 270.927 411.616C272.975 411.616 273.999 410.656 273.999 408.736V401.488H280.095V408.784C280.095 411.696 279.279 413.968 277.647 415.6C276.047 417.2 273.807 418 270.927 418C269.231 418 267.871 417.792 266.847 417.376C265.823 416.928 265.055 416.288 264.543 415.456C263.935 416.288 263.135 416.928 262.143 417.376C261.183 417.792 259.951 418 258.447 418C256.687 418 255.279 417.792 254.223 417.376C253.167 416.928 252.383 416.288 251.871 415.456C250.623 417.152 248.575 418 245.727 418H242.031C241.711 418 241.551 416.976 241.551 414.928C241.551 412.72 241.711 411.616 242.031 411.616H245.727ZM296.912 411.616C297.072 411.616 297.184 411.824 297.248 412.24C297.344 412.656 297.392 413.552 297.392 414.928C297.392 416.208 297.344 417.04 297.248 417.424C297.184 417.808 297.072 418 296.912 418H295.184C292.496 418 290.448 417.232 289.04 415.696C287.664 414.128 286.976 411.904 286.976 409.024V387.088H293.12V408.592C293.12 409.616 293.312 410.384 293.696 410.896C294.112 411.376 294.752 411.616 295.616 411.616H296.912ZM302.49 411.616C303.29 411.616 303.93 411.408 304.41 410.992C304.922 410.544 305.178 409.936 305.178 409.168V401.488H311.274V408.976C311.274 410.736 312.17 411.616 313.962 411.616H315.786C316.106 411.616 316.266 412.688 316.266 414.832C316.266 416.944 316.106 418 315.786 418H313.674C310.986 418 309.162 417.232 308.202 415.696C307.626 416.496 306.858 417.088 305.898 417.472C304.97 417.824 303.834 418 302.49 418H296.922C296.602 418 296.442 416.976 296.442 414.928C296.442 412.72 296.602 411.616 296.922 411.616H302.49ZM311.514 391.024V396.496H297.978V391.024H311.514ZM317.014 411.616C317.91 411.616 318.534 411.44 318.886 411.088C319.27 410.736 319.462 410.16 319.462 409.36V408.016C319.462 404.912 320.342 402.464 322.102 400.672C323.894 398.848 326.31 397.936 329.35 397.936C332.39 397.936 334.71 398.816 336.31 400.576C337.942 402.304 338.758 404.8 338.758 408.064C338.758 411.2 337.91 413.648 336.214 415.408C334.518 417.136 332.15 418 329.11 418C327.51 418 326.182 417.808 325.126 417.424C324.07 417.008 323.286 416.432 322.774 415.696C322.166 416.496 321.398 417.088 320.47 417.472C319.574 417.824 318.422 418 317.014 418H315.766C315.446 418 315.286 416.976 315.286 414.928C315.286 412.72 315.446 411.616 315.766 411.616H317.014ZM332.71 408.064C332.71 405.376 331.51 404.032 329.11 404.032C326.71 404.032 325.51 405.376 325.51 408.064C325.51 409.216 325.798 410.112 326.374 410.752C326.982 411.36 327.894 411.664 329.11 411.664C330.326 411.664 331.222 411.376 331.798 410.8C332.406 410.192 332.71 409.28 332.71 408.064Z" fill="white"/>
<path d="M127.218 464C126.678 464 126.408 463.76 126.408 463.1C126.408 462.47 126.678 462.245 127.218 462.245C127.773 462.245 128.043 462.47 128.043 463.1C128.043 463.76 127.773 464 127.218 464ZM133.646 462.71C134.351 462.71 134.816 462.365 134.816 461.9C134.816 461.465 134.531 460.715 133.151 456.995L134.306 456.47L136.061 461.45C136.376 462.35 136.706 462.71 137.426 462.71H137.741C137.816 462.71 137.891 462.785 137.891 463.37C137.891 463.985 137.816 464 137.741 464H137.381C136.481 464 135.881 463.715 135.536 463.055C135.161 463.715 134.561 464 133.646 464H130.136L130.016 462.71H133.646ZM141.962 457.37H140.372V456.125H141.962V457.37ZM139.547 462.71C140.312 462.71 140.822 462.29 140.822 461.6V459.17H142.067V461.57C142.067 462.32 142.487 462.71 143.267 462.71H143.687C143.747 462.71 143.837 462.77 143.837 463.355C143.837 463.955 143.747 464 143.687 464H143.222C142.337 464 141.707 463.715 141.422 463.115C141.062 463.715 140.402 464 139.547 464H137.747C137.687 464 137.597 463.955 137.597 463.37C137.597 462.77 137.687 462.71 137.747 462.71H139.547ZM144.369 457.37V456.185H148.329V457.37H144.369ZM149.634 462.71C149.694 462.71 149.784 462.77 149.784 463.355C149.784 463.955 149.694 464 149.634 464H149.169C148.284 464 147.654 463.715 147.369 463.115C147.009 463.715 146.349 464 145.494 464H143.694C143.634 464 143.544 463.955 143.544 463.37C143.544 462.77 143.634 462.71 143.694 462.71H145.494C146.259 462.71 146.769 462.29 146.769 461.6V459.17H148.014V461.57C148.014 462.32 148.434 462.71 149.214 462.71H149.634ZM150.811 462.71C151.711 462.71 152.206 462.245 152.206 461.525V459.17H153.466V461.525C153.466 462.275 153.886 462.71 154.801 462.71C155.701 462.71 156.196 462.245 156.196 461.525V459.17H157.441V461.525C157.441 462.275 157.876 462.71 158.716 462.71C159.556 462.71 160.006 462.245 160.006 461.525V459.17H161.251V461.525C161.251 462.32 161.671 462.71 162.436 462.71H162.871C162.946 462.71 163.036 462.77 163.036 463.37C163.036 463.955 162.946 464 162.871 464H162.436C161.491 464 160.861 463.715 160.576 463.115C160.216 463.715 159.586 464 158.716 464C157.681 464 157.051 463.67 156.766 463.07C156.406 463.67 155.746 464 154.801 464C153.691 464 153.061 463.67 152.776 463.07C152.416 463.67 151.756 464 150.811 464H149.641C149.581 464 149.491 463.955 149.491 463.37C149.491 462.77 149.581 462.71 149.641 462.71H150.811ZM165.238 462.71C164.608 462.275 164.188 461.45 164.188 460.67C164.188 459.035 165.433 457.82 167.098 457.82C168.658 457.82 169.858 459.005 169.858 460.55C169.858 461.42 169.408 462.215 168.613 462.71H170.833C171.718 462.71 172.168 462.335 172.168 461.765C172.168 461.405 172.033 461.045 171.508 460.505L168.463 457.31L169.363 456.395L172.468 459.71C173.143 460.43 173.413 461.105 173.413 461.78C173.413 463.115 172.453 464 170.833 464H169.138C167.863 464 167.383 463.955 167.008 463.76C166.633 463.955 166.033 464 164.818 464H162.883C162.823 464 162.733 463.955 162.733 463.37C162.733 462.77 162.823 462.71 162.883 462.71H165.238ZM166.948 462.68C168.058 462.215 168.658 461.495 168.658 460.67C168.658 459.725 167.983 459.08 167.023 459.08C166.063 459.08 165.388 459.725 165.388 460.67C165.388 461.525 165.928 462.215 166.948 462.68ZM182.511 463.565C182.511 466.1 180.906 467.66 178.581 467.66H178.161L178.041 466.37H178.551C180.246 466.37 181.266 465.335 181.266 463.565V459.17H182.511V463.565ZM187.778 462.71C187.853 462.71 187.928 462.77 187.928 463.37C187.928 463.955 187.853 464 187.778 464H187.388C185.843 464 185.063 463.025 185.063 461.375V454.295H186.308V461.315C186.308 462.245 186.683 462.71 187.448 462.71H187.778ZM191.941 462.71C192.811 462.71 193.321 462.335 193.321 461.765C193.321 461.36 193.141 461 192.706 460.55L189.181 457.055V455.975L194.656 453.8L195.031 455L190.651 456.725L193.651 459.74C194.311 460.4 194.566 461.105 194.566 461.78C194.566 463.07 193.651 464 191.941 464H187.786C187.726 464 187.636 463.955 187.636 463.37C187.636 462.77 187.726 462.71 187.786 462.71H191.941ZM204.708 467.66C202.173 467.66 200.778 466.115 200.778 463.505V460.67H202.023V463.475C202.023 465.365 202.953 466.37 204.738 466.37H205.368C207.078 466.37 208.203 465.305 208.203 463.595V454.295H209.448V463.475C209.448 466.1 207.753 467.66 205.368 467.66H204.708ZM219.123 462.71C219.198 462.71 219.273 462.77 219.273 463.37C219.273 463.955 219.198 464 219.123 464H217.683C217.503 466.295 216.033 467.66 213.813 467.66H211.968L211.848 466.37H213.828C215.433 466.37 216.453 465.455 216.468 464H214.968C212.883 464 212.058 463.16 212.058 461.375C212.058 459.485 213.228 458.195 214.908 458.195C216.648 458.195 217.713 459.44 217.713 461.45V462.71H219.123ZM213.303 461.3C213.303 462.32 213.738 462.71 215.043 462.71H216.468V461.54C216.468 460.16 215.898 459.455 214.833 459.455C213.903 459.455 213.303 460.205 213.303 461.3ZM224.564 456.11H222.974V454.865H224.564V456.11ZM220.094 462.71C221.339 462.71 221.969 462.605 222.404 462.38L220.379 459.455L221.069 458.195H224.909C226.004 458.195 226.874 458.69 226.874 459.77C226.874 460.535 226.514 461.135 224.939 462.47C225.239 462.65 225.644 462.71 226.664 462.71H228.134C228.209 462.71 228.284 462.77 228.284 463.37C228.284 463.955 228.209 464 228.134 464H226.664C224.744 464 224.144 463.82 223.544 463.235C222.629 463.82 221.669 464 220.049 464H219.119C219.059 464 218.969 463.955 218.969 463.37C218.969 462.77 219.059 462.71 219.119 462.71H220.094ZM225.674 460.025C225.674 459.62 225.329 459.395 224.729 459.395H221.759L223.679 462.2C225.314 460.85 225.674 460.415 225.674 460.025ZM235.957 454.13V455.315H234.592V454.13H235.957ZM233.287 457.37V456.185H237.247V457.37H233.287ZM241.357 462.71C241.432 462.71 241.522 462.77 241.522 463.37C241.522 463.955 241.432 464 241.357 464H240.922C239.977 464 239.347 463.715 239.062 463.115C238.702 463.715 238.072 464 237.202 464C236.167 464 235.537 463.67 235.252 463.07C234.892 463.67 234.232 464 233.287 464C232.177 464 231.547 463.67 231.262 463.07C230.902 463.67 230.242 464 229.297 464H228.127C228.067 464 227.977 463.955 227.977 463.37C227.977 462.77 228.067 462.71 228.127 462.71H229.297C230.197 462.71 230.692 462.245 230.692 461.525V459.17H231.952V461.525C231.952 462.275 232.372 462.71 233.287 462.71C234.187 462.71 234.682 462.245 234.682 461.525V459.17H235.927V461.525C235.927 462.275 236.362 462.71 237.202 462.71C238.042 462.71 238.492 462.245 238.492 461.525V459.17H239.737V461.525C239.737 462.32 240.157 462.71 240.922 462.71H241.357ZM241.715 462.71C242.435 462.71 242.78 462.395 242.78 461.75V461.135C242.78 459.215 243.86 458.045 245.645 458.045C247.43 458.045 248.42 459.11 248.42 461.075C248.42 462.935 247.355 464 245.6 464C244.55 464 243.845 463.67 243.5 463.07C243.17 463.715 242.645 464 241.715 464H241.37C241.31 464 241.22 463.955 241.22 463.37C241.22 462.77 241.31 462.71 241.37 462.71H241.715ZM247.175 461.075C247.175 459.905 246.665 459.305 245.6 459.305C244.535 459.305 244.025 459.905 244.025 461.135C244.025 462.11 244.595 462.71 245.6 462.71C246.635 462.71 247.175 462.185 247.175 461.075ZM259.221 458.72H257.631V457.475H259.221V458.72ZM258.321 467.66C255.786 467.66 254.391 466.115 254.391 463.505V460.67H255.636V463.475C255.636 465.365 256.566 466.37 258.351 466.37H258.981C260.691 466.37 261.816 465.305 261.816 463.595V459.17H263.061V463.475C263.061 466.1 261.366 467.66 258.981 467.66H258.321ZM268.33 462.71C268.405 462.71 268.48 462.77 268.48 463.37C268.48 463.955 268.405 464 268.33 464H267.94C266.395 464 265.615 463.025 265.615 461.375V454.295H266.86V461.315C266.86 462.245 267.235 462.71 268 462.71H268.33ZM269.507 462.71C270.407 462.71 270.902 462.245 270.902 461.525V459.17H272.162V461.525C272.162 462.275 272.582 462.71 273.497 462.71C274.397 462.71 274.892 462.245 274.892 461.525V459.17H276.137V461.525C276.137 462.275 276.572 462.71 277.412 462.71C278.252 462.71 278.702 462.245 278.702 461.525V459.17H279.947V461.525C279.947 462.32 280.367 462.71 281.132 462.71H281.567C281.642 462.71 281.732 462.77 281.732 463.37C281.732 463.955 281.642 464 281.567 464H281.132C280.187 464 279.557 463.715 279.272 463.115C278.912 463.715 278.282 464 277.412 464C276.377 464 275.747 463.67 275.462 463.07C275.102 463.67 274.442 464 273.497 464C272.387 464 271.757 463.67 271.472 463.07C271.112 463.67 270.452 464 269.507 464H268.337C268.277 464 268.187 463.955 268.187 463.37C268.187 462.77 268.277 462.71 268.337 462.71H269.507ZM284.355 459.17H285.6V461.615C285.6 463.115 284.61 464 283.14 464H281.58C281.52 464 281.43 463.955 281.43 463.37C281.43 462.77 281.52 462.71 281.58 462.71H283.14C283.845 462.71 284.355 462.32 284.355 461.6V459.17ZM284.76 465.89V467.09H280.8V465.89H284.76ZM295.119 462.71C295.194 462.71 295.269 462.77 295.269 463.37C295.269 463.955 295.194 464 295.119 464H293.679C293.499 466.295 292.029 467.66 289.809 467.66H287.964L287.844 466.37H289.824C291.429 466.37 292.449 465.455 292.464 464H290.964C288.879 464 288.054 463.16 288.054 461.375C288.054 459.485 289.224 458.195 290.904 458.195C292.644 458.195 293.709 459.44 293.709 461.45V462.71H295.119ZM289.299 461.3C289.299 462.32 289.734 462.71 291.039 462.71H292.464V461.54C292.464 460.16 291.894 459.455 290.829 459.455C289.899 459.455 289.299 460.205 289.299 461.3ZM298.445 457.37H296.855V456.125H298.445V457.37ZM299.135 461.615C299.135 463.115 298.145 464 296.675 464H295.115C295.055 464 294.965 463.955 294.965 463.37C294.965 462.77 295.055 462.71 295.115 462.71H296.675C297.38 462.71 297.89 462.32 297.89 461.6V459.17H299.135V461.615ZM310.789 461.21C310.789 462.29 311.179 462.71 311.884 462.71H312.244C312.319 462.71 312.394 462.77 312.394 463.37C312.394 463.955 312.319 464 312.244 464H311.884C310.834 464 310.114 463.58 309.874 462.575C309.424 463.055 308.554 463.265 307.729 463.265C306.049 463.265 305.104 462.35 305.104 460.55C305.104 458.87 306.274 457.49 308.029 457.49H309.544V456.455H310.789V461.21ZM306.349 460.52C306.349 461.48 306.814 461.975 307.804 461.975C308.869 461.975 309.544 461.555 309.544 460.895V458.75H308.029C306.994 458.75 306.349 459.38 306.349 460.52ZM312.584 462.71C313.304 462.71 313.649 462.395 313.649 461.75V461.135C313.649 459.215 314.729 458.045 316.514 458.045C318.299 458.045 319.289 459.11 319.289 461.075C319.289 462.935 318.224 464 316.469 464C315.419 464 314.714 463.67 314.369 463.07C314.039 463.715 313.514 464 312.584 464H312.239C312.179 464 312.089 463.955 312.089 463.37C312.089 462.77 312.179 462.71 312.239 462.71H312.584ZM318.044 461.075C318.044 459.905 317.534 459.305 316.469 459.305C315.404 459.305 314.894 459.905 314.894 461.135C314.894 462.11 315.464 462.71 316.469 462.71C317.504 462.71 318.044 462.185 318.044 461.075ZM324.551 462.71C324.626 462.71 324.701 462.77 324.701 463.37C324.701 463.955 324.626 464 324.551 464H324.161C322.616 464 321.836 463.025 321.836 461.375V454.295H323.081V461.315C323.081 462.245 323.456 462.71 324.221 462.71H324.551ZM327.888 457.37H326.298V456.125H327.888V457.37ZM328.578 461.615C328.578 463.115 327.588 464 326.118 464H324.558C324.498 464 324.408 463.955 324.408 463.37C324.408 462.77 324.498 462.71 324.558 462.71H326.118C326.823 462.71 327.333 462.32 327.333 461.6V459.17H328.578V461.615ZM333.126 461.555C333.126 462.29 333.561 462.71 334.386 462.71H334.581C334.641 462.71 334.731 462.785 334.731 463.37C334.731 463.955 334.641 464 334.581 464H334.386C333.846 464 333.336 463.79 333.126 463.49V463.67C333.081 466.1 331.521 467.66 329.196 467.66H328.146L328.026 466.37H329.166C330.861 466.37 331.881 465.335 331.881 463.565V459.17H333.126V461.555ZM338.598 461.615C338.598 463.115 337.608 464 336.138 464H334.578C334.518 464 334.428 463.955 334.428 463.37C334.428 462.77 334.518 462.71 334.578 462.71H336.138C336.843 462.71 337.353 462.32 337.353 461.6V459.17H338.598V461.615ZM336.573 467.15H334.983V465.89H336.573V467.15Z" fill="white"/>
<path d="M84.6511 511.419C84.0695 509.735 83.7515 507.899 82.8106 506.493C77.3247 497.98 71.7828 489.475 65.9296 481.185C64.861 479.683 62.6347 478.46 60.783 478.268C58.0691 478.026 56.7983 480.316 56.1819 482.798C53.8924 491.961 51.4195 501.035 49.3615 510.221C48.4887 514.108 48.438 518.163 48.2116 522.186C48.0987 523.798 48.2332 525.547 48.735 527.072C49.0457 528.054 50.226 529.539 50.8407 529.452C51.9584 529.293 53.6434 528.312 53.9074 527.363C54.9559 523.508 55.4696 519.501 56.3982 515.606C57.0067 513.068 56.6416 510.099 59.2057 507.682C59.7784 510.508 60.2238 512.839 60.773 515.099C66.4488 537.381 78.138 555.845 96.8634 569.261C108.863 577.874 121.857 580.246 134.97 571.028C137.254 569.449 139.002 569.714 141.476 570.673C156.519 576.631 172.179 578.11 188.042 575.799C193.958 574.901 199.707 572.43 205.368 570.143C207.364 569.347 209.058 567.224 210.328 565.333C210.896 564.512 210.075 562.747 209.829 561.015C192.826 572.154 159.491 573.073 143.19 563.075C144.213 561.048 145.292 559.014 146.251 556.939C150.92 546.868 153.713 536.437 151.119 525.404C148.652 514.865 139.099 512.232 131.247 519.562C120.368 529.661 118.504 546.63 126.877 559.009C128.033 560.726 129.133 562.451 130.361 564.271C124.914 568.466 119.23 568.989 113.188 567.796C107.498 566.666 102.583 563.773 98.2348 560.058C80.4527 544.855 69.602 525.873 67.2877 502.371C67.1052 500.687 67.314 498.947 67.3475 496.775C73.6262 501.641 75.6559 509.904 82.7981 512.823C83.4131 512.337 84.0281 511.85 84.6511 511.419ZM136.528 557.922C130.759 554.637 127.571 547.85 128.63 540.459C129.721 532.892 132.408 526.125 141.694 522.068C146.466 535.985 142.331 547.006 136.528 557.922Z" fill="white"/>
</g>
<defs>
<clipPath id="clip0_175_415">
<rect width="360" height="640" fill="white"/>
</clipPath>
</defs>
</svg>
