<svg width="6" height="220" viewBox="0 0 6 220" fill="none" xmlns="http://www.w3.org/2000/svg">
<path id="Line 27" d="M2.98828 0.888753C1.51552 0.888753 0.321615 2.08266 0.321615 3.55542C0.321614 5.02818 1.51552 6.22209 2.98828 6.22209C4.46104 6.22209 5.65495 5.02818 5.65495 3.55542C5.65495 2.08266 4.46104 0.888753 2.98828 0.888753ZM2.98827 214.373C1.51551 214.373 0.3216 215.566 0.3216 217.039C0.3216 218.512 1.51551 219.706 2.98827 219.706C4.46103 219.706 5.65493 218.512 5.65493 217.039C5.65493 215.566 4.46103 214.373 2.98827 214.373ZM2.48828 3.55542L2.48827 217.039L3.48827 217.039L3.48828 3.55542L2.48828 3.55542Z" fill="black"/>
</svg>
