<svg width="102" height="109" viewBox="0 0 102 109" fill="none" xmlns="http://www.w3.org/2000/svg">
<g id="Layer_1" clip-path="url(#clip0_542_1286)">
<g id="Group">
<path id="Vector" d="M95.8549 32.5079C95.8189 31.3222 94.8321 30.0596 93.3557 29.7927C93.1167 29.749 92.9702 29.7272 92.8443 29.7221C92.3573 29.7003 19.5441 26.3999 17.7503 26.3191C16.3047 26.2536 15.3963 25.9957 14.6112 27.2596C14.1885 27.9385 14.0985 28.7405 14.1139 29.5065C14.1525 31.1644 14.2283 32.0601 14.2283 32.5195C14.2283 38.4761 11.9154 40.4573 8.39984 41.1451C5.49718 41.7136 2.45703 41.7149 2.45703 41.7149L9.91735 97.1297C9.91735 97.1297 85.136 108.482 86.3502 108.517C87.1302 108.539 88.7338 108.525 89.4919 108.246C91.4309 107.533 92.7543 106.31 93.4983 105.137C94.7743 103.124 95.5915 101.187 96.0245 99.0468C96.5282 96.5587 96.8006 93.9307 96.762 91.4015C96.762 91.4015 95.8536 32.5092 95.8536 32.5079H95.8549Z" fill="url(#paint0_linear_542_1286)"/>
<g id="Group_2">
<path id="Vector_2" d="M96.7608 91.4016C96.7993 93.9308 96.5269 96.5588 96.0232 99.0456C95.5902 101.186 94.773 103.124 93.4958 105.136C92.7531 106.308 91.4296 107.531 89.4893 108.244C88.7325 108.523 87.1289 108.537 86.3477 108.516C86.2513 108.512 85.6872 108.439 84.7312 108.304C73.6551 106.747 9.91606 97.1298 9.91606 97.1298L2.45703 41.7149C2.45703 41.7149 5.4959 41.7136 8.39856 41.1439C11.9128 40.4548 14.227 38.4761 14.227 32.5182C14.227 32.0576 14.1525 31.1632 14.1139 29.5053C14.0972 28.7405 14.1872 27.9385 14.6099 27.2584C15.3963 25.9945 16.3035 26.2524 17.7503 26.3178C19.5441 26.3987 92.3573 29.6978 92.843 29.7196C92.8957 29.7209 92.9548 29.7273 93.0203 29.7363C93.1103 29.7478 93.2182 29.7658 93.3544 29.7915C94.8308 30.0584 95.8176 31.3223 95.8523 32.5067L96.7608 91.4003V91.4016Z" fill="url(#paint1_linear_542_1286)"/>
</g>
<path id="Vector_3" d="M85.4068 29.0959C87.4293 23.5037 90.4887 17.3251 95.5655 13.8169C96.5909 13.1085 97.9991 12.2206 98.8883 11.4686C96.6153 11.3647 93.9426 11.4173 91.667 11.3942C86.1752 11.3377 63.2199 11.0991 57.2347 11.0375C53.349 10.9977 49.4634 10.9566 45.5778 10.9168C41.0407 10.8706 37.0587 15.5813 34.7998 19.0279C32.253 22.916 30.6302 27.3482 29.4377 31.8163C27.8213 37.873 24.3507 67.6085 23.8444 70.3481C22.9476 75.1973 20.4561 82.8824 14.2383 82.4872C16.7336 82.6668 63.6439 86.383 67.2983 86.6422C71.5617 86.945 74.3153 83.7562 75.9998 80.2275C78.0647 75.9018 79.9137 56.6911 80.5087 51.7187C81.1049 46.736 84.4958 31.6161 85.4081 29.0933L85.4068 29.0959Z" fill="url(#paint2_linear_542_1286)"/>
<g id="Group_3">
<path id="Vector_4" d="M85.4068 29.0959C87.4293 23.5037 90.4887 17.3251 95.5655 13.8169C96.5909 13.1085 97.9991 12.2206 98.8883 11.4686C96.6153 11.3647 93.9426 11.4173 91.667 11.3942C86.1752 11.3377 63.2199 11.0991 57.2347 11.0375C53.349 10.9977 49.4634 10.9566 45.5778 10.9168C41.0407 10.8706 37.0587 15.5813 34.7998 19.0279C32.253 22.916 30.6302 27.3482 29.4377 31.8163C27.8213 37.873 24.3507 67.6085 23.8444 70.3481C22.9476 75.1973 20.4561 82.8824 14.2383 82.4872C16.7336 82.6668 63.6439 86.383 67.2983 86.6422C71.5617 86.945 74.3153 83.7562 75.9998 80.2275C78.0647 75.9018 79.9137 56.6911 80.5087 51.7187C81.1049 46.736 84.4958 31.6161 85.4081 29.0933L85.4068 29.0959Z" fill="url(#paint3_linear_542_1286)"/>
</g>
<path id="Vector_5" d="M75.09 87.9215C76.7039 86.5241 78.0119 84.7431 78.9872 82.8747C80.3788 80.2108 81.2204 77.1863 81.7768 74.244C82.9846 67.8613 83.3637 61.3363 84.0614 54.8856C84.4302 51.4685 84.8465 48.0526 85.4003 44.6611C86.1199 40.2521 87.0746 35.8494 88.4212 31.5879C89.8012 27.2199 91.7569 22.4682 94.9782 19.1204C96.4045 17.6383 98.0209 16.5168 99.8609 15.8534C101.06 15.4209 101.357 14.1146 100.996 13.038C100.636 11.9666 99.523 11.1646 98.382 11.5739C96.3479 12.304 94.4848 13.6103 92.7925 15.3465C88.957 19.2808 86.4925 24.6394 84.7141 29.7671C83.135 34.3211 82.0569 39.1113 81.2782 43.8643C80.709 47.3392 80.2811 50.8423 79.9021 54.3429C79.3688 59.2678 78.9307 64.2055 78.3178 69.1214C77.8488 72.8812 77.2011 76.9887 75.4986 80.4136C74.8176 81.7827 73.5571 83.3033 72.0781 84.4518L75.0887 87.9228L75.09 87.9215Z" fill="url(#paint4_linear_542_1286)"/>
<path id="Vector_6" d="M77.5318 18.2836C79.5543 12.6915 82.6137 6.51287 87.6905 3.00461C88.7159 2.29629 90.1242 1.40831 91.0133 0.65636C88.7403 0.552421 86.0676 0.605032 83.792 0.581935C78.3002 0.525474 55.3449 0.286799 49.3597 0.225206C45.474 0.185427 41.5884 0.144364 37.7028 0.104585C33.1657 0.0583901 29.1837 4.76901 26.9248 8.21568C24.378 12.1038 22.7552 16.5359 21.5627 21.004C19.9463 27.0607 16.4757 56.7962 15.9694 59.5359C15.0725 64.3851 12.5811 72.0701 6.36328 71.6749C8.85862 71.8546 55.7689 75.5707 59.4233 75.8299C63.6867 76.1327 66.4403 72.944 68.1248 69.4152C70.1897 65.0895 72.0387 45.8788 72.6337 40.9064C73.2299 35.9238 76.6208 20.8038 77.5331 18.2811L77.5318 18.2836Z" fill="url(#paint5_radial_542_1286)"/>
<g id="Group_4">
<path id="Vector_7" d="M77.5318 18.2836C79.5543 12.6915 82.6137 6.51287 87.6905 3.00461C88.7159 2.29629 90.1242 1.40831 91.0133 0.65636C88.7403 0.552421 86.0676 0.605032 83.792 0.581935C78.3002 0.525474 55.3449 0.286799 49.3597 0.225206C45.474 0.185427 41.5884 0.144364 37.7028 0.104585C33.1657 0.0583901 29.1837 4.76901 26.9248 8.21568C24.378 12.1038 22.7552 16.5359 21.5627 21.004C19.9463 27.0607 16.4757 56.7962 15.9694 59.5359C15.0725 64.3851 12.5811 72.0701 6.36328 71.6749C8.85862 71.8546 55.7689 75.5707 59.4233 75.8299C63.6867 76.1327 66.4403 72.944 68.1248 69.4152C70.1897 65.0895 72.0387 45.8788 72.6337 40.9064C73.2299 35.9238 76.6208 20.8038 77.5331 18.2811L77.5318 18.2836Z" fill="url(#paint6_linear_542_1286)"/>
</g>
<path id="Vector_8" d="M67.2321 77.0952C68.8382 75.7003 70.1412 73.9244 71.1139 72.0625C72.5054 69.3986 73.3471 66.3741 73.9034 63.4317C75.1113 57.0491 75.4903 50.524 76.188 44.0734C76.5568 40.6562 76.9731 37.2404 77.5269 33.8489C78.2465 29.4398 79.2012 25.0372 80.5478 20.7757C81.9278 16.4077 83.8835 11.656 87.1048 8.30812C88.5311 6.82603 90.1476 5.70451 91.9876 5.0411C93.1864 4.60866 93.4832 3.30237 93.1222 2.22576C92.7624 1.1543 91.6496 0.352297 90.5086 0.761637C88.4759 1.49178 86.6114 2.79807 84.9192 4.53424C81.0836 8.46852 78.6191 13.8271 76.8408 18.9548C75.2616 23.5089 74.1836 28.299 73.4049 33.052C72.8357 36.5269 72.4078 40.03 72.0287 43.5306C71.4955 48.4555 71.0573 53.3932 70.4444 58.3092C69.9754 62.0689 69.3278 66.1765 67.6253 69.6013C66.9635 70.932 65.7531 72.4051 64.3281 73.542L67.2321 77.0952Z" fill="url(#paint7_linear_542_1286)"/>
<path id="Vector_9" d="M80.2854 60.923L38.8219 58.775C37.1874 58.6916 35.7483 57.7792 35.1071 56.4216L29.8428 45.2744C29.2016 43.9168 27.7612 43.0045 26.128 42.9211C26.128 42.9211 2.42875 41.7123 2.41718 41.711C1.62824 41.6751 1.14639 42.4001 0.87655 42.9647C0.563027 43.6204 0.448668 44.348 0.466657 45.0589C0.466657 45.0627 0.466657 45.0666 0.466657 45.0704L1.57427 90.4443C1.63723 93.0081 2.06768 95.5989 3.15216 97.9818C3.63144 99.0353 4.24179 100.057 5.06029 100.929C5.99443 101.925 7.34747 102.778 8.83927 102.886C9.58196 102.94 10.3247 102.994 11.0673 103.048C13.0783 103.194 15.0879 103.34 17.0988 103.485C20.0554 103.7 23.0108 103.915 25.9674 104.13C29.5472 104.39 33.1271 104.649 36.7069 104.91C40.5874 105.192 44.4679 105.473 48.3497 105.755C52.2096 106.035 56.0695 106.316 59.9282 106.596C63.445 106.851 66.9606 107.107 70.4775 107.362C73.3287 107.569 76.1787 107.776 79.03 107.983C80.8931 108.118 82.7563 108.254 84.6194 108.388C85.1976 108.431 86.3528 108.514 86.3528 108.514L80.2879 60.9205L80.2854 60.923Z" fill="url(#paint8_linear_542_1286)"/>
<g id="Group_5">
<path id="Vector_10" d="M86.2274 108.507C86.2274 108.507 85.1544 108.428 84.6186 108.391C82.7555 108.254 80.8936 108.119 79.0305 107.984C76.1792 107.778 73.3292 107.57 70.478 107.363C66.9611 107.108 63.4442 106.851 59.9287 106.596C56.07 106.316 52.2101 106.035 48.3489 105.755C44.4684 105.474 40.5879 105.191 36.7074 104.91C33.1263 104.649 29.5477 104.389 25.9679 104.13C23.0126 103.914 20.0559 103.701 17.1006 103.485C15.0897 103.339 13.0788 103.193 11.0678 103.047C10.3251 102.994 9.58245 102.939 8.84105 102.884C7.34924 102.777 5.99749 101.925 5.06335 100.928C4.24356 100.057 3.63322 99.0339 3.15394 97.9804C2.07074 95.5975 1.64029 93.0055 1.57604 90.4442L0.467145 45.0717V45.0601C0.446586 44.3492 0.56223 43.6229 0.877038 42.9659C1.14816 42.4013 1.62744 41.6763 2.41639 41.7135C2.42795 41.7135 21.2265 42.6721 25.3396 42.8825C25.8446 42.9082 26.1272 42.9223 26.1272 42.9223C27.7617 43.0057 29.2008 43.9181 29.8433 45.2744L35.1076 56.4215C35.7475 57.7779 37.1892 58.6915 38.8211 58.7736L38.9252 58.7788L80.3347 60.9256L86.2261 108.507H86.2274Z" fill="url(#paint9_linear_542_1286)"/>
</g>
<path id="Vector_11" d="M96.7628 91.4014C96.8014 93.9306 96.529 96.5586 96.0253 99.0454C95.5922 101.186 94.775 103.123 93.4978 105.135C92.7551 106.308 91.4316 107.531 89.4914 108.243C88.7346 108.523 87.131 108.537 86.3497 108.515C86.2534 108.512 85.7908 108.546 84.8862 108.206C84.4018 108.024 83.8749 107.629 83.3096 107.105C81.6404 105.559 80.7898 103.46 80.2386 101.399C79.7516 99.5818 79.492 97.6429 79.492 95.772L78.7018 64.3632C78.6851 63.3969 78.7005 60.8074 80.3324 60.9242C82.0092 61.0448 85.1406 61.766 88.2399 59.4216C91.4034 57.0258 91.6668 45.1794 91.6334 42.8812L91.4792 33.1853C91.465 32.2088 91.6526 29.7964 93.0172 29.7361C93.1072 29.7476 93.2151 29.7656 93.3513 29.7913C94.8277 30.0582 95.8145 31.3221 95.8492 32.5065L96.7577 91.4001L96.7628 91.4014Z" fill="url(#paint10_linear_542_1286)"/>
<g id="Group_6">
<path id="Vector_12" d="M96.7628 91.4014C96.8014 93.9306 96.529 96.5586 96.0253 99.0454C95.5922 101.186 94.775 103.123 93.4978 105.135C92.7551 106.308 91.4316 107.531 89.4914 108.243C88.7346 108.523 87.131 108.537 86.3497 108.515C86.2534 108.512 85.7908 108.546 84.8862 108.206C84.4018 108.024 83.8749 107.629 83.3096 107.105C81.6404 105.559 80.7898 103.46 80.2386 101.399C79.7516 99.5818 79.492 97.6429 79.492 95.772L78.7018 64.3632C78.6851 63.3969 78.7005 60.8074 80.3324 60.9242C82.0092 61.0448 85.1406 61.766 88.2399 59.4216C91.4034 57.0258 91.6668 45.1794 91.6334 42.8812L91.4792 33.1853C91.465 32.2088 91.6526 29.7964 93.0172 29.7361C93.1072 29.7476 93.2151 29.7656 93.3513 29.7913C94.8277 30.0582 95.8145 31.3221 95.8492 32.5065L96.7577 91.4001L96.7628 91.4014Z" fill="url(#paint11_radial_542_1286)"/>
</g>
<g id="Group_7">
<path id="Vector_13" d="M36.8567 58.7057C35.0385 58.6249 32.4545 57.8935 31.6026 56.0944L25.3398 42.8813C25.8448 42.907 26.1275 42.9211 26.1275 42.9211C27.7619 43.0045 29.2011 43.9169 29.8435 45.2732L35.1079 56.4204C35.7478 57.7767 37.1895 58.6903 38.8214 58.7725C38.8214 58.7725 37.9926 58.7545 36.8554 58.7045L36.8567 58.7057Z" fill="url(#paint12_linear_542_1286)"/>
</g>
</g>
<path id="Vector_14" opacity="0.5" d="M40.7589 13.8872C40.7512 13.8782 40.7422 13.8705 40.7345 13.8615C38.7339 11.7751 33.6969 12.3076 32.173 15.0947C31.7785 15.8146 31.6475 16.5999 31.6282 17.3685C31.623 17.5469 31.7066 17.9075 31.5704 18.064C31.4611 18.1898 31.2337 18.1372 31.0988 18.1769C30.3471 18.4015 30.2841 19.3703 30.3368 19.967C30.4011 20.6561 30.6092 21.367 30.987 21.8944C31.1309 22.0945 31.4676 22.432 31.7734 22.1856C31.8273 22.142 31.9237 21.9662 32.0111 22.0317C32.146 22.1317 32.1704 22.3768 32.2295 22.5347C32.421 23.0377 32.7024 23.4971 33.0879 23.8564C33.2318 23.9898 33.2086 24.2413 33.0378 24.3889C32.561 24.7995 31.8839 25.2923 31.0088 25.7029C30.1325 26.1097 29.3461 26.3047 28.7564 26.4022C28.579 26.4317 28.4248 26.5793 28.3927 26.7538C28.182 27.901 27.8595 29.4781 27.5832 31.0949C27.4085 32.1279 28.191 32.7887 29.0725 32.8157C32.678 32.9247 36.2668 33.0325 39.8697 33.1416C40.7512 33.1685 41.7059 32.559 41.81 31.5248C41.9719 29.9054 42.0772 28.3206 42.1762 27.1709C42.1916 26.9963 42.0785 26.8411 41.9102 26.8013C41.3513 26.6691 40.624 26.4279 39.8646 25.9711C39.1078 25.5104 38.5694 24.9817 38.207 24.5454C38.0773 24.3876 38.1209 24.1374 38.3008 24.0142C38.8225 23.6536 39.2761 23.1596 39.5922 22.636C39.6654 22.5154 39.7387 22.2896 39.9031 22.2524C40.0869 22.2113 40.191 22.568 40.43 22.5129C40.8309 22.4205 41.1135 22.0265 41.3294 21.725C41.6288 21.3067 41.8729 20.8614 42.0515 20.3943C42.2751 19.8066 42.5257 18.6556 41.7419 18.4695C41.6211 18.4413 41.4631 18.499 41.3667 18.3964C41.2292 18.2501 41.3808 17.9857 41.4335 17.8189C41.8742 16.4138 41.7303 14.951 40.7576 13.8898L40.7589 13.8872Z" fill="#9EC9D8"/>
<path id="Vector_15" d="M40.3722 13.4626C40.3645 13.4537 40.3555 13.446 40.3478 13.437C38.3471 11.3505 33.3102 11.883 31.7863 14.6701C31.3918 15.39 31.2607 16.1753 31.2415 16.944C31.2363 17.1223 31.3198 17.4829 31.1836 17.6407C31.0744 17.7665 30.847 17.7139 30.7121 17.7537C29.9604 17.9782 29.8974 18.947 29.9501 19.5437C30.0144 20.2328 30.2225 20.9437 30.6003 21.4711C30.7442 21.6713 31.0808 22.0087 31.3867 21.7624C31.4406 21.7187 31.537 21.5429 31.6244 21.6084C31.7593 21.7085 31.7837 21.9536 31.8428 22.1114C32.0343 22.6144 32.3157 23.0738 32.7011 23.4331C32.8451 23.5665 32.8219 23.818 32.651 23.9656C32.1743 24.3762 31.4972 24.869 30.6221 25.2796C29.7458 25.6864 28.9594 25.8814 28.3696 25.979C28.1923 26.0085 28.0381 26.156 28.006 26.3305C27.7953 27.4777 27.4728 29.0548 27.1965 30.6716C27.0217 31.7046 27.8043 32.3654 28.6857 32.3924C32.2913 32.5014 35.8801 32.6092 39.483 32.7183C40.3645 32.7453 41.3192 32.1357 41.4233 31.1015C41.5852 29.4821 41.6905 27.8973 41.7895 26.7476C41.8049 26.5731 41.6918 26.4178 41.5235 26.378C40.9645 26.2459 40.2373 26.0046 39.4779 25.5478C38.7211 25.0871 38.1827 24.5585 37.8203 24.1222C37.6905 23.9643 37.7342 23.7141 37.9141 23.5909C38.4358 23.2303 38.8894 22.7363 39.2055 22.2128C39.2787 22.0921 39.352 21.8663 39.5164 21.8291C39.7002 21.788 39.8042 22.1448 40.0432 22.0896C40.4441 21.9972 40.7268 21.6032 40.9427 21.3017C41.2421 20.8834 41.4862 20.4381 41.6648 19.971C41.8884 19.3833 42.139 18.2323 41.3552 18.0462C41.2344 18.018 41.0763 18.0757 40.98 17.9731C40.8425 17.8268 40.9941 17.5625 41.0468 17.3956C41.4875 15.9905 41.3436 14.5277 40.3709 13.4665L40.3722 13.4626Z" fill="url(#paint13_linear_542_1286)"/>
<g id="Group_8">
<path id="Vector_16" d="M40.3722 13.4626C40.3645 13.4537 40.3555 13.446 40.3478 13.437C38.3471 11.3505 33.3102 11.883 31.7863 14.6701C31.3918 15.39 31.2607 16.1753 31.2415 16.944C31.2363 17.1223 31.3198 17.4829 31.1836 17.6407C31.0744 17.7665 30.847 17.7139 30.7121 17.7537C29.9604 17.9782 29.8974 18.947 29.9501 19.5437C30.0144 20.2328 30.2225 20.9437 30.6003 21.4711C30.7442 21.6713 31.0808 22.0087 31.3867 21.7624C31.4406 21.7187 31.537 21.5429 31.6244 21.6084C31.7593 21.7085 31.7837 21.9536 31.8428 22.1114C32.0343 22.6144 32.3157 23.0738 32.7011 23.4331C32.8451 23.5665 32.8219 23.818 32.651 23.9656C32.1743 24.3762 31.4972 24.869 30.6221 25.2796C29.7458 25.6864 28.9594 25.8814 28.3696 25.979C28.1923 26.0085 28.0381 26.156 28.006 26.3305C27.7953 27.4777 27.4728 29.0548 27.1965 30.6716C27.0217 31.7046 27.8043 32.3654 28.6857 32.3924C32.2913 32.5014 35.8801 32.6092 39.483 32.7183C40.3645 32.7453 41.3192 32.1357 41.4233 31.1015C41.5852 29.4821 41.6905 27.8973 41.7895 26.7476C41.8049 26.5731 41.6918 26.4178 41.5235 26.378C40.9645 26.2459 40.2373 26.0046 39.4779 25.5478C38.7211 25.0871 38.1827 24.5585 37.8203 24.1222C37.6905 23.9643 37.7342 23.7141 37.9141 23.5909C38.4358 23.2303 38.8894 22.7363 39.2055 22.2128C39.2787 22.0921 39.352 21.8663 39.5164 21.8291C39.7002 21.788 39.8042 22.1448 40.0432 22.0896C40.4441 21.9972 40.7268 21.6032 40.9427 21.3017C41.2421 20.8834 41.4862 20.4381 41.6648 19.971C41.8884 19.3833 42.139 18.2323 41.3552 18.0462C41.2344 18.018 41.0763 18.0757 40.98 17.9731C40.8425 17.8268 40.9941 17.5625 41.0468 17.3956C41.4875 15.9905 41.3436 14.5277 40.3709 13.4665L40.3722 13.4626Z" fill="url(#paint14_radial_542_1286)"/>
</g>
<path id="Vector_17" opacity="0.5" d="M63.7617 20.1186L53.364 19.8042C52.3952 19.7747 51.7103 19.0176 51.835 18.1142C51.9583 17.2095 52.8436 16.4999 53.8125 16.5295L64.2101 16.8438C65.179 16.8733 65.8638 17.6304 65.7392 18.5338C65.6158 19.4385 64.7305 20.1481 63.7617 20.1186Z" fill="#729EB1"/>
<path id="Vector_18" opacity="0.5" d="M68.9117 25.3513L46.825 24.6841C45.8561 24.6545 45.1713 23.8975 45.2959 22.9941C45.4192 22.0894 46.3046 21.3798 47.2734 21.4093L69.3601 22.0766C70.3289 22.1061 71.0138 22.8632 70.8892 23.7666C70.7658 24.6712 69.8805 25.3808 68.9117 25.3513Z" fill="#729EB1"/>
<path id="Vector_19" opacity="0.5" d="M65.0311 36.8771L46.5525 36.3189C45.7944 36.2958 45.2586 35.703 45.355 34.9959C45.4513 34.2876 46.1452 33.732 46.9033 33.7551L65.3819 34.3133C66.14 34.3364 66.6758 34.9292 66.5795 35.6363C66.4831 36.3446 65.7892 36.9002 65.0311 36.8771Z" fill="#9EC9D8"/>
<path id="Vector_20" opacity="0.5" d="M64.4647 41.8688L45.9861 41.3106C45.228 41.2875 44.6922 40.6947 44.7886 39.9876C44.8849 39.2793 45.5788 38.7237 46.3369 38.7468L64.8155 39.305C65.5736 39.3281 66.1094 39.9209 66.0131 40.628C65.9167 41.3363 65.2228 41.8919 64.4647 41.8688Z" fill="#9EC9D8"/>
<path id="Vector_21" opacity="0.5" d="M63.9764 46.7487L45.4978 46.1905C44.7397 46.1674 44.2039 45.5746 44.3003 44.8675C44.3966 44.1592 45.0905 43.6036 45.8486 43.6267L64.3272 44.1849C65.0853 44.208 65.6211 44.8008 65.5248 45.5078C65.4284 46.2162 64.7345 46.7718 63.9764 46.7487Z" fill="#9EC9D8"/>
<path id="Vector_22" d="M63.4726 19.8002L53.075 19.4858C52.1061 19.4563 51.4213 18.6992 51.5459 17.7958C51.6692 16.8912 52.5546 16.1816 53.5234 16.2111L63.9211 16.5255C64.8899 16.555 65.5748 17.3121 65.4501 18.2154C65.3268 19.1201 64.4415 19.8297 63.4726 19.8002Z" fill="url(#paint15_linear_542_1286)"/>
<path id="Vector_23" d="M68.6265 25.032L46.5398 24.3647C45.571 24.3352 44.8861 23.5781 45.0107 22.6747C45.1341 21.7701 46.0194 21.0605 46.9882 21.09L69.0749 21.7573C70.0438 21.7868 70.7286 22.5439 70.604 23.4472C70.4807 24.3519 69.5953 25.0615 68.6265 25.032Z" fill="url(#paint16_linear_542_1286)"/>
<path id="Vector_24" opacity="0.5" d="M67.9429 30.9885L45.8562 30.3213C44.8874 30.2917 44.2025 29.5347 44.3271 28.6313C44.4505 27.7266 45.3358 27.017 46.3047 27.0465L68.3914 27.7138C69.3602 27.7433 70.0451 28.5004 69.9204 29.4038C69.7971 30.3084 68.9117 31.018 67.9429 30.9885Z" fill="#729EB1"/>
<path id="Vector_25" d="M67.6538 30.6702L45.5671 30.0029C44.5983 29.9734 43.9134 29.2163 44.0381 28.3129C44.1614 27.4083 45.0468 26.6987 46.0156 26.7282L68.1023 27.3954C69.0711 27.425 69.756 28.182 69.6314 29.0854C69.508 29.9901 68.6227 30.6997 67.6538 30.6702Z" fill="url(#paint17_linear_542_1286)"/>
<path id="Vector_26" d="M64.6835 36.4921L46.2049 35.9339C45.4467 35.9108 44.9109 35.318 45.0073 34.6109C45.1037 33.9026 45.7975 33.347 46.5556 33.3701L65.0343 33.9283C65.7924 33.9514 66.3282 34.5442 66.2318 35.2512C66.1354 35.9596 65.4416 36.5152 64.6835 36.4921Z" fill="url(#paint18_linear_542_1286)"/>
<path id="Vector_27" d="M64.121 41.4838L45.6424 40.9256C44.8842 40.9025 44.3484 40.3097 44.4448 39.6026C44.5412 38.8943 45.235 38.3387 45.9931 38.3618L64.4718 38.92C65.2299 38.9431 65.7657 39.5359 65.6693 40.2429C65.5729 40.9513 64.8791 41.5069 64.121 41.4838Z" fill="url(#paint19_linear_542_1286)"/>
<path id="Vector_28" d="M63.6288 46.3637L45.1502 45.8055C44.3921 45.7824 43.8562 45.1896 43.9526 44.4825C44.049 43.7742 44.7428 43.2186 45.501 43.2417L63.9796 43.7998C64.7377 43.8229 65.2735 44.4158 65.1771 45.1228C65.0807 45.8312 64.3869 46.3868 63.6288 46.3637Z" fill="url(#paint20_linear_542_1286)"/>
<path id="Vector_29" opacity="0.5" d="M63.8007 51.5619L45.322 51.0037C44.5639 50.9806 44.0281 50.3878 44.1245 49.6808C44.2209 48.9724 44.9147 48.4168 45.6728 48.4399L64.1514 48.9981C64.9095 49.0212 65.4454 49.614 65.349 50.3211C65.2526 51.0294 64.5588 51.585 63.8007 51.5619Z" fill="#9EC9D8"/>
<path id="Vector_30" d="M63.453 51.1769L44.9744 50.6187C44.2163 50.5956 43.6805 50.0028 43.7768 49.2957C43.8732 48.5874 44.5671 48.0318 45.3252 48.0549L63.8038 48.6131C64.5619 48.6362 65.0977 49.229 65.0013 49.9361C64.905 50.6444 64.2111 51.2 63.453 51.1769Z" fill="url(#paint21_linear_542_1286)"/>
</g>
<defs>
<linearGradient id="paint0_linear_542_1286" x1="2.4596" y1="67.3878" x2="96.7672" y2="67.3878" gradientUnits="userSpaceOnUse">
<stop stop-color="#5A87F6"/>
<stop offset="0.06" stop-color="#456BF8"/>
<stop offset="0.13" stop-color="#3453FA"/>
<stop offset="0.16" stop-color="#395BF9"/>
<stop offset="0.29" stop-color="#4A75F7"/>
<stop offset="0.42" stop-color="#5788F6"/>
<stop offset="0.56" stop-color="#5E94F5"/>
<stop offset="0.7" stop-color="#6198F5"/>
<stop offset="0.81" stop-color="#5F95F5"/>
<stop offset="0.88" stop-color="#5A8BF6"/>
<stop offset="0.95" stop-color="#517BF8"/>
<stop offset="1" stop-color="#496CFB"/>
</linearGradient>
<linearGradient id="paint1_linear_542_1286" x1="51.3397" y1="27.4535" x2="50.312" y2="51.1106" gradientUnits="userSpaceOnUse">
<stop offset="0.02" stop-color="#83BCFA"/>
<stop offset="0.2" stop-color="#83BCFA"/>
</linearGradient>
<linearGradient id="paint2_linear_542_1286" x1="50.4849" y1="46.9785" x2="82.5783" y2="49.0295" gradientUnits="userSpaceOnUse">
<stop offset="0.69" stop-color="#729EB1"/>
<stop offset="0.84" stop-color="#91BCCC"/>
<stop offset="1" stop-color="#B7DFED"/>
</linearGradient>
<linearGradient id="paint3_linear_542_1286" x1="59.3328" y1="8.61914" x2="53.7901" y2="85.6703" gradientUnits="userSpaceOnUse">
<stop offset="0.03" stop-color="#CFEBFE"/>
<stop offset="0.2" stop-color="#B4D8E9"/>
<stop offset="0.37" stop-color="#9EC9D8"/>
<stop offset="0.54" stop-color="#94BECC"/>
<stop offset="0.67" stop-color="#8AB3C1"/>
</linearGradient>
<linearGradient id="paint4_linear_542_1286" x1="113.666" y1="16.4886" x2="57.4688" y2="83.2951" gradientUnits="userSpaceOnUse">
<stop stop-color="#F3F8FB"/>
<stop offset="0.03" stop-color="#E6F3FC"/>
<stop offset="0.09" stop-color="#D8EEFD"/>
<stop offset="0.16" stop-color="#D1EBFD"/>
<stop offset="0.3" stop-color="#CFEBFE"/>
<stop offset="0.45" stop-color="#BBDBEC"/>
<stop offset="0.76" stop-color="#8AB3C1"/>
</linearGradient>
<radialGradient id="paint5_radial_542_1286" cx="0" cy="0" r="1" gradientUnits="userSpaceOnUse" gradientTransform="translate(-114.769 21.6429) rotate(4.11446) scale(213.936 213.65)">
<stop offset="0.63" stop-color="#C0E3EF"/>
<stop offset="0.65" stop-color="#D7ECF4"/>
<stop offset="0.67" stop-color="#E6F2F8"/>
<stop offset="0.7" stop-color="#F0F6FA"/>
<stop offset="0.73" stop-color="#F3F8FB"/>
<stop offset="0.82" stop-color="#F3F8FB"/>
<stop offset="0.85" stop-color="#EAF4F8"/>
<stop offset="0.88" stop-color="#D1EAF3"/>
<stop offset="0.92" stop-color="#B7DFED"/>
<stop offset="0.95" stop-color="#B1D9E8"/>
<stop offset="0.99" stop-color="#A0CBD9"/>
<stop offset="1" stop-color="#9EC9D8"/>
</radialGradient>
<linearGradient id="paint6_linear_542_1286" x1="51.4585" y1="-2.19322" x2="45.9158" y2="74.858" gradientUnits="userSpaceOnUse">
<stop stop-color="#B7DFED"/>
<stop offset="0.21" stop-color="#F3F8FB"/>
<stop offset="0.82" stop-color="#9EC9D8"/>
<stop offset="0.93" stop-color="#91BBC9"/>
<stop offset="0.99" stop-color="#8AB3C1"/>
</linearGradient>
<linearGradient id="paint7_linear_542_1286" x1="105.789" y1="5.67745" x2="49.6089" y2="72.4658" gradientUnits="userSpaceOnUse">
<stop stop-color="#F3F8FB"/>
<stop offset="0.03" stop-color="#E6F3FC"/>
<stop offset="0.09" stop-color="#D8EEFD"/>
<stop offset="0.16" stop-color="#D1EBFD"/>
<stop offset="0.3" stop-color="#CFEBFE"/>
<stop offset="0.45" stop-color="#BBDBEC"/>
<stop offset="0.76" stop-color="#8AB3C1"/>
</linearGradient>
<linearGradient id="paint8_linear_542_1286" x1="0.464087" y1="75.1139" x2="86.3502" y2="75.1139" gradientUnits="userSpaceOnUse">
<stop stop-color="#6198F5"/>
<stop offset="0.05" stop-color="#72AAF7"/>
<stop offset="0.1" stop-color="#7EB7F9"/>
<stop offset="0.14" stop-color="#83BCFA"/>
<stop offset="0.32" stop-color="#6EA5F6"/>
<stop offset="0.47" stop-color="#6198F5"/>
<stop offset="0.63" stop-color="#5D90F5"/>
<stop offset="0.75" stop-color="#5A87F6"/>
</linearGradient>
<linearGradient id="paint9_linear_542_1286" x1="46.1927" y1="37.6484" x2="41.0002" y2="108.898" gradientUnits="userSpaceOnUse">
<stop offset="0.11" stop-color="#83BCFA"/>
<stop offset="0.13" stop-color="#74ACF7"/>
<stop offset="0.16" stop-color="#69A0F6"/>
<stop offset="0.2" stop-color="#6299F5"/>
<stop offset="0.32" stop-color="#6198F5"/>
<stop offset="0.42" stop-color="#5C8FF6"/>
<stop offset="0.82" stop-color="#4C6FFA"/>
<stop offset="0.92" stop-color="#496CFB"/>
<stop offset="1" stop-color="#496CFB"/>
</linearGradient>
<linearGradient id="paint10_linear_542_1286" x1="75.4407" y1="69.3201" x2="97.8447" y2="69.0281" gradientUnits="userSpaceOnUse">
<stop offset="0.15" stop-color="#5A87F6"/>
<stop offset="0.54" stop-color="#496CFB"/>
<stop offset="0.66" stop-color="#4B70FA"/>
<stop offset="0.8" stop-color="#537EF8"/>
<stop offset="0.94" stop-color="#5F96F5"/>
<stop offset="0.95" stop-color="#6198F5"/>
</linearGradient>
<radialGradient id="paint11_radial_542_1286" cx="0" cy="0" r="1" gradientUnits="userSpaceOnUse" gradientTransform="translate(82.7314 30.4226) scale(78.2421 78.1364)">
<stop offset="0.02" stop-color="#6198F5"/>
<stop offset="0.4" stop-color="#6198F5"/>
<stop offset="0.65" stop-color="#6198F5"/>
<stop offset="0.87" stop-color="#4C6FFA"/>
<stop offset="0.99" stop-color="#4C6FFA"/>
<stop offset="1" stop-color="#4C6FFA"/>
</radialGradient>
<linearGradient id="paint12_linear_542_1286" x1="35.212" y1="49.3512" x2="29.0525" y2="52.2628" gradientUnits="userSpaceOnUse">
<stop offset="0.31" stop-color="#496CFB"/>
<stop offset="0.87" stop-color="#496CFB"/>
</linearGradient>
<linearGradient id="paint13_linear_542_1286" x1="32.3487" y1="13.8738" x2="41.0941" y2="33.8382" gradientUnits="userSpaceOnUse">
<stop offset="0.01" stop-color="#3EC7CF"/>
<stop offset="0.51" stop-color="#27A0A9"/>
<stop offset="0.7" stop-color="#2298A2"/>
<stop offset="0.99" stop-color="#15848E"/>
<stop offset="1" stop-color="#15838E"/>
</linearGradient>
<radialGradient id="paint14_radial_542_1286" cx="0" cy="0" r="1" gradientUnits="userSpaceOnUse" gradientTransform="translate(34.1968 15.5928) scale(15.6775 15.6563)">
<stop stop-color="#64D0D6"/>
<stop offset="1" stop-color="#64D0D6"/>
</radialGradient>
<linearGradient id="paint15_linear_542_1286" x1="63.935" y1="15.005" x2="63.7131" y2="20.7109" gradientUnits="userSpaceOnUse">
<stop stop-color="#9A6CF0"/>
<stop offset="0.05" stop-color="#AE77F5"/>
<stop offset="0.12" stop-color="#C081FA"/>
<stop offset="0.2" stop-color="#CB87FD"/>
<stop offset="0.28" stop-color="#CF8AFF"/>
<stop offset="0.37" stop-color="#BF7FF1"/>
<stop offset="0.57" stop-color="#9764CF"/>
<stop offset="0.76" stop-color="#6945A8"/>
<stop offset="0.82" stop-color="#6B47AC"/>
<stop offset="0.87" stop-color="#744DB8"/>
<stop offset="0.93" stop-color="#8259CD"/>
<stop offset="0.99" stop-color="#9568E9"/>
<stop offset="1" stop-color="#9A6CF0"/>
</linearGradient>
<linearGradient id="paint16_linear_542_1286" x1="64.3657" y1="20.0146" x2="64.1373" y2="25.8892" gradientUnits="userSpaceOnUse">
<stop stop-color="#9A6CF0"/>
<stop offset="0.05" stop-color="#AE77F5"/>
<stop offset="0.12" stop-color="#C081FA"/>
<stop offset="0.2" stop-color="#CB87FD"/>
<stop offset="0.28" stop-color="#CF8AFF"/>
<stop offset="0.37" stop-color="#BF7FF1"/>
<stop offset="0.57" stop-color="#9764CF"/>
<stop offset="0.76" stop-color="#6945A8"/>
<stop offset="0.82" stop-color="#6B47AC"/>
<stop offset="0.87" stop-color="#744DB8"/>
<stop offset="0.93" stop-color="#8259CD"/>
<stop offset="0.99" stop-color="#9568E9"/>
<stop offset="1" stop-color="#9A6CF0"/>
</linearGradient>
<linearGradient id="paint17_linear_542_1286" x1="64.6421" y1="25.706" x2="64.4136" y2="31.5818" gradientUnits="userSpaceOnUse">
<stop stop-color="#9A6CF0"/>
<stop offset="0.05" stop-color="#AE77F5"/>
<stop offset="0.12" stop-color="#C081FA"/>
<stop offset="0.2" stop-color="#CB87FD"/>
<stop offset="0.28" stop-color="#CF8AFF"/>
<stop offset="0.37" stop-color="#BF7FF1"/>
<stop offset="0.57" stop-color="#9764CF"/>
<stop offset="0.76" stop-color="#6945A8"/>
<stop offset="0.82" stop-color="#6B47AC"/>
<stop offset="0.87" stop-color="#744DB8"/>
<stop offset="0.93" stop-color="#8259CD"/>
<stop offset="0.99" stop-color="#9568E9"/>
<stop offset="1" stop-color="#9A6CF0"/>
</linearGradient>
<linearGradient id="paint18_linear_542_1286" x1="55.6787" y1="33.4176" x2="55.5646" y2="36.3214" gradientUnits="userSpaceOnUse">
<stop stop-color="#9EC9D8"/>
<stop offset="0.08" stop-color="#AAD3E2"/>
<stop offset="0.19" stop-color="#B3DCEA"/>
<stop offset="0.33" stop-color="#B7DFED"/>
<stop offset="0.49" stop-color="#ABD4E3"/>
<stop offset="0.78" stop-color="#8DB7C8"/>
<stop offset="1" stop-color="#729EB1"/>
</linearGradient>
<linearGradient id="paint19_linear_542_1286" x1="55.0982" y1="38.4452" x2="55.0187" y2="41.2438" gradientUnits="userSpaceOnUse">
<stop stop-color="#9EC9D8"/>
<stop offset="0.08" stop-color="#AAD3E2"/>
<stop offset="0.19" stop-color="#B3DCEA"/>
<stop offset="0.33" stop-color="#B7DFED"/>
<stop offset="0.49" stop-color="#ABD4E3"/>
<stop offset="0.78" stop-color="#8DB7C8"/>
<stop offset="1" stop-color="#729EB1"/>
</linearGradient>
<linearGradient id="paint20_linear_542_1286" x1="54.6214" y1="43.2763" x2="54.5061" y2="46.4112" gradientUnits="userSpaceOnUse">
<stop stop-color="#9EC9D8"/>
<stop offset="0.08" stop-color="#AAD3E2"/>
<stop offset="0.19" stop-color="#B3DCEA"/>
<stop offset="0.33" stop-color="#B7DFED"/>
<stop offset="0.49" stop-color="#ABD4E3"/>
<stop offset="0.78" stop-color="#8DB7C8"/>
<stop offset="1" stop-color="#729EB1"/>
</linearGradient>
<linearGradient id="paint21_linear_542_1286" x1="54.4443" y1="48.0908" x2="54.3303" y2="51.2244" gradientUnits="userSpaceOnUse">
<stop stop-color="#9EC9D8"/>
<stop offset="0.08" stop-color="#AAD3E2"/>
<stop offset="0.19" stop-color="#B3DCEA"/>
<stop offset="0.33" stop-color="#B7DFED"/>
<stop offset="0.49" stop-color="#ABD4E3"/>
<stop offset="0.78" stop-color="#8DB7C8"/>
<stop offset="1" stop-color="#729EB1"/>
</linearGradient>
<clipPath id="clip0_542_1286">
<rect width="100.674" height="108.419" fill="white" transform="translate(0.464844 0.104492)"/>
</clipPath>
</defs>
</svg>
